<svg width="101" height="101" viewBox="0 0 101 101" fill="none" xmlns="http://www.w3.org/2000/svg">
<path d="M64.1727 60.176H36.3311C35.6414 60.176 35.0825 59.5274 35.0825 58.728V36.561C35.0825 27.0974 41.8873 19.3983 50.2519 19.3983C58.6165 19.3983 65.4216 27.0974 65.4216 36.561V58.728C65.4216 59.5274 64.8623 60.176 64.1727 60.176V60.176Z" fill="#96433C"/>
<path d="M50.3433 19.3998V60.176H64.1727C64.8623 60.176 65.4216 59.5274 65.4216 58.728V36.5609C65.4216 27.1321 58.6659 19.4556 50.3433 19.3998V19.3998Z" fill="#472222"/>
<path d="M44.2953 61.627V48.7802H56.3388L56.3826 61.6718L44.2953 61.627Z" fill="#FFE2C3"/>
<path d="M50.3387 61.6492L56.3826 61.6718L56.3395 48.7802H50.3387V61.6492Z" fill="#FED2A4"/>
<path d="M64.0048 43.6538C63.2171 43.6538 62.5787 43.0056 62.5787 42.2058V36.4853C62.5787 28.6719 57.0511 22.3149 50.2564 22.3149C43.462 22.3149 37.9343 28.6719 37.9343 36.4853V42.2058C37.9343 43.0056 37.2959 43.6538 36.5083 43.6538C35.7206 43.6538 35.0822 43.0056 35.0822 42.2058V36.4853C35.0822 27.0749 41.8892 19.4188 50.2564 19.4188C58.6235 19.4188 65.4309 27.0749 65.4309 36.4853V42.2058C65.4309 43.0056 64.7925 43.6538 64.0048 43.6538Z" fill="#7E9BCC"/>
<path d="M50.2563 19.4188V22.3149C57.0511 22.3149 62.5787 28.6719 62.5787 36.4853V42.2058C62.5787 43.0056 63.2171 43.6538 64.0048 43.6538C64.7925 43.6538 65.4309 43.0056 65.4309 42.2058V36.4853C65.4309 27.0749 58.6235 19.4188 50.2563 19.4188V19.4188Z" fill="#5877A6"/>
<path d="M41.5809 48.2974C37.9978 48.2974 35.0825 45.798 35.0825 42.7262C35.0825 39.6544 37.9978 37.1554 41.5809 37.1554H43.365V48.2974H41.5809Z" fill="#8CA8D8"/>
<path d="M57.1392 48.2974V37.1554H58.9229C62.5063 37.1554 65.4217 39.6544 65.4217 42.7262C65.4217 45.798 62.5063 48.2974 58.9229 48.2974H57.1392Z" fill="#5877A6"/>
<path d="M54.7474 29.8668C57.0603 31.3801 58.5949 34.0186 58.5949 37.0142V43.1428C58.5949 47.8278 54.841 51.6394 50.2269 51.6394C45.6129 51.6394 41.859 47.8278 41.859 43.1428V37.1029C53.1096 37.1029 45.3637 29.8668 54.7474 29.8668" fill="#FFE2C3"/>
<path d="M54.7474 29.8668C52.3828 29.8668 51.1064 30.3265 50.3387 31.0139V51.6379C54.9015 51.5768 58.5949 47.7897 58.5949 43.1428V37.0142C58.5949 34.0186 57.0603 31.3801 54.7474 29.8668V29.8668Z" fill="#FED2A4"/>
<path d="M58.4839 48.2973H52.2191C51.4317 48.2973 50.793 47.6487 50.793 46.8493C50.793 46.0495 51.4317 45.4012 52.2191 45.4012H58.4839C59.2716 45.4012 59.91 46.0495 59.91 46.8493C59.91 47.6487 59.2716 48.2973 58.4839 48.2973Z" fill="#7E9BCC"/>
<path d="M67.423 58.4576C63.5458 55.2349 60.857 54.1961 56.65 53.3337C56.559 53.3152 56.4673 53.3076 56.3763 53.3069C56.3734 53.3069 56.3708 53.3065 56.3678 53.3065C56.3659 56.6193 50.3433 59.2872 50.3433 59.2872V81.6193C50.3433 81.6193 58.4756 81.6193 64.7475 78.6238C71.0194 75.6282 73.4533 73.3816 73.4533 73.3816C73.4533 70.1989 71.3002 61.6803 67.423 58.4576Z" fill="#D9311C"/>
<path d="M33.259 58.4576C37.1362 55.235 39.825 54.1961 44.032 53.3337C44.123 53.3152 44.2147 53.3076 44.3057 53.3069C44.3087 53.3069 44.3113 53.3065 44.3142 53.3065C44.3161 56.6193 50.3387 59.2872 50.3387 59.2872V81.6193C50.3387 81.6193 42.2064 81.6193 35.9345 78.6238C29.6626 75.6282 27.2287 73.3816 27.2287 73.3816C27.2287 70.1989 29.3818 61.6803 33.259 58.4576Z" fill="#FF5C42"/>
</svg>
