<svg width="101" height="101" viewBox="0 0 101 101" fill="none" xmlns="http://www.w3.org/2000/svg">
<path d="M42.5505 69.7C41.9366 69.7 41.3282 69.4337 40.9147 68.9228L20.3456 43.4795C19.6234 42.5864 19.7699 41.2832 20.6725 40.5686C21.575 39.8544 22.8921 39.9994 23.6144 40.8919L44.1835 66.3353C44.9058 67.2283 44.7593 68.5315 43.8567 69.2462C43.471 69.5518 43.0091 69.7 42.5505 69.7Z" fill="#C6D9FB"/>
<path d="M57.9656 69.7C57.5069 69.7 57.045 69.5518 56.6594 69.2462C55.7568 68.5316 55.6103 67.2284 56.332 66.3353L76.9017 40.892C77.6239 39.9989 78.9405 39.8545 79.8436 40.5686C80.7462 41.2833 80.8927 42.5865 80.1704 43.4795L59.6013 68.9229C59.1879 69.4338 58.5795 69.7 57.9656 69.7V69.7Z" fill="#7093CC"/>
<path d="M54.2213 69.7005C53.9511 69.7005 53.6766 69.6483 53.4124 69.5389C52.3464 69.0964 51.8447 67.8826 52.2919 66.8279L63.0776 41.3845C63.5248 40.3298 64.7515 39.8329 65.8175 40.2759C66.8835 40.7184 67.3851 41.9321 66.9379 42.9869L56.1522 68.4302C55.8162 69.223 55.0389 69.7005 54.2213 69.7005Z" fill="#90B2EA"/>
<path d="M45.8927 69.7005C45.049 69.7005 44.2532 69.1918 43.9362 68.3645L34.1685 42.9211C33.7578 41.8518 34.3014 40.6559 35.3821 40.25C36.4623 39.8431 37.6715 40.381 38.0817 41.4503L47.8493 66.8936C48.26 67.9624 47.7164 69.1589 46.6357 69.5647C46.3912 69.6569 46.14 69.7005 45.8927 69.7005Z" fill="#B4CAEF"/>
<path d="M64.0156 44.4206C63.7673 44.4206 63.5183 44.3769 63.2808 44.2885C59.1182 42.7444 54.7372 41.9618 50.258 41.9618C45.7789 41.9618 41.3973 42.7444 37.2353 44.2885C36.7189 44.4799 36.1469 44.4621 35.6436 44.239C33.5868 43.326 31.3906 42.863 29.117 42.863C26.8483 42.863 24.657 43.3243 22.6029 44.2336C21.9514 44.5219 21.1959 44.4621 20.5989 44.074C20.0019 43.686 19.6462 43.0241 19.6549 42.3176C19.747 35.0028 22.9983 28.1515 28.8109 23.0254C34.5673 17.9489 42.1844 15.1533 50.258 15.1533C58.3317 15.1533 65.9488 17.9489 71.7052 23.0254C77.5178 28.1515 80.7691 35.0028 80.8606 42.3176C80.8699 43.0241 80.5142 43.6865 79.9172 44.074C79.3202 44.4621 78.5652 44.5225 77.9132 44.2336C75.8591 43.3243 73.6678 42.863 71.3991 42.863C69.1255 42.863 66.9293 43.326 64.8725 44.239C64.6001 44.3597 64.3081 44.4206 64.0156 44.4206V44.4206Z" fill="#FF5C42"/>
<path d="M63.2808 44.2885C63.5183 44.3764 63.7673 44.4206 64.0156 44.4206C64.3081 44.4206 64.6001 44.3597 64.8725 44.239C66.9293 43.326 69.1255 42.863 71.3991 42.863C73.6678 42.863 75.8597 43.3243 77.9132 44.2336C78.5652 44.5225 79.3202 44.4621 79.9172 44.074C80.5142 43.6865 80.8699 43.0241 80.8612 42.3176C80.7691 35.0028 77.5178 28.1515 71.7052 23.0254C65.9488 17.9489 58.3317 15.1533 50.2581 15.1533V41.9618C54.7372 41.9618 59.1182 42.745 63.2808 44.2885V44.2885Z" fill="#D9311C"/>
<path d="M71.7052 23.0254C65.9488 17.9489 58.3317 15.1533 50.2581 15.1533C55.7928 15.1533 64.0156 25.1311 64.0156 44.4206C64.3081 44.4206 64.6001 44.3597 64.8725 44.239C66.9293 43.326 69.1255 42.863 71.3991 42.863C73.6678 42.863 75.8591 43.3243 77.9132 44.2336C78.5652 44.5225 79.3202 44.4621 79.9172 44.074C80.5136 43.6865 80.8699 43.0241 80.8606 42.3176C80.7691 35.0028 77.5177 28.1515 71.7052 23.0254V23.0254Z" fill="#9A0000"/>
<path d="M19.6549 42.3176C19.6462 43.0241 20.0019 43.6865 20.5989 44.074C21.1954 44.4621 21.9509 44.5219 22.6029 44.2336C24.657 43.3243 26.8483 42.8635 29.117 42.8635C31.3906 42.8635 33.5868 43.326 35.6436 44.239C35.9154 44.3597 36.2069 44.4184 36.4988 44.4184L36.5005 44.2885C36.5005 25.1311 44.7233 15.1533 50.258 15.1533C42.1844 15.1533 34.5673 17.9489 28.8109 23.0254C22.9983 28.1515 19.747 35.0028 19.6549 42.3176Z" fill="#FF826E"/>
<path d="M59.3622 85.7963H41.1538C39.998 85.7963 39.0605 84.8693 39.0605 83.725V67.6289C39.0605 66.4852 39.998 65.5582 41.1538 65.5582H59.3617C60.5181 65.5582 61.455 66.4852 61.455 67.6289V83.725C61.455 84.8693 60.5181 85.7963 59.3622 85.7963Z" fill="#F59258"/>
<path d="M59.3622 65.5582H50.2581V85.7963H59.3622C60.5181 85.7963 61.455 84.8693 61.455 83.725V67.6289C61.455 66.4852 60.5181 65.5582 59.3622 65.5582Z" fill="#DB703D"/>
<path d="M52.3514 73.842H48.1653C47.0095 73.842 46.072 72.9144 46.072 71.7708C46.072 70.6271 47.0095 69.7001 48.1653 69.7001H52.3514C53.5072 69.7001 54.4441 70.6271 54.4441 71.7708C54.4441 72.9144 53.5072 73.842 52.3514 73.842Z" fill="#AF5A2B"/>
<path d="M52.3514 69.7001H50.2581V73.842H52.3514C53.5072 73.842 54.4441 72.9144 54.4441 71.7708C54.4441 70.6271 53.5072 69.7001 52.3514 69.7001Z" fill="#783207"/>
</svg>
