<svg width="791" height="551" viewBox="0 0 791 551" fill="none" xmlns="http://www.w3.org/2000/svg">
<path d="M370.598 380.516L697.309 203.613L759.577 233.641L432.865 413.975L370.598 380.516Z" fill="#DCE6FC"/>
<path d="M696.559 200.069L696.557 133.701L759.415 167.732L759.415 234.098L696.559 200.069Z" fill="#CCD7EF"/>
<path d="M370.003 310.171L696.577 133.474L696.578 204.691L370.003 381.388L370.003 310.171Z" fill="#DCE6FC"/>
<path d="M680.194 212.583L680.194 195.555L695.534 203.86L695.535 220.888L680.194 212.583Z" fill="#FFBC00" stroke="white"/>
<path d="M695.534 203.86L711.957 194.969L711.957 211.997L695.534 220.888L695.534 203.86Z" fill="#FFBC00" stroke="white"/>
<path d="M680.194 195.555L696.524 186.715L711.864 195.019L695.534 203.86L680.194 195.555Z" fill="#FFBC00" stroke="white"/>
<path d="M663.947 221.39L663.947 204.362L679.287 212.667L679.288 229.695L663.947 221.39Z" fill="#FFBC00" stroke="white"/>
<path d="M679.287 212.667L695.71 203.776L695.71 220.804L679.287 229.695L679.287 212.667Z" fill="#FFBC00" stroke="white"/>
<path d="M663.947 204.362L680.277 195.522L695.617 203.826L679.287 212.667L663.947 204.362Z" fill="#FFBC00" stroke="white"/>
<path d="M647.696 230.197L647.696 213.169L663.036 221.474L663.037 238.502L647.696 230.197Z" fill="#FFBC00" stroke="white"/>
<path d="M663.036 221.474L679.459 212.583L679.459 229.611L663.036 238.502L663.036 221.474Z" fill="#FFBC00" stroke="white"/>
<path d="M647.696 213.169L664.026 204.329L679.366 212.634L663.036 221.474L647.696 213.169Z" fill="#FFBC00" stroke="white"/>
<path d="M631.452 239.004L631.452 221.976L646.792 230.281L646.792 247.309L631.452 239.004Z" fill="#FFBC00" stroke="white"/>
<path d="M646.792 230.281L663.215 221.39L663.214 238.418L646.792 247.309L646.792 230.281Z" fill="#FFBC00" stroke="white"/>
<path d="M631.452 221.976L647.782 213.136L663.122 221.441L646.792 230.281L631.452 221.976Z" fill="#FFBC00" stroke="white"/>
<path d="M615.203 247.811L615.203 230.783L630.543 239.088L630.543 256.116L615.203 247.811Z" fill="#FFBC00" stroke="white"/>
<path d="M630.543 239.088L646.966 230.197L646.965 247.225L630.543 256.116L630.543 239.088Z" fill="#FFBC00" stroke="white"/>
<path d="M615.203 230.783L631.533 221.943L646.873 230.248L630.543 239.088L615.203 230.783Z" fill="#FFBC00" stroke="white"/>
<path d="M598.952 256.618L598.952 239.59L614.292 247.895L614.292 264.923L598.952 256.618Z" fill="#FFBC00" stroke="white"/>
<path d="M614.292 247.895L630.715 239.004L630.714 256.032L614.292 264.923L614.292 247.895Z" fill="#FFBC00" stroke="white"/>
<path d="M598.952 239.59L615.282 230.75L630.622 239.055L614.292 247.895L598.952 239.59Z" fill="#FFBC00" stroke="white"/>
<path d="M582.705 265.425L582.705 248.397L598.045 256.702L598.045 273.73L582.705 265.425Z" fill="#FFBC00" stroke="white"/>
<path d="M598.045 256.702L614.467 247.811L614.467 264.839L598.045 273.73L598.045 256.702Z" fill="#FFBC00" stroke="white"/>
<path d="M582.705 248.397L599.035 239.557L614.375 247.862L598.045 256.702L582.705 248.397Z" fill="#FFBC00" stroke="white"/>
<path d="M566.459 274.232L566.459 257.204L581.799 265.509L581.799 282.537L566.459 274.232Z" fill="#FFBC00" stroke="white"/>
<path d="M581.799 265.509L598.221 256.619L598.221 273.646L581.799 282.537L581.799 265.509Z" fill="#FFBC00" stroke="white"/>
<path d="M566.459 257.204L582.789 248.364L598.129 256.669L581.799 265.509L566.459 257.204Z" fill="#FFBC00" stroke="white"/>
<path d="M550.21 283.039L550.21 266.011L565.55 274.316L565.55 291.344L550.21 283.039Z" fill="#FFBC00" stroke="white"/>
<path d="M565.55 274.316L581.972 265.426L581.972 282.453L565.549 291.344L565.55 274.316Z" fill="#FFBC00" stroke="white"/>
<path d="M550.21 266.011L566.54 257.171L581.88 265.476L565.55 274.316L550.21 266.011Z" fill="#FFBC00" stroke="white"/>
<path d="M533.961 291.846L533.961 274.818L549.301 283.123L549.301 300.151L533.961 291.846Z" fill="#FFBC00" stroke="white"/>
<path d="M549.301 283.123L565.723 274.233L565.723 291.26L549.3 300.151L549.301 283.123Z" fill="#FFBC00" stroke="white"/>
<path d="M533.961 274.818L550.291 265.978L565.631 274.283L549.301 283.123L533.961 274.818Z" fill="#FFBC00" stroke="white"/>
<path d="M517.712 300.653L517.712 283.625L533.052 291.93L533.052 308.958L517.712 300.653Z" fill="#FFBC00" stroke="white"/>
<path d="M533.052 291.93L549.474 283.04L549.474 300.067L533.051 308.958L533.052 291.93Z" fill="#FFBC00" stroke="white"/>
<path d="M517.71 283.625L534.04 274.785L549.38 283.09L533.05 291.93L517.71 283.625Z" fill="#FFBC00" stroke="white"/>
<path d="M501.464 309.46L501.464 292.432L516.804 300.737L516.804 317.765L501.464 309.46Z" fill="#FFBC00" stroke="white"/>
<path d="M516.803 300.737L533.226 291.847L533.226 308.874L516.803 317.765L516.803 300.737Z" fill="#FFBC00" stroke="white"/>
<path d="M501.462 292.432L517.792 283.592L533.132 291.897L516.802 300.737L501.462 292.432Z" fill="#FFBC00" stroke="white"/>
<path d="M485.214 318.267L485.214 301.239L500.554 309.544L500.554 326.572L485.214 318.267Z" fill="#FFBC00" stroke="white"/>
<path d="M500.553 309.544L516.976 300.654L516.976 317.681L500.553 326.572L500.553 309.544Z" fill="#FFBC00" stroke="white"/>
<path d="M485.212 301.239L501.542 292.399L516.882 300.704L500.552 309.544L485.212 301.239Z" fill="#FFBC00" stroke="white"/>
<path d="M468.966 327.074L468.966 310.046L484.306 318.351L484.306 335.379L468.966 327.074Z" fill="#FFBC00" stroke="white"/>
<path d="M484.305 318.352L500.728 309.461L500.728 326.488L484.305 335.379L484.305 318.352Z" fill="#FFBC00" stroke="white"/>
<path d="M468.964 310.046L485.294 301.206L500.634 309.511L484.304 318.351L468.964 310.046Z" fill="#FFBC00" stroke="white"/>
<path d="M452.717 335.881L452.717 318.853L468.057 327.158L468.057 344.186L452.717 335.881Z" fill="#FFBC00" stroke="white"/>
<path d="M468.056 327.159L484.479 318.268L484.479 335.295L468.056 344.186L468.056 327.159Z" fill="#FFBC00" stroke="white"/>
<path d="M452.715 318.853L469.045 310.013L484.385 318.318L468.055 327.158L452.715 318.853Z" fill="#FFBC00" stroke="white"/>
<path d="M436.468 344.688L436.468 327.66L451.808 335.965L451.808 352.993L436.468 344.688Z" fill="#FFBC00" stroke="white"/>
<path d="M451.807 335.966L468.23 327.075L468.23 344.103L451.807 352.993L451.807 335.966Z" fill="#FFBC00" stroke="white"/>
<path d="M436.466 327.661L452.796 318.82L468.136 327.125L451.806 335.965L436.466 327.661Z" fill="#FFBC00" stroke="white"/>
<path d="M420.219 353.495L420.219 336.467L435.559 344.772L435.559 361.8L420.219 353.495Z" fill="#FFBC00" stroke="white"/>
<path d="M435.558 344.773L451.981 335.882L451.981 352.909L435.558 361.8L435.558 344.773Z" fill="#FFBC00" stroke="white"/>
<path d="M420.217 336.467L436.547 327.627L451.887 335.932L435.557 344.772L420.217 336.467Z" fill="#FFBC00" stroke="white"/>
<path d="M403.971 362.302L403.97 345.274L419.311 353.579L419.311 370.607L403.971 362.302Z" fill="#FFBC00" stroke="white"/>
<path d="M419.31 353.58L435.733 344.689L435.733 361.717L419.31 370.607L419.31 353.58Z" fill="#FFBC00" stroke="white"/>
<path d="M403.969 345.275L420.299 336.434L435.639 344.739L419.309 353.579L403.969 345.275Z" fill="#FFBC00" stroke="white"/>
<path d="M387.727 371.109L387.726 354.082L403.067 362.386L403.067 379.414L387.727 371.109Z" fill="#FFBC00" stroke="white"/>
<path d="M403.066 362.387L419.489 353.496L419.489 370.524L403.066 379.414L403.066 362.387Z" fill="#FFBC00" stroke="white"/>
<path d="M387.725 354.082L404.055 345.241L419.395 353.546L403.065 362.387L387.725 354.082Z" fill="#FFBC00" stroke="white"/>
<path d="M371.475 379.916L371.474 362.889L386.815 371.193L386.815 388.221L371.475 379.916Z" fill="#FFBC00" stroke="white"/>
<path d="M386.814 371.194L403.237 362.303L403.237 379.331L386.814 388.221L386.814 371.194Z" fill="#FFBC00" stroke="white"/>
<path d="M371.475 362.889L387.805 354.048L403.145 362.353L386.815 371.194L371.475 362.889Z" fill="#FFBC00" stroke="white"/>
<path d="M680.194 195.53L680.194 178.502L695.534 186.807L695.535 203.835L680.194 195.53Z" fill="#CFD7DF" stroke="white"/>
<path d="M695.534 186.807L711.957 177.916L711.957 194.944L695.534 203.835L695.534 186.807Z" fill="#CFD7DF" stroke="white"/>
<path d="M680.194 178.502L696.524 169.662L711.864 177.966L695.534 186.807L680.194 178.502Z" fill="#CFD7DF" stroke="white"/>
<path d="M663.947 204.337L663.947 187.309L679.287 195.614L679.288 212.642L663.947 204.337Z" fill="#CFD7DF" stroke="white"/>
<path d="M679.287 195.614L695.71 186.723L695.71 203.751L679.287 212.642L679.287 195.614Z" fill="#CFD7DF" stroke="white"/>
<path d="M663.947 187.309L680.277 178.469L695.617 186.774L679.287 195.614L663.947 187.309Z" fill="#CFD7DF" stroke="white"/>
<path d="M647.696 213.144L647.696 196.116L663.036 204.421L663.037 221.449L647.696 213.144Z" fill="#CFD7DF" stroke="white"/>
<path d="M663.036 204.421L679.459 195.53L679.459 212.558L663.036 221.449L663.036 204.421Z" fill="#CFD7DF" stroke="white"/>
<path d="M647.696 196.116L664.026 187.276L679.366 195.581L663.036 204.421L647.696 196.116Z" fill="#CFD7DF" stroke="white"/>
<path d="M631.452 221.951L631.452 204.923L646.792 213.228L646.792 230.256L631.452 221.951Z" fill="#CFD7DF" stroke="white"/>
<path d="M646.792 213.228L663.215 204.337L663.214 221.365L646.792 230.256L646.792 213.228Z" fill="#CFD7DF" stroke="white"/>
<path d="M631.452 204.923L647.782 196.083L663.122 204.388L646.792 213.228L631.452 204.923Z" fill="#CFD7DF" stroke="white"/>
<path d="M615.203 230.758L615.203 213.73L630.543 222.035L630.543 239.063L615.203 230.758Z" fill="#CFD7DF" stroke="white"/>
<path d="M630.543 222.035L646.966 213.145L646.965 230.172L630.543 239.063L630.543 222.035Z" fill="#CFD7DF" stroke="white"/>
<path d="M615.203 213.73L631.533 204.89L646.873 213.195L630.543 222.035L615.203 213.73Z" fill="#CFD7DF" stroke="white"/>
<path d="M598.952 239.565L598.952 222.537L614.292 230.842L614.292 247.87L598.952 239.565Z" fill="#CFD7DF" stroke="white"/>
<path d="M614.292 230.842L630.715 221.952L630.714 238.979L614.292 247.87L614.292 230.842Z" fill="#CFD7DF" stroke="white"/>
<path d="M598.952 222.537L615.282 213.697L630.622 222.002L614.292 230.842L598.952 222.537Z" fill="#CFD7DF" stroke="white"/>
<path d="M582.705 248.372L582.705 231.344L598.045 239.649L598.045 256.677L582.705 248.372Z" fill="#CFD7DF" stroke="white"/>
<path d="M598.045 239.649L614.467 230.759L614.467 247.786L598.045 256.677L598.045 239.649Z" fill="#CFD7DF" stroke="white"/>
<path d="M582.705 231.344L599.035 222.504L614.375 230.809L598.045 239.649L582.705 231.344Z" fill="#CFD7DF" stroke="white"/>
<path d="M566.459 257.179L566.459 240.151L581.799 248.456L581.799 265.484L566.459 257.179Z" fill="#CFD7DF" stroke="white"/>
<path d="M581.799 248.456L598.221 239.566L598.221 256.593L581.799 265.484L581.799 248.456Z" fill="#CFD7DF" stroke="white"/>
<path d="M566.459 240.151L582.789 231.311L598.129 239.616L581.799 248.456L566.459 240.151Z" fill="#CFD7DF" stroke="white"/>
<path d="M550.21 265.986L550.21 248.958L565.55 257.263L565.55 274.291L550.21 265.986Z" fill="#CFD7DF" stroke="white"/>
<path d="M565.55 257.263L581.972 248.373L581.972 265.4L565.549 274.291L565.55 257.263Z" fill="#CFD7DF" stroke="white"/>
<path d="M550.21 248.958L566.54 240.118L581.88 248.423L565.55 257.263L550.21 248.958Z" fill="#CFD7DF" stroke="white"/>
<path d="M533.961 274.793L533.961 257.765L549.301 266.07L549.301 283.098L533.961 274.793Z" fill="#CFD7DF" stroke="white"/>
<path d="M549.301 266.07L565.723 257.18L565.723 274.207L549.3 283.098L549.301 266.07Z" fill="#CFD7DF" stroke="white"/>
<path d="M533.961 257.765L550.291 248.925L565.631 257.23L549.301 266.07L533.961 257.765Z" fill="#CFD7DF" stroke="white"/>
<path d="M517.712 283.6L517.712 266.572L533.052 274.877L533.052 291.905L517.712 283.6Z" fill="#CFD7DF" stroke="white"/>
<path d="M533.052 274.878L549.474 265.987L549.474 283.014L533.051 291.905L533.052 274.878Z" fill="#CFD7DF" stroke="white"/>
<path d="M517.71 266.572L534.04 257.732L549.38 266.037L533.05 274.877L517.71 266.572Z" fill="#CFD7DF" stroke="white"/>
<path d="M501.464 292.407L501.464 275.379L516.804 283.684L516.804 300.712L501.464 292.407Z" fill="#CFD7DF" stroke="white"/>
<path d="M516.803 283.685L533.226 274.794L533.226 291.821L516.803 300.712L516.803 283.685Z" fill="#CFD7DF" stroke="white"/>
<path d="M501.462 275.38L517.792 266.539L533.132 274.844L516.802 283.684L501.462 275.38Z" fill="#CFD7DF" stroke="white"/>
<path d="M485.214 301.214L485.214 284.186L500.554 292.491L500.554 309.519L485.214 301.214Z" fill="#CFD7DF" stroke="white"/>
<path d="M500.553 292.492L516.976 283.601L516.976 300.628L500.553 309.519L500.553 292.492Z" fill="#CFD7DF" stroke="white"/>
<path d="M485.212 284.187L501.542 275.346L516.882 283.651L500.552 292.491L485.212 284.187Z" fill="#CFD7DF" stroke="white"/>
<path d="M468.966 310.021L468.966 292.993L484.306 301.298L484.306 318.326L468.966 310.021Z" fill="#CFD7DF" stroke="white"/>
<path d="M484.305 301.299L500.728 292.408L500.728 309.436L484.305 318.326L484.305 301.299Z" fill="#CFD7DF" stroke="white"/>
<path d="M468.964 292.994L485.294 284.153L500.634 292.458L484.304 301.298L468.964 292.994Z" fill="#CFD7DF" stroke="white"/>
<path d="M452.717 318.828L452.717 301.8L468.057 310.105L468.057 327.133L452.717 318.828Z" fill="#CFD7DF" stroke="white"/>
<path d="M468.056 310.106L484.479 301.215L484.479 318.243L468.056 327.133L468.056 310.106Z" fill="#CFD7DF" stroke="white"/>
<path d="M452.715 301.801L469.045 292.96L484.385 301.265L468.055 310.106L452.715 301.801Z" fill="#CFD7DF" stroke="white"/>
<path d="M436.468 327.635L436.468 310.607L451.808 318.912L451.808 335.94L436.468 327.635Z" fill="#CFD7DF" stroke="white"/>
<path d="M451.807 318.913L468.23 310.022L468.23 327.05L451.807 335.94L451.807 318.913Z" fill="#CFD7DF" stroke="white"/>
<path d="M436.466 310.608L452.796 301.767L468.136 310.072L451.806 318.913L436.466 310.608Z" fill="#CFD7DF" stroke="white"/>
<path d="M420.219 336.442L420.219 319.414L435.559 327.719L435.559 344.747L420.219 336.442Z" fill="#CFD7DF" stroke="white"/>
<path d="M435.558 327.72L451.981 318.829L451.981 335.857L435.558 344.747L435.558 327.72Z" fill="#CFD7DF" stroke="white"/>
<path d="M420.217 319.415L436.547 310.574L451.887 318.879L435.557 327.72L420.217 319.415Z" fill="#CFD7DF" stroke="white"/>
<path d="M403.971 345.25L403.97 328.222L419.311 336.527L419.311 353.554L403.971 345.25Z" fill="#CFD7DF" stroke="white"/>
<path d="M419.31 336.527L435.733 327.636L435.733 344.664L419.31 353.554L419.31 336.527Z" fill="#CFD7DF" stroke="white"/>
<path d="M403.969 328.222L420.299 319.381L435.639 327.686L419.309 336.527L403.969 328.222Z" fill="#CFD7DF" stroke="white"/>
<path d="M387.727 354.057L387.726 337.029L403.067 345.334L403.067 362.361L387.727 354.057Z" fill="#CFD7DF" stroke="white"/>
<path d="M403.066 345.334L419.489 336.443L419.489 353.471L403.066 362.361L403.066 345.334Z" fill="#CFD7DF" stroke="white"/>
<path d="M387.725 337.029L404.055 328.188L419.395 336.493L403.065 345.334L387.725 337.029Z" fill="#CFD7DF" stroke="white"/>
<path d="M371.475 362.864L371.474 345.836L386.815 354.141L386.815 371.168L371.475 362.864Z" fill="#CFD7DF" stroke="white"/>
<path d="M386.814 354.141L403.237 345.25L403.237 362.278L386.814 371.168L386.814 354.141Z" fill="#CFD7DF" stroke="white"/>
<path d="M371.475 345.836L387.805 336.995L403.145 345.3L386.815 354.141L371.475 345.836Z" fill="#CFD7DF" stroke="white"/>
<path d="M680.194 178.477L680.194 161.449L695.534 169.754L695.535 186.782L680.194 178.477Z" fill="#CFD7DF" stroke="white"/>
<path d="M695.534 169.754L711.957 160.863L711.957 177.891L695.534 186.782L695.534 169.754Z" fill="#CFD7DF" stroke="white"/>
<path d="M680.194 161.449L696.524 152.609L711.864 160.914L695.534 169.754L680.194 161.449Z" fill="#CFD7DF" stroke="white"/>
<path d="M663.947 187.284L663.947 170.256L679.287 178.561L679.288 195.589L663.947 187.284Z" fill="#CFD7DF" stroke="white"/>
<path d="M679.287 178.561L695.71 169.671L695.71 186.698L679.287 195.589L679.287 178.561Z" fill="#CFD7DF" stroke="white"/>
<path d="M663.947 170.256L680.277 161.416L695.617 169.721L679.287 178.561L663.947 170.256Z" fill="#CFD7DF" stroke="white"/>
<path d="M647.696 196.091L647.696 179.063L663.036 187.368L663.037 204.396L647.696 196.091Z" fill="#CFD7DF" stroke="white"/>
<path d="M663.036 187.368L679.459 178.477L679.459 195.505L663.036 204.396L663.036 187.368Z" fill="#CFD7DF" stroke="white"/>
<path d="M647.696 179.063L664.026 170.223L679.366 178.528L663.036 187.368L647.696 179.063Z" fill="#CFD7DF" stroke="white"/>
<path d="M631.452 204.898L631.452 187.87L646.792 196.175L646.792 213.203L631.452 204.898Z" fill="#CFD7DF" stroke="white"/>
<path d="M646.792 196.175L663.215 187.285L663.214 204.312L646.792 213.203L646.792 196.175Z" fill="#CFD7DF" stroke="white"/>
<path d="M631.452 187.87L647.782 179.03L663.122 187.335L646.792 196.175L631.452 187.87Z" fill="#CFD7DF" stroke="white"/>
<path d="M615.203 213.705L615.203 196.677L630.543 204.982L630.543 222.01L615.203 213.705Z" fill="#CFD7DF" stroke="white"/>
<path d="M630.543 204.982L646.966 196.092L646.965 213.119L630.543 222.01L630.543 204.982Z" fill="#CFD7DF" stroke="white"/>
<path d="M615.203 196.677L631.533 187.837L646.873 196.142L630.543 204.982L615.203 196.677Z" fill="#CFD7DF" stroke="white"/>
<path d="M598.952 222.512L598.952 205.484L614.292 213.789L614.292 230.817L598.952 222.512Z" fill="#CFD7DF" stroke="white"/>
<path d="M614.292 213.789L630.715 204.899L630.714 221.926L614.292 230.817L614.292 213.789Z" fill="#CFD7DF" stroke="white"/>
<path d="M598.952 205.484L615.282 196.644L630.622 204.949L614.292 213.789L598.952 205.484Z" fill="#CFD7DF" stroke="white"/>
<path d="M582.705 231.319L582.705 214.291L598.045 222.596L598.045 239.624L582.705 231.319Z" fill="#CFD7DF" stroke="white"/>
<path d="M598.045 222.596L614.467 213.706L614.467 230.733L598.045 239.624L598.045 222.596Z" fill="#CFD7DF" stroke="white"/>
<path d="M582.705 214.291L599.035 205.451L614.375 213.756L598.045 222.596L582.705 214.291Z" fill="#CFD7DF" stroke="white"/>
<path d="M566.459 240.126L566.459 223.098L581.799 231.403L581.799 248.431L566.459 240.126Z" fill="#CFD7DF" stroke="white"/>
<path d="M581.799 231.403L598.221 222.513L598.221 239.54L581.799 248.431L581.799 231.403Z" fill="#CFD7DF" stroke="white"/>
<path d="M566.459 223.098L582.789 214.258L598.129 222.563L581.799 231.403L566.459 223.098Z" fill="#CFD7DF" stroke="white"/>
<path d="M550.21 248.933L550.21 231.905L565.55 240.21L565.55 257.238L550.21 248.933Z" fill="#CFD7DF" stroke="white"/>
<path d="M565.55 240.21L581.972 231.32L581.972 248.347L565.549 257.238L565.55 240.21Z" fill="#CFD7DF" stroke="white"/>
<path d="M550.21 231.905L566.54 223.065L581.88 231.37L565.55 240.21L550.21 231.905Z" fill="#CFD7DF" stroke="white"/>
<path d="M533.961 257.74L533.961 240.712L549.301 249.017L549.301 266.045L533.961 257.74Z" fill="#CFD7DF" stroke="white"/>
<path d="M549.301 249.018L565.723 240.127L565.723 257.154L549.3 266.045L549.301 249.018Z" fill="#CFD7DF" stroke="white"/>
<path d="M533.961 240.713L550.291 231.872L565.631 240.177L549.301 249.017L533.961 240.713Z" fill="#CFD7DF" stroke="white"/>
<path d="M517.712 266.547L517.712 249.519L533.052 257.824L533.052 274.852L517.712 266.547Z" fill="#CFD7DF" stroke="white"/>
<path d="M533.052 257.825L549.474 248.934L549.474 265.961L533.051 274.852L533.052 257.825Z" fill="#CFD7DF" stroke="white"/>
<path d="M517.71 249.52L534.04 240.679L549.38 248.984L533.05 257.824L517.71 249.52Z" fill="#CFD7DF" stroke="white"/>
<path d="M501.464 275.354L501.464 258.326L516.804 266.631L516.804 283.659L501.464 275.354Z" fill="#CFD7DF" stroke="white"/>
<path d="M516.803 266.632L533.226 257.741L533.226 274.768L516.803 283.659L516.803 266.632Z" fill="#CFD7DF" stroke="white"/>
<path d="M501.462 258.327L517.792 249.486L533.132 257.791L516.802 266.631L501.462 258.327Z" fill="#CFD7DF" stroke="white"/>
<path d="M485.214 284.161L485.214 267.133L500.554 275.438L500.554 292.466L485.214 284.161Z" fill="#CFD7DF" stroke="white"/>
<path d="M500.553 275.439L516.976 266.548L516.976 283.575L500.553 292.466L500.553 275.439Z" fill="#CFD7DF" stroke="white"/>
<path d="M485.212 267.134L501.542 258.293L516.882 266.598L500.552 275.438L485.212 267.134Z" fill="#CFD7DF" stroke="white"/>
<path d="M468.966 292.968L468.966 275.94L484.306 284.245L484.306 301.273L468.966 292.968Z" fill="#CFD7DF" stroke="white"/>
<path d="M484.305 284.246L500.728 275.355L500.728 292.383L484.305 301.273L484.305 284.246Z" fill="#CFD7DF" stroke="white"/>
<path d="M468.964 275.941L485.294 267.1L500.634 275.405L484.304 284.246L468.964 275.941Z" fill="#CFD7DF" stroke="white"/>
<path d="M452.717 301.775L452.717 284.747L468.057 293.052L468.057 310.08L452.717 301.775Z" fill="#CFD7DF" stroke="white"/>
<path d="M468.056 293.053L484.479 284.162L484.479 301.19L468.056 310.08L468.056 293.053Z" fill="#CFD7DF" stroke="white"/>
<path d="M452.715 284.748L469.045 275.907L484.385 284.212L468.055 293.053L452.715 284.748Z" fill="#CFD7DF" stroke="white"/>
<path d="M436.468 310.582L436.468 293.554L451.808 301.859L451.808 318.887L436.468 310.582Z" fill="#CFD7DF" stroke="white"/>
<path d="M451.807 301.86L468.23 292.969L468.23 309.997L451.807 318.887L451.807 301.86Z" fill="#CFD7DF" stroke="white"/>
<path d="M436.466 293.555L452.796 284.714L468.136 293.019L451.806 301.86L436.466 293.555Z" fill="#CFD7DF" stroke="white"/>
<path d="M420.219 319.389L420.219 302.362L435.559 310.666L435.559 327.694L420.219 319.389Z" fill="#CFD7DF" stroke="white"/>
<path d="M435.558 310.667L451.981 301.776L451.981 318.804L435.558 327.694L435.558 310.667Z" fill="#CFD7DF" stroke="white"/>
<path d="M420.217 302.362L436.547 293.521L451.887 301.826L435.557 310.667L420.217 302.362Z" fill="#CFD7DF" stroke="white"/>
<path d="M403.971 328.197L403.97 311.169L419.311 319.474L419.311 336.501L403.971 328.197Z" fill="#CFD7DF" stroke="white"/>
<path d="M419.31 319.474L435.733 310.583L435.733 327.611L419.31 336.502L419.31 319.474Z" fill="#CFD7DF" stroke="white"/>
<path d="M403.969 311.169L420.299 302.328L435.639 310.633L419.309 319.474L403.969 311.169Z" fill="#CFD7DF" stroke="white"/>
<path d="M387.727 337.004L387.726 319.976L403.067 328.281L403.067 345.308L387.727 337.004Z" fill="#CFD7DF" stroke="white"/>
<path d="M403.066 328.281L419.489 319.39L419.489 336.418L403.066 345.309L403.066 328.281Z" fill="#CFD7DF" stroke="white"/>
<path d="M387.725 319.976L404.055 311.135L419.395 319.44L403.065 328.281L387.725 319.976Z" fill="#CFD7DF" stroke="white"/>
<path d="M371.475 345.811L371.474 328.783L386.815 337.088L386.815 354.116L371.475 345.811Z" fill="#CFD7DF" stroke="white"/>
<path d="M386.814 337.088L403.237 328.197L403.237 345.225L386.814 354.116L386.814 337.088Z" fill="#CFD7DF" stroke="white"/>
<path d="M371.475 328.783L387.805 319.942L403.145 328.247L386.815 337.088L371.475 328.783Z" fill="#CFD7DF" stroke="white"/>
<path d="M615.203 196.66L615.203 179.632L630.543 187.937L630.543 204.965L615.203 196.66Z" fill="#263889" stroke="white"/>
<path d="M630.543 187.937L646.966 179.046L646.965 196.074L630.543 204.965L630.543 187.937Z" fill="#263889" stroke="white"/>
<path d="M615.203 179.632L631.533 170.792L646.873 179.096L630.543 187.937L615.203 179.632Z" fill="#263889" stroke="white"/>
<path d="M598.954 205.467L598.954 188.439L614.294 196.744L614.294 213.771L598.954 205.467Z" fill="#263889" stroke="white"/>
<path d="M614.294 196.744L630.716 187.853L630.716 204.881L614.294 213.771L614.294 196.744Z" fill="#263889" stroke="white"/>
<path d="M598.954 188.439L615.284 179.598L630.624 187.903L614.294 196.744L598.954 188.439Z" fill="#263889" stroke="white"/>
<path d="M582.705 214.274L582.705 197.246L598.045 205.551L598.045 222.579L582.705 214.274Z" fill="#263889" stroke="white"/>
<path d="M598.045 205.551L614.467 196.66L614.467 213.688L598.045 222.579L598.045 205.551Z" fill="#263889" stroke="white"/>
<path d="M582.705 197.246L599.035 188.405L614.375 196.71L598.045 205.551L582.705 197.246Z" fill="#263889" stroke="white"/>
<path d="M566.458 223.081L566.458 206.053L581.798 214.358L581.798 231.386L566.458 223.081Z" fill="#263889" stroke="white"/>
<path d="M581.798 214.358L598.22 205.467L598.22 222.495L581.798 231.386L581.798 214.358Z" fill="#263889" stroke="white"/>
<path d="M566.458 206.053L582.788 197.213L598.128 205.518L581.798 214.358L566.458 206.053Z" fill="#263889" stroke="white"/>
<path d="M550.208 231.888L550.208 214.86L565.548 223.165L565.548 240.192L550.208 231.888Z" fill="#263889" stroke="white"/>
<path d="M565.548 223.165L581.97 214.274L581.97 231.302L565.548 240.193L565.548 223.165Z" fill="#263889" stroke="white"/>
<path d="M550.208 214.86L566.538 206.019L581.878 214.324L565.548 223.165L550.208 214.86Z" fill="#263889" stroke="white"/>
<path d="M533.962 240.695L533.962 223.667L549.302 231.972L549.302 249L533.962 240.695Z" fill="#263889" stroke="white"/>
<path d="M549.302 231.972L565.724 223.081L565.724 240.109L549.301 249L549.302 231.972Z" fill="#263889" stroke="white"/>
<path d="M533.962 223.667L550.292 214.827L565.632 223.131L549.302 231.972L533.962 223.667Z" fill="#263889" stroke="white"/>
<path d="M517.71 249.502L517.71 232.474L533.05 240.779L533.05 257.807L517.71 249.502Z" fill="#263889" stroke="white"/>
<path d="M533.05 240.779L549.472 231.888L549.472 248.916L533.049 257.807L533.05 240.779Z" fill="#263889" stroke="white"/>
<path d="M517.708 232.474L534.038 223.634L549.378 231.939L533.048 240.779L517.708 232.474Z" fill="#263889" stroke="white"/>
<path d="M501.464 258.309L501.464 241.281L516.804 249.586L516.804 266.614L501.464 258.309Z" fill="#263889" stroke="white"/>
<path d="M516.803 249.586L533.226 240.695L533.226 257.723L516.803 266.614L516.803 249.586Z" fill="#263889" stroke="white"/>
<path d="M501.462 241.281L517.792 232.441L533.132 240.746L516.802 249.586L501.462 241.281Z" fill="#263889" stroke="white"/>
<path d="M485.215 267.116L485.215 250.088L500.555 258.393L500.555 275.42L485.215 267.116Z" fill="#263889" stroke="white"/>
<path d="M500.554 258.393L516.977 249.502L516.977 266.53L500.554 275.421L500.554 258.393Z" fill="#263889" stroke="white"/>
<path d="M485.213 250.088L501.543 241.247L516.883 249.552L500.553 258.393L485.213 250.088Z" fill="#263889" stroke="white"/>
<path d="M468.966 275.923L468.966 258.895L484.306 267.2L484.306 284.228L468.966 275.923Z" fill="#263889" stroke="white"/>
<path d="M484.305 267.2L500.728 258.31L500.728 275.337L484.305 284.228L484.305 267.2Z" fill="#263889" stroke="white"/>
<path d="M468.964 258.895L485.294 250.055L500.634 258.36L484.304 267.2L468.964 258.895Z" fill="#263889" stroke="white"/>
<path d="M452.719 284.73L452.719 267.702L468.059 276.007L468.059 293.035L452.719 284.73Z" fill="#263889" stroke="white"/>
<path d="M468.058 276.007L484.481 267.116L484.481 284.144L468.058 293.035L468.058 276.007Z" fill="#263889" stroke="white"/>
<path d="M452.717 267.702L469.047 258.862L484.387 267.167L468.057 276.007L452.717 267.702Z" fill="#263889" stroke="white"/>
<path d="M436.471 293.537L436.47 276.509L451.811 284.814L451.811 301.842L436.471 293.537Z" fill="#263889" stroke="white"/>
<path d="M451.81 284.814L468.233 275.923L468.233 292.951L451.81 301.842L451.81 284.814Z" fill="#263889" stroke="white"/>
<path d="M436.469 276.509L452.799 267.669L468.139 275.974L451.809 284.814L436.469 276.509Z" fill="#263889" stroke="white"/>
<path d="M420.219 302.344L420.219 285.316L435.559 293.621L435.559 310.649L420.219 302.344Z" fill="#263889" stroke="white"/>
<path d="M435.558 293.621L451.981 284.731L451.981 301.758L435.558 310.649L435.558 293.621Z" fill="#263889" stroke="white"/>
<path d="M420.217 285.316L436.547 276.476L451.887 284.781L435.557 293.621L420.217 285.316Z" fill="#263889" stroke="white"/>
<path d="M371.475 328.765L371.474 311.737L386.815 320.042L386.815 337.07L371.475 328.765Z" fill="#263889" stroke="white"/>
<path d="M386.814 320.043L403.237 311.152L403.237 328.179L386.814 337.07L386.814 320.043Z" fill="#263889" stroke="white"/>
<path d="M371.475 311.738L387.805 302.897L403.145 311.202L386.815 320.042L371.475 311.738Z" fill="#263889" stroke="white"/>
<path d="M695.656 217.053L695.656 199.613L710.996 208.119L710.997 225.559L695.656 217.053Z" fill="#D7B1EE" stroke="white"/>
<path d="M710.996 208.119L727.419 199.013L727.419 216.453L710.996 225.559L710.996 208.119Z" fill="#D7B1EE" stroke="white"/>
<path d="M695.656 199.613L711.986 190.559L727.326 199.064L710.996 208.119L695.656 199.613Z" fill="#D7B1EE" stroke="white"/>
<path d="M679.407 226.073L679.407 208.633L694.747 217.139L694.748 234.579L679.407 226.073Z" fill="#D7B1EE" stroke="white"/>
<path d="M694.747 217.139L711.17 208.033L711.17 225.473L694.747 234.579L694.747 217.139Z" fill="#D7B1EE" stroke="white"/>
<path d="M679.407 208.633L695.737 199.579L711.077 208.085L694.747 217.139L679.407 208.633Z" fill="#D7B1EE" stroke="white"/>
<path d="M663.158 235.093L663.158 217.653L678.498 226.159L678.498 243.599L663.158 235.093Z" fill="#D7B1EE" stroke="white"/>
<path d="M678.498 226.159L694.921 217.053L694.921 234.493L678.498 243.599L678.498 226.159Z" fill="#D7B1EE" stroke="white"/>
<path d="M663.158 217.653L679.488 208.599L694.828 217.105L678.498 226.159L663.158 217.653Z" fill="#D7B1EE" stroke="white"/>
<path d="M646.912 244.113L646.912 226.673L662.252 235.179L662.252 252.619L646.912 244.113Z" fill="#D7B1EE" stroke="white"/>
<path d="M662.252 235.179L678.674 226.074L678.674 243.513L662.252 252.619L662.252 235.179Z" fill="#D7B1EE" stroke="white"/>
<path d="M646.912 226.673L663.242 217.619L678.582 226.125L662.252 235.179L646.912 226.673Z" fill="#D7B1EE" stroke="white"/>
<path d="M630.665 253.133L630.665 235.693L646.005 244.199L646.005 261.639L630.665 253.133Z" fill="#D7B1EE" stroke="white"/>
<path d="M646.005 244.2L662.427 235.094L662.427 252.533L646.005 261.639L646.005 244.2Z" fill="#D7B1EE" stroke="white"/>
<path d="M630.665 235.694L646.995 226.639L662.335 235.145L646.005 244.199L630.665 235.694Z" fill="#D7B1EE" stroke="white"/>
<path d="M614.416 262.153L614.416 244.713L629.756 253.219L629.756 270.659L614.416 262.153Z" fill="#D7B1EE" stroke="white"/>
<path d="M629.756 253.22L646.178 244.114L646.178 261.553L629.756 270.659L629.756 253.22Z" fill="#D7B1EE" stroke="white"/>
<path d="M614.416 244.714L630.746 235.659L646.086 244.165L629.756 253.22L614.416 244.714Z" fill="#D7B1EE" stroke="white"/>
<path d="M598.167 271.174L598.167 253.734L613.507 262.24L613.507 279.68L598.167 271.174Z" fill="#D7B1EE" stroke="white"/>
<path d="M613.507 262.24L629.929 253.134L629.929 270.574L613.507 279.68L613.507 262.24Z" fill="#D7B1EE" stroke="white"/>
<path d="M598.167 253.734L614.497 244.68L629.837 253.185L613.507 262.24L598.167 253.734Z" fill="#D7B1EE" stroke="white"/>
<path d="M581.919 280.194L581.919 262.754L597.259 271.26L597.259 288.7L581.919 280.194Z" fill="#D7B1EE" stroke="white"/>
<path d="M597.259 271.26L613.681 262.154L613.681 279.594L597.258 288.7L597.259 271.26Z" fill="#D7B1EE" stroke="white"/>
<path d="M581.919 262.754L598.249 253.7L613.589 262.205L597.259 271.26L581.919 262.754Z" fill="#D7B1EE" stroke="white"/>
<path d="M565.67 289.214L565.67 271.774L581.01 280.28L581.01 297.72L565.67 289.214Z" fill="#D7B1EE" stroke="white"/>
<path d="M581.01 280.28L597.432 271.174L597.432 288.614L581.009 297.72L581.01 280.28Z" fill="#D7B1EE" stroke="white"/>
<path d="M565.67 271.774L582 262.72L597.34 271.226L581.01 280.28L565.67 271.774Z" fill="#D7B1EE" stroke="white"/>
<path d="M549.424 298.234L549.424 280.794L564.764 289.3L564.764 306.74L549.424 298.234Z" fill="#D7B1EE" stroke="white"/>
<path d="M564.763 289.3L581.186 280.194L581.186 297.634L564.763 306.74L564.763 289.3Z" fill="#D7B1EE" stroke="white"/>
<path d="M549.424 280.794L565.754 271.74L581.094 280.246L564.764 289.3L549.424 280.794Z" fill="#D7B1EE" stroke="white"/>
<path d="M533.175 307.254L533.175 289.814L548.515 298.32L548.515 315.76L533.175 307.254Z" fill="#D7B1EE" stroke="white"/>
<path d="M548.514 298.32L564.937 289.215L564.937 306.654L548.514 315.76L548.514 298.32Z" fill="#D7B1EE" stroke="white"/>
<path d="M533.173 289.814L549.503 280.76L564.843 289.266L548.513 298.32L533.173 289.814Z" fill="#D7B1EE" stroke="white"/>
<path d="M516.926 316.274L516.926 298.834L532.266 307.34L532.266 324.78L516.926 316.274Z" fill="#D7B1EE" stroke="white"/>
<path d="M532.265 307.341L548.688 298.235L548.688 315.674L532.265 324.78L532.265 307.341Z" fill="#D7B1EE" stroke="white"/>
<path d="M516.924 298.835L533.254 289.78L548.594 298.286L532.264 307.34L516.924 298.835Z" fill="#D7B1EE" stroke="white"/>
<path d="M710.996 225.498L710.996 208.058L726.336 216.564L726.336 234.004L710.996 225.498Z" fill="#D7B1EE" stroke="white"/>
<path d="M726.336 216.564L742.758 207.459L742.758 224.898L726.336 234.004L726.336 216.564Z" fill="#D7B1EE" stroke="white"/>
<path d="M710.996 208.058L727.326 199.004L742.666 207.51L726.336 216.564L710.996 208.058Z" fill="#D7B1EE" stroke="white"/>
<path d="M694.75 234.518L694.75 217.078L710.09 225.584L710.09 243.024L694.75 234.518Z" fill="#D7B1EE" stroke="white"/>
<path d="M710.09 225.585L726.512 216.479L726.512 233.918L710.09 243.024L710.09 225.585Z" fill="#D7B1EE" stroke="white"/>
<path d="M694.75 217.078L711.08 208.024L726.42 216.53L710.09 225.584L694.75 217.078Z" fill="#D7B1EE" stroke="white"/>
<path d="M678.502 243.538L678.502 226.098L693.842 234.604L693.842 252.044L678.502 243.538Z" fill="#D7B1EE" stroke="white"/>
<path d="M693.842 234.605L710.264 225.499L710.264 242.939L693.841 252.044L693.842 234.605Z" fill="#D7B1EE" stroke="white"/>
<path d="M678.502 226.099L694.832 217.044L710.172 225.55L693.842 234.605L678.502 226.099Z" fill="#D7B1EE" stroke="white"/>
<path d="M662.253 252.559L662.253 235.119L677.593 243.625L677.593 261.065L662.253 252.559Z" fill="#D7B1EE" stroke="white"/>
<path d="M677.593 243.625L694.015 234.519L694.015 251.959L677.592 261.065L677.593 243.625Z" fill="#D7B1EE" stroke="white"/>
<path d="M662.253 235.119L678.583 226.065L693.923 234.57L677.593 243.625L662.253 235.119Z" fill="#D7B1EE" stroke="white"/>
<path d="M646.004 261.579L646.004 244.139L661.344 252.645L661.344 270.085L646.004 261.579Z" fill="#D7B1EE" stroke="white"/>
<path d="M661.344 252.645L677.766 243.539L677.766 260.979L661.343 270.085L661.344 252.645Z" fill="#D7B1EE" stroke="white"/>
<path d="M646.004 244.139L662.334 235.085L677.674 243.591L661.344 252.645L646.004 244.139Z" fill="#D7B1EE" stroke="white"/>
<path d="M629.755 270.599L629.755 253.159L645.095 261.665L645.095 279.105L629.755 270.599Z" fill="#D7B1EE" stroke="white"/>
<path d="M645.094 261.665L661.517 252.559L661.517 269.999L645.094 279.105L645.094 261.665Z" fill="#D7B1EE" stroke="white"/>
<path d="M629.755 253.159L646.085 244.105L661.425 252.611L645.095 261.665L629.755 253.159Z" fill="#D7B1EE" stroke="white"/>
<path d="M613.506 279.619L613.506 262.179L628.846 270.685L628.846 288.125L613.506 279.619Z" fill="#D7B1EE" stroke="white"/>
<path d="M628.845 270.685L645.268 261.579L645.268 279.019L628.845 288.125L628.845 270.685Z" fill="#D7B1EE" stroke="white"/>
<path d="M613.506 262.179L629.836 253.125L645.176 261.631L628.846 270.685L613.506 262.179Z" fill="#D7B1EE" stroke="white"/>
<path d="M597.26 288.639L597.26 271.199L612.6 279.705L612.6 297.145L597.26 288.639Z" fill="#D7B1EE" stroke="white"/>
<path d="M612.599 279.705L629.022 270.6L629.022 288.039L612.599 297.145L612.599 279.705Z" fill="#D7B1EE" stroke="white"/>
<path d="M597.26 271.199L613.59 262.145L628.93 270.651L612.6 279.705L597.26 271.199Z" fill="#D7B1EE" stroke="white"/>
<path d="M581.012 297.66L581.012 280.22L596.352 288.726L596.352 306.166L581.012 297.66Z" fill="#D7B1EE" stroke="white"/>
<path d="M596.351 288.726L612.774 279.62L612.774 297.06L596.351 306.165L596.351 288.726Z" fill="#D7B1EE" stroke="white"/>
<path d="M581.012 280.22L597.342 271.165L612.682 279.671L596.352 288.726L581.012 280.22Z" fill="#D7B1EE" stroke="white"/>
<path d="M564.762 306.68L564.762 289.24L580.102 297.745L580.102 315.185L564.762 306.68Z" fill="#D7B1EE" stroke="white"/>
<path d="M580.101 297.746L596.524 288.64L596.524 306.08L580.101 315.185L580.101 297.746Z" fill="#D7B1EE" stroke="white"/>
<path d="M564.762 289.24L581.092 280.185L596.432 288.691L580.102 297.746L564.762 289.24Z" fill="#D7B1EE" stroke="white"/>
<path d="M548.513 315.7L548.512 298.26L563.853 306.766L563.853 324.206L548.513 315.7Z" fill="#D7B1EE" stroke="white"/>
<path d="M563.852 306.766L580.275 297.66L580.275 315.1L563.852 324.206L563.852 306.766Z" fill="#D7B1EE" stroke="white"/>
<path d="M548.511 298.26L564.841 289.206L580.181 297.712L563.851 306.766L548.511 298.26Z" fill="#D7B1EE" stroke="white"/>
<path d="M726.341 233.944L726.341 216.504L741.681 225.01L741.681 242.45L726.341 233.944Z" fill="#D7B1EE" stroke="white"/>
<path d="M741.68 225.01L758.103 215.904L758.103 233.344L741.68 242.45L741.68 225.01Z" fill="#D7B1EE" stroke="white"/>
<path d="M726.341 216.504L742.671 207.449L758.011 215.955L741.681 225.01L726.341 216.504Z" fill="#D7B1EE" stroke="white"/>
<path d="M710.568 242.964L710.567 225.524L725.907 234.03L725.908 251.47L710.568 242.964Z" fill="#D7B1EE" stroke="white"/>
<path d="M725.907 234.03L742.33 224.924L742.33 242.364L725.907 251.47L725.907 234.03Z" fill="#D7B1EE" stroke="white"/>
<path d="M710.119 225.524L726.449 216.47L741.789 224.976L725.459 234.03L710.119 225.524Z" fill="#D7B1EE" stroke="white"/>
<path d="M693.84 251.984L693.84 234.544L709.18 243.05L709.18 260.49L693.84 251.984Z" fill="#D7B1EE" stroke="white"/>
<path d="M709.179 243.05L725.602 233.944L725.602 251.384L709.179 260.49L709.179 243.05Z" fill="#D7B1EE" stroke="white"/>
<path d="M693.84 234.544L710.17 225.49L725.51 233.996L709.18 243.05L693.84 234.544Z" fill="#D7B1EE" stroke="white"/>
<path d="M677.594 261.004L677.594 243.564L692.934 252.07L692.934 269.51L677.594 261.004Z" fill="#D7B1EE" stroke="white"/>
<path d="M692.933 252.07L709.356 242.964L709.356 260.404L692.933 269.51L692.933 252.07Z" fill="#D7B1EE" stroke="white"/>
<path d="M677.594 243.564L693.924 234.51L709.264 243.016L692.934 252.07L677.594 243.564Z" fill="#D7B1EE" stroke="white"/>
<path d="M661.346 270.024L661.345 252.584L676.686 261.09L676.686 278.53L661.346 270.024Z" fill="#D7B1EE" stroke="white"/>
<path d="M676.685 261.09L693.108 251.985L693.108 269.424L676.685 278.53L676.685 261.09Z" fill="#D7B1EE" stroke="white"/>
<path d="M661.346 252.584L677.676 243.53L693.016 252.036L676.686 261.09L661.346 252.584Z" fill="#D7B1EE" stroke="white"/>
<path d="M645.098 279.044L645.097 261.604L660.438 270.11L660.438 287.55L645.098 279.044Z" fill="#D7B1EE" stroke="white"/>
<path d="M660.437 270.111L676.86 261.005L676.86 278.444L660.437 287.55L660.437 270.111Z" fill="#D7B1EE" stroke="white"/>
<path d="M645.098 261.605L661.428 252.55L676.768 261.056L660.438 270.11L645.098 261.605Z" fill="#D7B1EE" stroke="white"/>
<path d="M628.85 288.064L628.849 270.624L644.19 279.13L644.19 296.57L628.85 288.064Z" fill="#D7B1EE" stroke="white"/>
<path d="M644.189 279.131L660.612 270.025L660.612 287.465L644.189 296.57L644.189 279.131Z" fill="#D7B1EE" stroke="white"/>
<path d="M628.85 270.625L645.18 261.57L660.52 270.076L644.19 279.131L628.85 270.625Z" fill="#D7B1EE" stroke="white"/>
<path d="M612.601 297.085L612.6 279.645L627.941 288.151L627.941 305.591L612.601 297.085Z" fill="#D7B1EE" stroke="white"/>
<path d="M627.94 288.151L644.363 279.045L644.363 296.485L627.94 305.591L627.94 288.151Z" fill="#D7B1EE" stroke="white"/>
<path d="M612.601 279.645L628.931 270.591L644.271 279.096L627.941 288.151L612.601 279.645Z" fill="#D7B1EE" stroke="white"/>
<path d="M596.352 306.105L596.351 288.665L611.692 297.171L611.692 314.611L596.352 306.105Z" fill="#D7B1EE" stroke="white"/>
<path d="M611.691 297.171L628.114 288.065L628.114 305.505L611.691 314.611L611.691 297.171Z" fill="#D7B1EE" stroke="white"/>
<path d="M596.352 288.665L612.681 279.611L628.022 288.117L611.692 297.171L596.352 288.665Z" fill="#D7B1EE" stroke="white"/>
<path d="M580.103 315.125L580.102 297.685L595.442 306.191L595.443 323.631L580.103 315.125Z" fill="#D7B1EE" stroke="white"/>
<path d="M595.442 306.191L611.865 297.085L611.865 314.525L595.442 323.631L595.442 306.191Z" fill="#D7B1EE" stroke="white"/>
<path d="M580.103 297.685L596.432 288.631L611.773 297.137L595.443 306.191L580.103 297.685Z" fill="#D7B1EE" stroke="white"/>
<path d="M695.914 200.428L695.914 175.414L711.511 183.858L711.511 208.872L695.914 200.428Z" fill="#001DF5" stroke="white"/>
<path d="M711.511 183.858L728.209 174.818L728.208 199.833L711.51 208.872L711.511 183.858Z" fill="#001DF5" stroke="white"/>
<path d="M695.914 175.425L712.517 166.437L728.114 174.881L711.511 183.869L695.914 175.425Z" fill="#001DF5" stroke="white"/>
<path d="M711.511 208.87L711.511 183.855L727.108 192.299L727.108 217.314L711.511 208.87Z" fill="#001DF5" stroke="white"/>
<path d="M727.108 192.299L743.806 183.26L743.805 208.274L727.107 217.314L727.108 192.299Z" fill="#001DF5" stroke="white"/>
<path d="M711.511 183.867L728.114 174.878L743.711 183.322L727.108 192.311L711.511 183.867Z" fill="#001DF5" stroke="white"/>
<path d="M679.439 209.378L679.439 184.364L695.036 192.808L695.036 217.822L679.439 209.378Z" fill="#001DF5" stroke="white"/>
<path d="M695.036 192.808L711.734 183.768L711.733 208.782L695.035 217.822L695.036 192.808Z" fill="#001DF5" stroke="white"/>
<path d="M679.438 184.375L696.042 175.387L711.639 183.83L695.036 192.819L679.438 184.375Z" fill="#001DF5" stroke="white"/>
<path d="M695.035 217.82L695.035 192.805L710.633 201.249L710.632 226.264L695.035 217.82Z" fill="#001DF5" stroke="white"/>
<path d="M710.632 201.249L727.33 192.21L727.329 217.224L710.632 226.264L710.632 201.249Z" fill="#001DF5" stroke="white"/>
<path d="M695.035 192.817L711.639 183.828L727.236 192.272L710.632 201.261L695.035 192.817Z" fill="#001DF5" stroke="white"/>
<path d="M663.293 218.405L663.293 193.391L678.89 201.835L678.89 226.849L663.293 218.405Z" fill="#001DF5" stroke="white"/>
<path d="M678.89 201.835L695.588 192.795L695.587 217.81L678.889 226.849L678.89 201.835Z" fill="#001DF5" stroke="white"/>
<path d="M663.293 193.402L679.896 184.414L695.493 192.858L678.89 201.846L663.293 193.402Z" fill="#001DF5" stroke="white"/>
<path d="M678.889 226.847L678.889 201.832L694.486 210.276L694.486 235.291L678.889 226.847Z" fill="#001DF5" stroke="white"/>
<path d="M694.486 210.277L711.184 201.237L711.183 226.251L694.485 235.291L694.486 210.277Z" fill="#001DF5" stroke="white"/>
<path d="M678.889 201.844L695.492 192.855L711.089 201.299L694.486 210.288L678.889 201.844Z" fill="#001DF5" stroke="white"/>
<path d="M646.801 227.238L646.801 202.224L662.398 210.668L662.398 235.682L646.801 227.238Z" fill="#001DF5" stroke="white"/>
<path d="M662.398 210.668L679.096 201.628L679.095 226.643L662.397 235.682L662.398 210.668Z" fill="#001DF5" stroke="white"/>
<path d="M646.801 202.235L663.404 193.247L679.001 201.691L662.398 210.679L646.801 202.235Z" fill="#001DF5" stroke="white"/>
<path d="M662.398 235.68L662.398 210.666L677.995 219.11L677.995 244.124L662.398 235.68Z" fill="#001DF5" stroke="white"/>
<path d="M677.995 219.11L694.692 210.07L694.692 235.084L677.994 244.124L677.995 219.11Z" fill="#001DF5" stroke="white"/>
<path d="M662.397 210.677L679.001 201.688L694.598 210.132L677.995 219.121L662.397 210.677Z" fill="#001DF5" stroke="white"/>
<path d="M630.327 236.188L630.327 211.174L645.925 219.618L645.924 244.632L630.327 236.188Z" fill="#001DF5" stroke="white"/>
<path d="M645.924 219.618L662.622 210.578L662.621 235.593L645.924 244.632L645.924 219.618Z" fill="#001DF5" stroke="white"/>
<path d="M630.327 211.185L646.931 202.197L662.528 210.641L645.924 219.629L630.327 211.185Z" fill="#001DF5" stroke="white"/>
<path d="M645.923 244.63L645.923 219.616L661.52 228.06L661.52 253.074L645.923 244.63Z" fill="#001DF5" stroke="white"/>
<path d="M661.52 228.06L678.218 219.02L678.217 244.034L661.519 253.074L661.52 228.06Z" fill="#001DF5" stroke="white"/>
<path d="M645.923 219.627L662.526 210.638L678.123 219.082L661.52 228.071L645.923 219.627Z" fill="#001DF5" stroke="white"/>
<path d="M614.18 245.215L614.18 220.201L629.777 228.645L629.777 253.659L614.18 245.215Z" fill="#001DF5" stroke="white"/>
<path d="M629.777 228.645L646.475 219.605L646.474 244.62L629.776 253.659L629.777 228.645Z" fill="#001DF5" stroke="white"/>
<path d="M614.18 220.212L630.783 211.224L646.38 219.668L629.777 228.656L614.18 220.212Z" fill="#001DF5" stroke="white"/>
<path d="M629.777 253.657L629.777 228.643L645.374 237.087L645.374 262.101L629.777 253.657Z" fill="#001DF5" stroke="white"/>
<path d="M645.374 237.087L662.071 228.047L662.071 253.061L645.373 262.101L645.374 237.087Z" fill="#001DF5" stroke="white"/>
<path d="M629.776 228.654L646.38 219.665L661.977 228.109L645.373 237.098L629.776 228.654Z" fill="#001DF5" stroke="white"/>
<path d="M597.598 254.235L597.598 229.221L613.195 237.665L613.195 262.679L597.598 254.235Z" fill="#001DF5" stroke="white"/>
<path d="M613.195 237.665L629.893 228.626L629.892 253.64L613.194 262.68L613.195 237.665Z" fill="#001DF5" stroke="white"/>
<path d="M597.598 229.232L614.201 220.244L629.798 228.688L613.195 237.676L597.598 229.232Z" fill="#001DF5" stroke="white"/>
</svg>
