<svg width="228" height="90" viewBox="0 0 228 90" fill="none" xmlns="http://www.w3.org/2000/svg">
<path d="M124.974 4.52433H122.279V7.17505H121.035V4.52433H118.34V3.35446H121.035V0.688934H122.279V3.35446H124.974V4.52433Z" fill="#B2C0DA"/>
<path d="M6.62306 19.1994L4.35736 16.1933L2.06205 19.1994H0.477539L3.57251 15.1863L0.625624 11.3509H2.21013L4.37217 14.1793L6.5194 11.3509H8.07429L5.1126 15.1863L8.23719 19.1994H6.62306Z" fill="#B2C0DA"/>
<path d="M19.3438 12.7034H25.978V13.8733H19.3438V12.7034ZM19.3438 16.213H25.978V17.3829H19.3438V16.213Z" fill="#B2C0DA"/>
<path d="M75.6811 4.52427H72.9859V7.17499H71.742V4.52427H69.0469V3.3544H71.742V0.688873H72.9859V3.3544H75.6811V4.52427Z" fill="#B2C0DA"/>
<path fill-rule="evenodd" clip-rule="evenodd" d="M194.628 15.2847H30.8877V14.462H194.628V15.2847Z" fill="#B2C0DA"/>
<path d="M12.6464 23.1451C12.2466 23.1451 11.8887 23.0587 11.5728 22.886C11.2618 22.7132 11.0175 22.4763 10.8398 22.1752C10.6621 21.8691 10.5732 21.5236 10.5732 21.1386C10.5732 20.7535 10.6621 20.4105 10.8398 20.1094C11.0175 19.8033 11.2618 19.5664 11.5728 19.3986C11.8887 19.2258 12.2466 19.1394 12.6464 19.1394C13.0018 19.1394 13.3177 19.211 13.5942 19.3541C13.8755 19.4973 14.0927 19.7046 14.2457 19.9761L13.7052 20.3241C13.5818 20.1365 13.4288 19.9958 13.2462 19.9021C13.0635 19.8083 12.8612 19.7614 12.639 19.7614C12.3823 19.7614 12.1503 19.8181 11.943 19.9317C11.7406 20.0452 11.5802 20.2081 11.4618 20.4204C11.3482 20.6277 11.2915 20.8671 11.2915 21.1386C11.2915 21.415 11.3482 21.6593 11.4618 21.8716C11.5802 22.0789 11.7406 22.2393 11.943 22.3529C12.1503 22.4664 12.3823 22.5232 12.639 22.5232C12.8612 22.5232 13.0635 22.4763 13.2462 22.3825C13.4288 22.2887 13.5818 22.148 13.7052 21.9604L14.2457 22.301C14.0927 22.5725 13.8755 22.7823 13.5942 22.9304C13.3177 23.0735 13.0018 23.1451 12.6464 23.1451Z" fill="#B2C0DA"/>
<path d="M37.2686 8.15244L35.0029 5.14632L32.7076 8.15244H31.123L34.218 4.13934L31.2711 0.30394H32.8556L35.0177 3.13236L37.1649 0.30394H38.7198L35.7581 4.13934L38.8827 8.15244H37.2686Z" fill="#B2C0DA"/>
<path d="M42.7916 6.86916V12.0521H42.0585V7.51333H40.8887V6.86916H42.7916Z" fill="#B2C0DA"/>
<path d="M56.236 0.229019C57.2232 0.229019 58.0031 0.515317 58.5757 1.08791C59.1582 1.66051 59.4494 2.50953 59.4494 3.63497V8.15156H58.0278V3.79787C58.0278 3.0377 57.8501 2.4651 57.4947 2.08008C57.1492 1.69506 56.6506 1.50255 55.9991 1.50255C55.2784 1.50255 54.7058 1.72961 54.2813 2.18374C53.8568 2.62799 53.6445 3.2697 53.6445 4.10884V8.15156H52.2229V3.79787C52.2229 3.0377 52.0452 2.4651 51.6898 2.08008C51.3443 1.69506 50.8457 1.50255 50.1941 1.50255C49.4735 1.50255 48.9009 1.72961 48.4763 2.18374C48.0518 2.62799 47.8396 3.2697 47.8396 4.10884V8.15156H46.418V0.303062H47.7803V1.47293C48.0666 1.06817 48.4418 0.762125 48.9058 0.554806C49.3698 0.337615 49.898 0.229019 50.4903 0.229019C51.1024 0.229019 51.6454 0.352423 52.1192 0.599231C52.5931 0.84604 52.9584 1.20638 53.2151 1.68025C53.5112 1.22612 53.9209 0.870721 54.4442 0.61404C54.9773 0.35736 55.5746 0.229019 56.236 0.229019Z" fill="#B2C0DA"/>
<path d="M63.0836 6.8696V12.0526H62.3505V7.51377H61.1807V6.8696H63.0836Z" fill="#B2C0DA"/>
<path d="M86.5606 8.15192L84.2949 5.1458L81.9995 8.15192H80.415L83.51 4.13882L80.5631 0.303421H82.1476L84.3097 3.13184L86.4569 0.303421H88.0118L85.0501 4.13882L88.1747 8.15192H86.5606Z" fill="#B2C0DA"/>
<path d="M93.3644 11.4078V12.0519H89.64V11.5484L91.7502 9.51227C92.0069 9.26546 92.1797 9.05321 92.2685 8.87551C92.3574 8.69287 92.4018 8.51023 92.4018 8.32759C92.4018 8.0561 92.3056 7.84632 92.113 7.69823C91.9255 7.54521 91.654 7.4687 91.2986 7.4687C90.726 7.4687 90.2842 7.65628 89.9732 8.03142L89.4697 7.59457C89.6721 7.34776 89.9362 7.15525 90.262 7.01704C90.5927 6.87883 90.9604 6.80972 91.3652 6.80972C91.9082 6.80972 92.3401 6.94053 92.661 7.20215C92.9818 7.45883 93.1422 7.8093 93.1422 8.25355C93.1422 8.52998 93.083 8.79159 92.9645 9.0384C92.8461 9.28521 92.6215 9.56657 92.2907 9.88248L90.7062 11.4078H93.3644Z" fill="#B2C0DA"/>
<path d="M105.528 0.22963C106.515 0.22963 107.295 0.515927 107.868 1.08852C108.45 1.66112 108.741 2.51014 108.741 3.63558V8.15217H107.32V3.79848C107.32 3.03831 107.142 2.46571 106.787 2.08069C106.441 1.69567 105.943 1.50316 105.291 1.50316C104.57 1.50316 103.998 1.73022 103.573 2.18435C103.149 2.6286 102.937 3.27031 102.937 4.10945V8.15217H101.515V3.79848C101.515 3.03831 101.337 2.46571 100.982 2.08069C100.636 1.69567 100.138 1.50316 99.4861 1.50316C98.7654 1.50316 98.1929 1.73022 97.7683 2.18435C97.3438 2.6286 97.1316 3.27031 97.1316 4.10945V8.15217H95.71V0.303672H97.0723V1.47354C97.3586 1.06878 97.7338 0.762735 98.1978 0.555417C98.6618 0.338225 99.19 0.22963 99.7823 0.22963C100.394 0.22963 100.937 0.353034 101.411 0.599842C101.885 0.84665 102.25 1.20699 102.507 1.68086C102.803 1.22673 103.213 0.871331 103.736 0.614651C104.269 0.35797 104.867 0.22963 105.528 0.22963Z" fill="#B2C0DA"/>
<path d="M132.468 8.24072C132.191 8.24072 131.955 8.14694 131.757 7.95936C131.56 7.76191 131.461 7.51511 131.461 7.21894C131.461 6.93264 131.56 6.6957 131.757 6.50813C131.955 6.31068 132.191 6.21196 132.468 6.21196C132.744 6.21196 132.976 6.30575 133.164 6.49332C133.351 6.6809 133.445 6.92277 133.445 7.21894C133.445 7.51511 133.347 7.76191 133.149 7.95936C132.962 8.14694 132.734 8.24072 132.468 8.24072Z" fill="#B2C0DA"/>
<path d="M135.823 8.24072C135.547 8.24072 135.31 8.14694 135.112 7.95936C134.915 7.76191 134.816 7.51511 134.816 7.21894C134.816 6.93264 134.915 6.6957 135.112 6.50813C135.31 6.31068 135.547 6.21196 135.823 6.21196C136.099 6.21196 136.331 6.30575 136.519 6.49332C136.707 6.6809 136.8 6.92277 136.8 7.21894C136.8 7.51511 136.702 7.76191 136.504 7.95936C136.317 8.14694 136.09 8.24072 135.823 8.24072Z" fill="#B2C0DA"/>
<path d="M139.178 8.24072C138.902 8.24072 138.665 8.14694 138.467 7.95936C138.27 7.76191 138.171 7.51511 138.171 7.21894C138.171 6.93264 138.27 6.6957 138.467 6.50813C138.665 6.31068 138.902 6.21196 139.178 6.21196C139.454 6.21196 139.686 6.30575 139.874 6.49332C140.062 6.6809 140.155 6.92277 140.155 7.21894C140.155 7.51511 140.057 7.76191 139.859 7.95936C139.672 8.14694 139.445 8.24072 139.178 8.24072Z" fill="#B2C0DA"/>
<path d="M113.656 11.4084V12.0525H109.932V11.549L112.042 9.51287C112.299 9.26606 112.472 9.0538 112.561 8.8761C112.649 8.69346 112.694 8.51083 112.694 8.32819C112.694 8.0567 112.598 7.84691 112.405 7.69883C112.217 7.54581 111.946 7.4693 111.591 7.4693C111.018 7.4693 110.576 7.65687 110.265 8.03202L109.762 7.59517C109.964 7.34836 110.228 7.15585 110.554 7.01764C110.885 6.87942 111.252 6.81032 111.657 6.81032C112.2 6.81032 112.632 6.94113 112.953 7.20274C113.274 7.45942 113.434 7.80989 113.434 8.25415C113.434 8.53057 113.375 8.79219 113.257 9.039C113.138 9.2858 112.913 9.56717 112.583 9.88308L110.998 11.4084H113.656Z" fill="#B2C0DA"/>
<path d="M88.0004 24.9304H85.3053V27.5811H84.0614V24.9304H81.3662V23.7605H84.0614V21.095H85.3053V23.7605H88.0004V24.9304Z" fill="#B2C0DA"/>
<path d="M68.5544 20.9889C69.5416 20.9889 70.3215 21.2752 70.8941 21.8478C71.4766 22.4204 71.7678 23.2694 71.7678 24.3949V28.9115H70.3462V24.5578C70.3462 23.7976 70.1685 23.225 69.8131 22.84C69.4675 22.455 68.969 22.2625 68.3174 22.2625C67.5967 22.2625 67.0241 22.4895 66.5996 22.9437C66.1751 23.3879 65.9629 24.0296 65.9629 24.8688V28.9115H64.5413V24.5578C64.5413 23.7976 64.3636 23.225 64.0082 22.84C63.6626 22.455 63.1641 22.2625 62.5125 22.2625C61.7918 22.2625 61.2192 22.4895 60.7947 22.9437C60.3702 23.3879 60.1579 24.0296 60.1579 24.8688V28.9115H58.7363V21.063H60.0987V22.2329C60.385 21.8281 60.7602 21.522 61.2242 21.3147C61.6882 21.0975 62.2163 20.9889 62.8087 20.9889C63.4207 20.9889 63.9637 21.1123 64.4376 21.3591C64.9115 21.606 65.2767 21.9663 65.5334 22.4402C65.8296 21.986 66.2393 21.6306 66.7625 21.374C67.2956 21.1173 67.8929 20.9889 68.5544 20.9889Z" fill="#B2C0DA"/>
<path d="M75.4009 27.6288V32.8118H74.6679V28.273H73.498V27.6288H75.4009Z" fill="#B2C0DA"/>
<path d="M123.512 24.9304H120.817V27.5811H119.573V24.9304H116.878V23.7605H119.573V21.095H120.817V23.7605H123.512V24.9304Z" fill="#B2C0DA"/>
<path d="M104.067 20.9887C105.054 20.9887 105.834 21.275 106.407 21.8476C106.989 22.4202 107.28 23.2692 107.28 24.3946V28.9112H105.859V24.5575C105.859 23.7974 105.681 23.2248 105.326 22.8398C104.98 22.4547 104.482 22.2622 103.83 22.2622C103.109 22.2622 102.537 22.4893 102.112 22.9434C101.688 23.3877 101.476 24.0294 101.476 24.8685V28.9112H100.054V24.5575C100.054 23.7974 99.8762 23.2248 99.5208 22.8398C99.1753 22.4547 98.6768 22.2622 98.0252 22.2622C97.3045 22.2622 96.7319 22.4893 96.3074 22.9434C95.8829 23.3877 95.6706 24.0294 95.6706 24.8685V28.9112H94.249V21.0627H95.6114V22.2326C95.8977 21.8278 96.2729 21.5218 96.7368 21.3145C97.2008 21.0973 97.729 20.9887 98.3214 20.9887C98.9334 20.9887 99.4764 21.1121 99.9503 21.3589C100.424 21.6057 100.789 21.9661 101.046 22.4399C101.342 21.9858 101.752 21.6304 102.275 21.3737C102.808 21.117 103.406 20.9887 104.067 20.9887Z" fill="#B2C0DA"/>
<path d="M110.915 27.6288V32.8118H110.182V28.273H109.012V27.6288H110.915Z" fill="#B2C0DA"/>
<path d="M152.332 20.9881C153.319 20.9881 154.099 21.2744 154.671 21.847C155.254 22.4196 155.545 23.2686 155.545 24.394V28.9106H154.124V24.5569C154.124 23.7968 153.946 23.2242 153.59 22.8391C153.245 22.4541 152.746 22.2616 152.095 22.2616C151.374 22.2616 150.801 22.4887 150.377 22.9428C149.952 23.3871 149.74 24.0288 149.74 24.8679V28.9106H148.319V24.5569C148.319 23.7968 148.141 23.2242 147.785 22.8391C147.44 22.4541 146.941 22.2616 146.29 22.2616C145.569 22.2616 144.997 22.4887 144.572 22.9428C144.148 23.3871 143.935 24.0288 143.935 24.8679V28.9106H142.514V21.0621H143.876V22.232C144.162 21.8272 144.537 21.5212 145.001 21.3139C145.465 21.0967 145.994 20.9881 146.586 20.9881C147.198 20.9881 147.741 21.1115 148.215 21.3583C148.689 21.6051 149.054 21.9654 149.311 22.4393C149.607 21.9852 150.017 21.6298 150.54 21.3731C151.073 21.1164 151.67 20.9881 152.332 20.9881Z" fill="#B2C0DA"/>
<path d="M160.688 27.6288V32.8118H159.955V28.273H158.785V27.6288H160.688Z" fill="#B2C0DA"/>
<path d="M165.465 32.1676V32.8118H161.74V32.3083L163.851 30.2721C164.107 30.0253 164.28 29.8131 164.369 29.6354C164.458 29.4527 164.502 29.2701 164.502 29.0875C164.502 28.816 164.406 28.6062 164.213 28.4581C164.026 28.3051 163.754 28.2286 163.399 28.2286C162.826 28.2286 162.384 28.4161 162.074 28.7913L161.57 28.3544C161.772 28.1076 162.036 27.9151 162.362 27.7769C162.693 27.6387 163.061 27.5696 163.466 27.5696C164.008 27.5696 164.44 27.7004 164.761 27.962C165.082 28.2187 165.243 28.5692 165.243 29.0134C165.243 29.2898 165.183 29.5515 165.065 29.7983C164.946 30.0451 164.722 30.3264 164.391 30.6424L162.807 32.1676H165.465Z" fill="#B2C0DA"/>
<path d="M167.68 27.6288V32.8118H166.947V28.273H165.777V27.6288H167.68Z" fill="#B2C0DA"/>
<path d="M129.397 29.6101C129.12 29.6101 128.883 29.5163 128.686 29.3287C128.488 29.1313 128.39 28.8845 128.39 28.5883C128.39 28.302 128.488 28.0651 128.686 27.8775C128.883 27.68 129.12 27.5813 129.397 27.5813C129.673 27.5813 129.905 27.6751 130.093 27.8627C130.28 28.0503 130.374 28.2921 130.374 28.5883C130.374 28.8845 130.275 29.1313 130.078 29.3287C129.89 29.5163 129.663 29.6101 129.397 29.6101Z" fill="#B2C0DA"/>
<path d="M132.752 29.6101C132.475 29.6101 132.238 29.5163 132.041 29.3287C131.843 29.1313 131.745 28.8845 131.745 28.5883C131.745 28.302 131.843 28.0651 132.041 27.8775C132.238 27.68 132.475 27.5813 132.752 27.5813C133.028 27.5813 133.26 27.6751 133.448 27.8627C133.635 28.0503 133.729 28.2921 133.729 28.5883C133.729 28.8845 133.63 29.1313 133.433 29.3287C133.245 29.5163 133.018 29.6101 132.752 29.6101Z" fill="#B2C0DA"/>
<path d="M136.107 29.6101C135.83 29.6101 135.593 29.5163 135.396 29.3287C135.198 29.1313 135.1 28.8845 135.1 28.5883C135.1 28.302 135.198 28.0651 135.396 27.8775C135.593 27.68 135.83 27.5813 136.107 27.5813C136.383 27.5813 136.615 27.6751 136.803 27.8627C136.99 28.0503 137.084 28.2921 137.084 28.5883C137.084 28.8845 136.985 29.1313 136.788 29.3287C136.6 29.5163 136.373 29.6101 136.107 29.6101Z" fill="#B2C0DA"/>
<path d="M152.59 8.15244L150.324 5.14632L148.029 8.15244H146.444L149.539 4.13934L146.592 0.30394H148.177L150.339 3.13236L152.486 0.30394H154.041L151.079 4.13934L154.204 8.15244H152.59Z" fill="#B2C0DA"/>
<path d="M157.936 6.86946V12.0524H157.203V7.51363H156.033V6.86946H157.936Z" fill="#B2C0DA"/>
<path d="M162.713 11.4083V12.0524H158.988V11.5489L161.099 9.51278C161.355 9.26597 161.528 9.05371 161.617 8.87601C161.706 8.69337 161.75 8.51073 161.75 8.3281C161.75 8.05661 161.654 7.84682 161.461 7.69874C161.274 7.54572 161.002 7.4692 160.647 7.4692C160.074 7.4692 159.633 7.65678 159.322 8.03193L158.818 7.59508C159.02 7.34827 159.285 7.15576 159.61 7.01755C159.941 6.87933 160.309 6.81023 160.714 6.81023C161.257 6.81023 161.688 6.94103 162.009 7.20265C162.33 7.45933 162.491 7.8098 162.491 8.25405C162.491 8.53048 162.431 8.7921 162.313 9.0389C162.194 9.28571 161.97 9.56707 161.639 9.88299L160.055 11.4083H162.713Z" fill="#B2C0DA"/>
<path d="M164.928 6.86946V12.0524H164.195V7.51363H163.025V6.86946H164.928Z" fill="#B2C0DA"/>
<path d="M179.871 0.229324C180.858 0.229324 181.638 0.515622 182.211 1.08822C182.793 1.66081 183.084 2.50983 183.084 3.63528V8.15187H181.663V3.79817C181.663 3.038 181.485 2.46541 181.129 2.08039C180.784 1.69537 180.285 1.50285 179.634 1.50285C178.913 1.50285 178.341 1.72992 177.916 2.18404C177.492 2.6283 177.279 3.27 177.279 4.10915V8.15187H175.858V3.79817C175.858 3.038 175.68 2.46541 175.325 2.08039C174.979 1.69537 174.48 1.50285 173.829 1.50285C173.108 1.50285 172.536 1.72992 172.111 2.18404C171.687 2.6283 171.474 3.27 171.474 4.10915V8.15187H170.053V0.303367H171.415V1.47324C171.701 1.06847 172.077 0.76243 172.541 0.555111C173.005 0.33792 173.533 0.229324 174.125 0.229324C174.737 0.229324 175.28 0.352728 175.754 0.599536C176.228 0.846345 176.593 1.20668 176.85 1.68056C177.146 1.22643 177.556 0.871026 178.079 0.614345C178.612 0.357665 179.209 0.229324 179.871 0.229324Z" fill="#B2C0DA"/>
<path d="M186.788 6.86916V12.0521H186.055V7.51332H184.885V6.86916H186.788Z" fill="#B2C0DA"/>
<path d="M191.564 11.408V12.0521H187.84V11.5486L189.95 9.51247C190.207 9.26566 190.38 9.05341 190.468 8.87571C190.557 8.69307 190.602 8.51043 190.602 8.32779C190.602 8.0563 190.505 7.84652 190.313 7.69843C190.125 7.54541 189.854 7.4689 189.498 7.4689C188.926 7.4689 188.484 7.65647 188.173 8.03162L187.67 7.59477C187.872 7.34796 188.136 7.15545 188.462 7.01724C188.793 6.87903 189.16 6.80992 189.565 6.80992C190.108 6.80992 190.54 6.94073 190.861 7.20235C191.182 7.45903 191.342 7.80949 191.342 8.25375C191.342 8.53017 191.283 8.79179 191.164 9.0386C191.046 9.28541 190.821 9.56677 190.491 9.88268L188.906 11.408H191.564Z" fill="#B2C0DA"/>
<path d="M193.78 6.86916V12.0521H193.047V7.51332H191.877V6.86916H193.78Z" fill="#B2C0DA"/>
<path d="M157.9 61.3335H155.205V63.9842H153.961V61.3335H151.266V60.1636H153.961V57.4981H155.205V60.1636H157.9V61.3335Z" fill="#B2C0DA"/>
<path d="M41.85 68.1608L38.0442 76.7942C37.7085 77.5938 37.3137 78.1566 36.8595 78.4823C36.4153 78.8081 35.8772 78.971 35.2454 78.971C34.8604 78.971 34.4852 78.9068 34.12 78.7785C33.7646 78.66 33.4684 78.4823 33.2314 78.2454L33.8386 77.1792C34.2434 77.5642 34.7123 77.7567 35.2454 77.7567C35.5909 77.7567 35.8772 77.6629 36.1043 77.4754C36.3412 77.2977 36.5535 76.9867 36.7411 76.5424L36.9928 75.9945L33.5276 68.1608H35.0085L37.748 74.4396L40.458 68.1608H41.85Z" fill="#B2C0DA"/>
<path d="M52.2695 69.5141H58.9037V70.6839H52.2695V69.5141ZM52.2695 73.0237H58.9037V74.1936H52.2695V73.0237Z" fill="#B2C0DA"/>
<path d="M108.607 61.3342H105.912V63.9849H104.668V61.3342H101.973V60.1643H104.668V57.4988H105.912V60.1643H108.607V61.3342Z" fill="#B2C0DA"/>
<path fill-rule="evenodd" clip-rule="evenodd" d="M227.554 72.095H63.8135V71.2723H227.554V72.095Z" fill="#B2C0DA"/>
<path d="M45.5722 79.955C45.1724 79.955 44.8145 79.8686 44.4986 79.6959C44.1876 79.5231 43.9433 79.2862 43.7656 78.9851C43.5879 78.679 43.499 78.3335 43.499 77.9485C43.499 77.5635 43.5879 77.2204 43.7656 76.9193C43.9433 76.6132 44.1876 76.3763 44.4986 76.2085C44.8145 76.0357 45.1724 75.9493 45.5722 75.9493C45.9276 75.9493 46.2435 76.0209 46.52 76.164C46.8013 76.3072 47.0185 76.5145 47.1715 76.786L46.631 77.134C46.5076 76.9464 46.3546 76.8057 46.172 76.712C45.9893 76.6182 45.7869 76.5713 45.5648 76.5713C45.3081 76.5713 45.0761 76.628 44.8688 76.7416C44.6664 76.8551 44.506 77.018 44.3875 77.2303C44.274 77.4376 44.2172 77.677 44.2172 77.9485C44.2172 78.2249 44.274 78.4692 44.3875 78.6815C44.506 78.8888 44.6664 79.0492 44.8688 79.1628C45.0761 79.2763 45.3081 79.3331 45.5648 79.3331C45.7869 79.3331 45.9893 79.2862 46.172 79.1924C46.3546 79.0986 46.5076 78.9579 46.631 78.7703L47.1715 79.1109C47.0185 79.3824 46.8013 79.5922 46.52 79.7403C46.2435 79.8834 45.9276 79.955 45.5722 79.955Z" fill="#B2C0DA"/>
<path d="M72.4955 57.114L68.6897 65.7473C68.3541 66.547 67.9592 67.1097 67.505 67.4355C67.0608 67.7613 66.5227 67.9242 65.8909 67.9242C65.5059 67.9242 65.1307 67.86 64.7655 67.7317C64.4101 67.6132 64.1139 67.4355 63.877 67.1986L64.4841 66.1323C64.8889 66.5174 65.3578 66.7099 65.8909 66.7099C66.2364 66.7099 66.5227 66.6161 66.7498 66.4285C66.9867 66.2508 67.199 65.9398 67.3866 65.4956L67.6383 64.9477L64.1731 57.114H65.654L68.3935 63.3928L71.1035 57.114H72.4955Z" fill="#B2C0DA"/>
<path d="M75.7173 63.6796V68.8626H74.9843V64.3238H73.8145V63.6796H75.7173Z" fill="#B2C0DA"/>
<path d="M89.1618 57.0393C90.149 57.0393 90.9289 57.3256 91.5015 57.8982C92.084 58.4707 92.3752 59.3198 92.3752 60.4452V64.9618H90.9536V60.6081C90.9536 59.8479 90.7759 59.2753 90.4205 58.8903C90.075 58.5053 89.5764 58.3128 88.9248 58.3128C88.2042 58.3128 87.6316 58.5399 87.2071 58.994C86.7825 59.4382 86.5703 60.0799 86.5703 60.9191V64.9618H85.1487V60.6081C85.1487 59.8479 84.971 59.2753 84.6156 58.8903C84.27 58.5053 83.7715 58.3128 83.1199 58.3128C82.3992 58.3128 81.8266 58.5399 81.4021 58.994C80.9776 59.4382 80.7654 60.0799 80.7654 60.9191V64.9618H79.3438V57.1133H80.7061V58.2832C80.9924 57.8784 81.3676 57.5724 81.8316 57.365C82.2956 57.1479 82.8237 57.0393 83.4161 57.0393C84.0282 57.0393 84.5711 57.1627 85.045 57.4095C85.5189 57.6563 85.8842 58.0166 86.1408 58.4905C86.437 58.0364 86.8467 57.681 87.37 57.4243C87.9031 57.1676 88.5003 57.0393 89.1618 57.0393Z" fill="#B2C0DA"/>
<path d="M96.0103 63.6791V68.8621H95.2773V64.3233H94.1074V63.6791H96.0103Z" fill="#B2C0DA"/>
<path d="M121.788 57.1142L117.983 65.7475C117.647 66.5472 117.252 67.1099 116.798 67.4357C116.354 67.7615 115.816 67.9244 115.184 67.9244C114.799 67.9244 114.424 67.8602 114.058 67.7319C113.703 67.6134 113.407 67.4357 113.17 67.1988L113.777 66.1325C114.182 66.5176 114.651 66.7101 115.184 66.7101C115.529 66.7101 115.816 66.6163 116.043 66.4287C116.28 66.251 116.492 65.94 116.68 65.4958L116.931 64.9479L113.466 57.1142H114.947L117.687 63.393L120.396 57.1142H121.788Z" fill="#B2C0DA"/>
<path d="M126.291 68.2185V68.8627H122.567V68.3592L124.677 66.323C124.934 66.0762 125.106 65.864 125.195 65.6863C125.284 65.5036 125.329 65.321 125.329 65.1383C125.329 64.8669 125.232 64.6571 125.04 64.509C124.852 64.356 124.581 64.2795 124.225 64.2795C123.653 64.2795 123.211 64.467 122.9 64.8422L122.396 64.4053C122.599 64.1585 122.863 63.966 123.189 63.8278C123.519 63.6896 123.887 63.6205 124.292 63.6205C124.835 63.6205 125.267 63.7513 125.588 64.0129C125.909 64.2696 126.069 64.62 126.069 65.0643C126.069 65.3407 126.01 65.6023 125.891 65.8492C125.773 66.096 125.548 66.3773 125.218 66.6932L123.633 68.2185H126.291Z" fill="#B2C0DA"/>
<path d="M138.455 57.0396C139.442 57.0396 140.222 57.3259 140.794 57.8985C141.377 58.4711 141.668 59.3201 141.668 60.4455V64.9621H140.247V60.6084C140.247 59.8482 140.069 59.2756 139.713 58.8906C139.368 58.5056 138.869 58.3131 138.218 58.3131C137.497 58.3131 136.925 58.5402 136.5 58.9943C136.076 59.4385 135.863 60.0802 135.863 60.9194V64.9621H134.442V60.6084C134.442 59.8482 134.264 59.2756 133.909 58.8906C133.563 58.5056 133.064 58.3131 132.413 58.3131C131.692 58.3131 131.12 58.5402 130.695 58.9943C130.271 59.4385 130.058 60.0802 130.058 60.9194V64.9621H128.637V57.1136H129.999V58.2835C130.285 57.8787 130.661 57.5727 131.125 57.3654C131.589 57.1482 132.117 57.0396 132.709 57.0396C133.321 57.0396 133.864 57.163 134.338 57.4098C134.812 57.6566 135.177 58.0169 135.434 58.4908C135.73 58.0367 136.14 57.6813 136.663 57.4246C137.196 57.1679 137.793 57.0396 138.455 57.0396Z" fill="#B2C0DA"/>
<path d="M165.397 65.0507C165.12 65.0507 164.883 64.9569 164.686 64.7693C164.488 64.5719 164.39 64.3251 164.39 64.0289C164.39 63.7426 164.488 63.5056 164.686 63.3181C164.883 63.1206 165.12 63.0219 165.397 63.0219C165.673 63.0219 165.905 63.1157 166.093 63.3033C166.28 63.4908 166.374 63.7327 166.374 64.0289C166.374 64.3251 166.275 64.5719 166.078 64.7693C165.89 64.9569 165.663 65.0507 165.397 65.0507Z" fill="#B2C0DA"/>
<path d="M168.752 65.0507C168.475 65.0507 168.238 64.9569 168.041 64.7693C167.843 64.5719 167.745 64.3251 167.745 64.0289C167.745 63.7426 167.843 63.5056 168.041 63.3181C168.238 63.1206 168.475 63.0219 168.752 63.0219C169.028 63.0219 169.26 63.1157 169.448 63.3033C169.635 63.4908 169.729 63.7327 169.729 64.0289C169.729 64.3251 169.63 64.5719 169.433 64.7693C169.245 64.9569 169.018 65.0507 168.752 65.0507Z" fill="#B2C0DA"/>
<path d="M172.107 65.0507C171.83 65.0507 171.593 64.9569 171.396 64.7693C171.198 64.5719 171.1 64.3251 171.1 64.0289C171.1 63.7426 171.198 63.5056 171.396 63.3181C171.593 63.1206 171.83 63.0219 172.107 63.0219C172.383 63.0219 172.615 63.1157 172.803 63.3033C172.99 63.4908 173.084 63.7327 173.084 64.0289C173.084 64.3251 172.985 64.5719 172.788 64.7693C172.6 64.9569 172.373 65.0507 172.107 65.0507Z" fill="#B2C0DA"/>
<path d="M146.583 68.2183V68.8625H142.859V68.359L144.969 66.3228C145.226 66.076 145.398 65.8638 145.487 65.6861C145.576 65.5034 145.621 65.3208 145.621 65.1381C145.621 64.8667 145.524 64.6569 145.332 64.5088C145.144 64.3558 144.873 64.2792 144.517 64.2792C143.945 64.2792 143.503 64.4668 143.192 64.842L142.688 64.4051C142.891 64.1583 143.155 63.9658 143.481 63.8276C143.811 63.6894 144.179 63.6203 144.584 63.6203C145.127 63.6203 145.559 63.7511 145.88 64.0127C146.201 64.2694 146.361 64.6198 146.361 65.0641C146.361 65.3405 146.302 65.6021 146.183 65.8489C146.065 66.0958 145.84 66.3771 145.509 66.693L143.925 68.2183H146.583Z" fill="#B2C0DA"/>
<path d="M120.927 81.7403H118.232V84.391H116.988V81.7403H114.293V80.5705H116.988V77.9049H118.232V80.5705H120.927V81.7403Z" fill="#B2C0DA"/>
<path d="M101.48 77.7986C102.467 77.7986 103.247 78.0849 103.82 78.6575C104.402 79.2301 104.694 80.0791 104.694 81.2046V85.7212H103.272V81.3675C103.272 80.6073 103.094 80.0347 102.739 79.6497C102.393 79.2647 101.895 79.0722 101.243 79.0722C100.523 79.0722 99.9499 79.2992 99.5254 79.7534C99.1009 80.1976 98.8887 80.8393 98.8887 81.6785V85.7212H97.467V81.3675C97.467 80.6073 97.2893 80.0347 96.9339 79.6497C96.5884 79.2647 96.0898 79.0722 95.4383 79.0722C94.7176 79.0722 94.145 79.2992 93.7205 79.7534C93.296 80.1976 93.0837 80.8393 93.0837 81.6785V85.7212H91.6621V77.8727H93.0245V79.0426C93.3108 78.6378 93.6859 78.3317 94.1499 78.1244C94.6139 77.9072 95.1421 77.7986 95.7344 77.7986C96.3465 77.7986 96.8895 77.922 97.3634 78.1688C97.8372 78.4157 98.2025 78.776 98.4592 79.2499C98.7554 78.7957 99.1651 78.4403 99.6883 78.1837C100.221 77.927 100.819 77.7986 101.48 77.7986Z" fill="#B2C0DA"/>
<path d="M108.328 84.4388V89.6217H107.595V85.0829H106.425V84.4388H108.328Z" fill="#B2C0DA"/>
<path d="M156.439 81.74H153.744V84.3908H152.5V81.74H149.805V80.5702H152.5V77.9046H153.744V80.5702H156.439V81.74Z" fill="#B2C0DA"/>
<path d="M136.993 77.7983C137.98 77.7983 138.76 78.0846 139.333 78.6572C139.915 79.2298 140.206 80.0788 140.206 81.2043V85.7209H138.785V81.3672C138.785 80.607 138.607 80.0344 138.252 79.6494C137.906 79.2644 137.407 79.0719 136.756 79.0719C136.035 79.0719 135.463 79.2989 135.038 79.7531C134.614 80.1973 134.401 80.839 134.401 81.6782V85.7209H132.98V81.3672C132.98 80.607 132.802 80.0344 132.447 79.6494C132.101 79.2644 131.603 79.0719 130.951 79.0719C130.23 79.0719 129.658 79.2989 129.233 79.7531C128.809 80.1973 128.596 80.839 128.596 81.6782V85.7209H127.175V77.8724H128.537V79.0422C128.823 78.6375 129.199 78.3314 129.663 78.1241C130.127 77.9069 130.655 77.7983 131.247 77.7983C131.859 77.7983 132.402 77.9217 132.876 78.1685C133.35 78.4154 133.715 78.7757 133.972 79.2496C134.268 78.7954 134.678 78.44 135.201 78.1834C135.734 77.9267 136.331 77.7983 136.993 77.7983Z" fill="#B2C0DA"/>
<path d="M143.84 84.439V89.6219H143.107V85.0831H141.938V84.439H143.84Z" fill="#B2C0DA"/>
<path d="M185.257 77.7986C186.245 77.7986 187.025 78.0849 187.597 78.6575C188.18 79.2301 188.471 80.0791 188.471 81.2046V85.7212H187.049V81.3675C187.049 80.6073 186.872 80.0347 186.516 79.6497C186.171 79.2647 185.672 79.0722 185.021 79.0722C184.3 79.0722 183.727 79.2992 183.303 79.7534C182.878 80.1976 182.666 80.8393 182.666 81.6785V85.7212H181.244V81.3675C181.244 80.6073 181.067 80.0347 180.711 79.6497C180.366 79.2647 179.867 79.0722 179.216 79.0722C178.495 79.0722 177.922 79.2992 177.498 79.7534C177.073 80.1976 176.861 80.8393 176.861 81.6785V85.7212H175.439V77.8727H176.802V79.0426C177.088 78.6378 177.463 78.3317 177.927 78.1244C178.391 77.9072 178.919 77.7986 179.512 77.7986C180.124 77.7986 180.667 77.922 181.141 78.1688C181.615 78.4157 181.98 78.776 182.237 79.2499C182.533 78.7957 182.942 78.4403 183.466 78.1837C183.999 77.927 184.596 77.7986 185.257 77.7986Z" fill="#B2C0DA"/>
<path d="M193.615 84.4389V89.6218H192.882V85.083H191.712V84.4389H193.615Z" fill="#B2C0DA"/>
<path d="M198.391 88.9777V89.6218H194.667V89.1183L196.777 87.0822C197.034 86.8354 197.207 86.6231 197.296 86.4454C197.384 86.2628 197.429 86.0801 197.429 85.8975C197.429 85.626 197.333 85.4162 197.14 85.2681C196.953 85.1151 196.681 85.0386 196.326 85.0386C195.753 85.0386 195.311 85.2262 195 85.6013L194.497 85.1645C194.699 84.9177 194.963 84.7252 195.289 84.587C195.62 84.4487 195.987 84.3796 196.392 84.3796C196.935 84.3796 197.367 84.5104 197.688 84.7721C198.009 85.0287 198.169 85.3792 198.169 85.8235C198.169 86.0999 198.11 86.3615 197.992 86.6083C197.873 86.8551 197.649 87.1365 197.318 87.4524L195.733 88.9777H198.391Z" fill="#B2C0DA"/>
<path d="M200.607 84.4389V89.6218H199.874V85.083H198.704V84.4389H200.607Z" fill="#B2C0DA"/>
<path d="M162.322 86.42C162.046 86.42 161.809 86.3262 161.612 86.1387C161.414 85.9412 161.315 85.6944 161.315 85.3982C161.315 85.1119 161.414 84.875 161.612 84.6874C161.809 84.49 162.046 84.3913 162.322 84.3913C162.599 84.3913 162.831 84.485 163.018 84.6726C163.206 84.8602 163.3 85.1021 163.3 85.3982C163.3 85.6944 163.201 85.9412 163.004 86.1387C162.816 86.3262 162.589 86.42 162.322 86.42Z" fill="#B2C0DA"/>
<path d="M165.677 86.42C165.401 86.42 165.164 86.3262 164.967 86.1387C164.769 85.9412 164.67 85.6944 164.67 85.3982C164.67 85.1119 164.769 84.875 164.967 84.6874C165.164 84.49 165.401 84.3913 165.677 84.3913C165.954 84.3913 166.186 84.485 166.373 84.6726C166.561 84.8602 166.655 85.1021 166.655 85.3982C166.655 85.6944 166.556 85.9412 166.359 86.1387C166.171 86.3262 165.944 86.42 165.677 86.42Z" fill="#B2C0DA"/>
<path d="M169.033 86.42C168.756 86.42 168.519 86.3262 168.322 86.1387C168.124 85.9412 168.026 85.6944 168.026 85.3982C168.026 85.1119 168.124 84.875 168.322 84.6874C168.519 84.49 168.756 84.3913 169.033 84.3913C169.309 84.3913 169.541 84.485 169.729 84.6726C169.916 84.8602 170.01 85.1021 170.01 85.3982C170.01 85.6944 169.911 85.9412 169.714 86.1387C169.526 86.3262 169.299 86.42 169.033 86.42Z" fill="#B2C0DA"/>
<path d="M187.817 57.1136L184.011 65.7469C183.675 66.5466 183.28 67.1093 182.826 67.4351C182.382 67.7609 181.844 67.9238 181.212 67.9238C180.827 67.9238 180.452 67.8596 180.087 67.7313C179.731 67.6128 179.435 67.4351 179.198 67.1981L179.805 66.1319C180.21 66.517 180.679 66.7095 181.212 66.7095C181.558 66.7095 181.844 66.6157 182.071 66.4281C182.308 66.2504 182.52 65.9394 182.708 65.4952L182.96 64.9473L179.494 57.1136H180.975L183.715 63.3924L186.425 57.1136H187.817Z" fill="#B2C0DA"/>
<path d="M190.863 63.6791V68.8621H190.13V64.3233H188.96V63.6791H190.863Z" fill="#B2C0DA"/>
<path d="M195.639 68.2179V68.8621H191.915V68.3586L194.025 66.3224C194.282 66.0756 194.455 65.8633 194.544 65.6856C194.632 65.503 194.677 65.3204 194.677 65.1377C194.677 64.8662 194.581 64.6565 194.388 64.5084C194.201 64.3553 193.929 64.2788 193.574 64.2788C193.001 64.2788 192.559 64.4664 192.248 64.8416L191.745 64.4047C191.947 64.1579 192.211 63.9654 192.537 63.8272C192.868 63.689 193.236 63.6199 193.64 63.6199C194.183 63.6199 194.615 63.7507 194.936 64.0123C195.257 64.269 195.417 64.6194 195.417 65.0637C195.417 65.3401 195.358 65.6017 195.24 65.8485C195.121 66.0953 194.897 66.3767 194.566 66.6926L192.981 68.2179H195.639Z" fill="#B2C0DA"/>
<path d="M197.855 63.6791V68.8621H197.122V64.3233H195.952V63.6791H197.855Z" fill="#B2C0DA"/>
<path d="M212.798 57.039C213.786 57.039 214.566 57.3253 215.138 57.8978C215.721 58.4704 216.012 59.3195 216.012 60.4449V64.9615H214.59V60.6078C214.59 59.8476 214.413 59.275 214.057 58.89C213.712 58.505 213.213 58.3125 212.562 58.3125C211.841 58.3125 211.268 58.5395 210.844 58.9937C210.419 59.4379 210.207 60.0796 210.207 60.9188V64.9615H208.785V60.6078C208.785 59.8476 208.608 59.275 208.252 58.89C207.907 58.505 207.408 58.3125 206.757 58.3125C206.036 58.3125 205.463 58.5395 205.039 58.9937C204.614 59.4379 204.402 60.0796 204.402 60.9188V64.9615H202.98V57.113H204.343V58.2829C204.629 57.8781 205.004 57.5721 205.468 57.3647C205.932 57.1476 206.46 57.039 207.053 57.039C207.665 57.039 208.208 57.1624 208.682 57.4092C209.156 57.656 209.521 58.0163 209.778 58.4902C210.074 58.0361 210.483 57.6807 211.007 57.424C211.54 57.1673 212.137 57.039 212.798 57.039Z" fill="#B2C0DA"/>
<path d="M219.713 63.6788V68.8618H218.98V64.323H217.811V63.6788H219.713Z" fill="#B2C0DA"/>
<path d="M224.49 68.2176V68.8618H220.766V68.3583L222.876 66.3221C223.133 66.0753 223.305 65.863 223.394 65.6853C223.483 65.5027 223.527 65.3201 223.527 65.1374C223.527 64.8659 223.431 64.6561 223.239 64.5081C223.051 64.355 222.78 64.2785 222.424 64.2785C221.852 64.2785 221.41 64.4661 221.099 64.8413L220.595 64.4044C220.798 64.1576 221.062 63.9651 221.388 63.8269C221.718 63.6887 222.086 63.6196 222.491 63.6196C223.034 63.6196 223.466 63.7504 223.787 64.012C224.107 64.2687 224.268 64.6191 224.268 65.0634C224.268 65.3398 224.209 65.6014 224.09 65.8482C223.972 66.095 223.747 66.3764 223.416 66.6923L221.832 68.2176H224.49Z" fill="#B2C0DA"/>
<path d="M226.706 63.6788V68.8618H225.973V64.323H224.803V63.6788H226.706Z" fill="#B2C0DA"/>
</svg>
