<svg width="594" height="136" viewBox="0 0 594 136" fill="none" xmlns="http://www.w3.org/2000/svg">
<path d="M526.864 101.209C526.864 100.658 527.31 100.212 527.861 100.212H558.748C559.298 100.212 559.744 100.658 559.744 101.209V110.176C559.744 110.726 559.298 111.172 558.748 111.172H527.861C527.31 111.172 526.864 110.726 526.864 110.176V101.209Z" fill="#FF6556" fill-opacity="0.11"/>
<path d="M526.864 70.8198C526.864 70.2696 527.31 69.8235 527.861 69.8235H558.748C559.298 69.8235 559.744 70.2696 559.744 70.8198V79.7871C559.744 80.3373 559.298 80.7834 558.748 80.7834H527.861C527.31 80.7834 526.864 80.3373 526.864 79.7871V70.8198Z" fill="#27AE60" fill-opacity="0.13"/>
<g filter="url(#filter0_d)">
<path d="M10.8174 15.0598C10.8174 9.53697 15.2945 5.05982 20.8174 5.05982H573.723C579.246 5.05982 583.723 9.53697 583.723 15.0598V110.129C583.723 115.652 579.246 120.129 573.723 120.129H20.8174C15.2945 120.129 10.8174 115.652 10.8174 110.129V15.0598Z" fill="white"/>
</g>
<path fill-rule="evenodd" clip-rule="evenodd" d="M583.723 60.6068L10.8174 60.6068L10.8174 60.1086L583.723 60.1086L583.723 60.6068Z" fill="#DAE3EB"/>
<path fill-rule="evenodd" clip-rule="evenodd" d="M583.723 90.4974L10.8174 90.4974L10.8174 89.9993L583.723 89.9992L583.723 90.4974Z" fill="#DAE3EB"/>
<path d="M10.8174 15.0598C10.8174 9.53697 15.2945 5.05982 20.8174 5.05982H573.723C579.246 5.05982 583.723 9.53697 583.723 15.0598V30.4669H10.8174V15.0598Z" fill="#D7E6FC"/>
<path d="M118.042 14.1749H119.078V18.8777H121.996V19.7545H118.042V14.1749Z" fill="#15354E"/>
<path d="M126.68 17.6502C126.68 17.7192 126.675 17.8176 126.664 17.9451H123.325C123.383 18.2586 123.535 18.5084 123.779 18.6943C124.029 18.875 124.337 18.9654 124.704 18.9654C125.171 18.9654 125.557 18.8113 125.859 18.503L126.393 19.1168C126.202 19.3453 125.96 19.518 125.668 19.6349C125.376 19.7518 125.046 19.8103 124.68 19.8103C124.212 19.8103 123.8 19.7173 123.444 19.5313C123.088 19.3453 122.812 19.0876 122.615 18.7581C122.424 18.4233 122.328 18.046 122.328 17.6263C122.328 17.2118 122.421 16.8398 122.607 16.5103C122.799 16.1756 123.062 15.9152 123.396 15.7292C123.731 15.5432 124.108 15.4502 124.528 15.4502C124.943 15.4502 125.312 15.5432 125.636 15.7292C125.966 15.9099 126.221 16.1676 126.401 16.5024C126.587 16.8318 126.68 17.2144 126.68 17.6502ZM124.528 16.2473C124.209 16.2473 123.938 16.3429 123.715 16.5342C123.497 16.7202 123.365 16.97 123.317 17.2835H125.732C125.689 16.9753 125.559 16.7255 125.341 16.5342C125.123 16.3429 124.852 16.2473 124.528 16.2473Z" fill="#15354E"/>
<path d="M130.053 15.4502C130.589 15.4502 131.02 15.607 131.344 15.9205C131.668 16.234 131.83 16.699 131.83 17.3154V19.7545H130.834V17.4429C130.834 17.0709 130.746 16.792 130.571 16.606C130.395 16.4147 130.146 16.319 129.821 16.319C129.455 16.319 129.165 16.4306 128.953 16.6538C128.74 16.8717 128.634 17.1879 128.634 17.6023V19.7545H127.637V15.498H128.586V16.048C128.751 15.8514 128.958 15.7026 129.208 15.6017C129.457 15.5007 129.739 15.4502 130.053 15.4502Z" fill="#15354E"/>
<path d="M137.358 15.498V19.1088C137.358 20.6074 136.592 21.3566 135.062 21.3566C134.653 21.3566 134.265 21.3035 133.898 21.1972C133.532 21.0962 133.229 20.9474 132.99 20.7508L133.436 20.0016C133.622 20.1557 133.856 20.2779 134.137 20.3682C134.424 20.4639 134.714 20.5117 135.006 20.5117C135.474 20.5117 135.817 20.4054 136.034 20.1929C136.252 19.9803 136.361 19.6562 136.361 19.2204V18.9972C136.191 19.1832 135.984 19.324 135.739 19.4197C135.495 19.5153 135.227 19.5632 134.934 19.5632C134.531 19.5632 134.164 19.4781 133.834 19.3081C133.51 19.1327 133.253 18.8883 133.061 18.5748C132.875 18.2613 132.782 17.9026 132.782 17.4987C132.782 17.0949 132.875 16.7388 133.061 16.4306C133.253 16.1171 133.51 15.8753 133.834 15.7053C134.164 15.5352 134.531 15.4502 134.934 15.4502C135.243 15.4502 135.522 15.5007 135.771 15.6017C136.026 15.7026 136.239 15.8567 136.409 16.064V15.498H137.358ZM135.086 18.7183C135.463 18.7183 135.771 18.6067 136.01 18.3835C136.255 18.155 136.377 17.8601 136.377 17.4987C136.377 17.1427 136.255 16.8531 136.01 16.6299C135.771 16.4067 135.463 16.2951 135.086 16.2951C134.703 16.2951 134.39 16.4067 134.145 16.6299C133.906 16.8531 133.787 17.1427 133.787 17.4987C133.787 17.8601 133.906 18.155 134.145 18.3835C134.39 18.6067 134.703 18.7183 135.086 18.7183Z" fill="#15354E"/>
<path d="M141.226 19.5233C141.109 19.619 140.966 19.6907 140.796 19.7385C140.631 19.7864 140.456 19.8103 140.27 19.8103C139.802 19.8103 139.441 19.688 139.186 19.4436C138.931 19.1992 138.803 18.8431 138.803 18.3755V16.327H138.102V15.5299H138.803V14.5575H139.799V15.5299H140.939V16.327H139.799V18.3516C139.799 18.5588 139.85 18.7183 139.951 18.8299C140.052 18.9361 140.198 18.9893 140.389 18.9893C140.612 18.9893 140.798 18.9308 140.947 18.8139L141.226 19.5233Z" fill="#15354E"/>
<path d="M144.461 15.4502C144.998 15.4502 145.428 15.607 145.752 15.9205C146.076 16.234 146.238 16.699 146.238 17.3154V19.7545H145.242V17.4429C145.242 17.0709 145.154 16.792 144.979 16.606C144.804 16.4147 144.554 16.319 144.23 16.319C143.863 16.319 143.573 16.4306 143.361 16.6538C143.148 16.8717 143.042 17.1879 143.042 17.6023V19.7545H142.046V13.8401H143.042V15.9922C143.207 15.8169 143.409 15.684 143.648 15.5937C143.892 15.498 144.163 15.4502 144.461 15.4502Z" fill="#15354E"/>
<path d="M150.694 21.3008C150.38 20.8173 150.138 20.2566 149.968 19.619C149.804 18.9813 149.721 18.2985 149.721 17.5705C149.721 16.8424 149.804 16.1596 149.968 15.5219C150.138 14.879 150.38 14.3183 150.694 13.8401H151.642C151.318 14.414 151.079 15.0065 150.925 15.6176C150.776 16.2234 150.702 16.8743 150.702 17.5705C150.702 18.2666 150.776 18.9202 150.925 19.5313C151.079 20.1371 151.318 20.7269 151.642 21.3008H150.694Z" fill="#15354E"/>
<path d="M157.841 15.4502C158.378 15.4502 158.803 15.607 159.116 15.9205C159.43 16.2287 159.587 16.6937 159.587 17.3154V19.7545H158.59V17.4429C158.59 17.0709 158.508 16.792 158.343 16.606C158.178 16.4147 157.942 16.319 157.634 16.319C157.299 16.319 157.031 16.4306 156.829 16.6538C156.627 16.8717 156.526 17.1852 156.526 17.5944V19.7545H155.529V17.4429C155.529 17.0709 155.447 16.792 155.282 16.606C155.118 16.4147 154.881 16.319 154.573 16.319C154.233 16.319 153.962 16.428 153.76 16.6458C153.563 16.8637 153.465 17.1799 153.465 17.5944V19.7545H152.469V15.498H153.417V16.04C153.577 15.8487 153.776 15.7026 154.015 15.6017C154.254 15.5007 154.52 15.4502 154.812 15.4502C155.131 15.4502 155.412 15.5113 155.657 15.6335C155.907 15.7504 156.103 15.9258 156.247 16.1596C156.422 15.9364 156.648 15.7637 156.924 15.6415C157.201 15.514 157.506 15.4502 157.841 15.4502Z" fill="#15354E"/>
<path d="M166.232 15.4502C166.769 15.4502 167.194 15.607 167.507 15.9205C167.821 16.2287 167.978 16.6937 167.978 17.3154V19.7545H166.981V17.4429C166.981 17.0709 166.899 16.792 166.734 16.606C166.57 16.4147 166.333 16.319 166.025 16.319C165.69 16.319 165.422 16.4306 165.22 16.6538C165.018 16.8717 164.917 17.1852 164.917 17.5944V19.7545H163.921V17.4429C163.921 17.0709 163.838 16.792 163.673 16.606C163.509 16.4147 163.272 16.319 162.964 16.319C162.624 16.319 162.353 16.428 162.151 16.6458C161.954 16.8637 161.856 17.1799 161.856 17.5944V19.7545H160.86V15.498H161.808V16.04C161.968 15.8487 162.167 15.7026 162.406 15.6017C162.645 15.5007 162.911 15.4502 163.203 15.4502C163.522 15.4502 163.804 15.5113 164.048 15.6335C164.298 15.7504 164.494 15.9258 164.638 16.1596C164.813 15.9364 165.039 15.7637 165.315 15.6415C165.592 15.514 165.897 15.4502 166.232 15.4502Z" fill="#15354E"/>
<path d="M168.773 21.3008C169.097 20.7269 169.336 20.1344 169.49 19.5233C169.644 18.9122 169.721 18.2613 169.721 17.5705C169.721 16.8796 169.644 16.2287 169.49 15.6176C169.336 15.0065 169.097 14.414 168.773 13.8401H169.721C170.035 14.313 170.274 14.871 170.439 15.514C170.609 16.1516 170.694 16.8371 170.694 17.5705C170.694 18.3038 170.609 18.9893 170.439 19.6269C170.274 20.2593 170.035 20.8173 169.721 21.3008H168.773Z" fill="#15354E"/>
<path d="M46.1952 14.1746V19.7542H45.3423L42.2655 15.976V19.7542H41.2373V14.1746H42.0902L45.1669 17.9528V14.1746H46.1952Z" fill="#15354E"/>
<path d="M49.2207 15.4499C49.8477 15.4499 50.326 15.6013 50.6554 15.9042C50.9902 16.2018 51.1576 16.6535 51.1576 17.2593V19.7542H50.217V19.2361C50.0948 19.422 49.9195 19.5655 49.691 19.6665C49.4678 19.7621 49.1968 19.81 48.8779 19.81C48.5591 19.81 48.2801 19.7568 48.041 19.6505C47.8019 19.539 47.6159 19.3875 47.483 19.1962C47.3555 18.9996 47.2917 18.7791 47.2917 18.5346C47.2917 18.152 47.4326 17.8465 47.7142 17.618C48.0011 17.3842 48.4502 17.2673 49.0613 17.2673H50.1612V17.2035C50.1612 16.9059 50.0709 16.6774 49.8902 16.518C49.7149 16.3586 49.4518 16.2789 49.1011 16.2789C48.862 16.2789 48.6255 16.3161 48.3917 16.3905C48.1632 16.4649 47.9693 16.5685 47.8098 16.7013L47.4193 15.976C47.6425 15.8059 47.9108 15.6757 48.2243 15.5854C48.5378 15.4951 48.87 15.4499 49.2207 15.4499ZM49.0852 19.0846C49.3349 19.0846 49.5555 19.0288 49.7468 18.9172C49.9434 18.8003 50.0815 18.6356 50.1612 18.423V17.9288H49.133C48.5591 17.9288 48.2721 18.1175 48.2721 18.4948C48.2721 18.6754 48.3439 18.8189 48.4874 18.9252C48.6308 19.0315 48.8301 19.0846 49.0852 19.0846Z" fill="#15354E"/>
<path d="M57.8087 15.4499C58.3454 15.4499 58.7705 15.6067 59.084 15.9202C59.3975 16.2284 59.5543 16.6934 59.5543 17.3151V19.7542H58.5579V17.4426C58.5579 17.0706 58.4756 16.7917 58.3108 16.6057C58.1461 16.4144 57.9096 16.3187 57.6014 16.3187C57.2666 16.3187 56.9983 16.4303 56.7964 16.6535C56.5944 16.8714 56.4935 17.1849 56.4935 17.5941V19.7542H55.4971V17.4426C55.4971 17.0706 55.4147 16.7917 55.25 16.6057C55.0853 16.4144 54.8488 16.3187 54.5406 16.3187C54.2005 16.3187 53.9295 16.4277 53.7276 16.6455C53.531 16.8634 53.4327 17.1796 53.4327 17.5941V19.7542H52.4363V15.4977H53.3848V16.0397C53.5442 15.8484 53.7435 15.7023 53.9826 15.6013C54.2218 15.5004 54.4875 15.4499 54.7797 15.4499C55.0986 15.4499 55.3802 15.511 55.6246 15.6332C55.8744 15.7501 56.071 15.9255 56.2145 16.1593C56.3898 15.9361 56.6157 15.7634 56.892 15.6412C57.1683 15.5137 57.4739 15.4499 57.8087 15.4499Z" fill="#15354E"/>
<path d="M64.8678 17.6499C64.8678 17.7189 64.8625 17.8172 64.8518 17.9448H61.5121C61.5705 18.2583 61.722 18.5081 61.9664 18.694C62.2161 18.8747 62.5244 18.9651 62.891 18.9651C63.3586 18.9651 63.7439 18.8109 64.0468 18.5027L64.5808 19.1165C64.3895 19.345 64.1478 19.5177 63.8555 19.6346C63.5632 19.7515 63.2338 19.81 62.8671 19.81C62.3995 19.81 61.9876 19.717 61.6316 19.531C61.2756 19.345 60.9993 19.0873 60.8026 18.7578C60.6113 18.423 60.5157 18.0457 60.5157 17.6259C60.5157 17.2115 60.6087 16.8395 60.7947 16.51C60.986 16.1753 61.249 15.9149 61.5838 15.7289C61.9186 15.5429 62.2959 15.4499 62.7157 15.4499C63.1301 15.4499 63.4995 15.5429 63.8236 15.7289C64.1531 15.9096 64.4081 16.1673 64.5888 16.5021C64.7748 16.8315 64.8678 17.2141 64.8678 17.6499ZM62.7157 16.247C62.3968 16.247 62.1258 16.3426 61.9026 16.5339C61.6848 16.7199 61.5519 16.9697 61.5041 17.2832H63.9193C63.8767 16.975 63.7466 16.7252 63.5287 16.5339C63.3108 16.3426 63.0398 16.247 62.7157 16.247Z" fill="#15354E"/>
<path d="M210.105 14.1752L208.256 19.7548H207.156L205.777 15.6259L204.374 19.7548H203.266L201.417 14.1752H202.493L203.88 18.4157L205.323 14.1752H206.279L207.69 18.4396L209.117 14.1752H210.105Z" fill="#15354E"/>
<path d="M210.893 15.4984H211.889V19.7548H210.893V15.4984ZM211.395 14.797C211.214 14.797 211.063 14.7412 210.94 14.6296C210.818 14.5127 210.757 14.3692 210.757 14.1991C210.757 14.0291 210.818 13.8883 210.94 13.7767C211.063 13.6598 211.214 13.6013 211.395 13.6013C211.575 13.6013 211.727 13.6571 211.849 13.7687C211.971 13.875 212.032 14.0105 212.032 14.1752C212.032 14.3506 211.971 14.4994 211.849 14.6216C211.732 14.7385 211.581 14.797 211.395 14.797Z" fill="#15354E"/>
<path d="M217.365 13.8404V19.7548H216.409V19.2048C216.244 19.4068 216.04 19.5582 215.795 19.6592C215.556 19.7601 215.29 19.8106 214.998 19.8106C214.589 19.8106 214.22 19.7203 213.89 19.5396C213.566 19.3589 213.311 19.1039 213.125 18.7744C212.939 18.4396 212.846 18.057 212.846 17.6266C212.846 17.1962 212.939 16.8162 213.125 16.4868C213.311 16.1573 213.566 15.9022 213.89 15.7216C214.22 15.5409 214.589 15.4506 214.998 15.4506C215.28 15.4506 215.538 15.4984 215.771 15.594C216.005 15.6897 216.204 15.8332 216.369 16.0245V13.8404H217.365ZM215.118 18.9577C215.357 18.9577 215.572 18.9046 215.763 18.7983C215.955 18.6867 216.106 18.53 216.218 18.328C216.329 18.1261 216.385 17.8923 216.385 17.6266C216.385 17.3609 216.329 17.1271 216.218 16.9252C216.106 16.7232 215.955 16.5691 215.763 16.4629C215.572 16.3513 215.357 16.2955 215.118 16.2955C214.879 16.2955 214.663 16.3513 214.472 16.4629C214.281 16.5691 214.129 16.7232 214.018 16.9252C213.906 17.1271 213.85 17.3609 213.85 17.6266C213.85 17.8923 213.906 18.1261 214.018 18.328C214.129 18.53 214.281 18.6867 214.472 18.7983C214.663 18.9046 214.879 18.9577 215.118 18.9577Z" fill="#15354E"/>
<path d="M221.438 19.5237C221.321 19.6193 221.177 19.6911 221.007 19.7389C220.843 19.7867 220.667 19.8106 220.481 19.8106C220.014 19.8106 219.652 19.6884 219.397 19.444C219.142 19.1995 219.015 18.8435 219.015 18.3759V16.3274H218.313V15.5303H219.015V14.5578H220.011V15.5303H221.151V16.3274H220.011V18.352C220.011 18.5592 220.061 18.7186 220.162 18.8302C220.263 18.9365 220.409 18.9896 220.601 18.9896C220.824 18.9896 221.01 18.9312 221.159 18.8143L221.438 19.5237Z" fill="#15354E"/>
<path d="M224.673 15.4506C225.209 15.4506 225.64 15.6073 225.964 15.9208C226.288 16.2344 226.45 16.6993 226.45 17.3157V19.7548H225.454V17.4433C225.454 17.0713 225.366 16.7923 225.191 16.6063C225.015 16.415 224.766 16.3194 224.441 16.3194C224.075 16.3194 223.785 16.431 223.573 16.6542C223.36 16.872 223.254 17.1882 223.254 17.6027V19.7548H222.257V13.8404H223.254V15.9926C223.418 15.8172 223.62 15.6844 223.86 15.594C224.104 15.4984 224.375 15.4506 224.673 15.4506Z" fill="#15354E"/>
<path d="M230.905 21.3012C230.592 20.8176 230.35 20.257 230.18 19.6193C230.015 18.9817 229.933 18.2988 229.933 17.5708C229.933 16.8428 230.015 16.16 230.18 15.5223C230.35 14.8793 230.592 14.3187 230.905 13.8404H231.854C231.53 14.4143 231.291 15.0069 231.136 15.6179C230.988 16.2237 230.913 16.8747 230.913 17.5708C230.913 18.2669 230.988 18.9205 231.136 19.5316C231.291 20.1374 231.53 20.7273 231.854 21.3012H230.905Z" fill="#15354E"/>
<path d="M238.053 15.4506C238.589 15.4506 239.014 15.6073 239.328 15.9208C239.641 16.229 239.798 16.694 239.798 17.3157V19.7548H238.802V17.4433C238.802 17.0713 238.719 16.7923 238.555 16.6063C238.39 16.415 238.154 16.3194 237.845 16.3194C237.511 16.3194 237.242 16.431 237.04 16.6542C236.838 16.872 236.737 17.1856 236.737 17.5947V19.7548H235.741V17.4433C235.741 17.0713 235.659 16.7923 235.494 16.6063C235.329 16.415 235.093 16.3194 234.785 16.3194C234.444 16.3194 234.173 16.4283 233.971 16.6462C233.775 16.8641 233.677 17.1802 233.677 17.5947V19.7548H232.68V15.4984H233.629V16.0404C233.788 15.8491 233.987 15.703 234.227 15.602C234.466 15.501 234.731 15.4506 235.024 15.4506C235.342 15.4506 235.624 15.5117 235.869 15.6339C236.118 15.7508 236.315 15.9262 236.458 16.16C236.634 15.9368 236.86 15.7641 237.136 15.6419C237.412 15.5143 237.718 15.4506 238.053 15.4506Z" fill="#15354E"/>
<path d="M246.444 15.4506C246.98 15.4506 247.406 15.6073 247.719 15.9208C248.033 16.229 248.189 16.694 248.189 17.3157V19.7548H247.193V17.4433C247.193 17.0713 247.111 16.7923 246.946 16.6063C246.781 16.415 246.545 16.3194 246.237 16.3194C245.902 16.3194 245.633 16.431 245.431 16.6542C245.23 16.872 245.129 17.1856 245.129 17.5947V19.7548H244.132V17.4433C244.132 17.0713 244.05 16.7923 243.885 16.6063C243.72 16.415 243.484 16.3194 243.176 16.3194C242.836 16.3194 242.565 16.4283 242.363 16.6462C242.166 16.8641 242.068 17.1802 242.068 17.5947V19.7548H241.071V15.4984H242.02V16.0404C242.179 15.8491 242.379 15.703 242.618 15.602C242.857 15.501 243.123 15.4506 243.415 15.4506C243.734 15.4506 244.015 15.5117 244.26 15.6339C244.509 15.7508 244.706 15.9262 244.85 16.16C245.025 15.9368 245.251 15.7641 245.527 15.6419C245.803 15.5143 246.109 15.4506 246.444 15.4506Z" fill="#15354E"/>
<path d="M248.984 21.3012C249.308 20.7273 249.548 20.1348 249.702 19.5237C249.856 18.9126 249.933 18.2616 249.933 17.5708C249.933 16.88 249.856 16.229 249.702 15.6179C249.548 15.0069 249.308 14.4143 248.984 13.8404H249.933C250.246 14.3134 250.486 14.8713 250.65 15.5143C250.82 16.152 250.905 16.8375 250.905 17.5708C250.905 18.3041 250.82 18.9896 250.65 19.6273C250.486 20.2596 250.246 20.8176 249.933 21.3012H248.984Z" fill="#15354E"/>
<path d="M286.824 14.1752V19.7548H285.788V17.3636H282.902V19.7548H281.866V14.1752H282.902V16.4788H285.788V14.1752H286.824Z" fill="#15354E"/>
<path d="M292.225 17.6505C292.225 17.7196 292.22 17.8179 292.209 17.9454H288.869C288.928 18.259 289.079 18.5087 289.324 18.6947C289.573 18.8754 289.881 18.9657 290.248 18.9657C290.716 18.9657 291.101 18.8116 291.404 18.5034L291.938 19.1172C291.747 19.3457 291.505 19.5184 291.213 19.6353C290.92 19.7522 290.591 19.8106 290.224 19.8106C289.757 19.8106 289.345 19.7176 288.989 19.5316C288.633 19.3457 288.356 19.0879 288.16 18.7585C287.968 18.4237 287.873 18.0464 287.873 17.6266C287.873 17.2121 287.966 16.8401 288.152 16.5107C288.343 16.1759 288.606 15.9155 288.941 15.7295C289.276 15.5436 289.653 15.4506 290.073 15.4506C290.487 15.4506 290.857 15.5436 291.181 15.7295C291.51 15.9102 291.765 16.1679 291.946 16.5027C292.132 16.8322 292.225 17.2148 292.225 17.6505ZM290.073 16.2476C289.754 16.2476 289.483 16.3433 289.26 16.5346C289.042 16.7206 288.909 16.9703 288.861 17.2839H291.276C291.234 16.9757 291.104 16.7259 290.886 16.5346C290.668 16.3433 290.397 16.2476 290.073 16.2476Z" fill="#15354E"/>
<path d="M293.182 15.4984H294.178V19.7548H293.182V15.4984ZM293.684 14.797C293.503 14.797 293.352 14.7412 293.23 14.6296C293.108 14.5127 293.046 14.3692 293.046 14.1991C293.046 14.0291 293.108 13.8883 293.23 13.7767C293.352 13.6598 293.503 13.6013 293.684 13.6013C293.865 13.6013 294.016 13.6571 294.138 13.7687C294.261 13.875 294.322 14.0105 294.322 14.1752C294.322 14.3506 294.261 14.4994 294.138 14.6216C294.022 14.7385 293.87 14.797 293.684 14.797Z" fill="#15354E"/>
<path d="M299.711 15.4984V19.1092C299.711 20.6077 298.945 21.357 297.415 21.357C297.006 21.357 296.618 21.3038 296.251 21.1976C295.885 21.0966 295.582 20.9478 295.343 20.7512L295.789 20.0019C295.975 20.156 296.209 20.2782 296.49 20.3686C296.777 20.4642 297.067 20.5121 297.359 20.5121C297.827 20.5121 298.17 20.4058 298.387 20.1932C298.605 19.9807 298.714 19.6565 298.714 19.2208V18.9976C298.544 19.1836 298.337 19.3244 298.093 19.42C297.848 19.5157 297.58 19.5635 297.287 19.5635C296.884 19.5635 296.517 19.4785 296.187 19.3085C295.863 19.1331 295.606 18.8887 295.414 18.5751C295.228 18.2616 295.135 17.9029 295.135 17.4991C295.135 17.0952 295.228 16.7392 295.414 16.431C295.606 16.1175 295.863 15.8757 296.187 15.7056C296.517 15.5356 296.884 15.4506 297.287 15.4506C297.596 15.4506 297.875 15.501 298.124 15.602C298.379 15.703 298.592 15.8571 298.762 16.0643V15.4984H299.711ZM297.439 18.7186C297.816 18.7186 298.124 18.607 298.364 18.3838C298.608 18.1553 298.73 17.8604 298.73 17.4991C298.73 17.143 298.608 16.8534 298.364 16.6302C298.124 16.4071 297.816 16.2955 297.439 16.2955C297.056 16.2955 296.743 16.4071 296.498 16.6302C296.259 16.8534 296.14 17.143 296.14 17.4991C296.14 17.8604 296.259 18.1553 296.498 18.3838C296.743 18.607 297.056 18.7186 297.439 18.7186Z" fill="#15354E"/>
<path d="M303.436 15.4506C303.972 15.4506 304.403 15.6073 304.727 15.9208C305.051 16.2344 305.213 16.6993 305.213 17.3157V19.7548H304.217V17.4433C304.217 17.0713 304.129 16.7923 303.954 16.6063C303.778 16.415 303.529 16.3194 303.205 16.3194C302.838 16.3194 302.548 16.431 302.336 16.6542C302.123 16.872 302.017 17.1882 302.017 17.6027V19.7548H301.02V13.8404H302.017V15.9926C302.182 15.8172 302.384 15.6844 302.623 15.594C302.867 15.4984 303.138 15.4506 303.436 15.4506Z" fill="#15354E"/>
<path d="M309.036 19.5237C308.919 19.6193 308.775 19.6911 308.605 19.7389C308.441 19.7867 308.265 19.8106 308.079 19.8106C307.612 19.8106 307.25 19.6884 306.995 19.444C306.74 19.1995 306.613 18.8435 306.613 18.3759V16.3274H305.911V15.5303H306.613V14.5578H307.609V15.5303H308.749V16.3274H307.609V18.352C307.609 18.5592 307.659 18.7186 307.76 18.8302C307.861 18.9365 308.008 18.9896 308.199 18.9896C308.422 18.9896 308.608 18.9312 308.757 18.8143L309.036 19.5237Z" fill="#15354E"/>
<path d="M313.047 21.3012C312.733 20.8176 312.491 20.257 312.321 19.6193C312.157 18.9817 312.074 18.2988 312.074 17.5708C312.074 16.8428 312.157 16.16 312.321 15.5223C312.491 14.8793 312.733 14.3187 313.047 13.8404H313.995C313.671 14.4143 313.432 15.0069 313.278 15.6179C313.129 16.2237 313.055 16.8747 313.055 17.5708C313.055 18.2669 313.129 18.9205 313.278 19.5316C313.432 20.1374 313.671 20.7273 313.995 21.3012H313.047Z" fill="#15354E"/>
<path d="M320.194 15.4506C320.731 15.4506 321.156 15.6073 321.469 15.9208C321.783 16.229 321.94 16.694 321.94 17.3157V19.7548H320.943V17.4433C320.943 17.0713 320.861 16.7923 320.696 16.6063C320.531 16.415 320.295 16.3194 319.987 16.3194C319.652 16.3194 319.384 16.431 319.182 16.6542C318.98 16.872 318.879 17.1856 318.879 17.5947V19.7548H317.882V17.4433C317.882 17.0713 317.8 16.7923 317.635 16.6063C317.471 16.415 317.234 16.3194 316.926 16.3194C316.586 16.3194 316.315 16.4283 316.113 16.6462C315.916 16.8641 315.818 17.1802 315.818 17.5947V19.7548H314.822V15.4984H315.77V16.0404C315.93 15.8491 316.129 15.703 316.368 15.602C316.607 15.501 316.873 15.4506 317.165 15.4506C317.484 15.4506 317.766 15.5117 318.01 15.6339C318.26 15.7508 318.456 15.9262 318.6 16.16C318.775 15.9368 319.001 15.7641 319.277 15.6419C319.554 15.5143 319.859 15.4506 320.194 15.4506Z" fill="#15354E"/>
<path d="M328.585 15.4506C329.122 15.4506 329.547 15.6073 329.86 15.9208C330.174 16.229 330.331 16.694 330.331 17.3157V19.7548H329.334V17.4433C329.334 17.0713 329.252 16.7923 329.087 16.6063C328.923 16.415 328.686 16.3194 328.378 16.3194C328.043 16.3194 327.775 16.431 327.573 16.6542C327.371 16.872 327.27 17.1856 327.27 17.5947V19.7548H326.274V17.4433C326.274 17.0713 326.191 16.7923 326.027 16.6063C325.862 16.415 325.625 16.3194 325.317 16.3194C324.977 16.3194 324.706 16.4283 324.504 16.6462C324.307 16.8641 324.209 17.1802 324.209 17.5947V19.7548H323.213V15.4984H324.161V16.0404C324.321 15.8491 324.52 15.703 324.759 15.602C324.998 15.501 325.264 15.4506 325.556 15.4506C325.875 15.4506 326.157 15.5117 326.401 15.6339C326.651 15.7508 326.848 15.9262 326.991 16.16C327.166 15.9368 327.392 15.7641 327.669 15.6419C327.945 15.5143 328.25 15.4506 328.585 15.4506Z" fill="#15354E"/>
<path d="M331.126 21.3012C331.45 20.7273 331.689 20.1348 331.843 19.5237C331.997 18.9126 332.074 18.2616 332.074 17.5708C332.074 16.88 331.997 16.229 331.843 15.6179C331.689 15.0069 331.45 14.4143 331.126 13.8404H332.074C332.388 14.3134 332.627 14.8713 332.792 15.5143C332.962 16.152 333.047 16.8375 333.047 17.5708C333.047 18.3041 332.962 18.9896 332.792 19.6273C332.627 20.2596 332.388 20.8176 332.074 21.3012H331.126Z" fill="#15354E"/>
<path d="M374.974 14.1752L373.125 19.7548H372.025L370.646 15.6259L369.243 19.7548H368.135L366.286 14.1752H367.362L368.749 18.4157L370.192 14.1752H371.148L372.559 18.4396L373.986 14.1752H374.974Z" fill="#15354E"/>
<path d="M379.405 17.6505C379.405 17.7196 379.4 17.8179 379.389 17.9454H376.049C376.108 18.259 376.259 18.5087 376.504 18.6947C376.753 18.8754 377.062 18.9657 377.428 18.9657C377.896 18.9657 378.281 18.8116 378.584 18.5034L379.118 19.1172C378.927 19.3457 378.685 19.5184 378.393 19.6353C378.101 19.7522 377.771 19.8106 377.404 19.8106C376.937 19.8106 376.525 19.7176 376.169 19.5316C375.813 19.3457 375.537 19.0879 375.34 18.7585C375.149 18.4237 375.053 18.0464 375.053 17.6266C375.053 17.2121 375.146 16.8401 375.332 16.5107C375.523 16.1759 375.786 15.9155 376.121 15.7295C376.456 15.5436 376.833 15.4506 377.253 15.4506C377.667 15.4506 378.037 15.5436 378.361 15.7295C378.69 15.9102 378.945 16.1679 379.126 16.5027C379.312 16.8322 379.405 17.2148 379.405 17.6505ZM377.253 16.2476C376.934 16.2476 376.663 16.3433 376.44 16.5346C376.222 16.7206 376.089 16.9703 376.041 17.2839H378.457C378.414 16.9757 378.284 16.7259 378.066 16.5346C377.848 16.3433 377.577 16.2476 377.253 16.2476Z" fill="#15354E"/>
<path d="M380.362 15.4984H381.359V19.7548H380.362V15.4984ZM380.864 14.797C380.684 14.797 380.532 14.7412 380.41 14.6296C380.288 14.5127 380.227 14.3692 380.227 14.1991C380.227 14.0291 380.288 13.8883 380.41 13.7767C380.532 13.6598 380.684 13.6013 380.864 13.6013C381.045 13.6013 381.196 13.6571 381.319 13.7687C381.441 13.875 381.502 14.0105 381.502 14.1752C381.502 14.3506 381.441 14.4994 381.319 14.6216C381.202 14.7385 381.05 14.797 380.864 14.797Z" fill="#15354E"/>
<path d="M386.891 15.4984V19.1092C386.891 20.6077 386.126 21.357 384.595 21.357C384.186 21.357 383.798 21.3038 383.431 21.1976C383.065 21.0966 382.762 20.9478 382.523 20.7512L382.969 20.0019C383.155 20.156 383.389 20.2782 383.671 20.3686C383.958 20.4642 384.247 20.5121 384.539 20.5121C385.007 20.5121 385.35 20.4058 385.568 20.1932C385.786 19.9807 385.894 19.6565 385.894 19.2208V18.9976C385.724 19.1836 385.517 19.3244 385.273 19.42C385.028 19.5157 384.76 19.5635 384.468 19.5635C384.064 19.5635 383.697 19.4785 383.368 19.3085C383.044 19.1331 382.786 18.8887 382.595 18.5751C382.409 18.2616 382.316 17.9029 382.316 17.4991C382.316 17.0952 382.409 16.7392 382.595 16.431C382.786 16.1175 383.044 15.8757 383.368 15.7056C383.697 15.5356 384.064 15.4506 384.468 15.4506C384.776 15.4506 385.055 15.501 385.305 15.602C385.56 15.703 385.772 15.8571 385.942 16.0643V15.4984H386.891ZM384.619 18.7186C384.996 18.7186 385.305 18.607 385.544 18.3838C385.788 18.1553 385.91 17.8604 385.91 17.4991C385.91 17.143 385.788 16.8534 385.544 16.6302C385.305 16.4071 384.996 16.2955 384.619 16.2955C384.237 16.2955 383.923 16.4071 383.679 16.6302C383.439 16.8534 383.32 17.143 383.32 17.4991C383.32 17.8604 383.439 18.1553 383.679 18.3838C383.923 18.607 384.237 18.7186 384.619 18.7186Z" fill="#15354E"/>
<path d="M390.616 15.4506C391.153 15.4506 391.583 15.6073 391.907 15.9208C392.231 16.2344 392.393 16.6993 392.393 17.3157V19.7548H391.397V17.4433C391.397 17.0713 391.309 16.7923 391.134 16.6063C390.959 16.415 390.709 16.3194 390.385 16.3194C390.018 16.3194 389.728 16.431 389.516 16.6542C389.303 16.872 389.197 17.1882 389.197 17.6027V19.7548H388.201V13.8404H389.197V15.9926C389.362 15.8172 389.564 15.6844 389.803 15.594C390.047 15.4984 390.318 15.4506 390.616 15.4506Z" fill="#15354E"/>
<path d="M396.216 19.5237C396.099 19.6193 395.956 19.6911 395.786 19.7389C395.621 19.7867 395.445 19.8106 395.259 19.8106C394.792 19.8106 394.43 19.6884 394.175 19.444C393.92 19.1995 393.793 18.8435 393.793 18.3759V16.3274H393.091V15.5303H393.793V14.5578H394.789V15.5303H395.929V16.3274H394.789V18.352C394.789 18.5592 394.84 18.7186 394.941 18.8302C395.042 18.9365 395.188 18.9896 395.379 18.9896C395.602 18.9896 395.788 18.9312 395.937 18.8143L396.216 19.5237Z" fill="#15354E"/>
<path d="M400.227 21.3012C399.913 20.8176 399.672 20.257 399.502 19.6193C399.337 18.9817 399.254 18.2988 399.254 17.5708C399.254 16.8428 399.337 16.16 399.502 15.5223C399.672 14.8793 399.913 14.3187 400.227 13.8404H401.175C400.851 14.4143 400.612 15.0069 400.458 15.6179C400.309 16.2237 400.235 16.8747 400.235 17.5708C400.235 18.2669 400.309 18.9205 400.458 19.5316C400.612 20.1374 400.851 20.7273 401.175 21.3012H400.227Z" fill="#15354E"/>
<path d="M403.739 17.9295L402.998 18.6309V19.7548H402.002V13.8404H402.998V17.4114L405.063 15.4984H406.258L404.481 17.2839L406.426 19.7548H405.214L403.739 17.9295Z" fill="#15354E"/>
<path d="M411.115 15.4984V19.1092C411.115 20.6077 410.35 21.357 408.819 21.357C408.41 21.357 408.022 21.3038 407.655 21.1976C407.289 21.0966 406.986 20.9478 406.747 20.7512L407.193 20.0019C407.379 20.156 407.613 20.2782 407.895 20.3686C408.181 20.4642 408.471 20.5121 408.763 20.5121C409.231 20.5121 409.574 20.4058 409.792 20.1932C410.009 19.9807 410.118 19.6565 410.118 19.2208V18.9976C409.948 19.1836 409.741 19.3244 409.497 19.42C409.252 19.5157 408.984 19.5635 408.692 19.5635C408.288 19.5635 407.921 19.4785 407.592 19.3085C407.267 19.1331 407.01 18.8887 406.818 18.5751C406.632 18.2616 406.539 17.9029 406.539 17.4991C406.539 17.0952 406.632 16.7392 406.818 16.431C407.01 16.1175 407.267 15.8757 407.592 15.7056C407.921 15.5356 408.288 15.4506 408.692 15.4506C409 15.4506 409.279 15.501 409.529 15.602C409.784 15.703 409.996 15.8571 410.166 16.0643V15.4984H411.115ZM408.843 18.7186C409.22 18.7186 409.529 18.607 409.768 18.3838C410.012 18.1553 410.134 17.8604 410.134 17.4991C410.134 17.143 410.012 16.8534 409.768 16.6302C409.529 16.4071 409.22 16.2955 408.843 16.2955C408.46 16.2955 408.147 16.4071 407.902 16.6302C407.663 16.8534 407.544 17.143 407.544 17.4991C407.544 17.8604 407.663 18.1553 407.902 18.3838C408.147 18.607 408.46 18.7186 408.843 18.7186Z" fill="#15354E"/>
<path d="M411.946 21.3012C412.271 20.7273 412.51 20.1348 412.664 19.5237C412.818 18.9126 412.895 18.2616 412.895 17.5708C412.895 16.88 412.818 16.229 412.664 15.6179C412.51 15.0069 412.271 14.4143 411.946 13.8404H412.895C413.208 14.3134 413.448 14.8713 413.612 15.5143C413.782 16.152 413.867 16.8375 413.867 17.5708C413.867 18.3041 413.782 18.9896 413.612 19.6273C413.448 20.2596 413.208 20.8176 412.895 21.3012H411.946Z" fill="#15354E"/>
<path d="M462.8 20.3122C462.614 20.5301 462.396 20.6948 462.146 20.8064C461.902 20.918 461.633 20.9738 461.341 20.9738C460.958 20.9738 460.608 20.8861 460.289 20.7108C459.97 20.5407 459.606 20.2432 459.197 19.8181C458.681 19.7755 458.219 19.6268 457.81 19.3717C457.401 19.1113 457.082 18.7739 456.853 18.3594C456.625 17.9396 456.511 17.4746 456.511 16.9645C456.511 16.4225 456.641 15.9336 456.901 15.4978C457.162 15.0568 457.52 14.714 457.977 14.4696C458.434 14.2199 458.947 14.095 459.516 14.095C460.084 14.095 460.597 14.2199 461.054 14.4696C461.511 14.714 461.87 15.0541 462.13 15.4899C462.391 15.9256 462.521 16.4172 462.521 16.9645C462.521 17.4055 462.433 17.8147 462.258 18.192C462.082 18.564 461.838 18.8828 461.524 19.1485C461.211 19.4089 460.847 19.5975 460.432 19.7144C460.587 19.8792 460.738 19.9987 460.887 20.0731C461.036 20.1475 461.195 20.1847 461.365 20.1847C461.732 20.1847 462.05 20.0359 462.321 19.7383L462.8 20.3122ZM457.555 16.9645C457.555 17.3365 457.64 17.6739 457.81 17.9768C457.98 18.2744 458.214 18.5082 458.511 18.6782C458.809 18.843 459.144 18.9253 459.516 18.9253C459.888 18.9253 460.223 18.843 460.52 18.6782C460.818 18.5082 461.051 18.2744 461.222 17.9768C461.392 17.6739 461.477 17.3365 461.477 16.9645C461.477 16.5925 461.392 16.2577 461.222 15.9602C461.051 15.6573 460.818 15.4235 460.52 15.2587C460.223 15.0887 459.888 15.0037 459.516 15.0037C459.144 15.0037 458.809 15.0887 458.511 15.2587C458.214 15.4235 457.98 15.6573 457.81 15.9602C457.64 16.2577 457.555 16.5925 457.555 16.9645Z" fill="#15354E"/>
<path d="M463.347 17.1239H465.539V17.9529H463.347V17.1239Z" fill="#15354E"/>
<path d="M469.266 19.5231C469.149 19.6188 469.005 19.6905 468.835 19.7383C468.671 19.7862 468.495 19.8101 468.309 19.8101C467.842 19.8101 467.48 19.6879 467.225 19.4434C466.97 19.199 466.843 18.843 466.843 18.3753V16.3268H466.141V15.5297H466.843V14.5573H467.839V15.5297H468.979V16.3268H467.839V18.3514C467.839 18.5587 467.889 18.7181 467.99 18.8297C468.091 18.9359 468.238 18.9891 468.429 18.9891C468.652 18.9891 468.838 18.9306 468.987 18.8137L469.266 19.5231Z" fill="#15354E"/>
<path d="M473.993 15.4978L472 20.097C471.814 20.5593 471.588 20.8835 471.323 21.0695C471.057 21.2608 470.736 21.3564 470.358 21.3564C470.146 21.3564 469.936 21.3219 469.729 21.2528C469.521 21.1837 469.351 21.0881 469.218 20.9659L469.617 20.2325C469.713 20.3229 469.824 20.3946 469.952 20.4478C470.085 20.5009 470.217 20.5275 470.35 20.5275C470.526 20.5275 470.669 20.4823 470.781 20.392C470.898 20.3016 471.004 20.1502 471.1 19.9376L471.171 19.7702L469.314 15.4978H470.35L471.689 18.6463L473.037 15.4978H473.993Z" fill="#15354E"/>
<path d="M119.856 43.9079V43.9113H120.449V43.9079C120.449 43.3596 120.885 42.9441 121.46 42.9441C122.002 42.9441 122.434 43.3221 122.434 43.7955C122.434 44.2041 122.278 44.4664 121.617 45.1611L119.887 46.983V47.4053H123.129V46.8604H120.735V46.8468L121.978 45.5629C122.799 44.715 123.047 44.3063 123.047 43.758C123.047 43.0054 122.356 42.4094 121.477 42.4094C120.551 42.4094 119.856 43.0497 119.856 43.9079Z" fill="#15354E"/>
<path d="M125.557 47.4871C126.702 47.4871 127.362 46.496 127.362 44.9431C127.362 43.4004 126.698 42.4094 125.557 42.4094C124.416 42.4094 123.746 43.4072 123.746 44.9465C123.746 46.4995 124.41 47.4871 125.557 47.4871ZM125.557 46.9524C124.788 46.9524 124.362 46.1691 124.362 44.9431C124.362 43.7444 124.798 42.9475 125.557 42.9475C126.317 42.9475 126.746 43.7376 126.746 44.9465C126.746 46.1725 126.324 46.9524 125.557 46.9524Z" fill="#15354E"/>
<path d="M129.787 47.4871C130.931 47.4871 131.592 46.496 131.592 44.9431C131.592 43.4004 130.928 42.4094 129.787 42.4094C128.646 42.4094 127.975 43.4072 127.975 44.9465C127.975 46.4995 128.639 47.4871 129.787 47.4871ZM129.787 46.9524C129.017 46.9524 128.592 46.1691 128.592 44.9431C128.592 43.7444 129.028 42.9475 129.787 42.9475C130.546 42.9475 130.975 43.7376 130.975 44.9465C130.975 46.1725 130.553 46.9524 129.787 46.9524Z" fill="#15354E"/>
<path d="M42.986 47.4871C44.0724 47.4871 44.8012 46.9456 45.026 45.975H44.4061C44.2291 46.5744 43.7114 46.9217 42.9895 46.9217C42.0189 46.9217 41.4025 46.1521 41.4025 44.9465C41.4025 43.7512 42.0257 42.9747 42.986 42.9747C43.6876 42.9747 44.2495 43.397 44.4061 44.0407H45.026C44.8693 43.0599 44.0554 42.4094 42.986 42.4094C41.6409 42.4094 40.7725 43.4038 40.7725 44.9465C40.7725 46.5029 41.6307 47.4871 42.986 47.4871Z" fill="#15354E"/>
<path d="M46.8752 46.9251C46.412 46.9251 46.1157 46.7038 46.1157 46.3632C46.1157 46.0091 46.4018 45.8081 46.9535 45.7741L47.9138 45.7128V46.0091C47.9138 46.5369 47.4745 46.9251 46.8752 46.9251ZM46.7491 47.4394C47.2634 47.4394 47.7231 47.1772 47.9309 46.7685H47.9445V47.4053H48.5064V44.8852C48.5064 44.1633 47.9479 43.7001 47.0795 43.7001C46.3098 43.7001 45.7071 44.1735 45.69 44.7933H46.2588C46.3303 44.4459 46.647 44.228 47.0727 44.228C47.6141 44.228 47.9138 44.48 47.9138 44.9363V45.2428L46.8854 45.3041C45.9931 45.3586 45.5095 45.7298 45.5095 46.3598C45.5095 47.0103 46.0033 47.4394 46.7491 47.4394Z" fill="#15354E"/>
<path d="M49.2931 47.4053H49.8856V45.1338C49.8856 44.6162 50.1989 44.2688 50.6757 44.2688C50.7779 44.2688 50.9345 44.2893 50.9822 44.3097V43.724C50.9311 43.7103 50.8256 43.7001 50.754 43.7001C50.3249 43.7001 49.9742 43.9453 49.8652 44.3301H49.8516V43.7342H49.2931V47.4053Z" fill="#15354E"/>
<path d="M52.8212 46.8775C52.1809 46.8775 51.7621 46.3564 51.7621 45.5561C51.7621 44.7524 52.1809 44.228 52.8212 44.228C53.4648 44.228 53.9007 44.766 53.9007 45.5561C53.9007 46.3428 53.4648 46.8775 52.8212 46.8775ZM52.8314 48.7164C53.8633 48.7164 54.4933 48.1818 54.4933 47.3032V43.7342H53.928V44.3301H53.9178C53.6726 43.9283 53.2401 43.7001 52.7224 43.7001C51.7791 43.7001 51.1559 44.4357 51.1559 45.5561C51.1559 46.6663 51.7791 47.4053 52.7088 47.4053C53.223 47.4053 53.6555 47.1737 53.8871 46.7753H53.9007V47.3508C53.9007 47.8719 53.4989 48.2022 52.8655 48.2022C52.3819 48.2022 52.0175 48.0115 51.9289 47.705H51.3125C51.3977 48.3146 52.0005 48.7164 52.8314 48.7164Z" fill="#15354E"/>
<path d="M56.8125 47.4394C57.8443 47.4394 58.505 46.7072 58.505 45.5697C58.505 44.4289 57.8443 43.7001 56.8125 43.7001C55.7806 43.7001 55.1199 44.4289 55.1199 45.5697C55.1199 46.7072 55.7806 47.4394 56.8125 47.4394ZM56.8125 46.9115C56.1313 46.9115 55.7227 46.4109 55.7227 45.5697C55.7227 44.7286 56.1279 44.228 56.8125 44.228C57.497 44.228 57.9022 44.7252 57.9022 45.5697C57.9022 46.4109 57.497 46.9115 56.8125 46.9115Z" fill="#15354E"/>
<path d="M62.0467 47.4053H62.6393V42.4912H62.0399L60.7322 43.4311V44.0781L62.0331 43.1416H62.0467V47.4053Z" fill="#15354E"/>
<path d="M201.569 43.9079V43.9113H202.162V43.9079C202.162 43.3596 202.598 42.9441 203.173 42.9441C203.715 42.9441 204.147 43.3221 204.147 43.7955C204.147 44.2041 203.991 44.4664 203.33 45.1611L201.6 46.983V47.4053H204.842V46.8604H202.448V46.8468L203.691 45.5629C204.512 44.715 204.76 44.3063 204.76 43.758C204.76 43.0054 204.069 42.4094 203.19 42.4094C202.264 42.4094 201.569 43.0497 201.569 43.9079Z" fill="#15354E"/>
<path d="M207.27 47.4871C208.414 47.4871 209.075 46.496 209.075 44.9431C209.075 43.4004 208.411 42.4094 207.27 42.4094C206.129 42.4094 205.458 43.4072 205.458 44.9465C205.458 46.4995 206.123 47.4871 207.27 47.4871ZM207.27 46.9524C206.501 46.9524 206.075 46.1691 206.075 44.9431C206.075 43.7444 206.511 42.9475 207.27 42.9475C208.03 42.9475 208.459 43.7376 208.459 44.9465C208.459 46.1725 208.036 46.9524 207.27 46.9524Z" fill="#15354E"/>
<path d="M211.5 47.4871C212.644 47.4871 213.305 46.496 213.305 44.9431C213.305 43.4004 212.641 42.4094 211.5 42.4094C210.359 42.4094 209.688 43.4072 209.688 44.9465C209.688 46.4995 210.352 47.4871 211.5 47.4871ZM211.5 46.9524C210.73 46.9524 210.304 46.1691 210.304 44.9431C210.304 43.7444 210.74 42.9475 211.5 42.9475C212.259 42.9475 212.688 43.7376 212.688 44.9465C212.688 46.1725 212.266 46.9524 211.5 46.9524Z" fill="#15354E"/>
<path d="M282.517 45.1372H283.133C283.835 45.1372 284.271 45.4948 284.271 46.0738C284.271 46.588 283.804 46.9558 283.154 46.9558C282.493 46.9558 282.074 46.6084 282.02 46.1044H281.431C281.475 46.9183 282.132 47.4871 283.161 47.4871C284.124 47.4871 284.894 46.8979 284.894 46.0533C284.894 45.362 284.417 44.9023 283.675 44.858V44.8444C284.288 44.7354 284.683 44.2927 284.683 43.6763C284.683 42.9373 284.019 42.4094 283.14 42.4094C282.217 42.4094 281.598 42.9441 281.529 43.7784H282.119C282.173 43.2642 282.548 42.9407 283.113 42.9407C283.736 42.9407 284.067 43.271 284.067 43.758C284.067 44.2552 283.671 44.6196 283.106 44.6196H282.517V45.1372Z" fill="#15354E"/>
<path d="M287.363 47.4871C288.507 47.4871 289.168 46.496 289.168 44.9431C289.168 43.4004 288.504 42.4094 287.363 42.4094C286.222 42.4094 285.551 43.4072 285.551 44.9465C285.551 46.4995 286.215 47.4871 287.363 47.4871ZM287.363 46.9524C286.593 46.9524 286.168 46.1691 286.168 44.9431C286.168 43.7444 286.604 42.9475 287.363 42.9475C288.123 42.9475 288.552 43.7376 288.552 44.9465C288.552 46.1725 288.129 46.9524 287.363 46.9524Z" fill="#15354E"/>
<path d="M291.593 47.4871C292.737 47.4871 293.398 46.496 293.398 44.9431C293.398 43.4004 292.734 42.4094 291.593 42.4094C290.452 42.4094 289.781 43.4072 289.781 44.9465C289.781 46.4995 290.445 47.4871 291.593 47.4871ZM291.593 46.9524C290.823 46.9524 290.397 46.1691 290.397 44.9431C290.397 43.7444 290.833 42.9475 291.593 42.9475C292.352 42.9475 292.781 43.7376 292.781 44.9465C292.781 46.1725 292.359 46.9524 291.593 46.9524Z" fill="#15354E"/>
<path d="M367.472 45.1372H368.089C368.79 45.1372 369.226 45.4948 369.226 46.0738C369.226 46.588 368.759 46.9558 368.109 46.9558C367.448 46.9558 367.029 46.6084 366.975 46.1044H366.386C366.43 46.9183 367.087 47.4871 368.116 47.4871C369.08 47.4871 369.849 46.8979 369.849 46.0533C369.849 45.362 369.372 44.9023 368.63 44.858V44.8444C369.243 44.7354 369.638 44.2927 369.638 43.6763C369.638 42.9373 368.974 42.4094 368.095 42.4094C367.172 42.4094 366.553 42.9441 366.485 43.7784H367.074C367.128 43.2642 367.503 42.9407 368.068 42.9407C368.691 42.9407 369.022 43.271 369.022 43.758C369.022 44.2552 368.627 44.6196 368.061 44.6196H367.472V45.1372Z" fill="#15354E"/>
<path d="M372.318 47.4871C373.462 47.4871 374.123 46.496 374.123 44.9431C374.123 43.4004 373.459 42.4094 372.318 42.4094C371.177 42.4094 370.506 43.4072 370.506 44.9465C370.506 46.4995 371.17 47.4871 372.318 47.4871ZM372.318 46.9524C371.549 46.9524 371.123 46.1691 371.123 44.9431C371.123 43.7444 371.559 42.9475 372.318 42.9475C373.078 42.9475 373.507 43.7376 373.507 44.9465C373.507 46.1725 373.084 46.9524 372.318 46.9524Z" fill="#15354E"/>
<path d="M457.56 45.1372H458.176C458.878 45.1372 459.314 45.4948 459.314 46.0738C459.314 46.588 458.847 46.9558 458.197 46.9558C457.536 46.9558 457.117 46.6084 457.063 46.1044H456.474C456.518 46.9183 457.175 47.4871 458.204 47.4871C459.167 47.4871 459.937 46.8979 459.937 46.0533C459.937 45.362 459.46 44.9023 458.718 44.858V44.8444C459.331 44.7354 459.726 44.2927 459.726 43.6763C459.726 42.9373 459.062 42.4094 458.183 42.4094C457.26 42.4094 456.641 42.9441 456.572 43.7784H457.162C457.216 43.2642 457.591 42.9407 458.156 42.9407C458.779 42.9407 459.11 43.271 459.11 43.758C459.11 44.2552 458.714 44.6196 458.149 44.6196H457.56V45.1372Z" fill="#15354E"/>
<path d="M462.406 47.4871C463.55 47.4871 464.211 46.496 464.211 44.9431C464.211 43.4004 463.547 42.4094 462.406 42.4094C461.265 42.4094 460.594 43.4072 460.594 44.9465C460.594 46.4995 461.258 47.4871 462.406 47.4871ZM462.406 46.9524C461.636 46.9524 461.211 46.1691 461.211 44.9431C461.211 43.7444 461.647 42.9475 462.406 42.9475C463.165 42.9475 463.595 43.7376 463.595 44.9465C463.595 46.1725 463.172 46.9524 462.406 46.9524Z" fill="#15354E"/>
<path d="M466.636 47.4871C467.78 47.4871 468.441 46.496 468.441 44.9431C468.441 43.4004 467.777 42.4094 466.636 42.4094C465.495 42.4094 464.824 43.4072 464.824 44.9465C464.824 46.4995 465.488 47.4871 466.636 47.4871ZM466.636 46.9524C465.866 46.9524 465.44 46.1691 465.44 44.9431C465.44 43.7444 465.876 42.9475 466.636 42.9475C467.395 42.9475 467.824 43.7376 467.824 44.9465C467.824 46.1725 467.402 46.9524 466.636 46.9524Z" fill="#15354E"/>
<path d="M526.864 40.9287C526.864 40.3785 527.31 39.9324 527.861 39.9324H558.748C559.298 39.9324 559.744 40.3785 559.744 40.9287V49.8959C559.744 50.4462 559.298 50.8923 558.748 50.8923H527.861C527.31 50.8923 526.864 50.4462 526.864 49.8959V40.9287Z" fill="#0088FF" fill-opacity="0.15"/>
<path d="M526.864 70.3552C526.864 69.805 527.31 69.3589 527.861 69.3589H558.748C559.298 69.3589 559.744 69.805 559.744 70.3552V79.3225C559.744 79.8727 559.298 80.3188 558.748 80.3188H527.861C527.31 80.3188 526.864 79.8727 526.864 79.3225V70.3552Z" fill="#FFF4D7"/>
<path d="M121.416 77.3811C122.424 77.3811 123.156 76.6727 123.156 75.7021C123.156 74.769 122.462 74.0777 121.525 74.0777C120.915 74.0777 120.374 74.3944 120.153 74.8746H120.142C120.163 73.5669 120.629 72.8381 121.45 72.8381C121.937 72.8381 122.332 73.1242 122.465 73.5703H123.088C122.931 72.7972 122.291 72.2966 121.457 72.2966C120.255 72.2966 119.55 73.2672 119.55 74.9223C119.55 75.4535 119.628 75.8963 119.792 76.2743C120.095 76.9826 120.68 77.3811 121.416 77.3811ZM121.409 76.8362C120.779 76.8362 120.289 76.3356 120.289 75.7056C120.289 75.0789 120.769 74.6158 121.419 74.6158C122.07 74.6158 122.533 75.0789 122.533 75.7226C122.533 76.3424 122.036 76.8362 121.409 76.8362Z" fill="#15354E"/>
<path d="M125.533 77.3777C126.678 77.3777 127.338 76.3867 127.338 74.8337C127.338 73.291 126.674 72.3 125.533 72.3C124.392 72.3 123.722 73.2979 123.722 74.8371C123.722 76.3901 124.386 77.3777 125.533 77.3777ZM125.533 76.843C124.764 76.843 124.338 76.0597 124.338 74.8337C124.338 73.635 124.774 72.8381 125.533 72.8381C126.293 72.8381 126.722 73.6282 126.722 74.8371C126.722 76.0631 126.3 76.843 125.533 76.843Z" fill="#15354E"/>
<path d="M129.763 77.3777C130.907 77.3777 131.568 76.3867 131.568 74.8337C131.568 73.291 130.904 72.3 129.763 72.3C128.622 72.3 127.951 73.2979 127.951 74.8371C127.951 76.3901 128.615 77.3777 129.763 77.3777ZM129.763 76.843C128.993 76.843 128.568 76.0597 128.568 74.8337C128.568 73.635 129.004 72.8381 129.763 72.8381C130.522 72.8381 130.951 73.6282 130.951 74.8371C130.951 76.0631 130.529 76.843 129.763 76.843Z" fill="#15354E"/>
<path d="M42.986 77.3777C44.0724 77.3777 44.8012 76.8362 45.026 75.8656H44.4061C44.2291 76.465 43.7114 76.8124 42.9895 76.8124C42.0189 76.8124 41.4025 76.0427 41.4025 74.8372C41.4025 73.6418 42.0257 72.8654 42.986 72.8654C43.6876 72.8654 44.2495 73.2876 44.4061 73.9313H45.026C44.8693 72.9505 44.0554 72.3 42.986 72.3C41.6409 72.3 40.7725 73.2945 40.7725 74.8372C40.7725 76.3935 41.6307 77.3777 42.986 77.3777Z" fill="#15354E"/>
<path d="M46.8752 76.8158C46.412 76.8158 46.1157 76.5944 46.1157 76.2539C46.1157 75.8997 46.4018 75.6988 46.9535 75.6647L47.9138 75.6034V75.8997C47.9138 76.4275 47.4745 76.8158 46.8752 76.8158ZM46.7491 77.33C47.2634 77.33 47.7231 77.0678 47.9309 76.6591H47.9445V77.2959H48.5064V74.7759C48.5064 74.0539 47.9479 73.5907 47.0795 73.5907C46.3098 73.5907 45.7071 74.0641 45.69 74.6839H46.2588C46.3303 74.3365 46.647 74.1186 47.0727 74.1186C47.6141 74.1186 47.9138 74.3706 47.9138 74.8269V75.1334L46.8854 75.1947C45.9931 75.2492 45.5095 75.6204 45.5095 76.2505C45.5095 76.9009 46.0033 77.33 46.7491 77.33Z" fill="#15354E"/>
<path d="M49.2931 77.2959H49.8856V75.0245C49.8856 74.5068 50.1989 74.1595 50.6757 74.1595C50.7779 74.1595 50.9345 74.1799 50.9822 74.2003V73.6146C50.9311 73.601 50.8256 73.5907 50.754 73.5907C50.3249 73.5907 49.9742 73.8359 49.8652 74.2208H49.8516V73.6248H49.2931V77.2959Z" fill="#15354E"/>
<path d="M52.8212 76.7681C52.1809 76.7681 51.7621 76.247 51.7621 75.4467C51.7621 74.643 52.1809 74.1186 52.8212 74.1186C53.4648 74.1186 53.9007 74.6567 53.9007 75.4467C53.9007 76.2334 53.4648 76.7681 52.8212 76.7681ZM52.8314 78.6071C53.8633 78.6071 54.4933 78.0724 54.4933 77.1938V73.6248H53.928V74.2208H53.9178C53.6726 73.8189 53.2401 73.5907 52.7224 73.5907C51.7791 73.5907 51.1559 74.3263 51.1559 75.4467C51.1559 76.5569 51.7791 77.2959 52.7088 77.2959C53.223 77.2959 53.6555 77.0644 53.8871 76.6659H53.9007V77.2415C53.9007 77.7625 53.4989 78.0928 52.8655 78.0928C52.3819 78.0928 52.0175 77.9021 51.9289 77.5956H51.3125C51.3977 78.2052 52.0005 78.6071 52.8314 78.6071Z" fill="#15354E"/>
<path d="M56.8125 77.33C57.8443 77.33 58.505 76.5978 58.505 75.4604C58.505 74.3195 57.8443 73.5907 56.8125 73.5907C55.7806 73.5907 55.1199 74.3195 55.1199 75.4604C55.1199 76.5978 55.7806 77.33 56.8125 77.33ZM56.8125 76.8021C56.1314 76.8021 55.7227 76.3015 55.7227 75.4604C55.7227 74.6192 56.1279 74.1186 56.8125 74.1186C57.497 74.1186 57.9022 74.6158 57.9022 75.4604C57.9022 76.3015 57.497 76.8021 56.8125 76.8021Z" fill="#15354E"/>
<path d="M60.7629 73.7985V73.8019H61.3554V73.7985C61.3554 73.2502 61.7913 72.8347 62.3669 72.8347C62.9083 72.8347 63.3408 73.2127 63.3408 73.6861C63.3408 74.0948 63.1842 74.357 62.5235 75.0517L60.7935 76.8737V77.2959H64.0356V76.7511H61.6415V76.7374L62.8845 75.4536C63.7052 74.6056 63.9538 74.1969 63.9538 73.6486C63.9538 72.896 63.2625 72.3 62.3839 72.3C61.4576 72.3 60.7629 72.9403 60.7629 73.7985Z" fill="#15354E"/>
<path d="M203.935 77.2959H204.527V76.2743H205.222V75.7362H204.527V72.3818H203.622C202.46 74.0471 201.885 74.9427 201.466 75.7192V76.2743H203.935V77.2959ZM202.072 75.7226C202.46 75.0415 202.995 74.2208 203.925 72.8926H203.935V75.7362H202.072V75.7226Z" fill="#15354E"/>
<path d="M207.541 77.3777C208.686 77.3777 209.346 76.3867 209.346 74.8338C209.346 73.2911 208.682 72.3 207.541 72.3C206.4 72.3 205.73 73.2979 205.73 74.8372C205.73 76.3901 206.394 77.3777 207.541 77.3777ZM207.541 76.843C206.772 76.843 206.346 76.0597 206.346 74.8338C206.346 73.635 206.782 72.8381 207.541 72.8381C208.301 72.8381 208.73 73.6282 208.73 74.8372C208.73 76.0631 208.308 76.843 207.541 76.843Z" fill="#15354E"/>
<path d="M211.771 77.3777C212.915 77.3777 213.576 76.3867 213.576 74.8338C213.576 73.2911 212.912 72.3 211.771 72.3C210.63 72.3 209.959 73.2979 209.959 74.8372C209.959 76.3901 210.623 77.3777 211.771 77.3777ZM211.771 76.843C211.001 76.843 210.576 76.0597 210.576 74.8338C210.576 73.635 211.011 72.8381 211.771 72.8381C212.53 72.8381 212.959 73.6282 212.959 74.8372C212.959 76.0631 212.537 76.843 211.771 76.843Z" fill="#15354E"/>
<path d="M281.487 73.7985V73.8019H282.08V73.7985C282.08 73.2502 282.516 72.8347 283.091 72.8347C283.633 72.8347 284.065 73.2127 284.065 73.6861C284.065 74.0948 283.909 74.357 283.248 75.0517L281.518 76.8737V77.2959H284.76V76.7511H282.366V76.7374L283.609 75.4536C284.43 74.6056 284.678 74.1969 284.678 73.6486C284.678 72.896 283.987 72.3 283.108 72.3C282.182 72.3 281.487 72.9403 281.487 73.7985Z" fill="#15354E"/>
<path d="M287.188 77.3777C288.332 77.3777 288.993 76.3867 288.993 74.8338C288.993 73.2911 288.329 72.3 287.188 72.3C286.047 72.3 285.376 73.2979 285.376 74.8372C285.376 76.3901 286.04 77.3777 287.188 77.3777ZM287.188 76.843C286.418 76.843 285.993 76.0597 285.993 74.8338C285.993 73.635 286.429 72.8381 287.188 72.8381C287.948 72.8381 288.377 73.6282 288.377 74.8372C288.377 76.0631 287.954 76.843 287.188 76.843Z" fill="#15354E"/>
<path d="M291.418 77.3777C292.562 77.3777 293.223 76.3867 293.223 74.8338C293.223 73.2911 292.559 72.3 291.418 72.3C290.277 72.3 289.606 73.2979 289.606 74.8372C289.606 76.3901 290.27 77.3777 291.418 77.3777ZM291.418 76.843C290.648 76.843 290.222 76.0597 290.222 74.8338C290.222 73.635 290.658 72.8381 291.418 72.8381C292.177 72.8381 292.606 73.6282 292.606 74.8372C292.606 76.0631 292.184 76.843 291.418 76.843Z" fill="#15354E"/>
<path d="M368.159 77.3777C369.184 77.3777 369.91 76.6864 369.91 75.6988C369.91 74.7452 369.229 74.0539 368.285 74.0539C367.815 74.0539 367.407 74.231 367.185 74.5273H367.172L367.322 72.9267H369.631V72.3818H366.818L366.549 75.1334H367.124C367.325 74.7895 367.717 74.5817 368.176 74.5817C368.83 74.5817 369.297 75.0551 369.297 75.7158C369.297 76.3765 368.834 76.8396 368.166 76.8396C367.577 76.8396 367.131 76.4786 367.076 75.9542H366.474C366.525 76.7919 367.219 77.3777 368.159 77.3777Z" fill="#15354E"/>
<path d="M372.27 77.3777C373.414 77.3777 374.075 76.3867 374.075 74.8338C374.075 73.2911 373.411 72.3 372.27 72.3C371.129 72.3 370.458 73.2979 370.458 74.8372C370.458 76.3901 371.122 77.3777 372.27 77.3777ZM372.27 76.843C371.5 76.843 371.074 76.0597 371.074 74.8338C371.074 73.635 371.51 72.8381 372.27 72.8381C373.029 72.8381 373.458 73.6282 373.458 74.8372C373.458 76.0631 373.036 76.843 372.27 76.843Z" fill="#15354E"/>
<path d="M456.526 73.7985V73.8019H457.119V73.7985C457.119 73.2502 457.555 72.8347 458.13 72.8347C458.672 72.8347 459.104 73.2127 459.104 73.6861C459.104 74.0948 458.948 74.357 458.287 75.0517L456.557 76.8737V77.2959H459.799V76.7511H457.405V76.7374L458.648 75.4536C459.469 74.6056 459.717 74.1969 459.717 73.6486C459.717 72.896 459.026 72.3 458.147 72.3C457.221 72.3 456.526 72.9403 456.526 73.7985Z" fill="#15354E"/>
<path d="M462.227 77.3777C463.371 77.3777 464.032 76.3867 464.032 74.8338C464.032 73.2911 463.368 72.3 462.227 72.3C461.086 72.3 460.415 73.2979 460.415 74.8372C460.415 76.3901 461.08 77.3777 462.227 77.3777ZM462.227 76.843C461.458 76.843 461.032 76.0597 461.032 74.8338C461.032 73.635 461.468 72.8381 462.227 72.8381C462.987 72.8381 463.416 73.6282 463.416 74.8372C463.416 76.0631 462.993 76.843 462.227 76.843Z" fill="#15354E"/>
<path d="M466.457 77.3777C467.601 77.3777 468.262 76.3867 468.262 74.8338C468.262 73.2911 467.598 72.3 466.457 72.3C465.316 72.3 464.645 73.2979 464.645 74.8372C464.645 76.3901 465.309 77.3777 466.457 77.3777ZM466.457 76.843C465.687 76.843 465.262 76.0597 465.262 74.8338C465.262 73.635 465.697 72.8381 466.457 72.8381C467.216 72.8381 467.645 73.6282 467.645 74.8372C467.645 76.0631 467.223 76.843 466.457 76.843Z" fill="#15354E"/>
<path d="M533.603 75.6487V77.3777H532.693V75.6627L530.768 72.4777H531.741L533.176 74.8647L534.625 72.4777H535.521L533.603 75.6487ZM539.13 75.5297C539.13 75.5904 539.125 75.6767 539.116 75.7887H536.183C536.234 76.064 536.367 76.2834 536.582 76.4467C536.801 76.6054 537.072 76.6847 537.394 76.6847C537.805 76.6847 538.143 76.5494 538.409 76.2787L538.878 76.8177C538.71 77.0184 538.498 77.17 538.241 77.2727C537.984 77.3754 537.695 77.4267 537.373 77.4267C536.962 77.4267 536.601 77.345 536.288 77.1817C535.975 77.0184 535.733 76.792 535.56 76.5027C535.392 76.2087 535.308 75.8774 535.308 75.5087C535.308 75.1447 535.39 74.818 535.553 74.5287C535.721 74.2347 535.952 74.006 536.246 73.8427C536.54 73.6794 536.871 73.5977 537.24 73.5977C537.604 73.5977 537.928 73.6794 538.213 73.8427C538.502 74.0014 538.726 74.2277 538.885 74.5217C539.048 74.811 539.13 75.147 539.13 75.5297ZM537.24 74.2977C536.96 74.2977 536.722 74.3817 536.526 74.5497C536.335 74.713 536.218 74.9324 536.176 75.2077H538.297C538.26 74.937 538.145 74.7177 537.954 74.5497C537.763 74.3817 537.525 74.2977 537.24 74.2977ZM539.97 72.1837H540.845V77.3777H539.97V72.1837ZM541.994 72.1837H542.869V77.3777H541.994V72.1837ZM545.697 77.4267C545.319 77.4267 544.979 77.345 544.675 77.1817C544.372 77.0184 544.134 76.792 543.961 76.5027C543.793 76.2087 543.709 75.8774 543.709 75.5087C543.709 75.14 543.793 74.811 543.961 74.5217C544.134 74.2324 544.372 74.006 544.675 73.8427C544.979 73.6794 545.319 73.5977 545.697 73.5977C546.08 73.5977 546.423 73.6794 546.726 73.8427C547.03 74.006 547.265 74.2324 547.433 74.5217C547.606 74.811 547.692 75.14 547.692 75.5087C547.692 75.8774 547.606 76.2087 547.433 76.5027C547.265 76.792 547.03 77.0184 546.726 77.1817C546.423 77.345 546.08 77.4267 545.697 77.4267ZM545.697 76.6777C546.019 76.6777 546.285 76.5704 546.495 76.3557C546.705 76.141 546.81 75.8587 546.81 75.5087C546.81 75.1587 546.705 74.8764 546.495 74.6617C546.285 74.447 546.019 74.3397 545.697 74.3397C545.375 74.3397 545.109 74.447 544.899 74.6617C544.694 74.8764 544.591 75.1587 544.591 75.5087C544.591 75.8587 544.694 76.141 544.899 76.3557C545.109 76.5704 545.375 76.6777 545.697 76.6777ZM554.258 73.6397L552.879 77.3777H552.039L551.073 74.8017L550.093 77.3777H549.253L547.881 73.6397H548.707L549.694 76.3977L550.723 73.6397H551.458L552.466 76.4117L553.481 73.6397H554.258Z" fill="#FFBC00"/>
<path d="M526.864 100.246C526.864 99.6955 527.31 99.2495 527.861 99.2495H558.748C559.298 99.2495 559.744 99.6955 559.744 100.246V109.213C559.744 109.763 559.298 110.209 558.748 110.209H527.861C527.31 110.209 526.864 109.763 526.864 109.213V100.246Z" fill="#F3E0FE"/>
<path d="M533.505 102.368C533.93 102.368 534.298 102.438 534.611 102.578C534.928 102.718 535.171 102.919 535.339 103.18C535.507 103.442 535.591 103.752 535.591 104.111C535.591 104.466 535.507 104.776 535.339 105.042C535.171 105.304 534.928 105.504 534.611 105.644C534.298 105.784 533.93 105.854 533.505 105.854H532.399V107.268H531.489V102.368H533.505ZM533.463 105.084C533.86 105.084 534.161 105 534.366 104.832C534.571 104.664 534.674 104.424 534.674 104.111C534.674 103.799 534.571 103.558 534.366 103.39C534.161 103.222 533.86 103.138 533.463 103.138H532.399V105.084H533.463ZM536.382 103.53H537.257V107.268H536.382V103.53ZM536.823 102.914C536.664 102.914 536.531 102.865 536.424 102.767C536.316 102.665 536.263 102.539 536.263 102.389C536.263 102.24 536.316 102.116 536.424 102.018C536.531 101.916 536.664 101.864 536.823 101.864C536.981 101.864 537.114 101.913 537.222 102.011C537.329 102.105 537.383 102.224 537.383 102.368C537.383 102.522 537.329 102.653 537.222 102.76C537.119 102.863 536.986 102.914 536.823 102.914ZM540.526 103.488C540.997 103.488 541.375 103.626 541.66 103.901C541.945 104.177 542.087 104.585 542.087 105.126V107.268H541.212V105.238C541.212 104.912 541.135 104.667 540.981 104.503C540.827 104.335 540.608 104.251 540.323 104.251C540.001 104.251 539.747 104.349 539.56 104.545C539.373 104.737 539.28 105.014 539.28 105.378V107.268H538.405V103.53H539.238V104.013C539.383 103.841 539.565 103.71 539.784 103.621C540.003 103.533 540.251 103.488 540.526 103.488ZM544.723 105.665L544.072 106.281V107.268H543.197V102.074H544.072V105.21L545.885 103.53H546.935L545.374 105.098L547.082 107.268H546.018L544.723 105.665Z" fill="#B982DB"/>
<path d="M534.961 46.0309C535.232 46.1196 535.446 46.2689 535.605 46.4789C535.764 46.6843 535.843 46.9409 535.843 47.2489C535.843 47.6736 535.68 48.0026 535.353 48.2359C535.026 48.4646 534.55 48.5789 533.925 48.5789H531.489V43.6789H533.785C534.364 43.6789 534.809 43.7933 535.122 44.0219C535.435 44.2459 535.591 44.5563 535.591 44.9529C535.591 45.1956 535.535 45.4103 535.423 45.5969C535.311 45.7836 535.157 45.9283 534.961 46.0309ZM532.399 44.3929V45.7439H533.687C534.004 45.7439 534.247 45.6879 534.415 45.5759C534.588 45.4593 534.674 45.2913 534.674 45.0719C534.674 44.8479 534.588 44.6799 534.415 44.5679C534.247 44.4513 534.004 44.3929 533.687 44.3929H532.399ZM533.869 47.8649C534.574 47.8649 534.926 47.6293 534.926 47.1579C534.926 46.6866 534.574 46.4509 533.869 46.4509H532.399V47.8649H533.869ZM536.73 43.3849H537.605V48.5789H536.73V43.3849ZM542.373 44.8409V48.5789H541.54V48.1029C541.4 48.2709 541.225 48.4016 541.015 48.4949C540.805 48.5836 540.578 48.6279 540.336 48.6279C539.836 48.6279 539.442 48.4903 539.153 48.2149C538.868 47.9349 538.726 47.5219 538.726 46.9759V44.8409H539.601V46.8569C539.601 47.1929 539.675 47.4449 539.825 47.6129C539.979 47.7763 540.196 47.8579 540.476 47.8579C540.788 47.8579 541.036 47.7623 541.218 47.5709C541.404 47.3749 541.498 47.0949 541.498 46.7309V44.8409H542.373ZM547.032 46.7309C547.032 46.7916 547.028 46.8779 547.018 46.9899H544.085C544.137 47.2653 544.27 47.4846 544.484 47.6479C544.704 47.8066 544.974 47.8859 545.296 47.8859C545.707 47.8859 546.045 47.7506 546.311 47.4799L546.78 48.0189C546.612 48.2196 546.4 48.3713 546.143 48.4739C545.887 48.5766 545.597 48.6279 545.275 48.6279C544.865 48.6279 544.503 48.5463 544.19 48.3829C543.878 48.2196 543.635 47.9933 543.462 47.7039C543.294 47.4099 543.21 47.0786 543.21 46.7099C543.21 46.3459 543.292 46.0193 543.455 45.7299C543.623 45.4359 543.854 45.2073 544.148 45.0439C544.442 44.8806 544.774 44.7989 545.142 44.7989C545.506 44.7989 545.831 44.8806 546.115 45.0439C546.405 45.2026 546.629 45.4289 546.787 45.7229C546.951 46.0123 547.032 46.3483 547.032 46.7309ZM545.142 45.4989C544.862 45.4989 544.624 45.5829 544.428 45.7509C544.237 45.9143 544.12 46.1336 544.078 46.4089H546.199C546.162 46.1383 546.048 45.9189 545.856 45.7509C545.665 45.5829 545.427 45.4989 545.142 45.4989Z" fill="#0088FF"/>
<path d="M121.416 107.77C122.424 107.77 123.156 107.062 123.156 106.091C123.156 105.158 122.462 104.467 121.525 104.467C120.915 104.467 120.374 104.784 120.153 105.264H120.142C120.163 103.956 120.629 103.227 121.45 103.227C121.937 103.227 122.332 103.513 122.465 103.959H123.088C122.931 103.186 122.291 102.686 121.457 102.686C120.255 102.686 119.55 103.656 119.55 105.311C119.55 105.843 119.628 106.285 119.792 106.663C120.095 107.372 120.68 107.77 121.416 107.77ZM121.409 107.225C120.779 107.225 120.289 106.725 120.289 106.095C120.289 105.468 120.769 105.005 121.419 105.005C122.07 105.005 122.533 105.468 122.533 106.112C122.533 106.732 122.036 107.225 121.409 107.225Z" fill="#15354E"/>
<path d="M125.533 107.767C126.678 107.767 127.338 106.776 127.338 105.223C127.338 103.68 126.674 102.689 125.533 102.689C124.392 102.689 123.722 103.687 123.722 105.226C123.722 106.779 124.386 107.767 125.533 107.767ZM125.533 107.232C124.764 107.232 124.338 106.449 124.338 105.223C124.338 104.024 124.774 103.227 125.533 103.227C126.293 103.227 126.722 104.017 126.722 105.226C126.722 106.452 126.3 107.232 125.533 107.232Z" fill="#15354E"/>
<path d="M129.763 107.767C130.907 107.767 131.568 106.776 131.568 105.223C131.568 103.68 130.904 102.689 129.763 102.689C128.622 102.689 127.951 103.687 127.951 105.226C127.951 106.779 128.615 107.767 129.763 107.767ZM129.763 107.232C128.993 107.232 128.568 106.449 128.568 105.223C128.568 104.024 129.004 103.227 129.763 103.227C130.522 103.227 130.951 104.017 130.951 105.226C130.951 106.452 130.529 107.232 129.763 107.232Z" fill="#15354E"/>
<path d="M42.986 107.767C44.0724 107.767 44.8012 107.225 45.026 106.255H44.4061C44.2291 106.854 43.7114 107.202 42.9895 107.202C42.0189 107.202 41.4025 106.432 41.4025 105.226C41.4025 104.031 42.0257 103.255 42.986 103.255C43.6876 103.255 44.2495 103.677 44.4061 104.32H45.026C44.8693 103.34 44.0554 102.689 42.986 102.689C41.6409 102.689 40.7725 103.684 40.7725 105.226C40.7725 106.783 41.6307 107.767 42.986 107.767Z" fill="#15354E"/>
<path d="M46.8751 107.205C46.412 107.205 46.1157 106.984 46.1157 106.643C46.1157 106.289 46.4018 106.088 46.9535 106.054L47.9138 105.993V106.289C47.9138 106.817 47.4745 107.205 46.8751 107.205ZM46.7491 107.719C47.2634 107.719 47.7231 107.457 47.9309 107.048H47.9445V107.685H48.5064V105.165C48.5064 104.443 47.9479 103.98 47.0795 103.98C46.3098 103.98 45.7071 104.453 45.69 105.073H46.2588C46.3303 104.726 46.647 104.508 47.0727 104.508C47.6141 104.508 47.9138 104.76 47.9138 105.216V105.523L46.8854 105.584C45.9931 105.638 45.5095 106.01 45.5095 106.64C45.5095 107.29 46.0033 107.719 46.7491 107.719Z" fill="#15354E"/>
<path d="M49.2931 107.685H49.8856V105.414C49.8856 104.896 50.1989 104.549 50.6757 104.549C50.7779 104.549 50.9345 104.569 50.9822 104.589V104.004C50.9311 103.99 50.8256 103.98 50.754 103.98C50.3249 103.98 49.9742 104.225 49.8652 104.61H49.8516V104.014H49.2931V107.685Z" fill="#15354E"/>
<path d="M52.8212 107.157C52.1809 107.157 51.7621 106.636 51.7621 105.836C51.7621 105.032 52.1809 104.508 52.8212 104.508C53.4648 104.508 53.9007 105.046 53.9007 105.836C53.9007 106.623 53.4648 107.157 52.8212 107.157ZM52.8314 108.996C53.8633 108.996 54.4933 108.462 54.4933 107.583V104.014H53.928V104.61H53.9178C53.6726 104.208 53.2401 103.98 52.7224 103.98C51.7791 103.98 51.1559 104.715 51.1559 105.836C51.1559 106.946 51.7791 107.685 52.7088 107.685C53.223 107.685 53.6555 107.454 53.8871 107.055H53.9007V107.631C53.9007 108.152 53.4989 108.482 52.8655 108.482C52.3819 108.482 52.0175 108.291 51.9289 107.985H51.3125C51.3977 108.594 52.0005 108.996 52.8314 108.996Z" fill="#15354E"/>
<path d="M56.8125 107.719C57.8443 107.719 58.505 106.987 58.505 105.85C58.505 104.709 57.8443 103.98 56.8125 103.98C55.7806 103.98 55.1199 104.709 55.1199 105.85C55.1199 106.987 55.7806 107.719 56.8125 107.719ZM56.8125 107.191C56.1313 107.191 55.7227 106.691 55.7227 105.85C55.7227 105.008 56.1279 104.508 56.8125 104.508C57.497 104.508 57.9022 105.005 57.9022 105.85C57.9022 106.691 57.497 107.191 56.8125 107.191Z" fill="#15354E"/>
<path d="M61.7947 105.417H62.4111C63.1127 105.417 63.5486 105.775 63.5486 106.354C63.5486 106.868 63.082 107.236 62.4316 107.236C61.7709 107.236 61.352 106.888 61.2975 106.384H60.7084C60.7526 107.198 61.4099 107.767 62.4384 107.767C63.4021 107.767 64.1718 107.178 64.1718 106.333C64.1718 105.642 63.695 105.182 62.9526 105.138V105.124C63.5656 105.015 63.9606 104.572 63.9606 103.956C63.9606 103.217 63.2966 102.689 62.4179 102.689C61.495 102.689 60.8752 103.224 60.8071 104.058H61.3963C61.4508 103.544 61.8254 103.22 62.3907 103.22C63.0139 103.22 63.3442 103.551 63.3442 104.038C63.3442 104.535 62.9492 104.899 62.3839 104.899H61.7947V105.417Z" fill="#15354E"/>
<path d="M203.377 107.77C204.385 107.77 205.117 107.062 205.117 106.091C205.117 105.158 204.422 104.467 203.486 104.467C202.876 104.467 202.335 104.784 202.114 105.264H202.103C202.124 103.956 202.59 103.227 203.411 103.227C203.898 103.227 204.293 103.513 204.426 103.959H205.049C204.892 103.186 204.252 102.686 203.418 102.686C202.216 102.686 201.511 103.656 201.511 105.311C201.511 105.843 201.589 106.285 201.753 106.663C202.056 107.372 202.641 107.77 203.377 107.77ZM203.37 107.225C202.74 107.225 202.25 106.725 202.25 106.095C202.25 105.468 202.73 105.005 203.38 105.005C204.031 105.005 204.494 105.468 204.494 106.112C204.494 106.732 203.997 107.225 203.37 107.225Z" fill="#15354E"/>
<path d="M207.494 107.767C208.638 107.767 209.299 106.776 209.299 105.223C209.299 103.68 208.635 102.689 207.494 102.689C206.353 102.689 205.683 103.687 205.683 105.226C205.683 106.779 206.347 107.767 207.494 107.767ZM207.494 107.232C206.725 107.232 206.299 106.449 206.299 105.223C206.299 104.024 206.735 103.227 207.494 103.227C208.254 103.227 208.683 104.017 208.683 105.226C208.683 106.452 208.26 107.232 207.494 107.232Z" fill="#15354E"/>
<path d="M211.724 107.767C212.868 107.767 213.529 106.776 213.529 105.223C213.529 103.68 212.865 102.689 211.724 102.689C210.583 102.689 209.912 103.687 209.912 105.226C209.912 106.779 210.576 107.767 211.724 107.767ZM211.724 107.232C210.954 107.232 210.529 106.449 210.529 105.223C210.529 104.024 210.964 103.227 211.724 103.227C212.483 103.227 212.912 104.017 212.912 105.226C212.912 106.452 212.49 107.232 211.724 107.232Z" fill="#15354E"/>
<path d="M283.853 107.685H284.445V106.663H285.14V106.125H284.445V102.771H283.539C282.378 104.436 281.803 105.332 281.384 106.108V106.663H283.853V107.685ZM281.99 106.112C282.378 105.431 282.913 104.61 283.843 103.282H283.853V106.125H281.99V106.112Z" fill="#15354E"/>
<path d="M288.076 107.685H288.668V106.663H289.363V106.125H288.668V102.771H287.762C286.601 104.436 286.026 105.332 285.607 106.108V106.663H288.076V107.685ZM286.213 106.112C286.601 105.431 287.136 104.61 288.065 103.282H288.076V106.125H286.213V106.112Z" fill="#15354E"/>
<path d="M291.682 107.767C292.826 107.767 293.487 106.776 293.487 105.223C293.487 103.68 292.823 102.689 291.682 102.689C290.541 102.689 289.87 103.687 289.87 105.226C289.87 106.779 290.534 107.767 291.682 107.767ZM291.682 107.232C290.912 107.232 290.487 106.449 290.487 105.223C290.487 104.024 290.923 103.227 291.682 103.227C292.442 103.227 292.871 104.017 292.871 105.226C292.871 106.452 292.448 107.232 291.682 107.232Z" fill="#15354E"/>
<path d="M368.248 107.77C369.256 107.77 369.988 107.062 369.988 106.091C369.988 105.158 369.294 104.467 368.357 104.467C367.747 104.467 367.206 104.784 366.985 105.264H366.974C366.995 103.956 367.461 103.227 368.282 103.227C368.769 103.227 369.164 103.513 369.297 103.959H369.92C369.764 103.186 369.123 102.686 368.289 102.686C367.087 102.686 366.382 103.656 366.382 105.311C366.382 105.843 366.46 106.285 366.624 106.663C366.927 107.372 367.512 107.77 368.248 107.77ZM368.241 107.225C367.611 107.225 367.121 106.725 367.121 106.095C367.121 105.468 367.601 105.005 368.251 105.005C368.902 105.005 369.365 105.468 369.365 106.112C369.365 106.732 368.868 107.225 368.241 107.225Z" fill="#15354E"/>
<path d="M372.365 107.767C373.51 107.767 374.17 106.776 374.17 105.223C374.17 103.68 373.506 102.689 372.365 102.689C371.224 102.689 370.554 103.687 370.554 105.226C370.554 106.779 371.218 107.767 372.365 107.767ZM372.365 107.232C371.596 107.232 371.17 106.449 371.17 105.223C371.17 104.024 371.606 103.227 372.365 103.227C373.125 103.227 373.554 104.017 373.554 105.226C373.554 106.452 373.132 107.232 372.365 107.232Z" fill="#15354E"/>
<path d="M457.81 107.685H458.402V102.771H457.803L456.495 103.711V104.358L457.796 103.421H457.81V107.685Z" fill="#15354E"/>
<path d="M461.368 107.767C462.513 107.767 463.173 106.776 463.173 105.223C463.173 103.68 462.509 102.689 461.368 102.689C460.228 102.689 459.557 103.687 459.557 105.226C459.557 106.779 460.221 107.767 461.368 107.767ZM461.368 107.232C460.599 107.232 460.173 106.449 460.173 105.223C460.173 104.024 460.609 103.227 461.368 103.227C462.128 103.227 462.557 104.017 462.557 105.226C462.557 106.452 462.135 107.232 461.368 107.232Z" fill="#15354E"/>
<path d="M465.598 107.767C466.742 107.767 467.403 106.776 467.403 105.223C467.403 103.68 466.739 102.689 465.598 102.689C464.457 102.689 463.786 103.687 463.786 105.226C463.786 106.779 464.45 107.767 465.598 107.767ZM465.598 107.232C464.828 107.232 464.403 106.449 464.403 105.223C464.403 104.024 464.839 103.227 465.598 103.227C466.357 103.227 466.787 104.017 466.787 105.226C466.787 106.452 466.364 107.232 465.598 107.232Z" fill="#15354E"/>
<path d="M530.197 19.8342C529.634 19.8342 529.124 19.712 528.667 19.4675C528.215 19.2178 527.859 18.875 527.598 18.4393C527.343 18.0035 527.216 17.512 527.216 16.9647C527.216 16.4173 527.346 15.9258 527.606 15.4901C527.867 15.0543 528.223 14.7142 528.674 14.4698C529.131 14.22 529.642 14.0952 530.205 14.0952C530.662 14.0952 531.079 14.1749 531.456 14.3343C531.834 14.4937 532.152 14.7249 532.413 15.0277L531.743 15.6574C531.339 15.2217 530.843 15.0038 530.253 15.0038C529.87 15.0038 529.527 15.0889 529.224 15.2589C528.922 15.4236 528.685 15.6548 528.515 15.9524C528.345 16.2499 528.26 16.5874 528.26 16.9647C528.26 17.342 528.345 17.6794 528.515 17.977C528.685 18.2745 528.922 18.5084 529.224 18.6784C529.527 18.8431 529.87 18.9255 530.253 18.9255C530.843 18.9255 531.339 18.705 531.743 18.2639L532.413 18.9016C532.152 19.2045 531.831 19.4356 531.448 19.5951C531.071 19.7545 530.654 19.8342 530.197 19.8342Z" fill="#15354E"/>
<path d="M535.067 19.8103C534.637 19.8103 534.249 19.7173 533.904 19.5313C533.558 19.3453 533.287 19.0876 533.091 18.7581C532.899 18.4233 532.804 18.046 532.804 17.6263C532.804 17.2065 532.899 16.8318 533.091 16.5024C533.287 16.1729 533.558 15.9152 533.904 15.7292C534.249 15.5432 534.637 15.4502 535.067 15.4502C535.503 15.4502 535.894 15.5432 536.239 15.7292C536.584 15.9152 536.853 16.1729 537.044 16.5024C537.241 16.8318 537.339 17.2065 537.339 17.6263C537.339 18.046 537.241 18.4233 537.044 18.7581C536.853 19.0876 536.584 19.3453 536.239 19.5313C535.894 19.7173 535.503 19.8103 535.067 19.8103ZM535.067 18.9574C535.434 18.9574 535.737 18.8352 535.976 18.5907C536.215 18.3463 536.335 18.0248 536.335 17.6263C536.335 17.2277 536.215 16.9062 535.976 16.6618C535.737 16.4173 535.434 16.2951 535.067 16.2951C534.701 16.2951 534.398 16.4173 534.159 16.6618C533.925 16.9062 533.808 17.2277 533.808 17.6263C533.808 18.0248 533.925 18.3463 534.159 18.5907C534.398 18.8352 534.701 18.9574 535.067 18.9574Z" fill="#15354E"/>
<path d="M538.292 13.8401H539.288V19.7545H538.292V13.8401Z" fill="#15354E"/>
<path d="M542.509 19.8103C542.078 19.8103 541.691 19.7173 541.345 19.5313C541 19.3453 540.729 19.0876 540.532 18.7581C540.341 18.4233 540.245 18.046 540.245 17.6263C540.245 17.2065 540.341 16.8318 540.532 16.5024C540.729 16.1729 541 15.9152 541.345 15.7292C541.691 15.5432 542.078 15.4502 542.509 15.4502C542.945 15.4502 543.335 15.5432 543.681 15.7292C544.026 15.9152 544.294 16.1729 544.486 16.5024C544.682 16.8318 544.781 17.2065 544.781 17.6263C544.781 18.046 544.682 18.4233 544.486 18.7581C544.294 19.0876 544.026 19.3453 543.681 19.5313C543.335 19.7173 542.945 19.8103 542.509 19.8103ZM542.509 18.9574C542.876 18.9574 543.178 18.8352 543.418 18.5907C543.657 18.3463 543.776 18.0248 543.776 17.6263C543.776 17.2277 543.657 16.9062 543.418 16.6618C543.178 16.4173 542.876 16.2951 542.509 16.2951C542.142 16.2951 541.839 16.4173 541.6 16.6618C541.366 16.9062 541.25 17.2277 541.25 17.6263C541.25 18.0248 541.366 18.3463 541.6 18.5907C541.839 18.8352 542.142 18.9574 542.509 18.9574Z" fill="#15354E"/>
<path d="M546.682 16.1198C546.969 15.6734 547.474 15.4502 548.196 15.4502V16.3987C548.111 16.3828 548.034 16.3748 547.965 16.3748C547.577 16.3748 547.274 16.4891 547.057 16.7176C546.839 16.9408 546.73 17.2649 546.73 17.69V19.7545H545.733V15.498H546.682V16.1198Z" fill="#15354E"/>
<defs>
<filter id="filter0_d" x="0.817383" y="0.0598183" width="592.906" height="135.069" filterUnits="userSpaceOnUse" color-interpolation-filters="sRGB">
<feFlood flood-opacity="0" result="BackgroundImageFix"/>
<feColorMatrix in="SourceAlpha" type="matrix" values="0 0 0 0 0 0 0 0 0 0 0 0 0 0 0 0 0 0 127 0"/>
<feOffset dy="5"/>
<feGaussianBlur stdDeviation="5"/>
<feColorMatrix type="matrix" values="0 0 0 0 0 0 0 0 0 0.223833 0 0 0 0 0.658333 0 0 0 0.15 0"/>
<feBlend mode="normal" in2="BackgroundImageFix" result="effect1_dropShadow"/>
<feBlend mode="normal" in="SourceGraphic" in2="effect1_dropShadow" result="shape"/>
</filter>
</defs>
</svg>
