<svg width="34" height="40" viewBox="0 0 34 40" fill="none" xmlns="http://www.w3.org/2000/svg">
<path fill-rule="evenodd" clip-rule="evenodd" d="M16.0747 0.168693C15.3086 0.401057 14.2486 1.60904 13.8502 2.70372C13.3304 4.13279 13.3487 5.1307 13.921 6.54482C15.0277 9.2789 17.6561 9.91935 19.5608 7.91907C21.1877 6.21043 21.2152 3.10446 19.62 1.24292C18.6509 0.112044 17.4558 -0.25014 16.0747 0.168693ZM17.9111 3.45537C18.5104 4.03182 18.4707 5.34261 17.8412 5.76328C16.9473 6.36019 15.9734 5.44489 16.1531 4.17659C16.2239 3.67724 16.7883 3.12754 17.2304 3.12754C17.4174 3.12754 17.7237 3.27519 17.9111 3.45537ZM4.00649 9.36834C4.97197 11.3067 5.37834 14.2163 5.08859 17.1145C4.77489 20.2522 3.963 22.3752 2.30056 24.4057L1.02537 25.963L3.29714 25.7571C5.64456 25.5442 13.6006 25.5009 13.7208 25.7005C13.7582 25.7626 13.6962 27.1411 13.583 28.7637L13.3772 31.7141L12.5198 31.7123C11.5593 31.7102 8.67695 30.8988 7.5896 30.3244L6.87878 29.9489L8.16217 28.6677L9.44555 27.3868L7.15151 27.3129C5.88955 27.2722 3.76444 27.2722 2.42873 27.3129L0 27.3868L1.07327 29.4849C2.32052 31.9229 5.08607 35.3942 6.78864 36.6591C12.7858 41.1136 21.4035 41.1136 27.4769 36.6591C29.0361 35.5154 32.0124 31.801 33.1788 29.5426C33.6839 28.5646 34.0508 27.7068 33.9943 27.636C33.9375 27.5654 31.8464 27.5395 29.3475 27.5783L24.8038 27.6491L25.954 28.8293C26.9554 29.8568 27.0604 30.0498 26.7658 30.3223C26.2805 30.7718 22.9167 31.7141 21.7985 31.7141H20.8507L20.7254 30.3373C20.6565 29.5799 20.5372 28.2038 20.46 27.279L20.3201 25.5974L26.6286 25.7558L32.9374 25.914L31.7987 24.493C29.8678 22.0826 28.8056 18.3847 29.0897 15.0605C29.2683 12.9723 29.7552 10.8884 30.338 9.71846C30.599 9.19472 30.8822 8.61879 30.9675 8.43835C31.09 8.17976 30.0123 8.11053 25.8575 8.11053H20.5922V9.15957C20.5922 10.1803 20.5727 10.2086 19.8692 10.2086C19.4715 10.2086 19.105 10.297 19.0548 10.4053C18.9785 10.5695 19.283 13.8869 20.2705 23.6496L20.3966 24.8953H17.3426H14.2887L14.2999 24.043C14.306 23.5743 14.5713 20.3257 14.8899 16.8242C15.2084 13.3227 15.424 10.4016 15.3691 10.3332C15.3141 10.2647 14.9069 10.2086 14.4638 10.2086C13.6643 10.2086 13.6584 10.201 13.6584 9.15957V8.11053H8.51915H3.38013L4.00649 9.36834Z" fill="#444444"/>
</svg>
