<svg width="20" height="24" viewBox="0 0 20 24" fill="none" xmlns="http://www.w3.org/2000/svg">
<path d="M8.29818 23.6549C8.4309 23.7299 8.4309 23.8569 8.29818 23.9319C8.16546 24.0069 7.94619 24.0069 7.81347 23.9319C7.68075 23.8569 7.68075 23.7299 7.81347 23.6549C7.94619 23.5799 8.16546 23.5799 8.29818 23.6549Z" fill="#E78200"/>
<path d="M7.03448 22.9278C7.1672 23.0029 7.1672 23.1298 7.03448 23.2048C6.90176 23.2798 6.68249 23.2798 6.54977 23.2048C6.41705 23.1298 6.41705 23.0029 6.54977 22.9278C6.68826 22.8528 6.90176 22.8528 7.03448 22.9278Z" fill="#E78200"/>
<path d="M5.53408 22.5355C5.7221 22.5355 5.87453 22.4476 5.87453 22.3393C5.87453 22.2309 5.7221 22.1431 5.53408 22.1431C5.34605 22.1431 5.1936 22.2309 5.1936 22.3393C5.1936 22.4476 5.34605 22.5355 5.53408 22.5355Z" fill="#E78200"/>
<path d="M4.51275 21.4679C4.64547 21.5429 4.64547 21.6699 4.51275 21.7449C4.38003 21.8199 4.16076 21.8199 4.02804 21.7449C3.89532 21.6699 3.89532 21.5429 4.02804 21.4679C4.16076 21.3929 4.38003 21.3929 4.51275 21.4679Z" fill="#E78200"/>
<path d="M3.24905 20.7408C3.38177 20.8158 3.38177 20.9428 3.24905 21.0178C3.11633 21.0928 2.89706 21.0928 2.76434 21.0178C2.63161 20.9428 2.63161 20.8158 2.76434 20.7408C2.90283 20.6658 3.11633 20.6658 3.24905 20.7408Z" fill="#E78200"/>
<path d="M1.98535 20.0138C2.11807 20.0888 2.11807 20.2157 1.98535 20.2908C1.85263 20.3658 1.63335 20.3658 1.50063 20.2908C1.36791 20.2157 1.36791 20.0888 1.50063 20.0138C1.63912 19.9388 1.85263 19.9388 1.98535 20.0138Z" fill="#E78200"/>
<path d="M0.484912 19.6214C0.672941 19.6214 0.825366 19.5336 0.825366 19.4252C0.825366 19.3168 0.672941 19.229 0.484912 19.229C0.296883 19.229 0.14444 19.3168 0.14444 19.4252C0.14444 19.5336 0.296883 19.6214 0.484912 19.6214Z" fill="#E78200"/>
<path d="M10.3409 23.6666C10.4736 23.5916 10.6871 23.5916 10.8256 23.6666C10.9583 23.7416 10.9583 23.8686 10.8256 23.9436C10.6929 24.0186 10.4736 24.0186 10.3409 23.9436C10.2082 23.8686 10.2082 23.7416 10.3409 23.6666Z" fill="#E78200"/>
<path d="M12.0893 22.9395C12.222 23.0145 12.222 23.1415 12.0893 23.2165C11.9565 23.2915 11.7373 23.2915 11.6045 23.2165C11.4718 23.1415 11.4718 23.0145 11.6045 22.9395C11.7373 22.8587 11.9565 22.8587 12.0893 22.9395Z" fill="#E78200"/>
<path d="M13.3532 22.2067C13.486 22.2817 13.486 22.4086 13.3532 22.4836C13.2205 22.5587 13.0012 22.5587 12.8685 22.4836C12.7358 22.4086 12.7358 22.2817 12.8685 22.2067C13.0012 22.1316 13.2147 22.1316 13.3532 22.2067Z" fill="#E78200"/>
<path d="M14.611 21.4796C14.7437 21.5546 14.7437 21.6816 14.611 21.7566C14.4783 21.8316 14.259 21.8316 14.1263 21.7566C13.9936 21.6816 13.9936 21.5546 14.1263 21.4796C14.2648 21.4046 14.4783 21.4046 14.611 21.4796Z" fill="#E78200"/>
<path d="M15.8747 20.7525C16.0074 20.8275 16.0074 20.9544 15.8747 21.0295C15.742 21.1045 15.5227 21.1045 15.39 21.0295C15.2573 20.9544 15.2573 20.8275 15.39 20.7525C15.5227 20.6717 15.742 20.6717 15.8747 20.7525Z" fill="#E78200"/>
<path d="M17.1384 20.0254C17.2711 20.1004 17.2711 20.2274 17.1384 20.3024C17.0057 20.3774 16.7864 20.3774 16.6537 20.3024C16.521 20.2274 16.521 20.1004 16.6537 20.0254C16.7864 19.9446 17.0057 19.9446 17.1384 20.0254Z" fill="#E78200"/>
<path d="M9.07717 22.9396C9.20989 22.8645 9.42917 22.8645 9.56189 22.9396C9.69461 23.0146 9.69461 23.1415 9.56189 23.2165C9.42917 23.2916 9.20989 23.2916 9.07717 23.2165C8.94445 23.1415 8.94445 23.0146 9.07717 22.9396Z" fill="#E78200"/>
<path d="M10.8256 22.2067C10.9583 22.2817 10.9583 22.4086 10.8256 22.4836C10.6929 22.5587 10.4736 22.5587 10.3409 22.4836C10.2082 22.4086 10.2082 22.2817 10.3409 22.2067C10.4794 22.1316 10.6929 22.1316 10.8256 22.2067Z" fill="#E78200"/>
<path d="M12.0893 21.4796C12.222 21.5546 12.222 21.6816 12.0893 21.7566C11.9565 21.8316 11.7373 21.8316 11.6045 21.7566C11.4718 21.6816 11.4718 21.5546 11.6045 21.4796C11.7373 21.4046 11.9565 21.4046 12.0893 21.4796Z" fill="#E78200"/>
<path d="M13.3532 20.7525C13.486 20.8275 13.486 20.9544 13.3532 21.0295C13.2205 21.1045 13.0012 21.1045 12.8685 21.0295C12.7358 20.9544 12.7358 20.8275 12.8685 20.7525C13.0012 20.6717 13.2147 20.6717 13.3532 20.7525Z" fill="#E78200"/>
<path d="M14.611 20.0254C14.7437 20.1004 14.7437 20.2274 14.611 20.3024C14.4783 20.3774 14.259 20.3774 14.1263 20.3024C13.9936 20.2274 13.9936 20.1004 14.1263 20.0254C14.2648 19.9446 14.4783 19.9446 14.611 20.0254Z" fill="#E78200"/>
<path d="M15.8747 19.2926C16.0074 19.3676 16.0074 19.4946 15.8747 19.5696C15.742 19.6446 15.5227 19.6446 15.39 19.5696C15.2573 19.4946 15.2573 19.3676 15.39 19.2926C15.5227 19.2176 15.742 19.2176 15.8747 19.2926Z" fill="#E78200"/>
<path d="M16.896 18.9002C17.0841 18.9002 17.2365 18.8124 17.2365 18.704C17.2365 18.5957 17.0841 18.5078 16.896 18.5078C16.708 18.5078 16.5556 18.5957 16.5556 18.704C16.5556 18.8124 16.708 18.9002 16.896 18.9002Z" fill="#E78200"/>
<path d="M7.81939 22.2125C7.95211 22.1375 8.17138 22.1375 8.3041 22.2125C8.43682 22.2875 8.43682 22.4145 8.3041 22.4895C8.17138 22.5645 7.95211 22.5645 7.81939 22.4895C7.68667 22.4145 7.68667 22.2875 7.81939 22.2125Z" fill="#E78200"/>
<path d="M9.56189 21.4796C9.69461 21.5546 9.69461 21.6816 9.56189 21.7566C9.42917 21.8316 9.20989 21.8316 9.07717 21.7566C8.94445 21.6816 8.94445 21.5546 9.07717 21.4796C9.21566 21.4046 9.42917 21.4046 9.56189 21.4796Z" fill="#E78200"/>
<path d="M10.8256 20.7525C10.9583 20.8275 10.9583 20.9544 10.8256 21.0295C10.6929 21.1045 10.4736 21.1045 10.3409 21.0295C10.2082 20.9544 10.2082 20.8275 10.3409 20.7525C10.4794 20.6717 10.6929 20.6717 10.8256 20.7525Z" fill="#E78200"/>
<path d="M12.0893 20.0254C12.222 20.1004 12.222 20.2274 12.0893 20.3024C11.9565 20.3774 11.7373 20.3774 11.6045 20.3024C11.4718 20.2274 11.4718 20.1004 11.6045 20.0254C11.7373 19.9446 11.9565 19.9446 12.0893 20.0254Z" fill="#E78200"/>
<path d="M13.3532 19.2926C13.486 19.3676 13.486 19.4946 13.3532 19.5696C13.2205 19.6446 13.0012 19.6446 12.8685 19.5696C12.7358 19.4946 12.7358 19.3676 12.8685 19.2926C13.0012 19.2176 13.2147 19.2176 13.3532 19.2926Z" fill="#E78200"/>
<path d="M14.611 18.5655C14.7437 18.6406 14.7437 18.7675 14.611 18.8425C14.4783 18.9175 14.259 18.9175 14.1263 18.8425C13.9936 18.7675 13.9936 18.6406 14.1263 18.5655C14.2648 18.4905 14.4783 18.4905 14.611 18.5655Z" fill="#E78200"/>
<path d="M15.8747 17.8384C16.0074 17.9134 16.0074 18.0404 15.8747 18.1154C15.742 18.1904 15.5227 18.1904 15.39 18.1154C15.2573 18.0404 15.2573 17.9134 15.39 17.8384C15.5227 17.7576 15.742 17.7576 15.8747 17.8384Z" fill="#E78200"/>
<path d="M6.55541 21.4796C6.68813 21.4046 6.90741 21.4046 7.04013 21.4796C7.17285 21.5546 7.17285 21.6816 7.04013 21.7566C6.90741 21.8316 6.68813 21.8316 6.55541 21.7566C6.42269 21.6816 6.42269 21.5604 6.55541 21.4796Z" fill="#E78200"/>
<path d="M8.3041 20.7525C8.43682 20.8275 8.43682 20.9544 8.3041 21.0295C8.17138 21.1045 7.95211 21.1045 7.81939 21.0295C7.68667 20.9544 7.68667 20.8275 7.81939 20.7525C7.95211 20.6717 8.17138 20.6717 8.3041 20.7525Z" fill="#E78200"/>
<path d="M9.56189 20.0254C9.69461 20.1004 9.69461 20.2274 9.56189 20.3024C9.42917 20.3774 9.20989 20.3774 9.07717 20.3024C8.94445 20.2274 8.94445 20.1004 9.07717 20.0254C9.21566 19.9446 9.42917 19.9446 9.56189 20.0254Z" fill="#E78200"/>
<path d="M10.8256 19.2926C10.9583 19.3676 10.9583 19.4946 10.8256 19.5696C10.6929 19.6446 10.4736 19.6446 10.3409 19.5696C10.2082 19.4946 10.2082 19.3676 10.3409 19.2926C10.4794 19.2176 10.6929 19.2176 10.8256 19.2926Z" fill="#E78200"/>
<path d="M12.0893 18.5655C12.222 18.6406 12.222 18.7675 12.0893 18.8425C11.9565 18.9175 11.7373 18.9175 11.6045 18.8425C11.4718 18.7675 11.4718 18.6406 11.6045 18.5655C11.7373 18.4905 11.9565 18.4905 12.0893 18.5655Z" fill="#E78200"/>
<path d="M13.3532 17.8384C13.486 17.9134 13.486 18.0404 13.3532 18.1154C13.2205 18.1904 13.0012 18.1904 12.8685 18.1154C12.7358 18.0404 12.7358 17.9134 12.8685 17.8384C13.0012 17.7576 13.2147 17.7576 13.3532 17.8384Z" fill="#E78200"/>
<path d="M14.3686 17.4461C14.5567 17.4461 14.7091 17.3583 14.7091 17.2499C14.7091 17.1415 14.5567 17.0537 14.3686 17.0537C14.1806 17.0537 14.0282 17.1415 14.0282 17.2499C14.0282 17.3583 14.1806 17.4461 14.3686 17.4461Z" fill="#E78200"/>
<path d="M5.29171 20.7526C5.42443 20.6775 5.6437 20.6775 5.77643 20.7526C5.90915 20.8276 5.90915 20.9545 5.77643 21.0295C5.6437 21.1045 5.42443 21.1045 5.29171 21.0295C5.15899 20.9545 5.15899 20.8276 5.29171 20.7526Z" fill="#E78200"/>
<path d="M7.04013 20.3023C6.90741 20.3774 6.68813 20.3774 6.55541 20.3023C6.42269 20.2273 6.42269 20.1004 6.55541 20.0253C6.68813 19.9446 7.17285 20.2216 7.04013 20.3023Z" fill="#E78200"/>
<path d="M7.81939 19.2926C7.95211 19.2176 8.17138 19.2176 8.3041 19.2926C8.43682 19.3676 8.43682 19.4946 8.3041 19.5696C8.17138 19.6446 7.95211 19.6446 7.81939 19.5696C7.68667 19.4946 7.68667 19.3734 7.81939 19.2926C7.95211 19.2176 7.68667 19.3734 7.81939 19.2926Z" fill="#E78200"/>
<path d="M9.56189 18.5655C9.69461 18.6406 9.69461 18.7675 9.56189 18.8425C9.42917 18.9175 9.20989 18.9175 9.07717 18.8425C8.94445 18.7675 8.94445 18.6406 9.07717 18.5655C9.21566 18.4905 9.42917 18.4905 9.56189 18.5655Z" fill="#E78200"/>
<path d="M10.8256 17.8384C10.9583 17.9134 10.9583 18.0404 10.8256 18.1154C10.6929 18.1904 10.4736 18.1904 10.3409 18.1154C10.2082 18.0404 10.2082 17.9134 10.3409 17.8384C10.4794 17.7576 10.6929 17.7576 10.8256 17.8384Z" fill="#E78200"/>
<path d="M12.0893 17.1056C12.222 17.1806 12.222 17.3075 12.0893 17.3826C11.9565 17.4576 11.7373 17.4576 11.6045 17.3826C11.4718 17.3075 11.4718 17.1806 11.6045 17.1056C11.7373 17.0306 11.9565 17.0306 12.0893 17.1056Z" fill="#E78200"/>
<path d="M4.03393 20.0255C4.16665 19.9505 4.38592 19.9505 4.51864 20.0255C4.65136 20.1005 4.65136 20.2275 4.51864 20.3025C4.38592 20.3775 4.16665 20.3775 4.03393 20.3025C3.90121 20.2275 3.90121 20.1005 4.03393 20.0255Z" fill="#E78200"/>
<path d="M5.77643 19.2926C5.90915 19.3676 5.90915 19.4946 5.77643 19.5696C5.6437 19.6446 5.42443 19.6446 5.29171 19.5696C5.15899 19.4946 5.15899 19.3676 5.29171 19.2926C5.4302 19.2176 5.6437 19.2176 5.77643 19.2926C5.90915 19.3734 5.6437 19.2176 5.77643 19.2926Z" fill="#E78200"/>
<path d="M2.77026 19.2926C2.90298 19.2176 3.12225 19.2176 3.25497 19.2926C3.38769 19.3676 3.38769 19.4946 3.25497 19.5696C3.12225 19.6446 2.90298 19.6446 2.77026 19.5696C2.63754 19.4946 2.63754 19.3734 2.77026 19.2926Z" fill="#E78200"/>
<path d="M4.51864 18.5655C4.65136 18.6406 4.65136 18.7675 4.51864 18.8425C4.38592 18.9175 4.16665 18.9175 4.03393 18.8425C3.90121 18.7675 3.90121 18.6406 4.03393 18.5655C4.16665 18.4905 4.38015 18.4905 4.51864 18.5655Z" fill="#E78200"/>
<path d="M1.50628 18.5655C1.639 18.4905 1.85827 18.4905 1.99099 18.5655C2.12371 18.6406 2.12371 18.7675 1.99099 18.8425C1.85827 18.9175 1.639 18.9175 1.50628 18.8425C1.37356 18.7675 1.37356 18.6463 1.50628 18.5655Z" fill="#E78200"/>
<path d="M3.25497 18.1156C3.12225 18.1906 2.90298 18.1906 2.77026 18.1156C2.63754 18.0406 2.63754 17.9136 2.77026 17.8386C2.90298 17.7578 3.38769 18.0406 3.25497 18.1156Z" fill="#E78200"/>
<path d="M0.236848 17.8326C0.369568 17.7576 0.588843 17.7576 0.721563 17.8326C0.854284 17.9076 0.854284 18.0346 0.721563 18.1096C0.588843 18.1846 0.369568 18.1846 0.236848 18.1096C0.104127 18.0346 0.0983567 17.9076 0.236848 17.8326Z" fill="#E78200"/>
<path d="M1.97943 17.3767C1.84671 17.4517 1.62743 17.4517 1.49471 17.3767C1.36199 17.3016 1.36199 17.1747 1.49471 17.0997C1.6332 17.0247 2.11215 17.3016 1.97943 17.3767Z" fill="#E78200"/>
<path d="M11.2639 13.0895L10.3868 12.599C10.2829 12.5413 10.1675 12.4951 10.0406 12.472C9.175 12.322 8.26326 13.2164 8.03245 14.434C7.84779 15.3919 8.15939 16.2343 8.73067 16.5575L9.56161 17.0133C9.71164 17.1172 9.87898 17.1865 10.0636 17.2038C10.8715 17.2903 11.7198 16.4825 11.9794 15.363C12.216 14.3647 11.9102 13.4126 11.2639 13.0895Z" fill="#444444"/>
<path d="M11.8468 13.4529C11.7314 13.2741 11.5872 13.1356 11.4256 13.0375V13.0317L10.3176 12.4143L10.3119 12.42C10.2311 12.3854 10.1445 12.3623 10.058 12.345C9.1174 12.1834 8.14796 13.1067 7.9056 14.4051C7.72672 15.3399 7.99217 16.1997 8.56344 16.6036L8.55767 16.6094L9.51556 17.1345C9.67713 17.2384 9.85601 17.3076 10.0464 17.3307C10.0926 17.3365 10.1388 17.3365 10.1849 17.3365C11.0159 17.3365 11.841 16.5113 12.1007 15.3918C12.2738 14.6763 12.1757 13.9492 11.8468 13.4529ZM10.9351 13.5914C10.9524 13.6549 10.9582 13.7184 10.9697 13.7819C10.9351 13.7703 10.9005 13.7588 10.8601 13.753C10.2946 13.6664 9.69445 14.255 9.53287 15.0687C9.44055 15.5361 9.51556 15.9977 9.72907 16.292C9.76369 16.3382 9.79831 16.3786 9.83293 16.4132C9.78677 16.442 9.73483 16.4651 9.68867 16.4882L9.64251 16.5055L9.50979 16.8113C9.45785 16.7652 9.41169 16.7075 9.36553 16.6498C9.06546 16.2401 8.95582 15.6169 9.077 14.9706C9.27897 13.9088 10.0291 13.0952 10.7677 13.0952C10.8254 13.0952 10.8774 13.1009 10.9351 13.1067C10.987 13.1183 11.0389 13.1356 11.0909 13.1529L10.9236 13.5453L10.9351 13.5914ZM9.83871 16.217C9.64251 15.9458 9.57903 15.5245 9.66558 15.0918C9.80407 14.3993 10.2888 13.8684 10.7562 13.8684C10.7851 13.8684 10.8197 13.8684 10.8485 13.8742C10.9005 13.88 10.9524 13.903 10.9986 13.9203C11.0274 14.2089 11.0101 14.5147 10.9409 14.8205C10.7851 15.4726 10.4157 16.0381 9.95988 16.3382C9.91372 16.3093 9.87333 16.2689 9.83871 16.217ZM11.1832 14.884C11.2409 14.6359 11.264 14.3935 11.264 14.1512C11.2698 14.1569 11.2755 14.1627 11.2813 14.1685C11.4717 14.4512 11.5294 14.884 11.4313 15.3226C11.2698 16.0208 10.7562 16.5459 10.283 16.4882C10.2599 16.4824 10.2369 16.4767 10.2138 16.4709C10.6639 16.1247 11.0274 15.5476 11.1832 14.884ZM8.79426 16.4478C8.2576 16.142 7.99793 15.3226 8.1595 14.457C8.37878 13.3145 9.22704 12.4662 10.0176 12.5989C10.1215 12.6162 10.2253 12.6508 10.3234 12.7086L10.5889 12.8586C9.78099 12.9682 9.03661 13.8049 8.8231 14.9244C8.70769 15.5418 8.77695 16.1247 9.01354 16.5748L8.82888 16.4767L8.79426 16.4478ZM11.8584 15.3399C11.616 16.3843 10.8139 17.1633 10.0811 17.0826C9.95411 17.071 9.83293 17.0249 9.72329 16.9671L9.83871 16.7017C9.91949 16.6671 10.0003 16.6209 10.0811 16.569C10.1388 16.5921 10.2022 16.6094 10.2657 16.6209C10.2946 16.6267 10.3234 16.6267 10.3523 16.6267C10.8716 16.6267 11.3852 16.09 11.5525 15.3572C11.6622 14.884 11.5987 14.4166 11.3852 14.0992C11.3448 14.0415 11.2986 13.9896 11.2525 13.9492C11.2409 13.8222 11.2236 13.6953 11.1948 13.5683L11.3275 13.2683C11.4429 13.3491 11.5525 13.4587 11.6391 13.5914C11.9276 14.0358 12.0084 14.6878 11.8584 15.3399Z" fill="#E78200"/>
<path d="M14.9227 16.9847C15.1362 16.8577 15.1073 16.6384 14.8592 16.4942L11.3681 14.4803C11.1142 14.336 10.7333 14.3187 10.5141 14.4457L5.36683 17.4175C5.26296 17.4809 5.22256 17.5617 5.22256 17.6483V17.6367V18.0349V18.0984C5.23411 18.1907 5.30334 18.283 5.43029 18.358L8.92143 20.3719C9.17533 20.5162 9.55616 20.5335 9.77544 20.4066L14.9227 17.4348C15.1131 17.3194 15.1073 17.1289 14.9227 16.9847Z" fill="#444444"/>
<path d="M15.1937 16.771C15.1937 16.6268 15.0956 16.4825 14.9224 16.3844L11.4313 14.3705C11.137 14.2032 10.7042 14.1859 10.4503 14.3359L5.3031 17.3077C5.17037 17.3827 5.09537 17.4981 5.09537 17.6366V18.1155C5.10691 18.254 5.20501 18.3752 5.36658 18.4675L8.85769 20.4814C9.0135 20.5738 9.21547 20.6199 9.40589 20.6199C9.56747 20.6199 9.72326 20.5853 9.84444 20.5161L14.9917 17.5443C15.1186 17.4693 15.1937 17.3654 15.1994 17.2442C15.2052 17.1576 15.1763 17.0711 15.1186 16.9961C15.1648 16.9326 15.1937 16.8518 15.1937 16.771ZM5.34349 17.6481C5.34349 17.6193 5.35504 17.5731 5.42429 17.527L10.5715 14.5552C10.7504 14.4513 11.0851 14.4686 11.2986 14.5898L14.7897 16.6037C14.8994 16.6672 14.934 16.7306 14.934 16.771C14.934 16.8172 14.8821 16.8576 14.8532 16.8749L14.6916 16.973L14.7436 17.0134L9.73481 19.9044C9.53862 20.0198 9.17507 20.0025 8.94425 19.8698L5.45313 17.8559C5.40697 17.827 5.37234 17.7982 5.34349 17.7693V17.6481ZM14.8532 17.325L9.70595 20.2968C9.52707 20.4006 9.19238 20.3833 8.97887 20.2621L5.48775 18.2483C5.4012 18.1963 5.34926 18.1386 5.34349 18.0982V17.9309C5.3608 17.9424 5.37235 17.954 5.38967 17.9655L8.88078 19.9794C9.03081 20.066 9.21546 20.1121 9.39434 20.1121C9.54437 20.1121 9.68864 20.0833 9.79828 20.0198L14.8532 17.0999C14.9051 17.1403 14.9397 17.1923 14.934 17.2269C14.934 17.2731 14.8821 17.3077 14.8532 17.325Z" fill="#E78200"/>
<path d="M10.8541 14.3649C10.6867 14.3649 10.554 14.2322 10.554 14.0648V4.57245C10.554 3.26255 11.2407 2.05654 12.3659 1.38716L14.4029 0.1696C14.5472 0.0830428 14.7261 0.129202 14.8126 0.273463C14.8992 0.417725 14.853 0.596613 14.7087 0.683169L12.6718 1.90073C11.7312 2.46047 11.1541 3.47606 11.1541 4.57245V14.0648C11.1541 14.2264 11.0156 14.3649 10.8541 14.3649Z" fill="#444444"/>
<path d="M10.8541 14.4917C10.6175 14.4917 10.4271 14.3013 10.4271 14.0647V4.57233C10.4271 3.22782 11.1426 1.96409 12.3025 1.27741L14.3395 0.0598443C14.5414 -0.0613351 14.8011 0.00790712 14.9223 0.209873C14.98 0.307971 14.9973 0.423378 14.9684 0.533017C14.9396 0.642655 14.8703 0.734981 14.7722 0.792685L12.7353 2.01025C11.8351 2.5469 11.2754 3.52788 11.2754 4.57233V14.0647C11.2811 14.2955 11.0907 14.4917 10.8541 14.4917ZM14.5587 0.256038C14.5299 0.256038 14.501 0.261804 14.4722 0.279115L12.4352 1.49668C11.3561 2.1372 10.6868 3.32014 10.6868 4.57233V14.0647C10.6868 14.157 10.7618 14.2378 10.8599 14.2378C10.9522 14.2378 11.033 14.1628 11.033 14.0647V4.57233C11.033 3.43555 11.6389 2.36802 12.6141 1.79098L14.6511 0.573414C14.6915 0.550332 14.7203 0.509935 14.7318 0.469541C14.7434 0.423378 14.7376 0.377213 14.7145 0.342591C14.6741 0.284886 14.6164 0.256038 14.5587 0.256038Z" fill="#E78200"/>
<path d="M14.8816 16.4943C14.7143 16.4943 14.5816 16.3616 14.5816 16.1942V6.70185C14.5816 5.39196 15.2682 4.18593 16.3935 3.51656L18.4305 2.29899C18.5747 2.21243 18.7536 2.2586 18.8402 2.40286C18.9267 2.54713 18.8805 2.726 18.7363 2.81256L16.6993 4.03013C15.7587 4.58986 15.1817 5.60546 15.1817 6.70185V16.1942C15.1817 16.3558 15.049 16.4943 14.8816 16.4943Z" fill="#444444"/>
<path d="M14.8817 16.6212C14.6451 16.6212 14.4547 16.4307 14.4547 16.1941V6.70175C14.4547 5.35724 15.1702 4.09351 16.3301 3.40683L18.3671 2.18926C18.4652 2.13156 18.5806 2.11425 18.6902 2.1431C18.7999 2.17195 18.8922 2.2412 18.9499 2.33929C19.0076 2.43739 19.0249 2.5528 18.9961 2.66244C18.9672 2.77208 18.898 2.8644 18.7999 2.92211L16.7629 4.13967C15.8627 4.67632 15.303 5.6573 15.303 6.70175V16.1941C15.3087 16.425 15.1183 16.6212 14.8817 16.6212ZM18.5864 2.38546C18.5575 2.38546 18.5229 2.39122 18.4998 2.40854L16.4628 3.6261C15.3837 4.26662 14.7144 5.44956 14.7144 6.70175V16.1941C14.7144 16.2865 14.7894 16.3673 14.8875 16.3673C14.9856 16.3673 15.0606 16.2922 15.0606 16.1941V6.70175C15.0606 5.56497 15.6665 4.49744 16.6417 3.9204L18.6787 2.70283C18.7191 2.67975 18.7479 2.63936 18.7595 2.59896C18.771 2.5528 18.7652 2.50663 18.7422 2.47201C18.7191 2.43162 18.6845 2.40277 18.6383 2.39123C18.6152 2.38545 18.6037 2.38546 18.5864 2.38546Z" fill="#E78200"/>
<path d="M14.305 11.3522C14.1781 11.3522 14.0396 11.3119 13.9127 11.2368L11.3967 9.78846C10.9697 9.54033 10.635 8.91712 10.635 8.36315V8.21889C10.635 7.87267 10.7677 7.59569 10.9986 7.46297C11.2005 7.34756 11.4602 7.3591 11.6968 7.49759L14.207 8.94597C14.634 9.1941 14.9686 9.81731 14.9686 10.3713V10.5155C14.9686 10.8618 14.8359 11.1387 14.6051 11.2715C14.5185 11.3234 14.4147 11.3522 14.305 11.3522ZM14.2127 10.7233C14.2762 10.7579 14.3108 10.7579 14.3166 10.7579C14.3281 10.7521 14.3801 10.6886 14.3801 10.5213V10.377C14.3801 10.0366 14.1666 9.60957 13.9184 9.46531L11.4025 8.01692C11.3448 7.9823 11.3044 7.9823 11.2986 7.9823C11.2871 7.98807 11.2352 8.05155 11.2352 8.21889V8.36315C11.2352 8.70361 11.4487 9.13063 11.6968 9.27489L14.2127 10.7233Z" fill="#444444"/>
<path d="M14.3048 11.4794C14.1547 11.4794 13.9932 11.4332 13.8489 11.3466L11.333 9.89826C10.8713 9.63282 10.5078 8.95767 10.5078 8.35754V8.21328C10.5078 7.82089 10.6636 7.50351 10.9348 7.34771C11.1772 7.20345 11.483 7.22077 11.76 7.38234L14.2759 8.83072C14.7376 9.09616 15.1011 9.7713 15.1011 10.3714V10.5157C15.1011 10.9081 14.9453 11.2255 14.6741 11.3813C14.5644 11.4447 14.4375 11.4794 14.3048 11.4794ZM11.3041 7.50928C11.2176 7.50928 11.1368 7.53236 11.0618 7.57276C10.8713 7.6824 10.7617 7.91898 10.7617 8.21328V8.35754C10.7617 8.85957 11.0733 9.45392 11.4599 9.6732L13.9701 11.1216C14.1663 11.237 14.3798 11.2485 14.5414 11.1562C14.7318 11.0466 14.8414 10.81 14.8414 10.5099V10.3657C14.8414 9.86363 14.5298 9.26928 14.1432 9.05L11.6273 7.60161C11.5234 7.53814 11.408 7.50928 11.3041 7.50928ZM14.3048 10.885C14.2471 10.885 14.1894 10.8561 14.149 10.8331L11.633 9.38468C11.3503 9.21734 11.1079 8.74994 11.1079 8.36332V8.21905C11.1079 8.04594 11.1541 7.91899 11.2349 7.87282C11.3041 7.83243 11.3965 7.86705 11.4657 7.90744L13.9758 9.35583C14.2586 9.52318 14.501 9.99058 14.501 10.3772V10.5215C14.501 10.683 14.4606 10.8042 14.3913 10.8561C14.3625 10.8735 14.3336 10.885 14.3048 10.885ZM11.3676 8.13827C11.3676 8.15558 11.3618 8.18443 11.3618 8.21328V8.35754C11.3618 8.6576 11.5523 9.03845 11.76 9.15963L14.2413 10.5907C14.2413 10.5734 14.2471 10.5445 14.2471 10.5157V10.3714C14.2471 10.0714 14.0566 9.69052 13.8489 9.56934L11.3676 8.13827Z" fill="#E78200"/>
<path d="M12.8335 9.60409L6.48018 5.93408L0.121155 9.60409V16.9383L6.48018 20.6083V13.2914L12.8335 9.60409Z" fill="#FFF4E5"/>
<path d="M0.121155 16.9153L6.48018 20.5853V13.2684L0.121155 9.58105V16.9153Z" fill="#444444"/>
<path d="M12.9604 9.5292L6.48022 5.78418L0.0173106 9.51766L0 9.5292V9.67346V17.0135L6.35327 20.6835L6.48022 20.7585L6.60717 20.6835L12.897 17.0481L12.9604 17.0135V9.67346V9.5292ZM6.48022 6.07847L9.46931 7.80384L3.36996 11.3238L0.380852 9.59845L6.48022 6.07847ZM6.35327 20.3892L0.253901 16.8692V9.82349L6.35327 13.3435V20.3892ZM9.06539 11.6296L6.48022 13.1242L3.49113 11.3988L9.5905 7.87886L12.5796 9.60421L9.06539 11.6296Z" fill="#E78200"/>
<path d="M3.95265 13.2799L2.77548 12.599C2.64276 12.524 2.51004 12.5183 2.40618 12.5817C2.285 12.651 2.21576 12.801 2.21576 12.9914C2.21576 13.3146 2.40617 13.6723 2.6543 13.8166L3.83148 14.4975C3.90072 14.5379 3.97574 14.561 4.04498 14.561C4.10269 14.561 4.15462 14.5494 4.20655 14.5206C4.32773 14.4514 4.39699 14.3013 4.39699 14.1109C4.39122 13.782 4.20078 13.4242 3.95265 13.2799ZM4.07383 14.2955C4.0392 14.3129 3.98728 14.2898 3.95843 14.2782L2.78125 13.5973C2.61391 13.4992 2.46964 13.2222 2.46964 12.9914C2.46964 12.876 2.50427 12.8183 2.53313 12.801C2.56775 12.7779 2.61969 12.8068 2.64854 12.8183L2.72932 12.8645C2.75817 13.1415 2.91975 13.43 3.12748 13.5454L4.13154 14.1282C4.13154 14.2263 4.10268 14.2782 4.07383 14.2955Z" fill="#E78200"/>
<path d="M11.916 14.7976C11.8583 14.763 11.7833 14.7688 11.7082 14.8092L10.7677 15.3516C10.6292 15.4324 10.5195 15.6401 10.5195 15.819V16.8231C10.5195 16.9327 10.5599 17.0135 10.6292 17.0539C10.658 17.0712 10.6869 17.077 10.7157 17.077C10.7561 17.077 10.7965 17.0654 10.8311 17.0423L11.7717 16.4999C11.9102 16.4191 12.0199 16.2114 12.0199 16.0325V15.0285C12.0256 14.9188 11.9852 14.838 11.916 14.7976Z" fill="#444444"/>
<path d="M15.5977 15.5533L14.7206 15.0628C14.6168 15.0051 14.5014 14.959 14.3744 14.9359C13.5088 14.7858 12.5971 15.6803 12.3663 16.8978C12.1817 17.8557 12.4933 18.6982 13.0645 19.0214L13.8955 19.4772L14.0744 19.0617C14.6687 18.8194 15.1996 18.1558 15.3958 17.3133C15.5054 16.8517 15.4939 16.4016 15.3958 16.0149L15.5977 15.5533Z" fill="#444444"/>
<path d="M16.1802 15.9168C16.0648 15.7379 15.9206 15.5994 15.759 15.5013V15.4956L14.6511 14.8781L14.6453 14.8839C14.5645 14.8493 14.478 14.8262 14.3914 14.8089C13.4508 14.6473 12.4814 15.5706 12.239 16.8689C12.0544 17.8557 12.3544 18.7674 13.0007 19.1309L13.849 19.5984C14.0105 19.7022 14.1894 19.7715 14.3799 19.7945C14.426 19.8003 14.4722 19.8003 14.5183 19.8003C15.3493 19.8003 16.1745 18.9751 16.4341 17.8557C16.6073 17.1459 16.5092 16.4188 16.1802 15.9168ZM12.4929 16.9209C12.6949 15.8591 13.4451 15.0512 14.1837 15.0512C14.2414 15.0512 14.2933 15.057 14.351 15.0628C14.4549 15.0801 14.553 15.1147 14.6569 15.1724L14.9223 15.3224C14.1144 15.4321 13.37 16.2688 13.1623 17.3883C13.0469 17.9999 13.1161 18.5885 13.3527 19.0386L13.1219 18.9117C12.591 18.6116 12.3314 17.7922 12.4929 16.9209Z" fill="#E78200"/>
<path d="M14.6859 19.0906C14.657 19.0906 14.6282 19.0906 14.5993 19.0849C14.3916 19.0618 14.2069 18.9464 14.0684 18.7559C13.8492 18.4559 13.7799 18 13.8722 17.5326C14.0338 16.719 14.634 16.1304 15.1995 16.2169C15.4072 16.2516 15.5861 16.3727 15.7188 16.5632C15.9323 16.8748 15.9958 17.3479 15.8861 17.8211C15.7188 18.554 15.1994 19.0906 14.6859 19.0906ZM15.084 16.3381C14.6166 16.3381 14.1319 16.869 13.9934 17.5615C13.9069 17.9942 13.9703 18.4155 14.1665 18.6867C14.2819 18.8483 14.432 18.9406 14.6051 18.9637C15.084 19.0214 15.5976 18.4963 15.7534 17.798C15.8515 17.3595 15.7996 16.9267 15.6034 16.6439C15.4937 16.4766 15.3437 16.3785 15.1706 16.3497C15.1475 16.3381 15.1187 16.3381 15.084 16.3381Z" fill="#444444"/>
<path d="M15.2399 17.7346C15.1475 18.1443 14.8475 18.4386 14.5647 18.404C14.282 18.3694 14.1089 18.0059 14.1954 17.5904C14.282 17.1634 14.5936 16.846 14.8879 16.8922C15.1822 16.9383 15.3322 17.3192 15.2399 17.7346Z" fill="#444444"/>
<path d="M15.4534 17.867C15.3611 18.2767 15.0611 18.571 14.7783 18.5363C14.4956 18.5017 14.3224 18.1382 14.409 17.7227C14.4955 17.2957 14.8072 16.9783 15.1014 17.0245C15.3957 17.0706 15.5515 17.4515 15.4534 17.867Z" fill="#FFF4E5"/>
</svg>
