<svg width="31" height="24" viewBox="0 0 31 24" fill="none" xmlns="http://www.w3.org/2000/svg">
<path d="M0.510759 19.9759C0.62678 20.0415 0.62678 20.1524 0.510759 20.218C0.394738 20.2836 0.203037 20.2836 0.0870159 20.218C-0.0290053 20.1524 -0.0290053 20.0415 0.0870159 19.9759C0.203037 19.9103 0.394738 19.9053 0.510759 19.9759Z" fill="#E78200"/>
<path d="M1.61052 19.3401C1.72654 19.4057 1.72654 19.5166 1.61052 19.5822C1.4945 19.6478 1.3028 19.6478 1.18678 19.5822C1.07076 19.5166 1.07076 19.4057 1.18678 19.3401C1.30784 19.2695 1.4945 19.2695 1.61052 19.3401Z" fill="#E78200"/>
<path d="M0.510759 18.6996C0.62678 18.7652 0.62678 18.8761 0.510759 18.9417C0.394738 19.0073 0.203037 19.0073 0.0870159 18.9417C-0.0290053 18.8761 -0.0290053 18.7652 0.0870159 18.6996C0.203037 18.634 0.394738 18.634 0.510759 18.6996Z" fill="#E78200"/>
<path d="M22.6354 23.7089C22.7514 23.7744 22.7514 23.8854 22.6354 23.951C22.5194 24.0166 22.3277 24.0166 22.2117 23.951C22.0957 23.8854 22.0957 23.7744 22.2117 23.7089C22.3327 23.6433 22.5194 23.6433 22.6354 23.7089Z" fill="#E78200"/>
<path d="M23.7401 23.073C23.8562 23.1386 23.8562 23.2495 23.7401 23.3151C23.6241 23.3807 23.4324 23.3807 23.3164 23.3151C23.2004 23.2495 23.2004 23.1386 23.3164 23.073C23.4375 23.0024 23.6241 23.0024 23.7401 23.073Z" fill="#E78200"/>
<path d="M24.8451 22.4325C24.9611 22.4981 24.9611 22.609 24.8451 22.6746C24.7291 22.7402 24.5374 22.7402 24.4213 22.6746C24.3053 22.609 24.3053 22.4981 24.4213 22.4325C24.5374 22.3669 24.7291 22.3669 24.8451 22.4325Z" fill="#E78200"/>
<path d="M25.7378 22.0896C25.9022 22.0896 26.0355 22.0128 26.0355 21.9181C26.0355 21.8234 25.9022 21.7466 25.7378 21.7466C25.5735 21.7466 25.4402 21.8234 25.4402 21.9181C25.4402 22.0128 25.5735 22.0896 25.7378 22.0896Z" fill="#E78200"/>
<path d="M27.0493 21.1614C27.1653 21.2269 27.1653 21.3379 27.0493 21.4035C26.9333 21.4691 26.7416 21.4691 26.6255 21.4035C26.5095 21.3379 26.5095 21.2269 26.6255 21.1614C26.7466 21.0907 26.9333 21.0907 27.0493 21.1614Z" fill="#E78200"/>
<path d="M28.154 20.5256C28.27 20.5912 28.27 20.7022 28.154 20.7678C28.038 20.8333 27.8463 20.8333 27.7302 20.7678C27.6142 20.7022 27.6142 20.5912 27.7302 20.5256C27.8463 20.455 28.038 20.455 28.154 20.5256Z" fill="#E78200"/>
<path d="M29.2589 19.8851C29.3749 19.9507 29.3749 20.0617 29.2589 20.1272C29.1429 20.1928 28.9512 20.1928 28.8352 20.1272C28.7192 20.0617 28.7192 19.9507 28.8352 19.8851C28.9512 19.8195 29.1429 19.8195 29.2589 19.8851Z" fill="#E78200"/>
<path d="M30.3584 19.2494C30.4745 19.315 30.4745 19.4259 30.3584 19.4915C30.2424 19.5571 30.0507 19.5571 29.9347 19.4915C29.8187 19.4259 29.8187 19.315 29.9347 19.2494C30.0558 19.1838 30.2424 19.1838 30.3584 19.2494Z" fill="#E78200"/>
<path d="M20.4209 23.7038C20.5369 23.7694 20.5369 23.8804 20.4209 23.946C20.3048 24.0116 20.1131 24.0116 19.9971 23.946C19.8811 23.8804 19.8811 23.7694 19.9971 23.7038C20.1131 23.6332 20.3048 23.6332 20.4209 23.7038Z" fill="#E78200"/>
<path d="M21.5258 23.0629C21.6418 23.1284 21.6418 23.2394 21.5258 23.305C21.4098 23.3706 21.2181 23.3706 21.1021 23.305C20.986 23.2394 20.986 23.1284 21.1021 23.0629C21.2181 22.9973 21.4098 22.9973 21.5258 23.0629Z" fill="#E78200"/>
<path d="M22.6253 22.4276C22.7413 22.4932 22.7413 22.6042 22.6253 22.6697C22.5093 22.7353 22.3176 22.7353 22.2016 22.6697C22.0856 22.6042 22.0856 22.4932 22.2016 22.4276C22.3226 22.362 22.5093 22.362 22.6253 22.4276Z" fill="#E78200"/>
<path d="M23.7302 21.7917C23.8463 21.8573 23.8463 21.9683 23.7302 22.0339C23.6142 22.0994 23.4226 22.0994 23.3065 22.0339C23.1905 21.9683 23.1905 21.8573 23.3065 21.7917C23.4276 21.7211 23.6142 21.7211 23.7302 21.7917Z" fill="#E78200"/>
<path d="M24.8347 21.1512C24.9508 21.2168 24.9508 21.3278 24.8347 21.3934C24.7187 21.4589 24.527 21.4589 24.411 21.3934C24.295 21.3278 24.295 21.2168 24.411 21.1512C24.527 21.0857 24.7187 21.0857 24.8347 21.1512Z" fill="#E78200"/>
<path d="M25.9397 20.5155C26.0557 20.5811 26.0557 20.692 25.9397 20.7576C25.8236 20.8232 25.6319 20.8232 25.5159 20.7576C25.3999 20.692 25.3999 20.5811 25.5159 20.5155C25.6319 20.4499 25.8236 20.4499 25.9397 20.5155Z" fill="#E78200"/>
<path d="M27.0391 19.8802C27.1552 19.9458 27.1552 20.0568 27.0391 20.1224C26.9231 20.1879 26.7314 20.1879 26.6154 20.1224C26.4994 20.0568 26.4994 19.9458 26.6154 19.8802C26.7365 19.8147 26.9231 19.8147 27.0391 19.8802Z" fill="#E78200"/>
<path d="M28.1441 19.2444C28.2601 19.3099 28.2601 19.4209 28.1441 19.4865C28.0281 19.5521 27.8364 19.5521 27.7204 19.4865C27.6044 19.4209 27.6044 19.3099 27.7204 19.2444C27.8414 19.1738 28.0281 19.1738 28.1441 19.2444Z" fill="#E78200"/>
<path d="M29.0369 18.9016C29.2013 18.9016 29.3345 18.8248 29.3345 18.7301C29.3345 18.6354 29.2013 18.5586 29.0369 18.5586C28.8726 18.5586 28.7393 18.6354 28.7393 18.7301C28.7393 18.8248 28.8726 18.9016 29.0369 18.9016Z" fill="#E78200"/>
<path d="M30.3483 17.9681C30.4643 18.0337 30.4643 18.1447 30.3483 18.2103C30.2323 18.2758 30.0406 18.2758 29.9246 18.2103C29.8086 18.1447 29.8086 18.0337 29.9246 17.9681C30.0457 17.9026 30.2323 17.9026 30.3483 17.9681Z" fill="#E78200"/>
<path d="M19.3164 23.0629C19.4324 23.1284 19.4324 23.2394 19.3164 23.305C19.2004 23.3706 19.0087 23.3706 18.8927 23.305C18.7767 23.2394 18.7767 23.1284 18.8927 23.0629C19.0137 22.9973 19.2004 22.9973 19.3164 23.0629Z" fill="#E78200"/>
<path d="M20.4209 22.4276C20.5369 22.4932 20.5369 22.6042 20.4209 22.6697C20.3048 22.7353 20.1131 22.7353 19.9971 22.6697C19.8811 22.6042 19.8811 22.4932 19.9971 22.4276C20.1131 22.362 20.3048 22.362 20.4209 22.4276Z" fill="#E78200"/>
<path d="M21.5258 21.7917C21.6418 21.8573 21.6418 21.9683 21.5258 22.0339C21.4098 22.0994 21.2181 22.0994 21.1021 22.0339C20.986 21.9683 20.986 21.8573 21.1021 21.7917C21.2181 21.7211 21.4098 21.7211 21.5258 21.7917Z" fill="#E78200"/>
<path d="M22.6253 21.1512C22.7413 21.2168 22.7413 21.3278 22.6253 21.3934C22.5093 21.4589 22.3176 21.4589 22.2016 21.3934C22.0856 21.3278 22.0856 21.2168 22.2016 21.1512C22.3226 21.0857 22.5093 21.0857 22.6253 21.1512Z" fill="#E78200"/>
<path d="M23.5181 20.8083C23.6825 20.8083 23.8157 20.7316 23.8157 20.6368C23.8157 20.5421 23.6825 20.4653 23.5181 20.4653C23.3538 20.4653 23.2205 20.5421 23.2205 20.6368C23.2205 20.7316 23.3538 20.8083 23.5181 20.8083Z" fill="#E78200"/>
<path d="M24.6231 20.1726C24.7874 20.1726 24.9207 20.0958 24.9207 20.0011C24.9207 19.9064 24.7874 19.8296 24.6231 19.8296C24.4587 19.8296 24.3254 19.9064 24.3254 20.0011C24.3254 20.0958 24.4587 20.1726 24.6231 20.1726Z" fill="#E78200"/>
<path d="M25.9397 19.2444C26.0557 19.3099 26.0557 19.4209 25.9397 19.4865C25.8236 19.5521 25.6319 19.5521 25.5159 19.4865C25.3999 19.4209 25.3999 19.3099 25.5159 19.2444C25.6319 19.1738 25.8236 19.1738 25.9397 19.2444Z" fill="#E78200"/>
<path d="M27.0391 18.6039C27.1552 18.6694 27.1552 18.7804 27.0391 18.846C26.9231 18.9116 26.7314 18.9116 26.6154 18.846C26.4994 18.7804 26.4994 18.6694 26.6154 18.6039C26.7365 18.5383 26.9231 18.5383 27.0391 18.6039Z" fill="#E78200"/>
<path d="M28.1441 17.9681C28.2601 18.0337 28.2601 18.1447 28.1441 18.2103C28.0281 18.2758 27.8364 18.2758 27.7204 18.2103C27.6044 18.1447 27.6044 18.0337 27.7204 17.9681C27.8414 17.9026 28.0281 17.9026 28.1441 17.9681Z" fill="#E78200"/>
<path d="M29.2486 17.3328C29.3646 17.3983 29.3646 17.5093 29.2486 17.5749C29.1326 17.6405 28.9409 17.6405 28.8248 17.5749C28.7088 17.5093 28.7088 17.3983 28.8248 17.3328C28.9409 17.2621 29.1326 17.2621 29.2486 17.3328Z" fill="#E78200"/>
<path d="M18.2167 22.4276C18.3327 22.4932 18.3327 22.6042 18.2167 22.6697C18.1006 22.7353 17.9089 22.7353 17.7929 22.6697C17.6769 22.6042 17.6769 22.4932 17.7929 22.4276C17.9089 22.362 18.1006 22.362 18.2167 22.4276Z" fill="#E78200"/>
<path d="M19.1043 22.0842C19.2686 22.0842 19.4019 22.0074 19.4019 21.9127C19.4019 21.818 19.2686 21.7412 19.1043 21.7412C18.9399 21.7412 18.8066 21.818 18.8066 21.9127C18.8066 22.0074 18.9399 22.0842 19.1043 22.0842Z" fill="#E78200"/>
<path d="M20.4209 21.1512C20.5369 21.2168 20.5369 21.3278 20.4209 21.3934C20.3048 21.4589 20.1131 21.4589 19.9971 21.3934C19.8811 21.3278 19.8811 21.2168 19.9971 21.1512C20.1131 21.0857 20.3048 21.0857 20.4209 21.1512Z" fill="#E78200"/>
<path d="M21.3139 20.8083C21.4783 20.8083 21.6115 20.7316 21.6115 20.6368C21.6115 20.5421 21.4783 20.4653 21.3139 20.4653C21.1496 20.4653 21.0163 20.5421 21.0163 20.6368C21.0163 20.7316 21.1496 20.8083 21.3139 20.8083Z" fill="#E78200"/>
<path d="M22.4186 20.1726C22.583 20.1726 22.7162 20.0958 22.7162 20.0011C22.7162 19.9064 22.583 19.8296 22.4186 19.8296C22.2542 19.8296 22.121 19.9064 22.121 20.0011C22.121 20.0958 22.2542 20.1726 22.4186 20.1726Z" fill="#E78200"/>
<path d="M23.7302 19.2444C23.8463 19.3099 23.8463 19.4209 23.7302 19.4865C23.6142 19.5521 23.4226 19.5521 23.3065 19.4865C23.1905 19.4209 23.1905 19.3099 23.3065 19.2444C23.4276 19.1738 23.6142 19.1738 23.7302 19.2444Z" fill="#E78200"/>
<path d="M24.6231 18.9016C24.7874 18.9016 24.9207 18.8248 24.9207 18.7301C24.9207 18.6354 24.7874 18.5586 24.6231 18.5586C24.4587 18.5586 24.3254 18.6354 24.3254 18.7301C24.3254 18.8248 24.4587 18.9016 24.6231 18.9016Z" fill="#E78200"/>
<path d="M25.9397 17.9681C26.0557 18.0337 26.0557 18.1447 25.9397 18.2103C25.8236 18.2758 25.6319 18.2758 25.5159 18.2103C25.3999 18.1447 25.3999 18.0337 25.5159 17.9681C25.6319 17.9026 25.8236 17.9026 25.9397 17.9681Z" fill="#E78200"/>
<path d="M27.0391 17.3328C27.1552 17.3983 27.1552 17.5093 27.0391 17.5749C26.9231 17.6405 26.7314 17.6405 26.6154 17.5749C26.4994 17.5093 26.4994 17.3983 26.6154 17.3328C26.7365 17.2621 26.9231 17.2621 27.0391 17.3328Z" fill="#E78200"/>
<path d="M28.1441 16.697C28.2601 16.7626 28.2601 16.8736 28.1441 16.9391C28.0281 17.0047 27.8364 17.0047 27.7204 16.9391C27.6044 16.8736 27.6044 16.7626 27.7204 16.697C27.8414 16.6264 28.0281 16.6264 28.1441 16.697Z" fill="#E78200"/>
<path d="M17.112 21.7917C17.228 21.8573 17.228 21.9683 17.112 22.0339C16.9959 22.0994 16.8042 22.0994 16.6882 22.0339C16.5722 21.9683 16.5722 21.8573 16.6882 21.7917C16.8042 21.7211 16.9959 21.7211 17.112 21.7917Z" fill="#E78200"/>
<path d="M18.2167 21.1512C18.3327 21.2168 18.3327 21.3278 18.2167 21.3934C18.1006 21.4589 17.9089 21.4589 17.7929 21.3934C17.6769 21.3278 17.6769 21.2168 17.7929 21.1512C17.9089 21.0857 18.1006 21.0857 18.2167 21.1512Z" fill="#E78200"/>
<path d="M19.3164 20.5155C19.4324 20.5811 19.4324 20.692 19.3164 20.7576C19.2004 20.8232 19.0087 20.8232 18.8927 20.7576C18.7767 20.692 18.7767 20.5811 18.8927 20.5155C19.0137 20.4499 19.2004 20.4499 19.3164 20.5155Z" fill="#E78200"/>
<path d="M20.2092 20.1726C20.3736 20.1726 20.5068 20.0958 20.5068 20.0011C20.5068 19.9064 20.3736 19.8296 20.2092 19.8296C20.0449 19.8296 19.9116 19.9064 19.9116 20.0011C19.9116 20.0958 20.0449 20.1726 20.2092 20.1726Z" fill="#E78200"/>
<path d="M21.5258 19.2444C21.6418 19.3099 21.6418 19.4209 21.5258 19.4865C21.4098 19.5521 21.2181 19.5521 21.1021 19.4865C20.986 19.4209 20.986 19.3099 21.1021 19.2444C21.2181 19.1738 21.4098 19.1738 21.5258 19.2444Z" fill="#E78200"/>
<path d="M22.6253 18.6039C22.7413 18.6694 22.7413 18.7804 22.6253 18.846C22.5093 18.9116 22.3176 18.9116 22.2016 18.846C22.0856 18.7804 22.0856 18.6694 22.2016 18.6039C22.3226 18.5383 22.5093 18.5383 22.6253 18.6039Z" fill="#E78200"/>
<path d="M23.3113 17.9681C23.4273 17.9026 23.619 17.9026 23.735 17.9681C23.8511 18.0337 23.8511 18.1447 23.735 18.2103C23.619 18.2758 23.4273 18.2758 23.3113 18.2103C23.1902 18.1447 23.1902 18.0337 23.3113 17.9681C23.4273 17.9026 23.1902 18.0337 23.3113 17.9681Z" fill="#E78200"/>
<path d="M24.411 17.3324C24.527 17.2668 24.7187 17.2668 24.8347 17.3324C24.9508 17.398 24.9508 17.5089 24.8347 17.5745C24.7187 17.6401 24.527 17.6401 24.411 17.5745C24.295 17.5089 24.295 17.398 24.411 17.3324C24.527 17.2618 24.295 17.398 24.411 17.3324Z" fill="#E78200"/>
<path d="M25.9396 16.6969C26.0556 16.7624 26.0556 16.8734 25.9396 16.939C25.8235 17.0045 25.6318 17.0045 25.5158 16.939C25.3998 16.8684 25.8235 16.6262 25.9396 16.6969Z" fill="#E78200"/>
<path d="M15.7954 21.449C15.9597 21.449 16.093 21.3722 16.093 21.2775C16.093 21.1827 15.9597 21.106 15.7954 21.106C15.631 21.106 15.4977 21.1827 15.4977 21.2775C15.4977 21.3722 15.631 21.449 15.7954 21.449Z" fill="#E78200"/>
<path d="M17.112 20.5155C17.228 20.5811 17.228 20.692 17.112 20.7576C16.9959 20.8232 16.8042 20.8232 16.6882 20.7576C16.5722 20.692 16.5722 20.5811 16.6882 20.5155C16.8042 20.4499 16.9959 20.4499 17.112 20.5155Z" fill="#E78200"/>
<path d="M18.0048 20.1726C18.1691 20.1726 18.3024 20.0958 18.3024 20.0011C18.3024 19.9064 18.1691 19.8296 18.0048 19.8296C17.8404 19.8296 17.7071 19.9064 17.7071 20.0011C17.7071 20.0958 17.8404 20.1726 18.0048 20.1726Z" fill="#E78200"/>
<path d="M19.3164 19.2444C19.4324 19.3099 19.4324 19.4209 19.3164 19.4865C19.2004 19.5521 19.0087 19.5521 18.8927 19.4865C18.7767 19.4209 18.7767 19.3099 18.8927 19.2444C19.0137 19.1738 19.2004 19.1738 19.3164 19.2444Z" fill="#E78200"/>
<path d="M14.9025 20.5155C15.0186 20.5811 15.0186 20.692 14.9025 20.7576C14.7865 20.8232 14.5949 20.8232 14.4788 20.7576C14.3628 20.692 14.3628 20.5811 14.4788 20.5155C14.5999 20.4499 14.7865 20.4499 14.9025 20.5155Z" fill="#E78200"/>
<path d="M16.007 19.8802C16.123 19.9458 16.123 20.0568 16.007 20.1224C15.891 20.1879 15.6993 20.1879 15.5833 20.1224C15.4672 20.0568 15.4672 19.9458 15.5833 19.8802C15.7043 19.8147 15.891 19.8147 16.007 19.8802Z" fill="#E78200"/>
<path d="M17.112 19.2444C17.228 19.3099 17.228 19.4209 17.112 19.4865C16.9959 19.5521 16.8042 19.5521 16.6882 19.4865C16.5722 19.4209 16.5722 19.3099 16.6882 19.2444C16.8042 19.1738 16.9959 19.1738 17.112 19.2444Z" fill="#E78200"/>
<path d="M18.2167 18.6039C18.3327 18.6694 18.3327 18.7804 18.2167 18.846C18.1006 18.9116 17.9089 18.9116 17.7929 18.846C17.6769 18.7804 17.6769 18.6694 17.7929 18.6039C17.9089 18.5383 18.1006 18.5383 18.2167 18.6039Z" fill="#E78200"/>
<path d="M13.5909 20.1726C13.7553 20.1726 13.8885 20.0958 13.8885 20.0011C13.8885 19.9064 13.7553 19.8296 13.5909 19.8296C13.4265 19.8296 13.2933 19.9064 13.2933 20.0011C13.2933 20.0958 13.4265 20.1726 13.5909 20.1726Z" fill="#E78200"/>
<path d="M14.6956 19.5369C14.86 19.5369 14.9932 19.4601 14.9932 19.3654C14.9932 19.2706 14.86 19.1938 14.6956 19.1938C14.5312 19.1938 14.398 19.2706 14.398 19.3654C14.398 19.4601 14.5312 19.5369 14.6956 19.5369Z" fill="#E78200"/>
<path d="M15.7954 18.9016C15.9597 18.9016 16.093 18.8248 16.093 18.7301C16.093 18.6354 15.9597 18.5586 15.7954 18.5586C15.631 18.5586 15.4977 18.6354 15.4977 18.7301C15.4977 18.8248 15.631 18.9016 15.7954 18.9016Z" fill="#E78200"/>
<path d="M17.112 17.9681C17.228 18.0337 17.228 18.1447 17.112 18.2103C16.9959 18.2758 16.8042 18.2758 16.6882 18.2103C16.5722 18.1447 16.5722 18.0337 16.6882 17.9681C16.8042 17.9026 16.9959 17.9026 17.112 17.9681Z" fill="#E78200"/>
<path d="M6.97259 22.72C7.13696 22.72 7.27019 22.6432 7.27019 22.5485C7.27019 22.4538 7.13696 22.377 6.97259 22.377C6.80822 22.377 6.67496 22.4538 6.67496 22.5485C6.67496 22.6432 6.80822 22.72 6.97259 22.72Z" fill="#E78200"/>
<path d="M8.28426 21.7917C8.40028 21.8573 8.40028 21.9683 8.28426 22.0339C8.16824 22.0994 7.97654 22.0994 7.86051 22.0339C7.74449 21.9683 7.74449 21.8573 7.86051 21.7917C7.98158 21.7211 8.16824 21.7211 8.28426 21.7917Z" fill="#E78200"/>
<path d="M9.17706 21.449C9.34143 21.449 9.47466 21.3722 9.47466 21.2775C9.47466 21.1827 9.34143 21.106 9.17706 21.106C9.01269 21.106 8.87943 21.1827 8.87943 21.2775C8.87943 21.3722 9.01269 21.449 9.17706 21.449Z" fill="#E78200"/>
<path d="M10.4936 20.5155C10.6097 20.5811 10.6097 20.692 10.4936 20.7576C10.3776 20.8232 10.1859 20.8232 10.0699 20.7576C9.95387 20.692 9.95387 20.5811 10.0699 20.5155C10.1859 20.4499 10.3726 20.4499 10.4936 20.5155Z" fill="#E78200"/>
<path d="M11.5932 19.8802C11.7092 19.9458 11.7092 20.0568 11.5932 20.1224C11.4771 20.1879 11.2854 20.1879 11.1694 20.1224C11.0534 20.0568 11.0534 19.9458 11.1694 19.8802C11.2905 19.8147 11.4771 19.8147 11.5932 19.8802Z" fill="#E78200"/>
<path d="M12.6981 19.2444C12.8141 19.3099 12.8141 19.4209 12.6981 19.4865C12.5821 19.5521 12.3904 19.5521 12.2744 19.4865C12.1583 19.4209 12.1583 19.3099 12.2744 19.2444C12.3904 19.1738 12.5821 19.1738 12.6981 19.2444Z" fill="#E78200"/>
<path d="M13.8028 18.6039C13.9188 18.6694 13.9188 18.7804 13.8028 18.846C13.6868 18.9116 13.4951 18.9116 13.3791 18.846C13.263 18.7804 13.263 18.6694 13.3791 18.6039C13.4951 18.5383 13.6868 18.5383 13.8028 18.6039Z" fill="#E78200"/>
<path d="M14.9025 17.9681C15.0186 18.0337 15.0186 18.1447 14.9025 18.2103C14.7865 18.2758 14.5949 18.2758 14.4788 18.2103C14.3628 18.1447 14.3628 18.0337 14.4788 17.9681C14.5999 17.9026 14.7865 17.9026 14.9025 17.9681Z" fill="#E78200"/>
<path d="M16.007 17.3328C16.123 17.3983 16.123 17.5093 16.007 17.5749C15.891 17.6405 15.6993 17.6405 15.5833 17.5749C15.4672 17.5093 15.4672 17.3983 15.5833 17.3328C15.7043 17.2621 15.891 17.2621 16.007 17.3328Z" fill="#E78200"/>
<path d="M4.54127 22.4222C4.65729 22.3567 4.84896 22.3567 4.96498 22.4222C5.081 22.4878 5.081 22.5988 4.96498 22.6644C4.84896 22.7299 4.65729 22.7299 4.54127 22.6644C4.42525 22.5988 4.42525 22.4878 4.54127 22.4222Z" fill="#E78200"/>
<path d="M6.06966 21.7816C6.18568 21.8472 6.18568 21.9582 6.06966 22.0237C5.95364 22.0893 5.76197 22.0893 5.64595 22.0237C5.52992 21.9582 5.52992 21.8472 5.64595 21.7816C5.76197 21.716 5.95364 21.716 6.06966 21.7816Z" fill="#E78200"/>
<path d="M7.17436 21.1464C7.29038 21.2119 7.29038 21.3229 7.17436 21.3885C7.05834 21.454 6.86667 21.454 6.75065 21.3885C6.63463 21.3229 6.63463 21.2119 6.75065 21.1464C6.86667 21.0808 7.0533 21.0808 7.17436 21.1464Z" fill="#E78200"/>
<path d="M8.27413 20.5106C8.39015 20.5762 8.39015 20.6872 8.27413 20.7527C8.1581 20.8183 7.96643 20.8183 7.85041 20.7527C7.73439 20.6872 7.73439 20.5762 7.85041 20.5106C7.97148 20.445 8.1581 20.445 8.27413 20.5106Z" fill="#E78200"/>
<path d="M9.37883 19.8752C9.49485 19.9408 9.49485 20.0518 9.37883 20.1174C9.26281 20.1829 9.07114 20.1829 8.95512 20.1174C8.8391 20.0518 8.8391 19.9408 8.95512 19.8752C9.07114 19.8046 9.26281 19.8046 9.37883 19.8752Z" fill="#E78200"/>
<path d="M10.4835 19.2342C10.5995 19.2998 10.5995 19.4108 10.4835 19.4764C10.3675 19.5419 10.1758 19.5419 10.0598 19.4764C9.94377 19.4108 9.94377 19.2998 10.0598 19.2342C10.1758 19.1687 10.3675 19.1687 10.4835 19.2342Z" fill="#E78200"/>
<path d="M11.5833 18.599C11.6993 18.6646 11.6993 18.7755 11.5833 18.8411C11.4673 18.9067 11.2756 18.9067 11.1596 18.8411C11.0436 18.7755 11.0436 18.6646 11.1596 18.599C11.2807 18.5334 11.4673 18.5334 11.5833 18.599Z" fill="#E78200"/>
<path d="M12.688 17.9631C12.804 18.0287 12.804 18.1397 12.688 18.2053C12.572 18.2708 12.3803 18.2708 12.2643 18.2053C12.1482 18.1397 12.1482 18.0287 12.2643 17.9631C12.3853 17.8925 12.572 17.8925 12.688 17.9631Z" fill="#E78200"/>
<path d="M13.5808 17.6204C13.7452 17.6204 13.8784 17.5436 13.8784 17.4489C13.8784 17.3541 13.7452 17.2773 13.5808 17.2773C13.4164 17.2773 13.2832 17.3541 13.2832 17.4489C13.2832 17.5436 13.4164 17.6204 13.5808 17.6204Z" fill="#E78200"/>
<path d="M14.8974 16.9341C14.7813 16.9997 14.5897 16.9997 14.4736 16.9341C14.3576 16.8685 14.3576 16.7575 14.4736 16.692C14.5897 16.6213 15.0134 16.8635 14.8974 16.9341Z" fill="#E78200"/>
<path d="M3.43656 21.787C3.55259 21.7214 3.73921 21.7214 3.86028 21.787C3.9763 21.8526 3.9763 21.9635 3.86028 22.0291C3.74426 22.0947 3.55763 22.0947 3.43656 22.0291C3.32054 21.9635 3.32054 21.8526 3.43656 21.787Z" fill="#E78200"/>
<path d="M4.96498 21.1464C5.081 21.2119 5.081 21.3229 4.96498 21.3885C4.84896 21.454 4.65729 21.454 4.54127 21.3885C4.42525 21.3229 4.42525 21.2119 4.54127 21.1464C4.66234 21.0808 4.84896 21.0808 4.96498 21.1464Z" fill="#E78200"/>
<path d="M11.5833 17.3226C11.6993 17.3882 11.6993 17.4992 11.5833 17.5648C11.4673 17.6303 11.2756 17.6303 11.1596 17.5648C11.0436 17.4992 11.0436 17.3882 11.1596 17.3226C11.2807 17.257 11.4673 17.257 11.5833 17.3226Z" fill="#E78200"/>
<path d="M12.688 16.6869C12.804 16.7525 12.804 16.8634 12.688 16.929C12.572 16.9946 12.3803 16.9946 12.2643 16.929C12.1482 16.8634 12.1482 16.7525 12.2643 16.6869C12.3853 16.6213 12.572 16.6213 12.688 16.6869Z" fill="#E78200"/>
<path d="M2.3368 21.1464C2.45282 21.0808 2.64449 21.0808 2.76051 21.1464C2.87654 21.2119 2.87654 21.3229 2.76051 21.3885C2.64449 21.454 2.45282 21.454 2.3368 21.3885C2.22078 21.3229 2.22078 21.217 2.3368 21.1464Z" fill="#E78200"/>
<path d="M3.86028 20.5106C3.9763 20.5762 3.9763 20.6872 3.86028 20.7527C3.74426 20.8183 3.55259 20.8183 3.43656 20.7527C3.32054 20.6872 3.32054 20.5762 3.43656 20.5106C3.55763 20.445 3.74426 20.445 3.86028 20.5106Z" fill="#E78200"/>
<path d="M11.5833 16.0511C11.6993 16.1167 11.6993 16.2277 11.5833 16.2933C11.4673 16.3588 11.2756 16.3588 11.1596 16.2933C11.0436 16.2277 11.0436 16.1167 11.1596 16.0511C11.2807 15.9856 11.4673 15.9856 11.5833 16.0511Z" fill="#E78200"/>
<path d="M12.688 15.658C12.572 15.7236 12.3803 15.7236 12.2643 15.658C12.1482 15.5924 12.1482 15.4815 12.2643 15.4159C12.3853 15.3453 12.804 15.5924 12.688 15.658Z" fill="#E78200"/>
<path d="M1.2321 20.5106C1.34812 20.445 1.53474 20.445 1.65581 20.5106C1.77183 20.5762 1.77183 20.6872 1.65581 20.7527C1.53979 20.8183 1.34812 20.8183 1.2321 20.7527C1.11608 20.6872 1.11608 20.5762 1.2321 20.5106Z" fill="#E78200"/>
<path d="M2.76051 19.8752C2.87654 19.9408 2.87654 20.0518 2.76051 20.1174C2.64449 20.1829 2.45282 20.1829 2.3368 20.1174C2.22078 20.0518 2.22078 19.9408 2.3368 19.8752C2.45282 19.8046 2.64449 19.8046 2.76051 19.8752Z" fill="#E78200"/>
<path d="M11.5833 15.0223C11.4673 15.0879 11.2756 15.0879 11.1596 15.0223C11.0436 14.9567 11.0436 14.8457 11.1596 14.7801C11.2756 14.7146 11.4673 14.7146 11.5833 14.7801C11.7044 14.8457 11.7044 14.9517 11.5833 15.0223Z" fill="#E78200"/>
<path d="M28.7847 7.94986L15.1749 0.171387L7.66885 4.50957V13.1809L21.2786 20.9543V12.3082L28.7847 7.94986Z" fill="#FFF4E5"/>
<path d="M7.66885 13.1508L21.2786 20.9293V12.2781L7.66885 4.47949V13.1508Z" fill="#444444"/>
<path d="M28.9358 7.86422L15.1747 0L7.53748 4.4088L7.51224 4.42393V4.59544V13.2668L21.1221 21.0402L21.2734 21.126L21.4247 21.0402L28.8601 16.7474L28.9358 16.702V8.03573V7.86422ZM15.1747 0.348065L24.8045 5.82628L17.596 9.98791L7.96625 4.5097L15.1747 0.348065ZM21.1271 20.6972L7.81997 13.0953V4.772L21.1271 12.3739V20.6972ZM24.9558 5.91204L28.4869 7.94998L24.3353 10.3461L21.2784 12.1116L17.7473 10.0737L24.9558 5.91204Z" fill="#E78200"/>
<path d="M18.2923 12.2932L16.9001 11.4912C16.7488 11.4004 16.5924 11.3953 16.4612 11.4659C16.3149 11.5517 16.2342 11.7282 16.2342 11.9552C16.2342 12.3336 16.4612 12.7623 16.7488 12.9288L18.141 13.7309C18.2267 13.7813 18.3125 13.8065 18.3932 13.8065C18.4588 13.8065 18.5244 13.7914 18.5798 13.7561C18.7261 13.6703 18.8069 13.4938 18.8069 13.2668C18.8119 12.8884 18.5849 12.4597 18.2923 12.2932ZM18.4336 13.4938C18.3932 13.519 18.3276 13.4887 18.2974 13.4686L16.9051 12.6665C16.7084 12.5505 16.5369 12.2276 16.5369 11.9552C16.5369 11.819 16.5772 11.7484 16.6126 11.7282C16.658 11.703 16.7185 11.7333 16.7488 11.7535L16.8446 11.809C16.8799 12.1368 17.0716 12.4748 17.3137 12.6161L18.5042 13.3021C18.4992 13.4131 18.4689 13.4736 18.4336 13.4938Z" fill="#E78200"/>
<path d="M27.7 14.084C27.6294 14.0437 27.5437 14.0487 27.4579 14.0992L26.3481 14.7398C26.1817 14.8356 26.0555 15.0778 26.0555 15.2947V16.4852C26.0555 16.6113 26.1009 16.7122 26.1817 16.7576C26.2119 16.7777 26.2472 16.7828 26.2825 16.7828C26.3279 16.7828 26.3734 16.7676 26.4238 16.7424L27.5335 16.1018C27.7 16.0059 27.8261 15.7638 27.8261 15.5469V14.3564C27.8261 14.2303 27.7807 14.1345 27.7 14.084Z" fill="#444444"/>
<path d="M5.25216 20.8385L0.207764 17.9228V12.1016L5.25216 15.0122V20.8385Z" fill="#444444"/>
<path d="M10.3016 12.1012L5.25216 15.0118L0.207764 12.1012L5.25216 9.18555L10.3016 12.1012Z" fill="#444444"/>
<path d="M10.3015 12.6816L5.76153 15.2694L0.717133 12.3537L5.25204 9.771L10.3015 12.6816Z" fill="#FFF4E5"/>
<path d="M5.25232 9.01416L0.207922 11.9248L0.0616455 12.0156V18.0083L5.10605 20.9189L5.25232 21.0047L5.39863 20.9189L10.443 18.0083V12.182V12.0105L5.25232 9.01416ZM5.25232 9.35718L9.99912 12.0963L7.61815 13.4734L5.25232 14.8405L4.50576 14.4117L0.500506 12.1013L5.25232 9.35718ZM0.359248 17.8368V12.3536L5.10605 15.0927V20.5759L0.359248 17.8368Z" fill="#E78200"/>
<path d="M4.03655 19.0929L3.26474 18.649C3.14367 18.5784 3.04279 18.3867 3.04279 18.2203V17.4131C3.04279 17.2467 3.14367 17.171 3.26474 17.2467L4.03655 17.6906C4.15761 17.7612 4.2585 17.9529 4.2585 18.1194V18.9265C4.26355 19.0879 4.16266 19.1636 4.03655 19.0929Z" fill="#E78200"/>
</svg>
