<svg width="24" height="18" viewBox="0 0 24 18" fill="none" xmlns="http://www.w3.org/2000/svg">
<path fill-rule="evenodd" clip-rule="evenodd" d="M1.44069 0.726788C1.01173 0.879953 0.474867 1.37119 0.230898 1.83377L0.0280529 2.21822L0.00523933 7.65894C-0.00729308 10.6513 0.00343832 13.2446 0.0291035 13.4217C0.0796084 13.7708 0.39592 14.197 0.734371 14.372C0.842284 14.4278 1.08663 14.4968 1.27732 14.5254L1.6241 14.5774L1.65622 14.9642C1.72856 15.8363 2.35675 16.715 3.20693 17.1333C3.66283 17.3576 3.75993 17.377 4.4168 17.3745C5.04147 17.3722 5.1851 17.3456 5.56167 17.1631C6.39264 16.7603 6.95502 16.0074 7.13551 15.056L7.22901 14.563H11.8178H16.4066L16.4404 14.9702C16.5137 15.8539 17.185 16.7667 18.0631 17.1767C18.4309 17.3485 18.5861 17.3755 19.2019 17.3743C19.8275 17.3731 19.9676 17.3473 20.3454 17.1637C20.8449 16.9209 21.3909 16.4049 21.6178 15.9611C21.8031 15.5989 21.9764 14.9887 21.9776 14.6943C21.9785 14.4897 21.9827 14.488 22.4851 14.4878C23.0903 14.4878 23.4083 14.3477 23.7367 13.9371L23.9672 13.6488L23.9898 11.348C24.0123 9.05349 24.0119 9.04636 23.8349 8.70956C23.6504 8.35828 23.4464 8.22995 21.9865 7.546L21.5067 7.32124L20.7965 5.91828C20.4059 5.14668 19.9709 4.3804 19.8297 4.21553C19.6886 4.05065 19.3798 3.82289 19.1437 3.70943C18.7311 3.51131 18.6575 3.50185 17.2796 3.47109L15.8452 3.43904L15.8052 2.857C15.7396 1.89943 15.342 1.23882 14.5934 0.843857L14.2114 0.642288L7.98276 0.628555C2.62819 0.616773 1.7101 0.630581 1.44069 0.726788ZM14.0785 1.80277C14.2618 1.88592 14.4599 2.05177 14.5473 2.19511C14.6932 2.4345 14.6987 2.56613 14.6989 5.87663L14.6992 9.30991H7.87019H1.04115L1.0428 5.9892C1.0443 2.92791 1.05519 2.64507 1.18231 2.36831C1.34493 2.01417 1.5447 1.82101 1.83985 1.73253C1.95774 1.69719 4.68831 1.66612 7.90771 1.66349C13.5252 1.65891 13.774 1.66447 14.0785 1.80277ZM18.7152 4.70024C19.0195 4.84462 19.2086 5.12379 19.7971 6.29793L20.2536 7.20867H18.0393H15.8249V5.89539V4.58212H17.1456C18.1917 4.58212 18.518 4.60666 18.7152 4.70024ZM21.8889 8.68127C22.3303 8.87203 22.7506 9.0799 22.8228 9.14316C22.9417 9.24725 22.9541 9.44717 22.9541 11.2577C22.9541 12.7129 22.9296 13.2818 22.8641 13.3473C22.8105 13.4008 22.5526 13.4374 22.2281 13.4374C21.7062 13.4374 21.6775 13.4281 21.5736 13.2273C21.2335 12.5696 20.2904 11.9774 19.4421 11.8887C18.5118 11.7915 17.4786 12.2715 16.9506 13.0465L16.6879 13.432L16.2564 13.4347L15.8249 13.4374V10.8858V8.33434H18.4556H21.0864L21.8889 8.68127ZM14.6992 11.9365V13.4374H10.7989H6.89844L6.79135 13.231C6.59669 12.8561 6.04098 12.3657 5.54479 12.1309C5.10833 11.9245 4.98376 11.9001 4.38063 11.9036C3.81922 11.9068 3.63559 11.9398 3.29248 12.0992C2.79471 12.3305 2.25162 12.7984 2.05313 13.167C1.91865 13.4168 1.88142 13.4374 1.56444 13.4374C1.3757 13.4374 1.18073 13.3968 1.13121 13.3473C1.06757 13.2837 1.04115 12.8437 1.04115 11.8464V10.4356H7.87019H14.6992V11.9365ZM5.07719 13.1036C5.70096 13.3642 6.0647 13.9361 6.06747 14.6606C6.07408 16.4007 3.70087 16.9901 2.90856 15.445C2.61318 14.8691 2.67607 14.0657 3.05114 13.6231C3.23605 13.4048 3.67986 13.0836 3.85532 13.041C4.18401 12.9611 4.81326 12.9934 5.07719 13.1036ZM19.9148 13.1294C20.5124 13.4061 20.8739 13.9982 20.8683 14.6916C20.8607 15.6566 19.9436 16.4655 19.0036 16.3368C18.2009 16.2268 17.6345 15.6751 17.5073 14.8796C17.4528 14.5387 17.6285 13.8608 17.8329 13.6231C18.0224 13.4028 18.4649 13.0833 18.6391 13.041C19.0003 12.9532 19.6283 12.9967 19.9148 13.1294Z" fill="#E78200"/>
</svg>
