<svg width="100" height="94" viewBox="0 0 100 94" fill="none" xmlns="http://www.w3.org/2000/svg">
<path d="M1.76996 65.8728C2.01996 66.0128 2.01996 66.2528 1.76996 66.3928C1.51996 66.5328 1.10999 66.5328 0.859985 66.3928C0.609985 66.2528 0.609985 66.0128 0.859985 65.8728C1.11999 65.7228 1.51996 65.7228 1.76996 65.8728Z" fill="#E78200"/>
<path d="M4.13995 64.5031C4.38995 64.6431 4.38995 64.8831 4.13995 65.0231C3.88995 65.1631 3.47998 65.1631 3.22998 65.0231C2.97998 64.8831 2.97998 64.6431 3.22998 64.5031C3.48998 64.3531 3.88995 64.3531 4.13995 64.5031Z" fill="#E78200"/>
<path d="M39.84 90.3229C40.09 90.4629 40.09 90.7029 39.84 90.8429C39.59 90.9829 39.1799 90.9829 38.9299 90.8429C38.6799 90.7029 38.6799 90.4629 38.9299 90.3229C39.1899 90.1729 39.59 90.1729 39.84 90.3229Z" fill="#E78200"/>
<path d="M42.21 88.9528C42.46 89.0928 42.46 89.3328 42.21 89.4728C41.96 89.6128 41.5499 89.6128 41.2999 89.4728C41.0499 89.3328 41.0499 89.0928 41.2999 88.9528C41.5599 88.8028 41.96 88.8028 42.21 88.9528Z" fill="#E78200"/>
<path d="M44.58 87.583C44.83 87.723 44.83 87.963 44.58 88.103C44.33 88.243 43.92 88.243 43.67 88.103C43.42 87.963 43.42 87.723 43.67 87.583C43.93 87.443 44.33 87.443 44.58 87.583Z" fill="#E78200"/>
<path d="M46.96 86.2129C47.21 86.3529 47.21 86.5929 46.96 86.7329C46.71 86.8729 46.2999 86.8729 46.0499 86.7329C45.7999 86.5929 45.7999 86.3529 46.0499 86.2129C46.2999 86.0729 46.7 86.0729 46.96 86.2129Z" fill="#E78200"/>
<path d="M49.33 84.8428C49.58 84.9828 49.58 85.2228 49.33 85.3628C49.08 85.5028 48.67 85.5028 48.42 85.3628C48.17 85.2228 48.17 84.9828 48.42 84.8428C48.67 84.7028 49.08 84.7028 49.33 84.8428Z" fill="#E78200"/>
<path d="M51.2399 84.1028C51.5934 84.1028 51.8799 83.9371 51.8799 83.7328C51.8799 83.5284 51.5934 83.3628 51.2399 83.3628C50.8865 83.3628 50.6 83.5284 50.6 83.7328C50.6 83.9371 50.8865 84.1028 51.2399 84.1028Z" fill="#E78200"/>
<path d="M54.0699 82.103C54.3199 82.243 54.3199 82.483 54.0699 82.623C53.8199 82.763 53.41 82.763 53.16 82.623C52.91 82.483 52.91 82.243 53.16 82.103C53.41 81.963 53.8199 81.963 54.0699 82.103Z" fill="#E78200"/>
<path d="M55.9899 81.3728C56.3434 81.3728 56.6299 81.2072 56.6299 81.0028C56.6299 80.7985 56.3434 80.6328 55.9899 80.6328C55.6365 80.6328 55.35 80.7985 55.35 81.0028C55.35 81.2072 55.6365 81.3728 55.9899 81.3728Z" fill="#E78200"/>
<path d="M58.8099 79.3728C59.0599 79.5128 59.0599 79.7528 58.8099 79.8928C58.5599 80.0328 58.15 80.0328 57.9 79.8928C57.65 79.7528 57.65 79.5128 57.9 79.3728C58.15 79.2228 58.5599 79.2228 58.8099 79.3728Z" fill="#E78200"/>
<path d="M61.1799 78.0031C61.4299 78.1431 61.4299 78.3831 61.1799 78.5231C60.9299 78.6631 60.52 78.6631 60.27 78.5231C60.02 78.3831 60.02 78.1431 60.27 78.0031C60.52 77.8531 60.9299 77.8531 61.1799 78.0031Z" fill="#E78200"/>
<path d="M63.5499 76.633C63.7999 76.773 63.7999 77.013 63.5499 77.153C63.2999 77.293 62.89 77.293 62.64 77.153C62.39 77.013 62.39 76.773 62.64 76.633C62.9 76.483 63.2999 76.483 63.5499 76.633Z" fill="#E78200"/>
<path d="M37.02 89.5828C37.3734 89.5828 37.66 89.4171 37.66 89.2128C37.66 89.0084 37.3734 88.8428 37.02 88.8428C36.6665 88.8428 36.3799 89.0084 36.3799 89.2128C36.3799 89.4171 36.6665 89.5828 37.02 89.5828Z" fill="#E78200"/>
<path d="M39.84 87.583C40.09 87.723 40.09 87.963 39.84 88.103C39.59 88.243 39.1799 88.243 38.9299 88.103C38.6799 87.963 38.6799 87.723 38.9299 87.583C39.1899 87.443 39.59 87.443 39.84 87.583Z" fill="#E78200"/>
<path d="M42.21 86.2129C42.46 86.3529 42.46 86.5929 42.21 86.7329C41.96 86.8729 41.5499 86.8729 41.2999 86.7329C41.0499 86.5929 41.0499 86.3529 41.2999 86.2129C41.5599 86.0729 41.96 86.0729 42.21 86.2129Z" fill="#E78200"/>
<path d="M44.58 84.8428C44.83 84.9828 44.83 85.2228 44.58 85.3628C44.33 85.5028 43.92 85.5028 43.67 85.3628C43.42 85.2228 43.42 84.9828 43.67 84.8428C43.93 84.7028 44.33 84.7028 44.58 84.8428Z" fill="#E78200"/>
<path d="M46.96 83.4732C47.21 83.6132 47.21 83.8532 46.96 83.9932C46.71 84.1332 46.2999 84.1332 46.0499 83.9932C45.7999 83.8532 45.7999 83.6132 46.0499 83.4732C46.2999 83.3332 46.7 83.3332 46.96 83.4732Z" fill="#E78200"/>
<path d="M49.33 82.103C49.58 82.243 49.58 82.483 49.33 82.623C49.08 82.763 48.67 82.763 48.42 82.623C48.17 82.483 48.17 82.243 48.42 82.103C48.67 81.963 49.08 81.963 49.33 82.103Z" fill="#E78200"/>
<path d="M51.7 80.7429C51.95 80.8829 51.95 81.1229 51.7 81.2629C51.45 81.4029 51.04 81.4029 50.79 81.2629C50.54 81.1229 50.54 80.8829 50.79 80.7429C51.04 80.5929 51.45 80.5929 51.7 80.7429Z" fill="#E78200"/>
<path d="M54.0699 79.3728C54.3199 79.5128 54.3199 79.7528 54.0699 79.8928C53.8199 80.0328 53.41 80.0328 53.16 79.8928C52.91 79.7528 52.91 79.5128 53.16 79.3728C53.41 79.2228 53.8199 79.2228 54.0699 79.3728Z" fill="#E78200"/>
<path d="M55.9899 78.6331C56.3434 78.6331 56.6299 78.4674 56.6299 78.2631C56.6299 78.0587 56.3434 77.8931 55.9899 77.8931C55.6365 77.8931 55.35 78.0587 55.35 78.2631C55.35 78.4674 55.6365 78.6331 55.9899 78.6331Z" fill="#E78200"/>
<path d="M58.36 77.263C58.7134 77.263 58.9999 77.0973 58.9999 76.893C58.9999 76.6886 58.7134 76.5229 58.36 76.5229C58.0065 76.5229 57.72 76.6886 57.72 76.893C57.72 77.0973 58.0065 77.263 58.36 77.263Z" fill="#E78200"/>
<path d="M61.1799 75.2632C61.4299 75.4032 61.4299 75.6432 61.1799 75.7832C60.9299 75.9232 60.52 75.9232 60.27 75.7832C60.02 75.6432 60.02 75.4032 60.27 75.2632C60.52 75.1232 60.9299 75.1232 61.1799 75.2632Z" fill="#E78200"/>
<path d="M35.1 87.583C35.35 87.723 35.35 87.963 35.1 88.103C34.85 88.243 34.4399 88.243 34.1899 88.103C33.9399 87.963 33.9399 87.723 34.1899 87.583C34.4399 87.443 34.85 87.443 35.1 87.583Z" fill="#E78200"/>
<path d="M37.47 86.2129C37.72 86.3529 37.72 86.5929 37.47 86.7329C37.22 86.8729 36.8099 86.8729 36.5599 86.7329C36.3099 86.5929 36.3099 86.3529 36.5599 86.2129C36.8099 86.0729 37.22 86.0729 37.47 86.2129Z" fill="#E78200"/>
<path d="M39.84 84.8428C40.09 84.9828 40.09 85.2228 39.84 85.3628C39.59 85.5028 39.1799 85.5028 38.9299 85.3628C38.6799 85.2228 38.6799 84.9828 38.9299 84.8428C39.1899 84.7028 39.59 84.7028 39.84 84.8428Z" fill="#E78200"/>
<path d="M42.21 83.4732C42.46 83.6132 42.46 83.8532 42.21 83.9932C41.96 84.1332 41.5499 84.1332 41.2999 83.9932C41.0499 83.8532 41.0499 83.6132 41.2999 83.4732C41.5599 83.3332 41.96 83.3332 42.21 83.4732Z" fill="#E78200"/>
<path d="M44.58 82.103C44.83 82.243 44.83 82.483 44.58 82.623C44.33 82.763 43.92 82.763 43.67 82.623C43.42 82.483 43.42 82.243 43.67 82.103C43.93 81.963 44.33 81.963 44.58 82.103Z" fill="#E78200"/>
<path d="M46.96 80.7429C47.21 80.8829 47.21 81.1229 46.96 81.2629C46.71 81.4029 46.2999 81.4029 46.0499 81.2629C45.7999 81.1229 45.7999 80.8829 46.0499 80.7429C46.2999 80.5929 46.7 80.5929 46.96 80.7429Z" fill="#E78200"/>
<path d="M49.33 79.3728C49.58 79.5128 49.58 79.7528 49.33 79.8928C49.08 80.0328 48.67 80.0328 48.42 79.8928C48.17 79.7528 48.17 79.5128 48.42 79.3728C48.67 79.2228 49.08 79.2228 49.33 79.3728Z" fill="#E78200"/>
<path d="M51.7 78.0031C51.95 78.1431 51.95 78.3831 51.7 78.5231C51.45 78.6631 51.04 78.6631 50.79 78.5231C50.54 78.3831 50.54 78.1431 50.79 78.0031C51.04 77.8531 51.45 77.8531 51.7 78.0031Z" fill="#E78200"/>
<path d="M54.0699 76.633C54.3199 76.773 54.3199 77.013 54.0699 77.153C53.8199 77.293 53.41 77.293 53.16 77.153C52.91 77.013 52.91 76.773 53.16 76.633C53.41 76.483 53.8199 76.483 54.0699 76.633Z" fill="#E78200"/>
<path d="M56.4399 75.2632C56.6899 75.4032 56.6899 75.6432 56.4399 75.7832C56.1899 75.9232 55.78 75.9232 55.53 75.7832C55.28 75.6432 55.28 75.4032 55.53 75.2632C55.78 75.1232 56.1899 75.1232 56.4399 75.2632Z" fill="#E78200"/>
<path d="M58.8099 73.8931C59.0599 74.0331 59.0599 74.2731 58.8099 74.4131C58.5599 74.5531 58.15 74.5531 57.9 74.4131C57.65 74.2731 57.65 74.0331 57.9 73.8931C58.15 73.7531 58.5599 73.7531 58.8099 73.8931Z" fill="#E78200"/>
<path d="M32.73 86.2129C32.98 86.3529 32.98 86.5929 32.73 86.7329C32.48 86.8729 32.0699 86.8729 31.8199 86.7329C31.5699 86.5929 31.5699 86.3529 31.8199 86.2129C32.0699 86.0729 32.48 86.0729 32.73 86.2129Z" fill="#E78200"/>
<path d="M35.1 84.8428C35.35 84.9828 35.35 85.2228 35.1 85.3628C34.85 85.5028 34.4399 85.5028 34.1899 85.3628C33.9399 85.2228 33.9399 84.9828 34.1899 84.8428C34.4399 84.7028 34.85 84.7028 35.1 84.8428Z" fill="#E78200"/>
<path d="M37.47 83.4732C37.72 83.6132 37.72 83.8532 37.47 83.9932C37.22 84.1332 36.8099 84.1332 36.5599 83.9932C36.3099 83.8532 36.3099 83.6132 36.5599 83.4732C36.8099 83.3332 37.22 83.3332 37.47 83.4732Z" fill="#E78200"/>
<path d="M39.84 82.103C40.09 82.243 40.09 82.483 39.84 82.623C39.59 82.763 39.1799 82.763 38.9299 82.623C38.6799 82.483 38.6799 82.243 38.9299 82.103C39.1899 81.963 39.59 81.963 39.84 82.103Z" fill="#E78200"/>
<path d="M42.21 80.7429C42.46 80.8829 42.46 81.1229 42.21 81.2629C41.96 81.4029 41.5499 81.4029 41.2999 81.2629C41.0499 81.1229 41.0499 80.8829 41.2999 80.7429C41.5599 80.5929 41.96 80.5929 42.21 80.7429Z" fill="#E78200"/>
<path d="M44.58 79.3728C44.83 79.5128 44.83 79.7528 44.58 79.8928C44.33 80.0328 43.92 80.0328 43.67 79.8928C43.42 79.7528 43.42 79.5128 43.67 79.3728C43.93 79.2228 44.33 79.2228 44.58 79.3728Z" fill="#E78200"/>
<path d="M46.96 78.0031C47.21 78.1431 47.21 78.3831 46.96 78.5231C46.71 78.6631 46.2999 78.6631 46.0499 78.5231C45.7999 78.3831 45.7999 78.1431 46.0499 78.0031C46.2999 77.8531 46.7 77.8531 46.96 78.0031Z" fill="#E78200"/>
<path d="M49.33 76.633C49.58 76.773 49.58 77.013 49.33 77.153C49.08 77.293 48.67 77.293 48.42 77.153C48.17 77.013 48.17 76.773 48.42 76.633C48.67 76.483 49.08 76.483 49.33 76.633Z" fill="#E78200"/>
<path d="M51.7 75.2632C51.95 75.4032 51.95 75.6432 51.7 75.7832C51.45 75.9232 51.04 75.9232 50.79 75.7832C50.54 75.6432 50.54 75.4032 50.79 75.2632C51.04 75.1232 51.45 75.1232 51.7 75.2632Z" fill="#E78200"/>
<path d="M54.0699 73.8931C54.3199 74.0331 54.3199 74.2731 54.0699 74.4131C53.8199 74.5531 53.41 74.5531 53.16 74.4131C52.91 74.2731 52.91 74.0331 53.16 73.8931C53.41 73.7531 53.8199 73.7531 54.0699 73.8931Z" fill="#E78200"/>
<path d="M55.9899 73.1531C56.3434 73.1531 56.6299 72.9874 56.6299 72.7831C56.6299 72.5787 56.3434 72.4131 55.9899 72.4131C55.6365 72.4131 55.35 72.5787 55.35 72.7831C55.35 72.9874 55.6365 73.1531 55.9899 73.1531Z" fill="#E78200"/>
<path d="M30.36 84.8428C30.61 84.9828 30.61 85.2228 30.36 85.3628C30.11 85.5028 29.7 85.5028 29.45 85.3628C29.2 85.2228 29.2 84.9828 29.45 84.8428C29.7 84.7028 30.11 84.7028 30.36 84.8428Z" fill="#E78200"/>
<path d="M32.73 83.4732C32.98 83.6132 32.98 83.8532 32.73 83.9932C32.48 84.1332 32.0699 84.1332 31.8199 83.9932C31.5699 83.8532 31.5699 83.6132 31.8199 83.4732C32.0699 83.3332 32.48 83.3332 32.73 83.4732Z" fill="#E78200"/>
<path d="M35.1 82.103C35.35 82.243 35.35 82.483 35.1 82.623C34.85 82.763 34.4399 82.763 34.1899 82.623C33.9399 82.483 33.9399 82.243 34.1899 82.103C34.4399 81.963 34.85 81.963 35.1 82.103Z" fill="#E78200"/>
<path d="M37.47 80.7429C37.72 80.8829 37.72 81.1229 37.47 81.2629C37.22 81.4029 36.8099 81.4029 36.5599 81.2629C36.3099 81.1229 36.3099 80.8829 36.5599 80.7429C36.8099 80.5929 37.22 80.5929 37.47 80.7429Z" fill="#E78200"/>
<path d="M39.84 79.3728C40.09 79.5128 40.09 79.7528 39.84 79.8928C39.59 80.0328 39.1799 80.0328 38.9299 79.8928C38.6799 79.7528 38.6799 79.5128 38.9299 79.3728C39.1899 79.2228 39.59 79.2228 39.84 79.3728Z" fill="#E78200"/>
<path d="M42.21 78.0031C42.46 78.1431 42.46 78.3831 42.21 78.5231C41.96 78.6631 41.5499 78.6631 41.2999 78.5231C41.0499 78.3831 41.0499 78.1431 41.2999 78.0031C41.5599 77.8531 41.96 77.8531 42.21 78.0031Z" fill="#E78200"/>
<path d="M44.58 76.633C44.83 76.773 44.83 77.013 44.58 77.153C44.33 77.293 43.92 77.293 43.67 77.153C43.42 77.013 43.42 76.773 43.67 76.633C43.93 76.483 44.33 76.483 44.58 76.633Z" fill="#E78200"/>
<path d="M46.96 75.2632C47.21 75.4032 47.21 75.6432 46.96 75.7832C46.71 75.9232 46.2999 75.9232 46.0499 75.7832C45.7999 75.6432 45.7999 75.4032 46.0499 75.2632C46.2999 75.1232 46.7 75.1232 46.96 75.2632Z" fill="#E78200"/>
<path d="M49.33 73.8931C49.58 74.0331 49.58 74.2731 49.33 74.4131C49.08 74.5531 48.67 74.5531 48.42 74.4131C48.17 74.2731 48.17 74.0331 48.42 73.8931C48.67 73.7531 49.08 73.7531 49.33 73.8931Z" fill="#E78200"/>
<path d="M51.7 72.523C51.95 72.663 51.95 72.903 51.7 73.043C51.45 73.183 51.04 73.183 50.79 73.043C50.54 72.903 50.54 72.663 50.79 72.523C51.04 72.383 51.45 72.383 51.7 72.523Z" fill="#E78200"/>
<path d="M54.0699 71.1529C54.3199 71.2929 54.3199 71.5328 54.0699 71.6728C53.8199 71.8128 53.41 71.8128 53.16 71.6728C52.91 71.5328 52.91 71.2929 53.16 71.1529C53.41 71.0129 53.8199 71.0129 54.0699 71.1529Z" fill="#E78200"/>
<path d="M27.97 83.4631C28.22 83.6031 28.22 83.8431 27.97 83.9831C27.72 84.1231 27.3099 84.1231 27.0599 83.9831C26.8099 83.8431 26.8099 83.6031 27.0599 83.4631C27.3099 83.3131 27.72 83.3131 27.97 83.4631Z" fill="#E78200"/>
<path d="M29.8799 82.7229C30.2334 82.7229 30.52 82.5573 30.52 82.3529C30.52 82.1486 30.2334 81.9829 29.8799 81.9829C29.5265 81.9829 29.2399 82.1486 29.2399 82.3529C29.2399 82.5573 29.5265 82.7229 29.8799 82.7229Z" fill="#E78200"/>
<path d="M32.71 80.7232C32.96 80.8632 32.96 81.1032 32.71 81.2432C32.46 81.3832 32.0499 81.3832 31.7999 81.2432C31.5499 81.1032 31.5499 80.8632 31.7999 80.7232C32.0499 80.5832 32.46 80.5832 32.71 80.7232Z" fill="#E78200"/>
<path d="M34.6299 79.9832C34.9834 79.9832 35.27 79.8175 35.27 79.6132C35.27 79.4088 34.9834 79.2432 34.6299 79.2432C34.2765 79.2432 33.9899 79.4088 33.9899 79.6132C33.9899 79.8175 34.2765 79.9832 34.6299 79.9832Z" fill="#E78200"/>
<path d="M37.45 77.9829C37.7 78.1229 37.7 78.3629 37.45 78.5029C37.2 78.6429 36.79 78.6429 36.54 78.5029C36.29 78.3629 36.29 78.1229 36.54 77.9829C36.79 77.8429 37.2 77.8429 37.45 77.9829Z" fill="#E78200"/>
<path d="M39.3699 77.2532C39.7234 77.2532 40.0099 77.0875 40.0099 76.8832C40.0099 76.6788 39.7234 76.5132 39.3699 76.5132C39.0165 76.5132 38.73 76.6788 38.73 76.8832C38.73 77.0875 39.0165 77.2532 39.3699 77.2532Z" fill="#E78200"/>
<path d="M42.1899 75.2531C42.4399 75.3931 42.4399 75.6331 42.1899 75.7731C41.9399 75.9131 41.53 75.9131 41.28 75.7731C41.03 75.6331 41.03 75.3931 41.28 75.2531C41.54 75.1031 41.9399 75.1031 42.1899 75.2531Z" fill="#E78200"/>
<path d="M44.5599 73.883C44.8099 74.023 44.8099 74.263 44.5599 74.403C44.3099 74.543 43.9 74.543 43.65 74.403C43.4 74.263 43.4 74.023 43.65 73.883C43.91 73.733 44.3099 73.733 44.5599 73.883Z" fill="#E78200"/>
<path d="M46.9299 72.5129C47.1799 72.6529 47.1799 72.8929 46.9299 73.0329C46.6799 73.1729 46.27 73.1729 46.02 73.0329C45.77 72.8929 45.77 72.6529 46.02 72.5129C46.28 72.3629 46.6799 72.3629 46.9299 72.5129Z" fill="#E78200"/>
<path d="M49.3099 71.1428C49.5599 71.2828 49.5599 71.5228 49.3099 71.6628C49.0599 71.8028 48.65 71.8028 48.4 71.6628C48.15 71.5228 48.15 71.2828 48.4 71.1428C48.65 70.9928 49.0599 70.9928 49.3099 71.1428Z" fill="#E78200"/>
<path d="M51.6799 69.773C51.9299 69.913 51.9299 70.153 51.6799 70.293C51.4299 70.433 51.02 70.433 50.77 70.293C50.52 70.153 50.52 69.913 50.77 69.773C51.02 69.633 51.4299 69.633 51.6799 69.773Z" fill="#E78200"/>
<path d="M25.14 82.7229C25.4934 82.7229 25.78 82.5573 25.78 82.3529C25.78 82.1486 25.4934 81.9829 25.14 81.9829C24.7865 81.9829 24.4999 82.1486 24.4999 82.3529C24.4999 82.5573 24.7865 82.7229 25.14 82.7229Z" fill="#E78200"/>
<path d="M27.97 80.7232C28.22 80.8632 28.22 81.1032 27.97 81.2432C27.72 81.3832 27.3099 81.3832 27.0599 81.2432C26.8099 81.1032 26.8099 80.8632 27.0599 80.7232C27.3099 80.5832 27.72 80.5832 27.97 80.7232Z" fill="#E78200"/>
<path d="M29.8799 79.9832C30.2334 79.9832 30.52 79.8175 30.52 79.6132C30.52 79.4088 30.2334 79.2432 29.8799 79.2432C29.5265 79.2432 29.2399 79.4088 29.2399 79.6132C29.2399 79.8175 29.5265 79.9832 29.8799 79.9832Z" fill="#E78200"/>
<path d="M32.71 77.9829C32.96 78.1229 32.96 78.3629 32.71 78.5029C32.46 78.6429 32.0499 78.6429 31.7999 78.5029C31.5499 78.3629 31.5499 78.1229 31.7999 77.9829C32.0499 77.8429 32.46 77.8429 32.71 77.9829Z" fill="#E78200"/>
<path d="M34.6299 77.2532C34.9834 77.2532 35.27 77.0875 35.27 76.8832C35.27 76.6788 34.9834 76.5132 34.6299 76.5132C34.2765 76.5132 33.9899 76.6788 33.9899 76.8832C33.9899 77.0875 34.2765 77.2532 34.6299 77.2532Z" fill="#E78200"/>
<path d="M37.45 75.2531C37.7 75.3931 37.7 75.6331 37.45 75.7731C37.2 75.9131 36.79 75.9131 36.54 75.7731C36.29 75.6331 36.29 75.3931 36.54 75.2531C36.79 75.1031 37.2 75.1031 37.45 75.2531Z" fill="#E78200"/>
<path d="M39.8199 73.883C40.0699 74.023 40.0699 74.263 39.8199 74.403C39.5699 74.543 39.16 74.543 38.91 74.403C38.66 74.263 38.66 74.023 38.91 73.883C39.17 73.733 39.5699 73.733 39.8199 73.883Z" fill="#E78200"/>
<path d="M42.1899 72.5129C42.4399 72.6529 42.4399 72.8929 42.1899 73.0329C41.9399 73.1729 41.53 73.1729 41.28 73.0329C41.03 72.8929 41.03 72.6529 41.28 72.5129C41.54 72.3629 41.9399 72.3629 42.1899 72.5129Z" fill="#E78200"/>
<path d="M44.11 71.7732C44.4634 71.7732 44.7499 71.6076 44.7499 71.4032C44.7499 71.1989 44.4634 71.0332 44.11 71.0332C43.7565 71.0332 43.47 71.1989 43.47 71.4032C43.47 71.6076 43.7565 71.7732 44.11 71.7732Z" fill="#E78200"/>
<path d="M46.9299 69.773C47.1799 69.913 47.1799 70.153 46.9299 70.293C46.6799 70.433 46.27 70.433 46.02 70.293C45.77 70.153 45.77 69.913 46.02 69.773C46.28 69.633 46.6799 69.633 46.9299 69.773Z" fill="#E78200"/>
<path d="M49.3099 68.4029C49.5599 68.5429 49.5599 68.7828 49.3099 68.9228C49.0599 69.0628 48.65 69.0628 48.4 68.9228C48.15 68.7828 48.15 68.5429 48.4 68.4029C48.65 68.2629 49.0599 68.2629 49.3099 68.4029Z" fill="#E78200"/>
<path d="M23.22 80.7232C23.47 80.8632 23.47 81.1032 23.22 81.2432C22.97 81.3832 22.5599 81.3832 22.3099 81.2432C22.0599 81.1032 22.0599 80.8632 22.3099 80.7232C22.5699 80.5832 22.97 80.5832 23.22 80.7232Z" fill="#E78200"/>
<path d="M25.6 79.353C25.85 79.493 25.85 79.733 25.6 79.873C25.35 80.013 24.9399 80.013 24.6899 79.873C24.4399 79.733 24.4399 79.493 24.6899 79.353C24.9399 79.213 25.35 79.213 25.6 79.353Z" fill="#E78200"/>
<path d="M27.97 77.9829C28.22 78.1229 28.22 78.3629 27.97 78.5029C27.72 78.6429 27.3099 78.6429 27.0599 78.5029C26.8099 78.3629 26.8099 78.1229 27.0599 77.9829C27.3099 77.8429 27.72 77.8429 27.97 77.9829Z" fill="#E78200"/>
<path d="M29.8799 77.2532C30.2334 77.2532 30.52 77.0875 30.52 76.8832C30.52 76.6788 30.2334 76.5132 29.8799 76.5132C29.5265 76.5132 29.2399 76.6788 29.2399 76.8832C29.2399 77.0875 29.5265 77.2532 29.8799 77.2532Z" fill="#E78200"/>
<path d="M32.71 75.2531C32.96 75.3931 32.96 75.6331 32.71 75.7731C32.46 75.9131 32.0499 75.9131 31.7999 75.7731C31.5499 75.6331 31.5499 75.3931 31.7999 75.2531C32.0499 75.1031 32.46 75.1031 32.71 75.2531Z" fill="#E78200"/>
<path d="M35.08 73.883C35.33 74.023 35.33 74.263 35.08 74.403C34.83 74.543 34.42 74.543 34.17 74.403C33.92 74.263 33.92 74.023 34.17 73.883C34.42 73.733 34.83 73.733 35.08 73.883Z" fill="#E78200"/>
<path d="M37.45 72.5129C37.7 72.6529 37.7 72.8929 37.45 73.0329C37.2 73.1729 36.79 73.1729 36.54 73.0329C36.29 72.8929 36.29 72.6529 36.54 72.5129C36.79 72.3629 37.2 72.3629 37.45 72.5129Z" fill="#E78200"/>
<path d="M39.8199 71.1428C40.0699 71.2828 40.0699 71.5228 39.8199 71.6628C39.5699 71.8028 39.16 71.8028 38.91 71.6628C38.66 71.5228 38.66 71.2828 38.91 71.1428C39.17 70.9928 39.5699 70.9928 39.8199 71.1428Z" fill="#E78200"/>
<path d="M42.1899 69.773C42.4399 69.913 42.4399 70.153 42.1899 70.293C41.9399 70.433 41.53 70.433 41.28 70.293C41.03 70.153 41.03 69.913 41.28 69.773C41.54 69.633 41.9399 69.633 42.1899 69.773Z" fill="#E78200"/>
<path d="M44.5599 68.4029C44.8099 68.5429 44.8099 68.7828 44.5599 68.9228C44.3099 69.0628 43.9 69.0628 43.65 68.9228C43.4 68.7828 43.4 68.5429 43.65 68.4029C43.91 68.2629 44.3099 68.2629 44.5599 68.4029Z" fill="#E78200"/>
<path d="M20.85 79.353C21.1 79.493 21.1 79.733 20.85 79.873C20.6 80.013 20.1899 80.013 19.9399 79.873C19.6899 79.733 19.6899 79.493 19.9399 79.353C20.1999 79.213 20.6 79.213 20.85 79.353Z" fill="#E78200"/>
<path d="M23.22 77.9829C23.47 78.1229 23.47 78.3629 23.22 78.5029C22.97 78.6429 22.5599 78.6429 22.3099 78.5029C22.0599 78.3629 22.0599 78.1229 22.3099 77.9829C22.5699 77.8429 22.97 77.8429 23.22 77.9829Z" fill="#E78200"/>
<path d="M25.6 76.6128C25.85 76.7528 25.85 76.9928 25.6 77.1328C25.35 77.2728 24.9399 77.2728 24.6899 77.1328C24.4399 76.9928 24.4399 76.7528 24.6899 76.6128C24.9399 76.4728 25.35 76.4728 25.6 76.6128Z" fill="#E78200"/>
<path d="M27.97 75.2531C28.22 75.3931 28.22 75.6331 27.97 75.7731C27.72 75.9131 27.3099 75.9131 27.0599 75.7731C26.8099 75.6331 26.8099 75.3931 27.0599 75.2531C27.3099 75.1031 27.72 75.1031 27.97 75.2531Z" fill="#E78200"/>
<path d="M30.34 73.883C30.59 74.023 30.59 74.263 30.34 74.403C30.09 74.543 29.6799 74.543 29.4299 74.403C29.1799 74.263 29.1799 74.023 29.4299 73.883C29.6799 73.733 30.09 73.733 30.34 73.883Z" fill="#E78200"/>
<path d="M32.71 72.5131C32.96 72.6531 32.96 72.8931 32.71 73.0331C32.46 73.1731 32.0499 73.1731 31.7999 73.0331C31.5499 72.8931 31.5499 72.6531 31.7999 72.5131C32.0499 72.3731 32.46 72.3631 32.71 72.5131Z" fill="#E78200"/>
<path d="M35.08 71.1428C35.33 71.2828 35.33 71.5228 35.08 71.6628C34.83 71.8028 34.42 71.8028 34.17 71.6628C33.92 71.5228 33.92 71.2828 34.17 71.1428C34.42 70.9928 34.83 70.9928 35.08 71.1428Z" fill="#E78200"/>
<path d="M36.9999 70.4031C37.3534 70.4031 37.64 70.2374 37.64 70.0331C37.64 69.8287 37.3534 69.6631 36.9999 69.6631C36.6465 69.6631 36.36 69.8287 36.36 70.0331C36.36 70.2374 36.6465 70.4031 36.9999 70.4031Z" fill="#E78200"/>
<path d="M18.48 77.9829C18.73 78.1229 18.73 78.3629 18.48 78.5029C18.23 78.6429 17.8199 78.6429 17.5699 78.5029C17.3199 78.3629 17.3199 78.1229 17.5699 77.9829C17.8299 77.8429 18.23 77.8429 18.48 77.9829Z" fill="#E78200"/>
<path d="M20.85 76.6128C21.1 76.7528 21.1 76.9928 20.85 77.1328C20.6 77.2728 20.1899 77.2728 19.9399 77.1328C19.6899 76.9928 19.6899 76.7528 19.9399 76.6128C20.1999 76.4728 20.6 76.4728 20.85 76.6128Z" fill="#E78200"/>
<path d="M22.77 75.8831C23.1234 75.8831 23.41 75.7174 23.41 75.5131C23.41 75.3087 23.1234 75.1431 22.77 75.1431C22.4165 75.1431 22.1299 75.3087 22.1299 75.5131C22.1299 75.7174 22.4165 75.8831 22.77 75.8831Z" fill="#E78200"/>
<path d="M25.6 73.883C25.85 74.023 25.85 74.263 25.6 74.403C25.35 74.543 24.9399 74.543 24.6899 74.403C24.4399 74.263 24.4399 74.023 24.6899 73.883C24.9399 73.733 25.35 73.733 25.6 73.883Z" fill="#E78200"/>
<path d="M27.97 72.5129C28.22 72.6529 28.22 72.8929 27.97 73.0329C27.72 73.1729 27.3099 73.1729 27.0599 73.0329C26.8099 72.8929 26.8099 72.6529 27.0599 72.5129C27.3099 72.3629 27.72 72.3629 27.97 72.5129Z" fill="#E78200"/>
<path d="M30.34 71.1428C30.59 71.2828 30.59 71.5228 30.34 71.6628C30.09 71.8028 29.6799 71.8028 29.4299 71.6628C29.1799 71.5228 29.1799 71.2828 29.4299 71.1428C29.6799 70.9928 30.09 70.9928 30.34 71.1428Z" fill="#E78200"/>
<path d="M32.2599 70.4031C32.6134 70.4031 32.9 70.2374 32.9 70.0331C32.9 69.8287 32.6134 69.6631 32.2599 69.6631C31.9065 69.6631 31.6199 69.8287 31.6199 70.0331C31.6199 70.2374 31.9065 70.4031 32.2599 70.4031Z" fill="#E78200"/>
<path d="M16.11 76.6128C16.36 76.7528 16.36 76.9928 16.11 77.1328C15.86 77.2728 15.45 77.2728 15.2 77.1328C14.95 76.9928 14.95 76.7528 15.2 76.6128C15.46 76.4728 15.86 76.4728 16.11 76.6128Z" fill="#E78200"/>
<path d="M18.48 75.2531C18.73 75.3931 18.73 75.6331 18.48 75.7731C18.23 75.9131 17.8199 75.9131 17.5699 75.7731C17.3199 75.6331 17.3199 75.3931 17.5699 75.2531C17.8299 75.1031 18.23 75.1031 18.48 75.2531Z" fill="#E78200"/>
<path d="M20.85 73.883C21.1 74.023 21.1 74.263 20.85 74.403C20.6 74.543 20.1899 74.543 19.9399 74.403C19.6899 74.263 19.6899 74.023 19.9399 73.883C20.1999 73.733 20.6 73.733 20.85 73.883Z" fill="#E78200"/>
<path d="M23.22 72.5129C23.47 72.6529 23.47 72.8929 23.22 73.0329C22.97 73.1729 22.5599 73.1729 22.3099 73.0329C22.0599 72.8929 22.0599 72.6529 22.3099 72.5129C22.5699 72.3629 22.97 72.3629 23.22 72.5129Z" fill="#E78200"/>
<path d="M25.6 71.1428C25.85 71.2828 25.85 71.5228 25.6 71.6628C25.35 71.8028 24.9399 71.8028 24.6899 71.6628C24.4399 71.5228 24.4399 71.2828 24.6899 71.1428C24.9399 70.9928 25.35 70.9928 25.6 71.1428Z" fill="#E78200"/>
<path d="M27.5099 70.4031C27.8634 70.4031 28.15 70.2374 28.15 70.0331C28.15 69.8287 27.8634 69.6631 27.5099 69.6631C27.1565 69.6631 26.8699 69.8287 26.8699 70.0331C26.8699 70.2374 27.1565 70.4031 27.5099 70.4031Z" fill="#E78200"/>
<path d="M13.7399 75.2531C13.9899 75.3931 13.9899 75.6331 13.7399 75.7731C13.4899 75.9131 13.08 75.9131 12.83 75.7731C12.58 75.6331 12.58 75.3931 12.83 75.2531C13.08 75.1031 13.4899 75.1031 13.7399 75.2531Z" fill="#E78200"/>
<path d="M16.11 73.883C16.36 74.023 16.36 74.263 16.11 74.403C15.86 74.543 15.45 74.543 15.2 74.403C14.95 74.263 14.95 74.023 15.2 73.883C15.46 73.733 15.86 73.733 16.11 73.883Z" fill="#E78200"/>
<path d="M18.48 72.5129C18.73 72.6529 18.73 72.8929 18.48 73.0329C18.23 73.1729 17.8199 73.1729 17.5699 73.0329C17.3199 72.8929 17.3199 72.6529 17.5699 72.5129C17.8299 72.3629 18.23 72.3629 18.48 72.5129Z" fill="#E78200"/>
<path d="M20.85 71.1428C21.1 71.2828 21.1 71.5228 20.85 71.6628C20.6 71.8028 20.1899 71.8028 19.9399 71.6628C19.6899 71.5228 19.6899 71.2828 19.9399 71.1428C20.1999 70.9928 20.6 70.9928 20.85 71.1428Z" fill="#E78200"/>
<path d="M23.22 69.773C23.47 69.913 23.47 70.153 23.22 70.293C22.97 70.433 22.5599 70.433 22.3099 70.293C22.0599 70.153 22.0599 69.913 22.3099 69.773C22.5699 69.633 22.97 69.633 23.22 69.773Z" fill="#E78200"/>
<path d="M11.3699 73.883C11.6199 74.023 11.6199 74.263 11.3699 74.403C11.1199 74.543 10.71 74.543 10.46 74.403C10.21 74.263 10.21 74.023 10.46 73.883C10.71 73.733 11.1199 73.733 11.3699 73.883Z" fill="#E78200"/>
<path d="M13.7399 72.5129C13.9899 72.6529 13.9899 72.8929 13.7399 73.0329C13.4899 73.1729 13.08 73.1729 12.83 73.0329C12.58 72.8929 12.58 72.6529 12.83 72.5129C13.08 72.3629 13.4899 72.3629 13.7399 72.5129Z" fill="#E78200"/>
<path d="M16.11 71.1428C16.36 71.2828 16.36 71.5228 16.11 71.6628C15.86 71.8028 15.45 71.8028 15.2 71.6628C14.95 71.5228 14.95 71.2828 15.2 71.1428C15.46 70.9928 15.86 70.9928 16.11 71.1428Z" fill="#E78200"/>
<path d="M18.48 69.773C18.73 69.913 18.73 70.153 18.48 70.293C18.23 70.433 17.8199 70.433 17.5699 70.293C17.3199 70.153 17.3199 69.913 17.5699 69.773C17.8299 69.633 18.23 69.633 18.48 69.773Z" fill="#E78200"/>
<path d="M8.97998 72.4932C9.22998 72.6332 9.22998 72.8732 8.97998 73.0132C8.72998 73.1532 8.31995 73.1532 8.06995 73.0132C7.81995 72.8732 7.81995 72.6332 8.06995 72.4932C8.31995 72.3532 8.72998 72.3532 8.97998 72.4932Z" fill="#E78200"/>
<path d="M11.35 71.1231C11.6 71.2631 11.6 71.5031 11.35 71.6431C11.1 71.7831 10.6899 71.7831 10.4399 71.6431C10.1899 71.5031 10.1899 71.2631 10.4399 71.1231C10.6899 70.9831 11.1 70.9831 11.35 71.1231Z" fill="#E78200"/>
<path d="M13.72 69.7629C13.97 69.9029 13.97 70.1429 13.72 70.2829C13.47 70.4229 13.0599 70.4229 12.8099 70.2829C12.5599 70.1429 12.5599 69.9029 12.8099 69.7629C13.0599 69.6129 13.47 69.6129 13.72 69.7629Z" fill="#E78200"/>
<path d="M16.09 68.3928C16.34 68.5328 16.34 68.7728 16.09 68.9128C15.84 69.0528 15.4299 69.0528 15.1799 68.9128C14.9299 68.7728 14.9299 68.5328 15.1799 68.3928C15.4299 68.2428 15.84 68.2428 16.09 68.3928C16.34 68.5328 15.84 68.2428 16.09 68.3928Z" fill="#E78200"/>
<path d="M6.60999 71.1231C6.85999 71.2631 6.85999 71.5031 6.60999 71.6431C6.35999 71.7831 5.94995 71.7831 5.69995 71.6431C5.44995 71.5031 5.44995 71.2631 5.69995 71.1231C5.94995 70.9831 6.35999 70.9831 6.60999 71.1231Z" fill="#E78200"/>
<path d="M8.97998 69.7629C9.22998 69.9029 9.22998 70.1429 8.97998 70.2829C8.72998 70.4229 8.31995 70.4229 8.06995 70.2829C7.81995 70.1429 7.81995 69.9029 8.06995 69.7629C8.31995 69.6129 8.72998 69.6129 8.97998 69.7629Z" fill="#E78200"/>
<path d="M11.35 68.3928C11.6 68.5328 11.6 68.7728 11.35 68.9128C11.1 69.0528 10.6899 69.0528 10.4399 68.9128C10.1899 68.7728 10.1899 68.5328 10.4399 68.3928C10.6899 68.2428 11.1 68.2428 11.35 68.3928Z" fill="#E78200"/>
<path d="M13.72 67.0231C13.97 67.1631 13.97 67.4031 13.72 67.5431C13.47 67.6831 13.0599 67.6831 12.8099 67.5431C12.5599 67.4031 12.5599 67.1631 12.8099 67.0231C13.0599 66.8731 13.47 66.8731 13.72 67.0231C13.97 67.1631 13.47 66.8731 13.72 67.0231Z" fill="#E78200"/>
<path d="M4.23993 69.7629C4.48993 69.9029 4.48993 70.1429 4.23993 70.2829C3.98993 70.4229 3.57996 70.4229 3.32996 70.2829C3.07996 70.1429 3.07996 69.9029 3.32996 69.7629C3.57996 69.6129 3.98993 69.6129 4.23993 69.7629Z" fill="#E78200"/>
<path d="M6.60999 68.3928C6.85999 68.5328 6.85999 68.7728 6.60999 68.9128C6.35999 69.0528 5.94995 69.0528 5.69995 68.9128C5.44995 68.7728 5.44995 68.5328 5.69995 68.3928C5.94995 68.2428 6.35999 68.2428 6.60999 68.3928Z" fill="#E78200"/>
<path d="M8.97998 67.0231C9.22998 67.1631 9.22998 67.4031 8.97998 67.5431C8.72998 67.6831 8.31995 67.6831 8.06995 67.5431C7.81995 67.4031 7.81995 67.1631 8.06995 67.0231C8.31995 66.8731 8.72998 66.8731 8.97998 67.0231Z" fill="#E78200"/>
<path d="M11.35 66.1729C11.1 66.3129 10.6899 66.3129 10.4399 66.1729C10.1899 66.0329 10.1899 65.7929 10.4399 65.6529C10.6899 65.5029 11.6 66.0329 11.35 66.1729Z" fill="#E78200"/>
<path d="M1.86993 68.3928C2.11993 68.5328 2.11993 68.7728 1.86993 68.9128C1.61993 69.0528 1.20996 69.0528 0.959961 68.9128C0.709961 68.7728 0.709961 68.5328 0.959961 68.3928C1.20996 68.2428 1.60993 68.2428 1.86993 68.3928Z" fill="#E78200"/>
<path d="M4.23993 67.0231C4.48993 67.1631 4.48993 67.4031 4.23993 67.5431C3.98993 67.6831 3.57996 67.6831 3.32996 67.5431C3.07996 67.4031 3.07996 67.1631 3.32996 67.0231C3.57996 66.8731 3.98993 66.8731 4.23993 67.0231Z" fill="#E78200"/>
<path d="M6.60999 65.653C6.85999 65.793 6.85999 66.033 6.60999 66.173C6.35999 66.313 5.94995 66.313 5.69995 66.173C5.44995 66.033 5.44995 65.793 5.69995 65.653C5.94995 65.503 6.35999 65.503 6.60999 65.653Z" fill="#E78200"/>
<path d="M65.47 75.8831C65.8234 75.8831 66.11 75.7174 66.11 75.5131C66.11 75.3087 65.8234 75.1431 65.47 75.1431C65.1165 75.1431 64.83 75.3087 64.83 75.5131C64.83 75.7174 65.1165 75.8831 65.47 75.8831Z" fill="#E78200"/>
<path d="M67.84 74.513C68.1934 74.513 68.48 74.3473 68.48 74.143C68.48 73.9386 68.1934 73.7729 67.84 73.7729C67.4865 73.7729 67.2 73.9386 67.2 74.143C67.2 74.3473 67.4865 74.513 67.84 74.513Z" fill="#E78200"/>
<path d="M70.66 72.5132C70.91 72.6532 70.91 72.8932 70.66 73.0332C70.41 73.1732 69.9999 73.1732 69.7499 73.0332C69.4999 72.8932 69.4999 72.6532 69.7499 72.5132C70.0099 72.3732 70.41 72.3732 70.66 72.5132Z" fill="#E78200"/>
<path d="M73.03 71.153C73.28 71.293 73.28 71.533 73.03 71.673C72.78 71.813 72.3699 71.813 72.1199 71.673C71.8699 71.533 71.8699 71.293 72.1199 71.153C72.3799 71.003 72.78 71.003 73.03 71.153Z" fill="#E78200"/>
<path d="M75.41 69.7829C75.66 69.9229 75.66 70.1629 75.41 70.3029C75.16 70.4429 74.7499 70.4429 74.4999 70.3029C74.2499 70.1629 74.2499 69.9229 74.4999 69.7829C74.7499 69.6329 75.16 69.6329 75.41 69.7829Z" fill="#E78200"/>
<path d="M77.78 68.4128C78.03 68.5528 78.03 68.7928 77.78 68.9328C77.53 69.0728 77.1199 69.0728 76.8699 68.9328C76.6199 68.7928 76.6199 68.5528 76.8699 68.4128C77.1199 68.2628 77.53 68.2628 77.78 68.4128Z" fill="#E78200"/>
<path d="M80.15 67.0432C80.4 67.1832 80.4 67.4232 80.15 67.5632C79.9 67.7032 79.4899 67.7032 79.2399 67.5632C78.9899 67.4232 78.9899 67.1832 79.2399 67.0432C79.4899 66.8932 79.9 66.8932 80.15 67.0432Z" fill="#E78200"/>
<path d="M82.0699 66.303C82.4234 66.303 82.71 66.1373 82.71 65.933C82.71 65.7286 82.4234 65.563 82.0699 65.563C81.7165 65.563 81.4299 65.7286 81.4299 65.933C81.4299 66.1373 81.7165 66.303 82.0699 66.303Z" fill="#E78200"/>
<path d="M84.4399 64.9329C84.7934 64.9329 85.08 64.7672 85.08 64.5629C85.08 64.3585 84.7934 64.1929 84.4399 64.1929C84.0865 64.1929 83.7999 64.3585 83.7999 64.5629C83.7999 64.7672 84.0865 64.9329 84.4399 64.9329Z" fill="#E78200"/>
<path d="M87.2599 62.9331C87.5099 63.0731 87.5099 63.3131 87.2599 63.4531C87.0099 63.5931 86.6 63.5931 86.35 63.4531C86.1 63.3131 86.1 63.0731 86.35 62.9331C86.6 62.7931 87.0099 62.7931 87.2599 62.9331Z" fill="#E78200"/>
<path d="M89.6299 61.563C89.8799 61.703 89.8799 61.943 89.6299 62.083C89.3799 62.223 88.97 62.223 88.72 62.083C88.47 61.943 88.47 61.703 88.72 61.563C88.98 61.423 89.3799 61.423 89.6299 61.563Z" fill="#E78200"/>
<path d="M91.9999 60.1929C92.2499 60.3329 92.2499 60.5729 91.9999 60.7129C91.7499 60.8529 91.34 60.8529 91.09 60.7129C90.84 60.5729 90.84 60.3329 91.09 60.1929C91.35 60.0529 91.7499 60.0529 91.9999 60.1929Z" fill="#E78200"/>
<path d="M94.3699 58.8329C94.6199 58.9729 94.6199 59.2129 94.3699 59.3529C94.1199 59.4929 93.71 59.4929 93.46 59.3529C93.21 59.2129 93.21 58.9729 93.46 58.8329C93.71 58.6929 94.1199 58.6829 94.3699 58.8329Z" fill="#E78200"/>
<path d="M63.5499 73.8828C63.7999 74.0228 63.7999 74.2628 63.5499 74.4028C63.2999 74.5428 62.89 74.5428 62.64 74.4028C62.39 74.2628 62.39 74.0228 62.64 73.8828C62.89 73.7428 63.2999 73.7428 63.5499 73.8828Z" fill="#E78200"/>
<path d="M65.92 72.5132C66.17 72.6532 66.17 72.8932 65.92 73.0332C65.67 73.1732 65.2599 73.1732 65.0099 73.0332C64.7599 72.8932 64.7599 72.6532 65.0099 72.5132C65.2699 72.3732 65.67 72.3732 65.92 72.5132Z" fill="#E78200"/>
<path d="M67.84 71.783C68.1934 71.783 68.48 71.6173 68.48 71.413C68.48 71.2086 68.1934 71.043 67.84 71.043C67.4865 71.043 67.2 71.2086 67.2 71.413C67.2 71.6173 67.4865 71.783 67.84 71.783Z" fill="#E78200"/>
<path d="M70.66 69.7829C70.91 69.9229 70.91 70.1629 70.66 70.3029C70.41 70.4429 69.9999 70.4429 69.7499 70.3029C69.4999 70.1629 69.4999 69.9229 69.7499 69.7829C70.0099 69.6329 70.41 69.6329 70.66 69.7829Z" fill="#E78200"/>
<path d="M73.03 68.4128C73.28 68.5528 73.28 68.7928 73.03 68.9328C72.78 69.0728 72.3699 69.0728 72.1199 68.9328C71.8699 68.7928 71.8699 68.5528 72.1199 68.4128C72.3799 68.2628 72.78 68.2628 73.03 68.4128Z" fill="#E78200"/>
<path d="M75.41 67.0432C75.66 67.1832 75.66 67.4232 75.41 67.5632C75.16 67.7032 74.7499 67.7032 74.4999 67.5632C74.2499 67.4232 74.2499 67.1832 74.4999 67.0432C74.7499 66.8932 75.16 66.8932 75.41 67.0432Z" fill="#E78200"/>
<path d="M77.78 65.6729C78.03 65.8129 78.03 66.0529 77.78 66.1929C77.53 66.3329 77.1199 66.3329 76.8699 66.1929C76.6199 66.0529 76.6199 65.8129 76.8699 65.6729C77.1199 65.5329 77.53 65.5329 77.78 65.6729Z" fill="#E78200"/>
<path d="M80.15 64.3028C80.4 64.4428 80.4 64.6828 80.15 64.8228C79.9 64.9628 79.4899 64.9628 79.2399 64.8228C78.9899 64.6828 78.9899 64.4428 79.2399 64.3028C79.4899 64.1628 79.9 64.1628 80.15 64.3028Z" fill="#E78200"/>
<path d="M82.52 62.9331C82.77 63.0731 82.77 63.3131 82.52 63.4531C82.27 63.5931 81.86 63.5931 81.61 63.4531C81.36 63.3131 81.36 63.0731 81.61 62.9331C81.86 62.7931 82.27 62.7931 82.52 62.9331Z" fill="#E78200"/>
<path d="M84.4399 62.1931C84.7934 62.1931 85.08 62.0275 85.08 61.8231C85.08 61.6188 84.7934 61.4531 84.4399 61.4531C84.0865 61.4531 83.7999 61.6188 83.7999 61.8231C83.7999 62.0275 84.0865 62.1931 84.4399 62.1931Z" fill="#E78200"/>
<path d="M87.2599 60.1929C87.5099 60.3329 87.5099 60.5729 87.2599 60.7129C87.0099 60.8529 86.6 60.8529 86.35 60.7129C86.1 60.5729 86.1 60.3329 86.35 60.1929C86.6 60.0529 87.0099 60.0529 87.2599 60.1929Z" fill="#E78200"/>
<path d="M89.6299 58.8332C89.8799 58.9732 89.8799 59.2132 89.6299 59.3532C89.3799 59.4932 88.97 59.4932 88.72 59.3532C88.47 59.2132 88.47 58.9732 88.72 58.8332C88.98 58.6832 89.3799 58.6832 89.6299 58.8332Z" fill="#E78200"/>
<path d="M91.9999 57.4631C92.2499 57.6031 92.2499 57.8431 91.9999 57.9831C91.7499 58.1231 91.34 58.1231 91.09 57.9831C90.84 57.8431 90.84 57.6031 91.09 57.4631C91.35 57.3131 91.7499 57.3131 91.9999 57.4631C92.2499 57.6031 91.7499 57.3131 91.9999 57.4631Z" fill="#E78200"/>
<path d="M61.1799 72.5132C61.4299 72.6532 61.4299 72.8932 61.1799 73.0332C60.9299 73.1732 60.52 73.1732 60.27 73.0332C60.02 72.8932 60.02 72.6532 60.27 72.5132C60.52 72.3732 60.9299 72.3732 61.1799 72.5132Z" fill="#E78200"/>
<path d="M63.5499 71.153C63.7999 71.293 63.7999 71.533 63.5499 71.673C63.2999 71.813 62.89 71.813 62.64 71.673C62.39 71.533 62.39 71.293 62.64 71.153C62.89 71.003 63.2999 71.003 63.5499 71.153Z" fill="#E78200"/>
<path d="M65.92 69.7829C66.17 69.9229 66.17 70.1629 65.92 70.3029C65.67 70.4429 65.2599 70.4429 65.0099 70.3029C64.7599 70.1629 64.7599 69.9229 65.0099 69.7829C65.2699 69.6329 65.67 69.6329 65.92 69.7829Z" fill="#E78200"/>
<path d="M68.29 68.4128C68.54 68.5528 68.54 68.7928 68.29 68.9328C68.04 69.0728 67.6299 69.0728 67.3799 68.9328C67.1299 68.7928 67.1299 68.5528 67.3799 68.4128C67.6399 68.2628 68.04 68.2628 68.29 68.4128Z" fill="#E78200"/>
<path d="M70.66 67.0432C70.91 67.1832 70.91 67.4232 70.66 67.5632C70.41 67.7032 69.9999 67.7032 69.7499 67.5632C69.4999 67.4232 69.4999 67.1832 69.7499 67.0432C70.0099 66.8932 70.41 66.8932 70.66 67.0432Z" fill="#E78200"/>
<path d="M73.03 65.6729C73.28 65.8129 73.28 66.0529 73.03 66.1929C72.78 66.3329 72.3699 66.3329 72.1199 66.1929C71.8699 66.0529 71.8699 65.8129 72.1199 65.6729C72.3799 65.5329 72.78 65.5329 73.03 65.6729Z" fill="#E78200"/>
<path d="M75.41 64.3028C75.66 64.4428 75.66 64.6828 75.41 64.8228C75.16 64.9628 74.7499 64.9628 74.4999 64.8228C74.2499 64.6828 74.2499 64.4428 74.4999 64.3028C74.7499 64.1628 75.16 64.1628 75.41 64.3028Z" fill="#E78200"/>
<path d="M77.78 62.9331C78.03 63.0731 78.03 63.3131 77.78 63.4531C77.53 63.5931 77.1199 63.5931 76.8699 63.4531C76.6199 63.3131 76.6199 63.0731 76.8699 62.9331C77.1199 62.7931 77.53 62.7931 77.78 62.9331Z" fill="#E78200"/>
<path d="M80.15 61.563C80.4 61.703 80.4 61.943 80.15 62.083C79.9 62.223 79.4899 62.223 79.2399 62.083C78.9899 61.943 78.9899 61.703 79.2399 61.563C79.4899 61.423 79.9 61.423 80.15 61.563Z" fill="#E78200"/>
<path d="M82.52 60.1929C82.77 60.3329 82.77 60.5729 82.52 60.7129C82.27 60.8529 81.86 60.8529 81.61 60.7129C81.36 60.5729 81.36 60.3329 81.61 60.1929C81.86 60.0529 82.27 60.0529 82.52 60.1929Z" fill="#E78200"/>
<path d="M84.89 58.8332C85.14 58.9732 85.14 59.2132 84.89 59.3532C84.64 59.4932 84.23 59.4932 83.98 59.3532C83.73 59.2132 83.73 58.9732 83.98 58.8332C84.23 58.6832 84.64 58.6832 84.89 58.8332Z" fill="#E78200"/>
<path d="M87.2599 57.4631C87.5099 57.6031 87.5099 57.8431 87.2599 57.9831C87.0099 58.1231 86.6 58.1231 86.35 57.9831C86.1 57.8431 86.1 57.6031 86.35 57.4631C86.6 57.3131 87.0099 57.3131 87.2599 57.4631Z" fill="#E78200"/>
<path d="M89.6299 56.093C89.8799 56.233 89.8799 56.473 89.6299 56.613C89.3799 56.753 88.97 56.753 88.72 56.613C88.47 56.473 88.47 56.233 88.72 56.093C88.98 55.943 89.3799 55.943 89.6299 56.093Z" fill="#E78200"/>
<path d="M58.8099 71.153C59.0599 71.293 59.0599 71.533 58.8099 71.673C58.5599 71.813 58.15 71.813 57.9 71.673C57.65 71.533 57.65 71.293 57.9 71.153C58.15 71.003 58.5599 71.003 58.8099 71.153Z" fill="#E78200"/>
<path d="M61.1799 69.7829C61.4299 69.9229 61.4299 70.1629 61.1799 70.3029C60.9299 70.4429 60.52 70.4429 60.27 70.3029C60.02 70.1629 60.02 69.9229 60.27 69.7829C60.52 69.6329 60.9299 69.6329 61.1799 69.7829Z" fill="#E78200"/>
<path d="M63.5499 68.4128C63.7999 68.5528 63.7999 68.7928 63.5499 68.9328C63.2999 69.0728 62.89 69.0728 62.64 68.9328C62.39 68.7928 62.39 68.5528 62.64 68.4128C62.89 68.2628 63.2999 68.2628 63.5499 68.4128Z" fill="#E78200"/>
<path d="M65.47 67.6731C65.8234 67.6731 66.11 67.5074 66.11 67.3031C66.11 67.0988 65.8234 66.9331 65.47 66.9331C65.1165 66.9331 64.83 67.0988 64.83 67.3031C64.83 67.5074 65.1165 67.6731 65.47 67.6731Z" fill="#E78200"/>
<path d="M68.29 65.6729C68.54 65.8129 68.54 66.0529 68.29 66.1929C68.04 66.3329 67.6299 66.3329 67.3799 66.1929C67.1299 66.0529 67.1299 65.8129 67.3799 65.6729C67.6399 65.5329 68.04 65.5329 68.29 65.6729Z" fill="#E78200"/>
<path d="M70.66 64.3028C70.91 64.4428 70.91 64.6828 70.66 64.8228C70.41 64.9628 69.9999 64.9628 69.7499 64.8228C69.4999 64.6828 69.4999 64.4428 69.7499 64.3028C70.0099 64.1628 70.41 64.1628 70.66 64.3028Z" fill="#E78200"/>
<path d="M72.58 63.5628C72.9334 63.5628 73.22 63.3971 73.22 63.1927C73.22 62.9884 72.9334 62.8228 72.58 62.8228C72.2265 62.8228 71.9399 62.9884 71.9399 63.1927C71.9399 63.3971 72.2265 63.5628 72.58 63.5628Z" fill="#E78200"/>
<path d="M75.41 61.563C75.66 61.703 75.66 61.943 75.41 62.083C75.16 62.223 74.7499 62.223 74.4999 62.083C74.2499 61.943 74.2499 61.703 74.4999 61.563C74.7499 61.423 75.16 61.423 75.41 61.563Z" fill="#E78200"/>
<path d="M77.78 60.1929C78.03 60.3329 78.03 60.5729 77.78 60.7129C77.53 60.8529 77.1199 60.8529 76.8699 60.7129C76.6199 60.5729 76.6199 60.3329 76.8699 60.1929C77.1199 60.0529 77.53 60.0529 77.78 60.1929Z" fill="#E78200"/>
<path d="M80.15 58.8332C80.4 58.9732 80.4 59.2132 80.15 59.3532C79.9 59.4932 79.4899 59.4932 79.2399 59.3532C78.9899 59.2132 78.9899 58.9732 79.2399 58.8332C79.4899 58.6832 79.9 58.6832 80.15 58.8332Z" fill="#E78200"/>
<path d="M82.52 57.4631C82.77 57.6031 82.77 57.8431 82.52 57.9831C82.27 58.1231 81.86 58.1231 81.61 57.9831C81.36 57.8431 81.36 57.6031 81.61 57.4631C81.86 57.3131 82.27 57.3131 82.52 57.4631Z" fill="#E78200"/>
<path d="M56.4399 69.7829C56.6899 69.9229 56.6899 70.1629 56.4399 70.3029C56.1899 70.4429 55.78 70.4429 55.53 70.3029C55.28 70.1629 55.28 69.9229 55.53 69.7829C55.78 69.6329 56.1899 69.6329 56.4399 69.7829Z" fill="#E78200"/>
<path d="M58.8099 68.4128C59.0599 68.5528 59.0599 68.7928 58.8099 68.9328C58.5599 69.0728 58.15 69.0728 57.9 68.9328C57.65 68.7928 57.65 68.5528 57.9 68.4128C58.15 68.2628 58.5599 68.2628 58.8099 68.4128Z" fill="#E78200"/>
<path d="M61.1799 67.0432C61.4299 67.1832 61.4299 67.4232 61.1799 67.5632C60.9299 67.7032 60.52 67.7032 60.27 67.5632C60.02 67.4232 60.02 67.1832 60.27 67.0432C60.52 66.8932 60.9299 66.8932 61.1799 67.0432Z" fill="#E78200"/>
<path d="M63.5499 65.6729C63.7999 65.8129 63.7999 66.0529 63.5499 66.1929C63.2999 66.3329 62.89 66.3329 62.64 66.1929C62.39 66.0529 62.39 65.8129 62.64 65.6729C62.89 65.5329 63.2999 65.5329 63.5499 65.6729Z" fill="#E78200"/>
<path d="M65.92 64.3028C66.17 64.4428 66.17 64.6828 65.92 64.8228C65.67 64.9628 65.2599 64.9628 65.0099 64.8228C64.7599 64.6828 64.7599 64.4428 65.0099 64.3028C65.2699 64.1628 65.67 64.1628 65.92 64.3028Z" fill="#E78200"/>
<path d="M68.29 62.9331C68.54 63.0731 68.54 63.3131 68.29 63.4531C68.04 63.5931 67.6299 63.5931 67.3799 63.4531C67.1299 63.3131 67.1299 63.0731 67.3799 62.9331C67.6399 62.7931 68.04 62.7931 68.29 62.9331Z" fill="#E78200"/>
<path d="M70.21 62.1931C70.5634 62.1931 70.85 62.0275 70.85 61.8231C70.85 61.6188 70.5634 61.4531 70.21 61.4531C69.8565 61.4531 69.5699 61.6188 69.5699 61.8231C69.5699 62.0275 69.8565 62.1931 70.21 62.1931Z" fill="#E78200"/>
<path d="M73.03 60.1929C73.28 60.3329 73.28 60.5729 73.03 60.7129C72.78 60.8529 72.3699 60.8529 72.1199 60.7129C71.8699 60.5729 71.8699 60.3329 72.1199 60.1929C72.3799 60.0529 72.78 60.0529 73.03 60.1929Z" fill="#E78200"/>
<path d="M74.4999 58.833C74.7499 58.693 75.16 58.693 75.41 58.833C75.66 58.973 75.66 59.213 75.41 59.353C75.16 59.493 74.7499 59.493 74.4999 59.353C74.2499 59.203 74.2499 58.973 74.4999 58.833C74.7499 58.683 74.2499 58.973 74.4999 58.833Z" fill="#E78200"/>
<path d="M54.0499 68.3931C54.2999 68.5331 54.2999 68.7731 54.0499 68.9131C53.7999 69.0531 53.39 69.0531 53.14 68.9131C52.89 68.7731 52.89 68.5331 53.14 68.3931C53.39 68.2531 53.7999 68.2531 54.0499 68.3931Z" fill="#E78200"/>
<path d="M56.42 67.023C56.67 67.163 56.67 67.403 56.42 67.543C56.17 67.683 55.7599 67.683 55.5099 67.543C55.2599 67.403 55.2599 67.163 55.5099 67.023C55.7599 66.883 56.17 66.883 56.42 67.023Z" fill="#E78200"/>
<path d="M49.35 92.9932C49.6 93.1332 49.6 93.3732 49.35 93.5132C49.1 93.6532 48.6899 93.6532 48.4399 93.5132C48.1899 93.3732 48.1899 93.1332 48.4399 92.9932C48.6999 92.8532 49.1 92.8532 49.35 92.9932Z" fill="#E78200"/>
<path d="M51.27 92.2532C51.6234 92.2532 51.91 92.0875 51.91 91.8832C51.91 91.6788 51.6234 91.5132 51.27 91.5132C50.9165 91.5132 50.6299 91.6788 50.6299 91.8832C50.6299 92.0875 50.9165 92.2532 51.27 92.2532Z" fill="#E78200"/>
<path d="M54.09 90.2529C54.34 90.3929 54.34 90.6329 54.09 90.7729C53.84 90.9129 53.4299 90.9129 53.1799 90.7729C52.9299 90.6329 52.9299 90.3929 53.1799 90.2529C53.4399 90.1129 53.84 90.1129 54.09 90.2529Z" fill="#E78200"/>
<path d="M56.46 88.8828C56.71 89.0228 56.71 89.2628 56.46 89.4028C56.21 89.5428 55.7999 89.5428 55.5499 89.4028C55.2999 89.2628 55.2999 89.0228 55.5499 88.8828C55.8099 88.7428 56.21 88.7428 56.46 88.8828Z" fill="#E78200"/>
<path d="M58.84 87.5132C59.09 87.6532 59.09 87.8932 58.84 88.0332C58.59 88.1732 58.1799 88.1732 57.9299 88.0332C57.6799 87.8932 57.6799 87.6532 57.9299 87.5132C58.1799 87.3732 58.59 87.3732 58.84 87.5132Z" fill="#E78200"/>
<path d="M61.21 86.153C61.46 86.293 61.46 86.533 61.21 86.673C60.96 86.813 60.5499 86.813 60.2999 86.673C60.0499 86.533 60.0499 86.293 60.2999 86.153C60.5499 86.003 60.96 86.003 61.21 86.153Z" fill="#E78200"/>
<path d="M63.58 84.7829C63.83 84.9229 63.83 85.1629 63.58 85.3029C63.33 85.4429 62.92 85.4429 62.67 85.3029C62.42 85.1629 62.42 84.9229 62.67 84.7829C62.92 84.6329 63.33 84.6329 63.58 84.7829Z" fill="#E78200"/>
<path d="M65.95 83.4128C66.2 83.5528 66.2 83.7928 65.95 83.9328C65.7 84.0728 65.29 84.0728 65.04 83.9328C64.79 83.7928 64.79 83.5528 65.04 83.4128C65.29 83.2628 65.7 83.2628 65.95 83.4128Z" fill="#E78200"/>
<path d="M68.3199 82.0432C68.5699 82.1832 68.5699 82.4232 68.3199 82.5632C68.0699 82.7032 67.66 82.7032 67.41 82.5632C67.16 82.4232 67.16 82.1832 67.41 82.0432C67.66 81.8932 68.0699 81.8932 68.3199 82.0432Z" fill="#E78200"/>
<path d="M70.6899 80.6729C70.9399 80.8129 70.9399 81.0529 70.6899 81.1929C70.4399 81.3329 70.03 81.3329 69.78 81.1929C69.53 81.0529 69.53 80.8129 69.78 80.6729C70.03 80.5329 70.4399 80.5329 70.6899 80.6729Z" fill="#E78200"/>
<path d="M44.61 92.9932C44.86 93.1332 44.86 93.3732 44.61 93.5132C44.36 93.6532 43.95 93.6532 43.7 93.5132C43.45 93.3732 43.45 93.1332 43.7 92.9932C43.95 92.8532 44.36 92.8532 44.61 92.9932Z" fill="#E78200"/>
<path d="M46.98 91.6231C47.23 91.7631 47.23 92.0031 46.98 92.1431C46.73 92.2831 46.3199 92.2831 46.0699 92.1431C45.8199 92.0031 45.8199 91.7631 46.0699 91.6231C46.3199 91.4831 46.73 91.4831 46.98 91.6231Z" fill="#E78200"/>
<path d="M49.35 90.2529C49.6 90.3929 49.6 90.6329 49.35 90.7729C49.1 90.9129 48.6899 90.9129 48.4399 90.7729C48.1899 90.6329 48.1899 90.3929 48.4399 90.2529C48.6999 90.1129 49.1 90.1129 49.35 90.2529Z" fill="#E78200"/>
<path d="M51.72 88.8828C51.97 89.0228 51.97 89.2628 51.72 89.4028C51.47 89.5428 51.0599 89.5428 50.8099 89.4028C50.5599 89.2628 50.5599 89.0228 50.8099 88.8828C51.0699 88.7428 51.47 88.7428 51.72 88.8828Z" fill="#E78200"/>
<path d="M54.09 87.5132C54.34 87.6532 54.34 87.8932 54.09 88.0332C53.84 88.1732 53.4299 88.1732 53.1799 88.0332C52.9299 87.8932 52.9299 87.6532 53.1799 87.5132C53.4399 87.3732 53.84 87.3732 54.09 87.5132Z" fill="#E78200"/>
<path d="M56.46 86.153C56.71 86.293 56.71 86.533 56.46 86.673C56.21 86.813 55.7999 86.813 55.5499 86.673C55.2999 86.533 55.2999 86.293 55.5499 86.153C55.8099 86.003 56.21 86.003 56.46 86.153Z" fill="#E78200"/>
<path d="M58.84 84.7829C59.09 84.9229 59.09 85.1629 58.84 85.3029C58.59 85.4429 58.1799 85.4429 57.9299 85.3029C57.6799 85.1629 57.6799 84.9229 57.9299 84.7829C58.1799 84.6329 58.59 84.6329 58.84 84.7829Z" fill="#E78200"/>
<path d="M61.21 83.4128C61.46 83.5528 61.46 83.7928 61.21 83.9328C60.96 84.0728 60.5499 84.0728 60.2999 83.9328C60.0499 83.7928 60.0499 83.5528 60.2999 83.4128C60.5499 83.2628 60.96 83.2628 61.21 83.4128Z" fill="#E78200"/>
<path d="M63.1199 82.6731C63.4734 82.6731 63.7599 82.5074 63.7599 82.3031C63.7599 82.0988 63.4734 81.9331 63.1199 81.9331C62.7665 81.9331 62.48 82.0988 62.48 82.3031C62.48 82.5074 62.7665 82.6731 63.1199 82.6731Z" fill="#E78200"/>
<path d="M65.95 80.6729C66.2 80.8129 66.2 81.0529 65.95 81.1929C65.7 81.3329 65.29 81.3329 65.04 81.1929C64.79 81.0529 64.79 80.8129 65.04 80.6729C65.29 80.5329 65.7 80.5329 65.95 80.6729Z" fill="#E78200"/>
<path d="M68.3199 79.3028C68.5699 79.4428 68.5699 79.6828 68.3199 79.8228C68.0699 79.9628 67.66 79.9628 67.41 79.8228C67.16 79.6828 67.16 79.4428 67.41 79.3028C67.66 79.1628 68.0699 79.1628 68.3199 79.3028Z" fill="#E78200"/>
<path d="M41.79 92.2532C42.1434 92.2532 42.4299 92.0875 42.4299 91.8832C42.4299 91.6788 42.1434 91.5132 41.79 91.5132C41.4365 91.5132 41.15 91.6788 41.15 91.8832C41.15 92.0875 41.4365 92.2532 41.79 92.2532Z" fill="#E78200"/>
<path d="M44.61 90.2529C44.86 90.3929 44.86 90.6329 44.61 90.7729C44.36 90.9129 43.95 90.9129 43.7 90.7729C43.45 90.6329 43.45 90.3929 43.7 90.2529C43.95 90.1129 44.36 90.1129 44.61 90.2529Z" fill="#E78200"/>
<path d="M46.53 89.5232C46.8834 89.5232 47.17 89.3576 47.17 89.1532C47.17 88.9489 46.8834 88.7832 46.53 88.7832C46.1765 88.7832 45.89 88.9489 45.89 89.1532C45.89 89.3576 46.1765 89.5232 46.53 89.5232Z" fill="#E78200"/>
<path d="M48.9 88.1531C49.2534 88.1531 49.54 87.9874 49.54 87.7831C49.54 87.5787 49.2534 87.4131 48.9 87.4131C48.5465 87.4131 48.2599 87.5787 48.2599 87.7831C48.2599 87.9874 48.5465 88.1531 48.9 88.1531Z" fill="#E78200"/>
<path d="M51.72 86.153C51.97 86.293 51.97 86.533 51.72 86.673C51.47 86.813 51.0599 86.813 50.8099 86.673C50.5599 86.533 50.5599 86.293 50.8099 86.153C51.0699 86.003 51.47 86.003 51.72 86.153Z" fill="#E78200"/>
<path d="M54.09 84.7829C54.34 84.9229 54.34 85.1629 54.09 85.3029C53.84 85.4429 53.4299 85.4429 53.1799 85.3029C52.9299 85.1629 52.9299 84.9229 53.1799 84.7829C53.4399 84.6329 53.84 84.6329 54.09 84.7829Z" fill="#E78200"/>
<path d="M56.46 83.4128C56.71 83.5528 56.71 83.7928 56.46 83.9328C56.21 84.0728 55.7999 84.0728 55.5499 83.9328C55.2999 83.7928 55.2999 83.5528 55.5499 83.4128C55.8099 83.2628 56.21 83.2628 56.46 83.4128Z" fill="#E78200"/>
<path d="M58.84 82.0432C59.09 82.1832 59.09 82.4232 58.84 82.5632C58.59 82.7032 58.1799 82.7032 57.9299 82.5632C57.6799 82.4232 57.6799 82.1832 57.9299 82.0432C58.1799 81.8932 58.59 81.8932 58.84 82.0432Z" fill="#E78200"/>
<path d="M61.21 80.6729C61.46 80.8129 61.46 81.0529 61.21 81.1929C60.96 81.3329 60.5499 81.3329 60.2999 81.1929C60.0499 81.0529 60.0499 80.8129 60.2999 80.6729C60.5499 80.5329 60.96 80.5329 61.21 80.6729Z" fill="#E78200"/>
<path d="M63.1199 79.9329C63.4734 79.9329 63.7599 79.7672 63.7599 79.5629C63.7599 79.3585 63.4734 79.1929 63.1199 79.1929C62.7665 79.1929 62.48 79.3585 62.48 79.5629C62.48 79.7672 62.7665 79.9329 63.1199 79.9329Z" fill="#E78200"/>
<path d="M65.95 77.9331C66.2 78.0731 66.2 78.3131 65.95 78.4531C65.7 78.5931 65.29 78.5931 65.04 78.4531C64.79 78.3131 64.79 78.0731 65.04 77.9331C65.29 77.7931 65.7 77.7931 65.95 77.9331Z" fill="#E78200"/>
<path d="M72.61 79.9329C72.9634 79.9329 73.2499 79.7672 73.2499 79.5629C73.2499 79.3585 72.9634 79.1929 72.61 79.1929C72.2565 79.1929 71.97 79.3585 71.97 79.5629C71.97 79.7672 72.2565 79.9329 72.61 79.9329Z" fill="#E78200"/>
<path d="M74.98 78.5628C75.3334 78.5628 75.6199 78.3971 75.6199 78.1927C75.6199 77.9884 75.3334 77.8228 74.98 77.8228C74.6265 77.8228 74.34 77.9884 74.34 78.1927C74.34 78.3971 74.6265 78.5628 74.98 78.5628Z" fill="#E78200"/>
<path d="M77.7999 76.5632C78.0499 76.7032 78.0499 76.9432 77.7999 77.0832C77.5499 77.2232 77.14 77.2232 76.89 77.0832C76.64 76.9432 76.64 76.7032 76.89 76.5632C77.15 76.4132 77.5499 76.4132 77.7999 76.5632Z" fill="#E78200"/>
<path d="M80.17 75.1931C80.42 75.3331 80.42 75.5731 80.17 75.7131C79.92 75.8531 79.5099 75.8531 79.2599 75.7131C79.0099 75.5731 79.0099 75.3331 79.2599 75.1931C79.5199 75.0431 79.92 75.0431 80.17 75.1931Z" fill="#E78200"/>
<path d="M82.54 73.8229C82.79 73.9629 82.79 74.2029 82.54 74.3429C82.29 74.4829 81.8799 74.4829 81.6299 74.3429C81.3799 74.2029 81.3799 73.9629 81.6299 73.8229C81.8899 73.6729 82.29 73.6729 82.54 73.8229Z" fill="#E78200"/>
<path d="M84.92 72.4528C85.17 72.5928 85.17 72.8328 84.92 72.9728C84.67 73.1128 84.2599 73.1128 84.0099 72.9728C83.7599 72.8328 83.7599 72.5928 84.0099 72.4528C84.2599 72.3028 84.66 72.3028 84.92 72.4528Z" fill="#E78200"/>
<path d="M87.29 71.083C87.54 71.223 87.54 71.463 87.29 71.603C87.04 71.743 86.6299 71.743 86.3799 71.603C86.1299 71.463 86.1299 71.223 86.3799 71.083C86.6299 70.943 87.04 70.943 87.29 71.083Z" fill="#E78200"/>
<path d="M89.66 69.7129C89.91 69.8529 89.91 70.0929 89.66 70.2329C89.41 70.3729 88.9999 70.3729 88.7499 70.2329C88.4999 70.0929 88.4999 69.8529 88.7499 69.7129C88.9999 69.5729 89.41 69.5729 89.66 69.7129Z" fill="#E78200"/>
<path d="M92.03 68.3428C92.28 68.4828 92.28 68.7228 92.03 68.8628C91.78 69.0028 91.3699 69.0028 91.1199 68.8628C90.8699 68.7228 90.8699 68.4828 91.1199 68.3428C91.3699 68.2028 91.78 68.2028 92.03 68.3428Z" fill="#E78200"/>
<path d="M93.95 67.6131C94.3034 67.6131 94.59 67.4474 94.59 67.243C94.59 67.0387 94.3034 66.873 93.95 66.873C93.5965 66.873 93.3099 67.0387 93.3099 67.243C93.3099 67.4474 93.5965 67.6131 93.95 67.6131Z" fill="#E78200"/>
<path d="M96.77 65.603C97.02 65.743 97.02 65.983 96.77 66.123C96.52 66.263 96.11 66.263 95.86 66.123C95.61 65.983 95.61 65.743 95.86 65.603C96.11 65.463 96.52 65.463 96.77 65.603Z" fill="#E78200"/>
<path d="M99.14 64.2429C99.39 64.3829 99.39 64.6229 99.14 64.7629C98.89 64.9029 98.48 64.9029 98.23 64.7629C97.98 64.6229 97.98 64.3829 98.23 64.2429C98.48 64.0929 98.89 64.0929 99.14 64.2429Z" fill="#E78200"/>
<path d="M70.6899 77.9229C70.9399 78.0629 70.9399 78.3029 70.6899 78.4429C70.4399 78.5829 70.03 78.5829 69.78 78.4429C69.53 78.3029 69.53 78.0629 69.78 77.9229C70.03 77.7829 70.4399 77.7829 70.6899 77.9229Z" fill="#E78200"/>
<path d="M73.0599 76.5632C73.3099 76.7032 73.3099 76.9432 73.0599 77.0832C72.8099 77.2232 72.4 77.2232 72.15 77.0832C71.9 76.9432 71.9 76.7032 72.15 76.5632C72.4 76.4132 72.8099 76.4132 73.0599 76.5632Z" fill="#E78200"/>
<path d="M75.4299 75.1931C75.6799 75.3331 75.6799 75.5731 75.4299 75.7131C75.1799 75.8531 74.77 75.8531 74.52 75.7131C74.27 75.5731 74.27 75.3331 74.52 75.1931C74.77 75.0431 75.1799 75.0431 75.4299 75.1931Z" fill="#E78200"/>
<path d="M77.7999 73.8229C78.0499 73.9629 78.0499 74.2029 77.7999 74.3429C77.5499 74.4829 77.14 74.4829 76.89 74.3429C76.64 74.2029 76.64 73.9629 76.89 73.8229C77.15 73.6729 77.5499 73.6729 77.7999 73.8229Z" fill="#E78200"/>
<path d="M79.72 73.0828C80.0734 73.0828 80.36 72.9171 80.36 72.7128C80.36 72.5084 80.0734 72.3428 79.72 72.3428C79.3665 72.3428 79.08 72.5084 79.08 72.7128C79.08 72.9171 79.3665 73.0828 79.72 73.0828Z" fill="#E78200"/>
<path d="M82.54 71.083C82.79 71.223 82.79 71.463 82.54 71.603C82.29 71.743 81.8799 71.743 81.6299 71.603C81.3799 71.463 81.3799 71.223 81.6299 71.083C81.8899 70.943 82.29 70.943 82.54 71.083Z" fill="#E78200"/>
<path d="M84.92 69.7129C85.17 69.8529 85.17 70.0929 84.92 70.2329C84.67 70.3729 84.2599 70.3729 84.0099 70.2329C83.7599 70.0929 83.7599 69.8529 84.0099 69.7129C84.2599 69.5729 84.66 69.5729 84.92 69.7129Z" fill="#E78200"/>
<path d="M87.29 68.3428C87.54 68.4828 87.54 68.7228 87.29 68.8628C87.04 69.0028 86.6299 69.0028 86.3799 68.8628C86.1299 68.7228 86.1299 68.4828 86.3799 68.3428C86.6299 68.2028 87.04 68.2028 87.29 68.3428Z" fill="#E78200"/>
<path d="M89.2 67.6131C89.5534 67.6131 89.84 67.4474 89.84 67.243C89.84 67.0387 89.5534 66.873 89.2 66.873C88.8465 66.873 88.5599 67.0387 88.5599 67.243C88.5599 67.4474 88.8465 67.6131 89.2 67.6131Z" fill="#E78200"/>
<path d="M92.03 65.603C92.28 65.743 92.28 65.983 92.03 66.123C91.78 66.263 91.3699 66.263 91.1199 66.123C90.8699 65.983 90.8699 65.743 91.1199 65.603C91.3699 65.463 91.78 65.463 92.03 65.603Z" fill="#E78200"/>
<path d="M94.4 64.2429C94.65 64.3829 94.65 64.6229 94.4 64.7629C94.15 64.9029 93.7399 64.9029 93.4899 64.7629C93.2399 64.6229 93.2399 64.3829 93.4899 64.2429C93.7399 64.0929 94.15 64.0929 94.4 64.2429Z" fill="#E78200"/>
<path d="M96.3199 63.5032C96.6734 63.5032 96.96 63.3375 96.96 63.1332C96.96 62.9288 96.6734 62.7632 96.3199 62.7632C95.9665 62.7632 95.6799 62.9288 95.6799 63.1332C95.6799 63.3375 95.9665 63.5032 96.3199 63.5032Z" fill="#E78200"/>
<path d="M99.14 61.5031C99.39 61.6431 99.39 61.8831 99.14 62.0231C98.89 62.1631 98.48 62.1631 98.23 62.0231C97.98 61.8831 97.98 61.6431 98.23 61.5031C98.48 61.3531 98.89 61.3531 99.14 61.5031Z" fill="#E78200"/>
<path d="M68.3199 76.5632C68.5699 76.7032 68.5699 76.9432 68.3199 77.0832C68.0699 77.2232 67.66 77.2232 67.41 77.0832C67.16 76.9432 67.16 76.7032 67.41 76.5632C67.66 76.4132 68.0699 76.4132 68.3199 76.5632Z" fill="#E78200"/>
<path d="M70.6899 75.1931C70.9399 75.3331 70.9399 75.5731 70.6899 75.7131C70.4399 75.8531 70.03 75.8531 69.78 75.7131C69.53 75.5731 69.53 75.3331 69.78 75.1931C70.03 75.0431 70.4399 75.0431 70.6899 75.1931Z" fill="#E78200"/>
<path d="M73.0599 73.8229C73.3099 73.9629 73.3099 74.2029 73.0599 74.3429C72.8099 74.4829 72.4 74.4829 72.15 74.3429C71.9 74.2029 71.9 73.9629 72.15 73.8229C72.4 73.6729 72.8099 73.6729 73.0599 73.8229Z" fill="#E78200"/>
<path d="M74.98 73.0828C75.3334 73.0828 75.6199 72.9171 75.6199 72.7128C75.6199 72.5084 75.3334 72.3428 74.98 72.3428C74.6265 72.3428 74.34 72.5084 74.34 72.7128C74.34 72.9171 74.6265 73.0828 74.98 73.0828Z" fill="#E78200"/>
<path d="M77.7999 71.083C78.0499 71.223 78.0499 71.463 77.7999 71.603C77.5499 71.743 77.14 71.743 76.89 71.603C76.64 71.463 76.64 71.223 76.89 71.083C77.15 70.943 77.5499 70.943 77.7999 71.083Z" fill="#E78200"/>
<path d="M80.17 69.7129C80.42 69.8529 80.42 70.0929 80.17 70.2329C79.92 70.3729 79.5099 70.3729 79.2599 70.2329C79.0099 70.0929 79.0099 69.8529 79.2599 69.7129C79.5199 69.5729 79.92 69.5729 80.17 69.7129Z" fill="#E78200"/>
<path d="M82.54 68.3428C82.79 68.4828 82.79 68.7228 82.54 68.8628C82.29 69.0028 81.8799 69.0028 81.6299 68.8628C81.3799 68.7228 81.3799 68.4828 81.6299 68.3428C81.8899 68.2028 82.29 68.2028 82.54 68.3428Z" fill="#E78200"/>
<path d="M84.92 66.9732C85.17 67.1132 85.17 67.3532 84.92 67.4932C84.67 67.6332 84.2599 67.6332 84.0099 67.4932C83.7599 67.3532 83.7599 67.1132 84.0099 66.9732C84.2599 66.8332 84.66 66.8332 84.92 66.9732Z" fill="#E78200"/>
<path d="M86.83 66.2429C87.1834 66.2429 87.47 66.0773 87.47 65.8729C87.47 65.6686 87.1834 65.5029 86.83 65.5029C86.4765 65.5029 86.1899 65.6686 86.1899 65.8729C86.1899 66.0773 86.4765 66.2429 86.83 66.2429Z" fill="#E78200"/>
<path d="M89.66 64.2429C89.91 64.3829 89.91 64.6229 89.66 64.7629C89.41 64.9029 88.9999 64.9029 88.7499 64.7629C88.4999 64.6229 88.4999 64.3829 88.7499 64.2429C88.9999 64.0929 89.41 64.0929 89.66 64.2429Z" fill="#E78200"/>
<path d="M92.03 62.8728C92.28 63.0128 92.28 63.2528 92.03 63.3928C91.78 63.5328 91.3699 63.5328 91.1199 63.3928C90.8699 63.2528 90.8699 63.0128 91.1199 62.8728C91.3699 62.7228 91.78 62.7228 92.03 62.8728Z" fill="#E78200"/>
<path d="M94.4 61.5031C94.65 61.6431 94.65 61.8831 94.4 62.0231C94.15 62.1631 93.7399 62.1631 93.4899 62.0231C93.2399 61.8831 93.2399 61.6431 93.4899 61.5031C93.7399 61.3531 94.15 61.3531 94.4 61.5031Z" fill="#E78200"/>
<path d="M96.3199 60.763C96.6734 60.763 96.96 60.5973 96.96 60.393C96.96 60.1886 96.6734 60.0229 96.3199 60.0229C95.9665 60.0229 95.6799 60.1886 95.6799 60.393C95.6799 60.5973 95.9665 60.763 96.3199 60.763Z" fill="#E78200"/>
<path d="M97.04 54.8633C97.04 54.8433 97.04 54.8133 97.04 54.7933V53.3833H96.1299C96.0699 53.3433 96.0099 53.2933 95.9299 53.2533L58.34 31.5533C56.69 30.6033 53.82 30.7233 51.91 31.8233L3.89996 59.7333C3.55996 59.9333 3.27998 60.1433 3.03998 60.3733H2.31995V63.6433C2.33995 64.2333 2.69993 64.7933 3.42993 65.2133L41.02 86.9133C42.67 87.8633 45.54 87.7433 47.45 86.6433L95.46 58.7333C96.47 58.1533 96.99 57.4133 97.03 56.7133V55.8333V54.8633H97.04Z" fill="#444444"/>
<path d="M97.03 56.7029V55.8229V54.8529C97.03 54.8329 97.03 54.8029 97.03 54.7829V53.3729H96.1199C96.0599 53.3329 96 53.2829 95.92 53.2429L81.98 45.1929C80.92 45.2129 80.15 45.2729 79.83 45.3829C77.85 46.0429 45.8899 64.6229 45.2499 67.4429C44.5999 70.2629 43.41 84.3829 43.41 84.3829V87.5229C44.79 87.6029 46.31 87.3029 47.46 86.6329L95.47 58.7229C96.47 58.1429 97 57.4129 97.03 56.7029Z" fill="#E78200"/>
<path d="M43.8199 87.8831C42.7099 87.8831 41.66 87.6631 40.86 87.2031L3.26996 65.5031C2.46996 65.0431 2.00993 64.3831 1.98993 63.6531V60.0431H2.90997C3.14997 59.8331 3.41998 59.6331 3.72998 59.4531L51.7399 31.5431C53.7299 30.3931 56.7599 30.2731 58.4999 31.2731L96.09 52.9731C96.13 53.0031 96.18 53.0231 96.22 53.0531H97.36V56.7131C97.32 57.5831 96.6999 58.4031 95.6299 59.0231L47.6199 86.9331C46.5399 87.5631 45.1399 87.8831 43.8199 87.8831ZM2.65997 60.7031V63.6331C2.66997 64.1231 2.99998 64.5731 3.59998 64.9231L41.1899 86.6231C42.7399 87.5231 45.48 87.4031 47.28 86.3531L95.29 58.4431C96.15 57.9431 96.6599 57.3031 96.6899 56.6931V54.8231V53.7131H96.0099L95.9299 53.6531C95.8399 53.5931 95.7999 53.5631 95.7599 53.5431L58.17 31.8431C56.62 30.9431 53.88 31.0631 52.08 32.1131L4.06995 60.0231C3.75995 60.2031 3.49997 60.3931 3.27997 60.6131L3.17993 60.7031H2.65997Z" fill="#E78200"/>
<path d="M41.0299 83.7634L3.43992 62.0634C1.78992 61.1134 1.99994 59.4534 3.89994 58.3534L51.91 30.4434C53.81 29.3434 56.6899 29.2234 58.3399 30.1734L95.9299 51.8734C97.5799 52.8234 97.3699 54.4834 95.4699 55.5834L47.4599 83.4934C45.5499 84.5934 42.68 84.7134 41.0299 83.7634Z" fill="#444444"/>
<path d="M43.8199 84.7232C42.7099 84.7232 41.65 84.5032 40.86 84.0432L3.26996 62.3432C2.44996 61.8632 1.98993 61.1932 1.98993 60.4432C1.98993 59.5632 2.61998 58.6932 3.72998 58.0532L51.7399 30.1432C53.7299 28.9932 56.7599 28.8732 58.4999 29.8732L96.09 51.5732C96.91 52.0532 97.3699 52.7232 97.3699 53.4732C97.3699 54.3532 96.7399 55.2232 95.6299 55.8632L47.6199 83.7732C46.5399 84.4032 45.1399 84.7232 43.8199 84.7232ZM55.5499 29.8532C54.3499 29.8532 53.07 30.1432 52.08 30.7232L4.06995 58.6332C3.17995 59.1532 2.65997 59.8132 2.65997 60.4432C2.65997 60.9432 2.99999 61.4132 3.60999 61.7632L41.2 83.4632C42.75 84.3632 45.49 84.2432 47.29 83.1932L95.2999 55.2832C96.1899 54.7632 96.71 54.1032 96.71 53.4732C96.71 52.9732 96.3699 52.5032 95.7599 52.1532L58.17 30.4532C57.47 30.0532 56.5299 29.8532 55.5499 29.8532Z" fill="#E78200"/>
<path d="M44.6199 81.6532L44.46 81.5632L8.20996 60.6332L53.8799 34.0732L54.04 34.1632L90.29 55.0932L44.6199 81.6532Z" fill="#E78200"/>
<path d="M44.8099 79.5431L7.91998 58.2431L54.4999 31.1631L91.39 52.4631L44.8099 79.5431Z" fill="#FFF4E5"/>
<path d="M44.8099 79.9232L44.64 79.8332L7.24994 58.2432L54.4899 30.7832L54.66 30.8732L92.0499 52.4632L44.8099 79.9232ZM8.57996 58.2432L44.8099 79.1632L90.72 52.4632L54.4899 31.5432L8.57996 58.2432Z" fill="#E78200"/>
<path d="M85.5099 40.063L85.4899 40.213L81.73 38.043C81.66 38.093 81.61 38.143 81.53 38.183C80.47 38.793 79.85 39.773 78.79 39.163C77.73 38.553 76.6299 38.343 77.6899 37.733C77.7699 37.693 77.8499 37.653 77.9399 37.613L78.28 34.783L76.8199 34.273L76.59 36.833L72.4399 32.673C71.7099 32.253 70.46 32.453 70.23 33.033L69.7 34.323L69.22 34.273V37.363C69.22 37.373 69.22 37.383 69.22 37.393V37.403C69.24 37.583 69.37 37.763 69.6 37.903L81.02 44.493C81.34 44.673 81.7999 44.753 82.2399 44.693L86.42 44.153C87.09 44.063 87.48 43.723 87.45 43.373V40.333L85.5099 40.063Z" fill="#E78200"/>
<path d="M81.96 45.0429C81.55 45.0429 81.16 44.9529 80.86 44.7729L69.4399 38.1829C69.2799 38.0929 69.1499 37.9729 69.0599 37.8529L68.9 37.9329V33.9029L69.4999 33.9629L69.9399 32.9029C70.0599 32.6129 70.3499 32.3729 70.7499 32.2329C71.3599 32.0229 72.1199 32.0829 72.6299 32.3729L72.7 32.4229L76.35 36.0829L76.5499 33.8329L78.6799 34.5929V38.0929L78.1 37.8929C77.98 37.9429 77.9299 37.9629 77.8799 37.9929C77.7599 38.0629 77.69 38.1129 77.65 38.1429C77.77 38.2329 78.0399 38.3629 78.2499 38.4729C78.4799 38.5829 78.73 38.7029 78.97 38.8429C79.53 39.1729 79.8899 38.9329 80.5699 38.4229C80.8099 38.2429 81.0699 38.0429 81.3699 37.8729C81.4099 37.8529 81.4499 37.8229 81.4899 37.7929L81.66 37.6629L81.9 37.7329L85.2599 39.6729L87.58 40.0129C87.7 40.0329 87.78 40.1329 87.78 40.2429V43.3629C87.83 43.9029 87.29 44.3729 86.46 44.4729L82.28 45.0129C82.18 45.0429 82.07 45.0429 81.96 45.0429ZM69.5599 37.3629V37.3729C69.5699 37.4529 69.65 37.5429 69.78 37.6129L81.2 44.2029C81.46 44.3529 81.84 44.4129 82.21 44.3629L86.39 43.8229C86.89 43.7629 87.1399 43.5329 87.1299 43.3929V40.6129L85.8099 40.4229L85.78 40.7329L81.77 38.4229C81.75 38.4329 81.73 38.4429 81.72 38.4529C81.45 38.6029 81.21 38.7829 80.98 38.9629C80.31 39.4629 79.62 39.9929 78.65 39.4329C78.42 39.2929 78.18 39.1829 77.97 39.0829C77.41 38.8129 76.97 38.5929 76.96 38.1829C76.95 37.8329 77.2699 37.5929 77.5599 37.4329C77.5899 37.4229 78 37.6929 78.03 37.6729V35.1029L77.15 34.6829L76.9 37.5629L72.28 32.9329C71.93 32.7529 71.39 32.7229 70.98 32.8629C70.77 32.9329 70.6199 33.0429 70.5699 33.1529L69.95 34.6729L69.59 34.6329L69.5599 37.3629Z" fill="#E78200"/>
<path d="M87.0699 39.8432L81.7399 36.7632C81.6699 36.8132 81.62 36.8632 81.54 36.9032C80.48 37.5132 78.7599 37.5132 77.6999 36.9032C76.6399 36.2932 76.6399 35.3032 77.6999 34.6832C77.7799 34.6432 77.8599 34.6032 77.9499 34.5632L72.4599 31.3932C71.7299 30.9732 70.4799 31.1732 70.2499 31.7532L69.2699 34.1332C69.1599 34.3932 69.2999 34.6632 69.6199 34.8432L81.04 41.4332C81.36 41.6132 81.8199 41.6932 82.2599 41.6332L86.4399 41.0932C87.4399 40.9932 87.7999 40.2732 87.0699 39.8432Z" fill="#FFF4E5"/>
<path d="M81.96 42.0131C81.55 42.0131 81.16 41.9231 80.86 41.7431L69.44 35.1531C68.97 34.8831 68.78 34.4431 68.95 34.0231L69.93 31.6431C70.05 31.3531 70.34 31.1131 70.74 30.9731C71.35 30.7631 72.11 30.8231 72.62 31.1131L78.67 34.6031L78.09 34.8731C77.97 34.9231 77.92 34.9431 77.87 34.9731C77.46 35.2031 77.24 35.5031 77.24 35.7931C77.24 36.0931 77.46 36.3831 77.87 36.6131C78.82 37.1631 80.43 37.1631 81.38 36.6131C81.42 36.5831 81.46 36.5631 81.5 36.5331L81.67 36.4031L81.91 36.4731L87.24 39.5531C87.65 39.7931 87.85 40.1531 87.78 40.5231C87.68 41.0031 87.18 41.3531 86.47 41.4431L82.29 41.9831C82.18 42.0031 82.07 42.0131 81.96 42.0131ZM71.52 31.5131C71.32 31.5131 71.13 31.5431 70.95 31.6031C70.74 31.6731 70.59 31.7831 70.54 31.8931L69.56 34.2731C69.5 34.4131 69.71 34.5331 69.77 34.5731L81.19 41.1631C81.45 41.3131 81.83 41.3731 82.2 41.3231L86.38 40.7831C86.88 40.7231 87.1 40.5031 87.12 40.3931C87.14 40.2731 86.96 40.1531 86.9 40.1231L81.76 37.1531C81.74 37.1631 81.72 37.1731 81.71 37.1831C80.54 37.8531 78.71 37.8531 77.54 37.1831C76.92 36.8231 76.58 36.3331 76.58 35.7831C76.58 35.3231 76.83 34.8931 77.28 34.5531L72.29 31.6731C72.08 31.5731 71.8 31.5131 71.52 31.5131Z" fill="#E78200"/>
<path d="M87.71 50.4432L58.15 33.3832C57.44 32.9732 57.53 32.2532 58.35 31.7832L60.1799 30.7232C60.9999 30.2532 62.24 30.2032 62.95 30.6132L92.51 47.6732C93.22 48.0832 93.1299 48.8032 92.3099 49.2732L90.48 50.3332C89.66 50.8032 88.42 50.8532 87.71 50.4432Z" fill="#FFF4E5"/>
<path d="M88.91 51.0531C88.4 51.0531 87.91 50.9431 87.54 50.7331L57.98 33.6731C57.56 33.4331 57.34 33.0831 57.34 32.6931C57.34 32.2431 57.6499 31.8131 58.1799 31.5031L60.0099 30.4431C60.9299 29.9131 62.3 29.8631 63.11 30.3331L92.67 47.3931C93.09 47.6331 93.3099 47.9831 93.3099 48.3731C93.3099 48.8231 93 49.2531 92.47 49.5631L90.64 50.6231C90.14 50.9031 89.51 51.0531 88.91 51.0531ZM87.8699 50.1631C88.4799 50.5131 89.5999 50.4631 90.3099 50.0531L92.14 48.9931C92.46 48.8131 92.65 48.5731 92.65 48.3731C92.65 48.1831 92.48 48.0431 92.34 47.9631L62.78 30.9031C62.17 30.5531 61.05 30.6031 60.34 31.0131L58.5099 32.0731C58.1899 32.2631 57.9999 32.4931 57.9999 32.6931C57.9999 32.8831 58.1699 33.0131 58.3099 33.1031L87.8699 50.1631Z" fill="#E78200"/>
<path d="M78.4499 46.5129L63.67 37.9829C63.31 37.7729 63.3599 37.4229 63.7699 37.1829L64.6799 36.6529C65.0899 36.4129 65.7099 36.3929 66.0699 36.5929L80.85 45.1229C81.2 45.3329 81.1599 45.6829 80.7499 45.9229L79.8399 46.4529C79.4199 46.6929 78.7999 46.7129 78.4499 46.5129Z" fill="#444444"/>
<path d="M79.0499 46.9831C78.7699 46.9831 78.49 46.9231 78.28 46.8031L63.4999 38.2731C63.2399 38.1231 63.09 37.8931 63.09 37.6331C63.09 37.3531 63.27 37.0831 63.59 36.8931L64.4999 36.3631C65.0199 36.0631 65.76 36.0431 66.22 36.3031L80.9999 44.8331C81.2599 44.9831 81.41 45.2131 81.41 45.4731C81.41 45.7531 81.23 46.0231 80.91 46.2131L79.9999 46.7431C79.7199 46.9031 79.3799 46.9831 79.0499 46.9831ZM65.47 36.7831C65.25 36.7831 65.02 36.8331 64.85 36.9331L63.9399 37.4631C63.7999 37.5431 63.77 37.6131 63.77 37.6331C63.77 37.6331 63.79 37.6631 63.84 37.6931L78.6199 46.2231C78.8799 46.3731 79.37 46.3431 79.67 46.1631L80.58 45.6331C80.72 45.5531 80.7499 45.4831 80.7499 45.4631C80.7499 45.4631 80.7299 45.4331 80.6799 45.4031L65.9 36.8731C65.79 36.8131 65.63 36.7831 65.47 36.7831Z" fill="#E78200"/>
<path d="M51.92 53.7932C50.68 53.0832 48.6799 53.0832 47.4399 53.7932C46.1999 54.5032 46.1999 55.6632 47.4399 56.3732C48.6799 57.0832 50.68 57.0832 51.92 56.3732C53.16 55.6732 53.16 54.5132 51.92 53.7932Z" fill="#E78200"/>
<path d="M56.7999 50.4931C52.8099 48.1931 46.57 48.1931 42.58 50.4931C40.52 51.6831 39.39 53.3131 39.39 55.0831C39.39 56.8531 40.52 58.4931 42.58 59.6831C44.57 60.8331 47.1299 61.4131 49.6899 61.4131C52.2499 61.4131 54.8099 60.8331 56.7999 59.6831C58.8599 58.4931 59.9899 56.8631 59.9899 55.0831C59.9899 53.3131 58.8599 51.6831 56.7999 50.4931ZM55.95 58.2231C52.5 60.2131 46.87 60.2131 43.42 58.2231C41.91 57.3531 41.0699 56.2331 41.0699 55.0931C41.0699 53.9531 41.9 52.8331 43.42 51.9631C45.15 50.9631 47.4199 50.4631 49.6899 50.4631C51.9599 50.4631 54.23 50.9631 55.96 51.9631C57.47 52.8331 58.3099 53.9531 58.3099 55.0931C58.2999 56.2331 57.47 57.3431 55.95 58.2231Z" fill="#E78200"/>
<path d="M51.92 52.1033C50.68 51.3933 48.6799 51.3933 47.4399 52.1033C46.1999 52.8133 46.1999 53.9733 47.4399 54.6833C48.6799 55.3933 50.68 55.3933 51.92 54.6833C53.16 53.9733 53.16 52.8133 51.92 52.1033Z" fill="#444444"/>
<path d="M56.7999 48.8031C52.8099 46.5031 46.57 46.5031 42.58 48.8031C40.52 49.9931 39.39 51.6231 39.39 53.3931C39.39 55.1631 40.52 56.8031 42.58 57.9931C44.57 59.1431 47.1299 59.7231 49.6899 59.7231C52.2499 59.7231 54.8099 59.1431 56.7999 57.9931C58.8599 56.8031 59.9899 55.1731 59.9899 53.3931C59.9899 51.6231 58.8599 49.9831 56.7999 48.8031ZM55.95 56.5231C52.5 58.5131 46.87 58.5131 43.42 56.5231C41.91 55.6531 41.0699 54.5331 41.0699 53.3931C41.0699 52.2531 41.9 51.1431 43.42 50.2631C45.15 49.2631 47.4199 48.7631 49.6899 48.7631C51.9599 48.7631 54.23 49.2631 55.96 50.2631C57.47 51.1331 58.3099 52.2531 58.3099 53.3931C58.2999 54.5331 57.47 55.6531 55.95 56.5231Z" fill="#444444"/>
<path d="M48.35 1.79314C41.67 4.87314 35.68 14.1931 35.11 22.8031C34.88 26.2531 35.56 29.0331 36.92 30.9331L46.54 49.1731L51.15 51.4231C51.57 50.4831 58.3 18.4331 58.61 17.4731C59.33 15.2231 64.26 13.8031 64.29 11.6131C64.43 3.59314 54.87 -1.21686 48.35 1.79314ZM47.51 22.3531C44.88 23.6631 42.86 22.0531 43.03 18.7831C43.19 15.5531 45.4199 11.9631 47.9899 10.7331C50.5299 9.52315 52.49 11.0631 52.39 14.2131C52.29 17.3931 50.11 21.0531 47.51 22.3531Z" fill="#444444"/>
<path d="M49.1899 3.43299C42.51 6.51299 36.52 15.833 35.95 24.443C35.84 26.083 35.95 27.553 36.23 28.873C43.85 33.453 49.56 33.193 55.51 37.253C57.36 28.643 59.2799 19.633 59.4399 19.133C60.1599 16.883 63.85 15.193 63.89 13.003C64.03 4.96299 55.7 0.432988 49.1899 3.43299ZM48.34 23.993C45.71 25.303 43.69 23.693 43.86 20.423C44.02 17.193 46.25 13.603 48.82 12.373C51.36 11.163 53.32 12.703 53.22 15.853C53.12 19.033 50.94 22.693 48.34 23.993Z" fill="#FFF4E5"/>
<path d="M51.41 52.123L46.17 49.563L46.09 49.413L36.47 31.163C35.03 29.153 34.38 26.233 34.61 22.763C35.18 14.113 41.25 4.49297 48.14 1.32297C51.6 -0.277032 56.14 0.192967 59.7 2.51297C63.01 4.67297 64.8699 7.99297 64.7999 11.633C64.7799 13.053 63.26 14.093 61.79 15.093C60.61 15.903 59.39 16.743 59.1 17.643C58.98 18.023 57.72 23.873 56.39 30.063C53.75 42.343 51.8699 51.083 51.6199 51.643L51.41 52.123ZM46.92 48.793L50.84 50.703C51.46 48.203 53.71 37.713 55.4 29.843C57.01 22.333 57.9999 17.723 58.1299 17.323C58.5299 16.093 59.89 15.153 61.22 14.253C62.48 13.393 63.78 12.503 63.79 11.613C63.84 8.33297 62.15 5.32297 59.15 3.36297C55.88 1.23297 51.7299 0.792966 48.5699 2.24297C41.9799 5.28297 36.1799 14.513 35.6299 22.823C35.4199 26.053 36.01 28.753 37.34 30.633L46.92 48.793ZM45.7599 23.313C45.1599 23.313 44.6099 23.153 44.1199 22.843C43.0099 22.113 42.4199 20.623 42.5099 18.753C42.6799 15.323 44.99 11.593 47.7599 10.273C49.0599 9.65297 50.31 9.65297 51.28 10.283C52.36 10.993 52.95 12.423 52.89 14.223C52.78 17.583 50.47 21.433 47.73 22.803C47.05 23.143 46.3799 23.313 45.7599 23.313ZM49.64 10.823C49.2 10.823 48.71 10.943 48.21 11.183C45.79 12.343 43.69 15.753 43.54 18.793C43.46 20.293 43.8799 21.453 44.6899 21.983C45.3599 22.423 46.29 22.383 47.29 21.883C49.73 20.663 51.79 17.203 51.89 14.173C51.94 12.743 51.5099 11.623 50.7399 11.113C50.4099 10.933 50.04 10.823 49.64 10.823Z" fill="#E78200"/>
<path d="M64.4 13.0027C64.54 4.98269 59.48 1.04268 52.97 4.04268C46.29 7.12268 40.3 16.4427 39.73 25.0527C39.5 28.5027 40.18 31.2827 41.54 33.1827L51.16 51.4327L62.14 22.5927C62.56 21.6527 62.92 20.6927 63.23 19.7327C63.95 17.4827 64.36 15.1927 64.4 13.0027Z" fill="#E78200"/>
<path d="M51.41 52.1229L50.79 51.8229L41.0899 33.4229C39.6599 31.4129 39 28.4929 39.23 25.0229C39.8 16.3729 45.8699 6.75292 52.7599 3.58292C55.8499 2.16292 58.7799 2.18292 61.0199 3.64292C63.6099 5.33292 64.99 8.65293 64.92 13.0029C64.88 15.2029 64.48 17.5129 63.72 19.8829C63.41 20.8629 63.03 21.8429 62.61 22.7929L51.41 52.1229ZM57.1299 3.54292C55.8999 3.54292 54.5599 3.86292 53.1799 4.49292C46.5899 7.53292 40.7899 16.7629 40.2399 25.0729C40.0299 28.3029 40.6199 31.0029 41.9499 32.8829L51.0799 50.1929L61.66 22.4029C62.08 21.4529 62.4399 20.5129 62.7399 19.5629C63.4699 17.2929 63.8599 15.0729 63.8899 12.9729C63.9599 9.04292 62.6999 5.94292 60.4499 4.47292C59.4899 3.86292 58.3599 3.54292 57.1299 3.54292Z" fill="#E78200"/>
<path d="M51.54 30.8731L46.6399 27.5431C45.9499 27.0731 45.9999 25.7031 46.7499 24.4831C47.4999 23.2631 48.66 22.6431 49.35 23.1131L51.8199 24.7931L56.3799 15.5331C57.0199 14.2531 58.1799 13.4531 58.9699 13.7331C59.7599 14.0231 59.87 15.2931 59.23 16.5731L52.3999 30.3531C52.1799 30.7831 51.77 31.0331 51.54 30.8731Z" fill="#444444"/>
</svg>
