<svg width="22" height="24" viewBox="0 0 22 24" fill="none" xmlns="http://www.w3.org/2000/svg">
<path fill-rule="evenodd" clip-rule="evenodd" d="M0.671987 0.183629C0.0321255 0.562925 -0.167614 1.17881 0.145543 1.80768C0.494022 2.50738 0.618859 2.53955 2.98486 2.53955C4.46625 2.53955 5.08841 2.50747 5.17153 2.42667C5.2354 2.36458 5.28766 2.15292 5.28766 1.95631C5.28766 1.66158 5.32163 1.59884 5.48121 1.59884C5.67253 1.59884 5.67475 1.66158 5.67475 6.98913C5.67475 11.0561 5.7033 12.4072 5.79088 12.4923C5.95675 12.6535 6.321 12.6317 6.39019 12.4564C6.42251 12.3745 6.44893 9.89809 6.44893 6.95319V1.59884H6.83602C7.09412 1.59884 7.28766 1.66158 7.41666 1.78698C7.60682 1.97183 7.61021 2.10052 7.61021 9.15136V16.3276L7.03209 16.3243L6.45397 16.321L6.42726 14.9201C6.40413 13.7055 6.378 13.5053 6.23119 13.4154C6.10781 13.3398 6.01588 13.3398 5.89249 13.4154C5.74472 13.5059 5.71975 13.7099 5.69662 15.0146L5.6702 16.5102L5.14579 16.7771C4.47177 17.12 3.70194 17.9135 3.37524 18.602C3.01156 19.3684 2.95244 20.6949 3.24808 21.4578C3.68385 22.5824 4.50583 23.4088 5.59598 23.8181C6.10036 24.0076 6.25394 24.011 13.6095 23.993C20.8579 23.9753 21.1191 23.9686 21.4143 23.7913C21.7894 23.5659 22.0678 22.9465 21.9855 22.5201C21.8654 21.898 21.2765 21.4479 20.5826 21.4479H20.1907V16.0326C20.1907 12.4796 20.1562 10.5547 20.0905 10.4353C19.9776 10.2303 19.707 10.1968 19.5326 10.3663C19.459 10.4379 19.4165 10.7992 19.4165 11.355V12.2308L14.844 12.2063L10.2715 12.1819L10.2462 8.10058C10.2281 5.16574 10.2518 3.98326 10.3307 3.89089C10.4133 3.79409 10.7589 3.76248 11.7349 3.76248H13.0295V4.97873C13.0295 5.95886 13.059 6.22357 13.1815 6.34276C13.3069 6.46458 13.601 6.49055 14.8557 6.49055C15.9105 6.49055 16.4134 6.45593 16.4939 6.37766C16.5726 6.30118 16.6101 5.86074 16.6101 5.01109V3.75731L17.9891 3.78346L19.3681 3.80951L19.4201 6.63166C19.4487 8.18383 19.4813 9.46443 19.4926 9.47731C19.5553 9.54881 19.9754 9.48427 20.0745 9.38795C20.1594 9.30544 20.1907 8.55598 20.1907 6.60353C20.1907 3.63718 20.1582 3.45383 19.5807 3.15779C19.3007 3.01433 18.8359 3.00191 14.6908 3.02806L10.1103 3.05694L9.82795 3.36418L9.54566 3.67142V10.4038C9.54566 14.1067 9.51295 17.1221 9.47308 17.1049C9.43321 17.0876 9.15005 16.9319 8.84406 16.7588L8.28762 16.4441V9.10658C8.28762 2.48292 8.27223 1.74361 8.1293 1.50853C7.84236 1.03629 7.54392 0.940339 6.36145 0.940339H5.28766V0.582868C5.28766 0.386259 5.2354 0.174598 5.17153 0.112511C5.0885 0.0317979 4.47409 -0.00028037 3.01834 1.84453e-06C1.16988 0.000284059 0.952628 0.0173109 0.671987 0.183629ZM4.51348 1.32255V1.89291L2.76354 1.86346C1.16262 1.83656 1.00198 1.81849 0.876468 1.65142C0.69589 1.41098 0.702373 1.0838 0.891371 0.899982C1.01834 0.776655 1.33024 0.752196 2.77844 0.752196H4.51348V1.32255ZM15.9327 4.75023V5.73798H14.8682H13.8037V4.75023V3.76248H14.8682H15.9327V4.75023ZM13.0295 14.2326C13.0295 15.0803 13.0669 15.5202 13.1456 15.5967C13.2266 15.6754 13.7498 15.7095 14.8772 15.7095C16.2609 15.7095 16.501 15.6882 16.5513 15.5607C16.5837 15.4789 16.6101 14.8651 16.6101 14.1967V12.9815H18.0133H19.4165V17.2147V21.4479H15.1083H10.8L10.8744 21.1892C10.9154 21.047 10.9489 20.5472 10.9489 20.0788C10.9489 19.2841 10.9246 19.1792 10.586 18.5134L10.2231 17.7999V15.3907V12.9815H11.6263H13.0295V14.2326ZM15.9118 13.9927L15.8843 15.004L14.844 15.0307L13.8037 15.0574V14.0195V12.9815H14.8715H15.9392L15.9118 13.9927ZM8.30862 17.2868C9.46631 17.7858 10.26 18.9678 10.2498 20.1776C10.2342 22.0039 8.87648 23.3293 7.02105 23.3293C5.71056 23.3293 4.68583 22.7082 4.10577 21.5622C3.82417 21.006 3.78826 20.8473 3.79242 20.1796C3.80152 18.7387 4.57667 17.6881 5.9941 17.196C6.64403 16.9703 7.6674 17.0105 8.30862 17.2868ZM6.35071 18.9315C5.83152 19.1873 5.54575 19.6298 5.54575 20.1779C5.54575 21.6099 7.43089 22.1562 8.27203 20.9679C8.45861 20.7043 8.49171 20.5569 8.46074 20.1267C8.41584 19.5009 8.19723 19.1718 7.65221 18.9094C7.14696 18.6659 6.88035 18.6705 6.35071 18.9315ZM7.36392 19.5308C7.5955 19.6172 7.81701 20.0936 7.74869 20.3584C7.6013 20.9291 6.87348 21.1011 6.48116 20.6578C6.19036 20.3291 6.19442 19.9935 6.49297 19.7033C6.72503 19.4777 7.04931 19.4135 7.36392 19.5308ZM21.0782 22.3561C21.3104 22.5605 21.3032 22.9064 21.0616 23.1412C20.8724 23.3251 20.7391 23.3293 15.1485 23.3293H9.42895L9.94698 22.7709L10.465 22.2125L15.6831 22.2065C20.4082 22.201 20.9179 22.2151 21.0782 22.3561Z" fill="#E78200"/>
</svg>
