<svg width="155" height="40" viewBox="0 0 155 40" fill="none" xmlns="http://www.w3.org/2000/svg">
<path fill-rule="evenodd" clip-rule="evenodd" d="M136.372 12.7589H145.124C145.843 13.5958 152.193 20.694 154.211 23.0272C154.999 23.933 154.831 23.6179 154.831 24.819V33.1084C154.831 34.0339 154.073 34.7919 153.148 34.7919H150.303C150.303 34.7525 150.303 34.7132 150.303 34.6639C150.303 31.2576 147.546 28.501 144.14 28.501C141.265 28.501 138.853 30.4602 138.174 33.1183C138.154 33.197 138.134 33.2857 138.115 33.3644C137.898 34.3686 137.445 34.7722 136.372 34.7722C135.447 34.7722 134.689 34.0142 134.689 33.0888V33.3743H133.842C133.704 34.3095 132.887 35.0381 131.912 35.0381H116.2C116.2 34.979 116.2 34.9199 116.2 34.8608C116.2 31.3954 113.394 28.5896 109.929 28.5896C106.463 28.5896 103.657 31.3954 103.657 34.8608C103.657 34.9199 103.657 34.979 103.657 35.0381H102.368C101.295 35.0381 100.418 34.1619 100.418 33.0888V14.7279C100.418 13.6548 101.295 12.7786 102.368 12.7786H131.912C132.986 12.7786 133.862 13.6548 133.862 14.7279V28.2155H134.679V14.4227C134.679 13.4973 135.437 12.7393 136.362 12.7393L136.372 12.7589Z" fill="#E78200"/>
<path fill-rule="evenodd" clip-rule="evenodd" d="M109.939 29.4263C112.863 29.4263 115.225 31.7989 115.225 34.713C115.225 37.6369 112.853 39.9997 109.939 39.9997C107.015 39.9997 104.652 37.6271 104.652 34.713C104.652 31.7891 107.024 29.4263 109.939 29.4263ZM109.939 32.4487C111.189 32.4487 112.203 33.4627 112.203 34.713C112.203 35.9633 111.189 36.9773 109.939 36.9773C108.688 36.9773 107.674 35.9633 107.674 34.713C107.674 33.4627 108.688 32.4487 109.939 32.4487Z" fill="#444444"/>
<path fill-rule="evenodd" clip-rule="evenodd" d="M144.179 29.2983C147.103 29.2983 149.466 31.671 149.466 34.5851C149.466 37.509 147.093 39.8718 144.179 39.8718C141.255 39.8718 138.892 37.4992 138.892 34.5851C138.892 31.6611 141.265 29.2983 144.179 29.2983ZM144.179 32.3207C145.429 32.3207 146.443 33.3348 146.443 34.5851C146.443 35.8354 145.429 36.8494 144.179 36.8494C142.929 36.8494 141.915 35.8354 141.915 34.5851C141.915 33.3348 142.929 32.3207 144.179 32.3207Z" fill="#444444"/>
<path fill-rule="evenodd" clip-rule="evenodd" d="M106.65 15.4858H109.624V25.1831H106.65V15.4858Z" fill="#FFF4E5"/>
<path fill-rule="evenodd" clip-rule="evenodd" d="M110.598 15.4858H113.374V25.1831H110.598V15.4858Z" fill="#FFF4E5"/>
<path fill-rule="evenodd" clip-rule="evenodd" d="M114.349 15.4858H116.505V25.1831H114.349V15.4858Z" fill="#FFF4E5"/>
<path fill-rule="evenodd" clip-rule="evenodd" d="M117.48 15.4858H124.371L129.658 20.3L124.371 25.1831H117.48V15.4858Z" fill="#FFF4E5"/>
<path fill-rule="evenodd" clip-rule="evenodd" d="M120.502 1.40771H118.139V11.105H120.502V1.40771Z" fill="#444444"/>
<path fill-rule="evenodd" clip-rule="evenodd" d="M117.48 1.40771H115.107V11.105H117.48V1.40771Z" fill="#444444"/>
<path fill-rule="evenodd" clip-rule="evenodd" d="M114.251 1.40771H112.094V11.105H114.251V1.40771Z" fill="#444444"/>
<path fill-rule="evenodd" clip-rule="evenodd" d="M111.238 1.40771H104.347L99.0598 6.22189L104.347 11.105H111.238V1.40771Z" fill="#444444"/>
<path d="M10.0615 9.66773C10.0615 10.1206 9.87447 10.3372 9.49052 10.3372H4.41053C3.3965 10.3372 2.7172 10.2978 2.38248 10.219C0.79744 9.84494 0 8.97859 0 7.61998V0.659611C0 0.216589 0.187054 0 0.571007 0H1.04356C1.42752 0 1.61457 0.216589 1.61457 0.659611V7.61014C1.61457 8.16146 1.98868 8.52572 2.74674 8.68324C3.04209 8.74231 3.5934 8.78169 4.40069 8.78169H9.49052C9.87447 8.78169 10.0615 9.00812 10.0615 9.45114V9.65789V9.66773ZM20.8516 7.81688C20.8516 8.762 20.4381 9.45114 19.621 9.89417C19.0598 10.1895 18.3411 10.347 17.4452 10.347H14.8954C13.2513 10.347 12.1585 9.87447 11.6269 8.91952C11.43 8.57494 11.3414 8.21068 11.3414 7.81688V4.81418C11.3414 4.15456 11.6072 3.57371 12.1388 3.09131C12.7886 2.49077 13.7042 2.19542 14.8954 2.19542H17.4551C19.7293 2.19542 20.8614 3.06178 20.8614 4.79449V7.80704L20.8516 7.81688ZM19.2961 7.81688V4.68619C19.2961 4.04627 18.666 3.72139 17.4059 3.72139H14.9052C14.4524 3.72139 14.0487 3.78046 13.6845 3.91829C13.143 4.11518 12.8673 4.42038 12.8673 4.83387V7.82673C12.8673 8.22052 13.143 8.50603 13.6943 8.68324C14.0487 8.79153 14.4622 8.8506 14.9151 8.8506H17.4157C17.8193 8.8506 18.1934 8.79153 18.5479 8.6537C19.05 8.47649 19.3059 8.19099 19.3059 7.82673L19.2961 7.81688ZM32.3899 10.0714C32.3899 11.0066 31.8779 11.6958 30.8737 12.129C30.1649 12.4342 29.3281 12.5917 28.3731 12.5917H27.7332C27.3492 12.5917 27.1622 12.3751 27.1622 11.9321V11.7549C27.1622 11.3118 27.3492 11.0952 27.7332 11.0952H28.8457C29.1213 11.0952 29.4954 11.0066 29.9877 10.8393C30.539 10.6424 30.8147 10.4652 30.8147 10.288H26.601C25.6165 10.288 24.7994 10.1403 24.1496 9.85478C23.2144 9.43145 22.7418 8.74231 22.7418 7.76766V4.75511C22.7418 3.8986 23.1159 3.24883 23.874 2.78612C24.5041 2.40217 25.272 2.21511 26.1875 2.21511H28.442C29.4167 2.21511 30.2338 2.37263 30.923 2.68767C31.8976 3.13069 32.38 3.81984 32.38 4.7748V10.0911L32.3899 10.0714ZM30.8344 8.79153V4.83387C30.8344 4.42038 30.5488 4.11518 29.968 3.90844C29.5742 3.77061 29.1509 3.7017 28.698 3.7017H26.2761C25.715 3.7017 25.3015 3.74108 25.0554 3.80999C24.5434 3.94782 24.2875 4.24317 24.2875 4.70588V7.73812C24.2875 8.43711 25.0455 8.79153 26.5715 8.79153H30.8442H30.8344ZM36.0719 1.77209C36.0719 2.06744 35.9636 2.29387 35.7568 2.47108C35.5698 2.6286 35.3532 2.70736 35.0972 2.70736C34.8412 2.70736 34.6148 2.6286 34.4179 2.47108C34.1915 2.29387 34.0832 2.06744 34.0832 1.77209C34.0832 1.48659 34.1915 1.25031 34.4179 1.08294C34.605 0.935269 34.8412 0.85651 35.0972 0.85651C35.363 0.85651 35.5796 0.935269 35.7667 1.08294C35.9734 1.25031 36.0817 1.48659 36.0817 1.77209H36.0719ZM35.8553 9.67758C35.8553 10.1206 35.6682 10.347 35.2843 10.347H34.9003C34.5164 10.347 34.3293 10.1206 34.3293 9.67758V3.52449C34.3293 3.08147 34.5164 2.86488 34.9003 2.86488H35.2843C35.6682 2.86488 35.8553 3.08147 35.8553 3.52449V9.67758ZM46.5567 8.02363C46.5567 9.56928 45.5427 10.347 43.5146 10.347H38.3264C37.9522 10.347 37.7553 10.1206 37.7553 9.67758V9.52006C37.7553 9.06719 37.9424 8.8506 38.3264 8.8506H43.5343C44.4991 8.8506 44.9717 8.57494 44.9717 8.03347V7.72828C44.9717 7.23603 44.5287 6.98991 43.6525 6.98991H41.1519C40.187 6.98991 39.4388 6.88161 38.9269 6.65518C38.1196 6.30076 37.7061 5.67069 37.7061 4.74526V4.30224C37.7061 2.90426 38.8088 2.21511 41.014 2.21511H42.1462C42.5301 2.21511 42.7172 2.44155 42.7172 2.88457V3.06178C42.7172 3.5048 42.5301 3.73123 42.1462 3.73123H41.0436C40.4627 3.73123 40.1181 3.74108 40.0098 3.76077C39.4979 3.83953 39.2419 4.01674 39.2419 4.31208V4.73542C39.2419 5.03076 39.4093 5.22766 39.7539 5.33596C40.0295 5.42456 40.4922 5.46394 41.1617 5.46394H43.7115C45.6018 5.46394 46.5567 6.19247 46.5567 7.65936V8.02363ZM48.1614 3.77061C47.7775 3.77061 47.5904 3.54418 47.5904 3.10116V2.93379C47.5904 2.49077 47.7775 2.27418 48.1614 2.27418H48.7029V0.669456C48.7029 0.226434 48.89 0.00984494 49.2641 0.00984494H49.6677C50.0418 0.00984494 50.2289 0.226434 50.2289 0.669456V2.27418H52.6606C53.0445 2.27418 53.2316 2.49077 53.2316 2.93379V3.10116C53.2316 3.55402 53.0445 3.77061 52.6606 3.77061H50.2289V9.67758C50.2289 10.1206 50.0418 10.347 49.6677 10.347H49.2641C48.89 10.347 48.7029 10.1206 48.7029 9.67758V3.77061H48.1614ZM56.4509 1.76224C56.4509 2.05759 56.3426 2.28403 56.1358 2.46124C55.9488 2.61875 55.7322 2.69751 55.4762 2.69751C55.2203 2.69751 54.9938 2.61875 54.7969 2.46124C54.5705 2.28403 54.4622 2.05759 54.4622 1.76224C54.4622 1.47674 54.5705 1.24046 54.7969 1.0731C54.984 0.925424 55.2203 0.846665 55.4762 0.846665C55.7421 0.846665 55.9586 0.925424 56.1457 1.0731C56.3524 1.24046 56.4607 1.47674 56.4607 1.76224H56.4509ZM56.2343 9.66773C56.2343 10.1108 56.0472 10.3372 55.6633 10.3372H55.2793C54.8954 10.3372 54.7083 10.1108 54.7083 9.66773V3.51464C54.7083 3.07162 54.8954 2.85503 55.2793 2.85503H55.6633C56.0472 2.85503 56.2343 3.07162 56.2343 3.51464V9.66773ZM69.1115 7.5806C69.1115 8.68324 68.6291 9.45114 67.6643 9.87447L68.3239 10.3175C68.5109 10.4455 68.6094 10.5932 68.6094 10.7802C68.6094 11.0854 68.4223 11.3414 68.0384 11.5678C67.9793 11.6072 67.9006 11.6269 67.812 11.6269C67.6052 11.6269 67.428 11.5777 67.2803 11.4792L65.4688 10.3077H62.3578C59.552 10.3077 58.1442 9.39207 58.1442 7.5806V2.7172C58.1442 1.33891 58.8137 0.492247 60.1624 0.187054C60.6842 0.0689146 61.4127 0.00984494 62.348 0.00984494H64.9372C65.8823 0.00984494 66.5912 0.0590696 67.0637 0.147674C68.4322 0.413487 69.1115 1.27 69.1115 2.70736V7.5806ZM67.4969 7.63967V2.68767C67.4969 2.16589 67.1425 1.82131 66.4337 1.65395C66.1186 1.57519 65.5968 1.54566 64.8782 1.54566H62.348C61.462 1.54566 60.8319 1.60473 60.4676 1.74255C59.9852 1.91976 59.7489 2.2348 59.7489 2.69751V7.61998C59.7489 8.22052 60.1624 8.58479 60.9992 8.70293C61.3044 8.74231 61.7475 8.762 62.3382 8.762H64.8683C65.7642 8.762 66.4041 8.69308 66.7979 8.54541C67.2606 8.3682 67.4871 8.07285 67.4871 7.63967H67.4969ZM80.7482 7.91533C80.7482 8.82107 80.2953 9.48068 79.3798 9.90401C78.73 10.1994 77.9424 10.347 77.0367 10.347H74.7526C72.2619 10.347 71.0116 9.53975 71.0116 7.91533V2.87472C71.0116 2.4317 71.1986 2.20527 71.5727 2.20527H71.9764C72.3505 2.20527 72.5375 2.4317 72.5375 2.87472V7.91533C72.5375 8.53556 73.2759 8.84076 74.7428 8.84076H77.0268C78.4642 8.84076 79.1927 8.54541 79.1927 7.93502V2.86488C79.1927 2.42186 79.3798 2.19542 79.7637 2.19542H80.1772C80.5611 2.19542 80.7482 2.42186 80.7482 2.86488V7.90549V7.91533ZM92.1683 7.81688C92.1683 8.762 91.7548 9.45114 90.9377 9.89417C90.3765 10.1895 89.6579 10.347 88.762 10.347H86.2121C84.568 10.347 83.4753 9.87447 82.9436 8.91952C82.7467 8.57494 82.6581 8.21068 82.6581 7.81688V4.81418C82.6581 4.15456 82.9239 3.57371 83.4556 3.09131C84.1053 2.49077 85.0209 2.19542 86.2121 2.19542H88.7718C91.046 2.19542 92.1782 3.06178 92.1782 4.79449V7.80704L92.1683 7.81688ZM90.6128 7.81688V4.68619C90.6128 4.04627 89.9827 3.72139 88.7226 3.72139H86.222C85.7691 3.72139 85.3655 3.78046 85.0012 3.91829C84.4597 4.11518 84.1841 4.42038 84.1841 4.83387V7.82673C84.1841 8.22052 84.4597 8.50603 85.0111 8.68324C85.3655 8.79153 85.779 8.8506 86.2318 8.8506H88.7324C89.1361 8.8506 89.5102 8.79153 89.8646 8.6537C90.3667 8.47649 90.6227 8.19099 90.6227 7.82673L90.6128 7.81688ZM94.0881 3.77061C93.7041 3.77061 93.5171 3.54418 93.5171 3.10116V2.93379C93.5171 2.49077 93.7041 2.27418 94.0881 2.27418H94.6296V0.669456C94.6296 0.226434 94.8166 0.00984494 95.1907 0.00984494H95.5944C95.9685 0.00984494 96.1555 0.226434 96.1555 0.669456V2.27418H98.5872C98.9712 2.27418 99.1582 2.49077 99.1582 2.93379V3.10116C99.1582 3.55402 98.9712 3.77061 98.5872 3.77061H96.1555V9.67758C96.1555 10.1206 95.9685 10.347 95.5944 10.347H95.1907C94.8166 10.347 94.6296 10.1206 94.6296 9.67758V3.77061H94.0881ZM110.194 6.4189C110.194 6.91115 110.057 7.15727 109.771 7.15727H102.141C102.141 8.27959 102.801 8.84076 104.13 8.84076H105.272C105.646 8.84076 105.843 9.06719 105.843 9.51021V9.66773C105.843 10.1206 105.656 10.3372 105.272 10.3372H104.287C103.303 10.3372 102.506 10.1895 101.885 9.88432C100.999 9.45114 100.556 8.75215 100.556 7.76766V4.7748C100.556 3.83953 100.999 3.14054 101.875 2.68767C102.515 2.36279 103.303 2.19542 104.228 2.19542H107.093C107.871 2.19542 108.531 2.35294 109.092 2.65813C109.83 3.06178 110.194 3.66232 110.194 4.44991V6.40906V6.4189ZM108.708 5.61162V4.61728C108.708 4.31208 108.412 4.07581 107.822 3.90844C107.408 3.7903 107.014 3.73123 106.631 3.73123H104.396C102.85 3.73123 102.072 4.04627 102.072 4.67635V5.61162H108.698H108.708Z" fill="#E78200"/>
</svg>
