<svg width="34" height="40" viewBox="0 0 34 40" fill="none" xmlns="http://www.w3.org/2000/svg">
<path fill-rule="evenodd" clip-rule="evenodd" d="M14.4501 0.244428C13.6005 0.600289 13.0178 1.09819 12.5418 1.87474C11.9592 2.82551 11.7694 3.80475 11.7694 5.86101V7.67064L10.624 7.73872C8.78279 7.84811 7.65916 8.63766 6.96408 10.3107C6.60097 11.1847 6.59861 11.2108 6.55764 14.7653L6.51641 18.3409L5.28033 18.8444C4.60057 19.1214 3.80641 19.5518 3.51555 19.8009C2.92716 20.3047 2.2783 21.412 2.08195 22.2471C1.78454 23.5127 1.90118 24.1716 3.54134 30.4913C4.41928 33.8737 5.09314 36.6935 5.03895 36.7575C4.88646 36.9372 3.6869 36.8498 3.22051 36.625C2.99078 36.5142 2.54088 36.229 2.22083 35.9911C1.90078 35.7532 1.50599 35.5586 1.34342 35.5586C0.345574 35.5586 -0.317952 36.8272 0.156687 37.8278C0.72505 39.0256 3.35442 40.1955 4.96264 39.966C5.92972 39.828 7.1353 39.3369 7.77579 38.82C8.06442 38.5871 8.5244 38.2147 8.79811 37.9925C9.97672 37.0356 11.5711 37.1167 12.8797 38.2C15.6749 40.5145 18.1287 40.5798 20.8633 38.4128C22.5854 37.048 23.9799 36.9573 25.349 38.1208C26.9536 39.4845 28.703 40.1647 30.0952 39.966C31.6452 39.7448 33.5379 38.6571 33.8694 37.7968C34.2849 36.719 33.6617 35.5586 32.6672 35.5586C32.5047 35.5586 32.1099 35.7514 31.7898 35.987C30.9603 36.5977 30.5833 36.7719 29.8714 36.8737C28.721 37.0382 28.6934 37.3336 30.4663 30.5027C32.1096 24.1712 32.2263 23.5128 31.9287 22.2471C31.732 21.4102 31.083 20.3042 30.4913 19.7976C30.1982 19.5467 29.4041 19.1097 28.7263 18.8268L27.4941 18.312L27.4529 14.7509C27.4156 11.5164 27.3865 11.1253 27.1361 10.4857C26.4446 8.71904 25.2542 7.84099 23.4094 7.73671L22.2656 7.67204L22.2207 5.56286C22.1795 3.62527 22.1461 3.3822 21.8106 2.57455C21.3965 1.57783 20.7615 0.850631 19.8918 0.377025C19.3792 0.0979057 19.004 0.0468471 17.2017 0.0109515C15.464 -0.0237064 14.9954 0.0160571 14.4501 0.244428ZM18.907 3.25177C19.4802 3.56044 19.6233 4.10924 19.6233 5.99887V7.70855H17.0053H14.3874L14.3919 5.96792C14.3991 3.26569 14.5638 3.08065 16.9665 3.07229C17.936 3.06904 18.6986 3.13944 18.907 3.25177ZM24.143 10.9879C24.7671 11.324 24.8593 11.7889 24.8593 14.6025C24.8593 16.9939 24.8428 17.1722 24.6302 17.0747C24.5041 17.017 23.1052 16.4044 21.5213 15.7136L18.6416 14.4575L17.0053 14.4563L15.3691 14.4549L12.3114 15.8008C10.6298 16.541 9.23086 17.1466 9.20258 17.1466C9.17444 17.1466 9.1535 15.9805 9.15598 14.555C9.16096 11.7861 9.23282 11.4038 9.8203 11.019C10.2527 10.7357 23.621 10.7068 24.143 10.9879ZM15.6963 27.0489C15.6963 33.4448 15.6528 36.4869 15.561 36.4869C15.4865 36.4869 15.0006 36.145 14.4811 35.7273C13.4547 34.9017 12.3737 34.4065 11.2458 34.2456C10.3908 34.1237 8.91866 34.4486 8.10604 34.9386C7.80314 35.1214 7.54017 35.2485 7.52184 35.2213C7.40482 35.0479 4.56811 23.8084 4.56889 23.5212C4.5706 22.9215 4.93515 22.2843 5.38675 22.0911C6.10748 21.783 15.6288 17.6493 15.6636 17.6295C15.6816 17.6191 15.6963 21.8579 15.6963 27.0489ZM28.4945 22.0325C29.08 22.2922 29.4399 22.8582 29.4416 23.5212C29.4423 23.806 26.6058 35.0412 26.4879 35.2213C26.47 35.2485 26.2075 35.1214 25.9046 34.9386C25.092 34.4486 23.6199 34.1237 22.7649 34.2456C21.6369 34.4065 20.556 34.9017 19.5296 35.7273C19.01 36.145 18.5242 36.4869 18.4497 36.4869C18.3579 36.4869 18.3143 33.4521 18.3143 27.0722V17.6574L23.1249 19.7209C25.7706 20.8558 28.187 21.896 28.4945 22.0325Z" fill="#444444"/>
</svg>
