<svg width="231" height="96" viewBox="0 0 231 96" fill="none" xmlns="http://www.w3.org/2000/svg">
<g filter="url(#filter0_d)">
<g filter="url(#filter1_d)">
<path d="M24.0345 27.9477C24.3053 26.5342 25.5417 25.5122 26.9809 25.5122H186.206C187.461 25.5122 188.406 26.6552 188.17 27.8882L182.383 58.118C182.112 59.5317 180.876 60.5539 179.436 60.5539H20.2067C18.9512 60.5539 18.0062 59.4106 18.2424 58.1775L24.0345 27.9477Z" fill="white"/>
</g>
<path d="M30.4719 37.433C30.5636 36.9636 30.975 36.6249 31.4533 36.6249H71.2532C71.8849 36.6249 72.3583 37.2033 72.2335 37.8225L70.0765 48.5215C69.9824 48.9882 69.5723 49.3238 69.0962 49.3238H29.3619C28.7326 49.3238 28.2597 48.7496 28.3804 48.132L30.4719 37.433Z" fill="#09B44D"/>
<path fill-rule="evenodd" clip-rule="evenodd" d="M173.603 47.0595L89.7246 47.0595L89.7246 46.4759L173.603 46.4759L173.603 47.0595Z" fill="#E2E6EA"/>
<path fill-rule="evenodd" clip-rule="evenodd" d="M175.355 45.389C174.549 45.389 173.896 46.0422 173.896 46.8479C173.896 47.6537 174.549 48.3068 175.355 48.3068C176.161 48.3068 176.814 47.6537 176.814 46.8479C176.814 46.0422 176.161 45.389 175.355 45.389ZM173.312 46.8479C173.312 45.7199 174.227 44.8054 175.355 44.8054C176.483 44.8054 177.398 45.7199 177.398 46.8479C177.398 47.976 176.483 48.8904 175.355 48.8904C174.227 48.8904 173.312 47.976 173.312 46.8479Z" fill="#E2E6EA"/>
<path d="M175.354 47.4329C175.676 47.4329 175.938 47.1713 175.938 46.8487C175.938 46.526 175.676 46.2645 175.354 46.2645C175.031 46.2645 174.77 46.526 174.77 46.8487C174.77 47.1713 175.031 47.4329 175.354 47.4329Z" fill="#E2E6EA"/>
<path fill-rule="evenodd" clip-rule="evenodd" d="M175.938 46.8487C175.938 47.1713 175.676 47.4329 175.354 47.4329C175.031 47.4329 174.77 47.1713 174.77 46.8487C174.77 46.526 175.031 46.2645 175.354 46.2645C175.676 46.2645 175.938 46.526 175.938 46.8487Z" fill="#E2E6EA"/>
<path fill-rule="evenodd" clip-rule="evenodd" d="M124.372 47.0595H84.751V46.4759H124.372V47.0595Z" fill="#0088FF"/>
<path fill-rule="evenodd" clip-rule="evenodd" d="M83.0015 45.1694C82.1957 45.1694 81.5426 45.8226 81.5426 46.6284C81.5426 47.4341 82.1957 48.0873 83.0015 48.0873C83.8073 48.0873 84.4604 47.4341 84.4604 46.6284C84.4604 45.8226 83.8073 45.1694 83.0015 45.1694ZM80.959 46.6284C80.959 45.5003 81.8734 44.5858 83.0015 44.5858C84.1296 44.5858 85.044 45.5003 85.044 46.6284C85.044 47.7564 84.1296 48.6709 83.0015 48.6709C81.8734 48.6709 80.959 47.7564 80.959 46.6284Z" fill="#0088FF"/>
<path d="M83.0032 47.2133C83.3258 47.2133 83.5874 46.9518 83.5874 46.6291C83.5874 46.3065 83.3258 46.0449 83.0032 46.0449C82.6805 46.0449 82.4189 46.3065 82.4189 46.6291C82.4189 46.9518 82.6805 47.2133 83.0032 47.2133Z" fill="#0088FF"/>
<path fill-rule="evenodd" clip-rule="evenodd" d="M83.5874 46.6291C83.5874 46.9518 83.3258 47.2133 83.0032 47.2133C82.6805 47.2133 82.4189 46.9518 82.4189 46.6291C82.4189 46.3065 82.6805 46.0449 83.0032 46.0449C83.3258 46.0449 83.5874 46.3065 83.5874 46.6291Z" fill="#0088FF"/>
<g filter="url(#filter2_d)">
<path d="M128.02 46.7675C128.02 48.7819 126.387 50.4149 124.373 50.4149C122.359 50.4149 120.726 48.7819 120.726 46.7675C120.726 44.7532 122.359 43.1202 124.373 43.1202C126.387 43.1202 128.02 44.7532 128.02 46.7675Z" fill="#0088FF"/>
</g>
<path d="M126.542 46.6325C126.535 46.6185 126.525 46.6068 126.512 46.5988C126.5 46.5909 126.486 46.5868 126.472 46.587H124.224L124.053 45.7004C124.05 45.6787 124.039 45.6592 124.025 45.6453C124.01 45.6315 123.991 45.6241 123.972 45.6245H123.709L123.667 45.3209C123.664 45.2978 123.654 45.2768 123.639 45.2618C123.623 45.2467 123.604 45.2386 123.583 45.2389H123.287C123.267 45.2391 123.248 45.247 123.233 45.2613C123.217 45.2757 123.207 45.2956 123.203 45.3178L123.155 45.6215H122.93C122.911 45.6209 122.892 45.6279 122.878 45.6411C122.863 45.6544 122.852 45.6732 122.848 45.6943L122.651 46.584H122.46C122.446 46.5837 122.432 46.5874 122.419 46.5949C122.407 46.6023 122.397 46.6131 122.389 46.6265C122.383 46.6402 122.38 46.6552 122.38 46.6705C122.38 46.6858 122.383 46.7008 122.389 46.7145L122.785 47.929C122.792 47.948 122.803 47.9642 122.817 47.9756C122.832 47.9869 122.849 47.993 122.867 47.9928H125.991C126.007 47.9931 126.023 47.9877 126.037 47.9774C126.05 47.9671 126.061 47.9524 126.067 47.9351L126.548 46.7206C126.554 46.7067 126.556 46.6912 126.555 46.6758C126.554 46.6603 126.55 46.6454 126.542 46.6325Z" fill="white"/>
<path d="M36.5517 33.2718L36.5471 31.1055L35.4733 32.8983H35.2025L34.1287 31.1336V33.2718H33.5498V30.0037H34.0493L35.3472 32.17L36.6217 30.0037H37.1213L37.126 33.2718H36.5517Z" fill="#15354E"/>
<path d="M39.0218 33.3185C38.7697 33.3185 38.5253 33.2827 38.2888 33.2111C38.0554 33.1395 37.8702 33.0446 37.7332 32.9263L37.9433 32.4548C38.0772 32.5606 38.2406 32.6477 38.4335 32.7162C38.6296 32.7816 38.8257 32.8142 39.0218 32.8142C39.2645 32.8142 39.4451 32.7753 39.5633 32.6975C39.6847 32.6197 39.7454 32.517 39.7454 32.3894C39.7454 32.296 39.7112 32.2198 39.6427 32.1606C39.5773 32.0984 39.4933 32.0502 39.3906 32.0159C39.2879 31.9817 39.1478 31.9428 38.9704 31.8992C38.7214 31.8401 38.5191 31.7809 38.3635 31.7218C38.211 31.6627 38.0787 31.5708 37.9667 31.4463C37.8577 31.3187 37.8033 31.1476 37.8033 30.9328C37.8033 30.7523 37.8515 30.5889 37.948 30.4426C38.0476 30.2932 38.1954 30.1749 38.3915 30.0878C38.5907 30.0006 38.8335 29.9571 39.1198 29.9571C39.319 29.9571 39.5151 29.982 39.7081 30.0318C39.901 30.0816 40.0675 30.1531 40.2076 30.2465L40.0162 30.718C39.873 30.634 39.7236 30.5702 39.568 30.5266C39.4124 30.4831 39.2614 30.4613 39.1152 30.4613C38.8755 30.4613 38.6965 30.5017 38.5783 30.5827C38.4631 30.6636 38.4055 30.771 38.4055 30.9048C38.4055 30.9982 38.4382 31.0744 38.5036 31.1336C38.572 31.1927 38.6576 31.2394 38.7603 31.2736C38.863 31.3078 39.0031 31.3468 39.1805 31.3903C39.4233 31.4463 39.6225 31.5055 39.7781 31.5677C39.9337 31.6269 40.066 31.7187 40.1749 31.8432C40.287 31.9677 40.343 32.1357 40.343 32.3474C40.343 32.5279 40.2932 32.6913 40.1936 32.8376C40.0971 32.9839 39.9493 33.1006 39.7501 33.1877C39.5509 33.2749 39.3081 33.3185 39.0218 33.3185Z" fill="#15354E"/>
<path d="M42.4574 33.3185C42.1275 33.3185 41.8287 33.2469 41.5611 33.1037C41.2965 32.9574 41.088 32.7567 40.9355 32.5015C40.7861 32.2462 40.7114 31.9583 40.7114 31.6378C40.7114 31.3172 40.7876 31.0293 40.9401 30.7741C41.0926 30.5189 41.3012 30.3197 41.5657 30.1765C41.8334 30.0302 42.1322 29.9571 42.4621 29.9571C42.7298 29.9571 42.9741 30.0037 43.1951 30.0971C43.4161 30.1905 43.6028 30.3259 43.7553 30.5033L43.3631 30.8721C43.1266 30.6169 42.8356 30.4893 42.4901 30.4893C42.266 30.4893 42.0653 30.5391 41.8879 30.6387C41.7105 30.7352 41.572 30.8706 41.4724 31.0448C41.3728 31.2191 41.323 31.4168 41.323 31.6378C41.323 31.8587 41.3728 32.0564 41.4724 32.2307C41.572 32.405 41.7105 32.5419 41.8879 32.6415C42.0653 32.738 42.266 32.7862 42.4901 32.7862C42.8356 32.7862 43.1266 32.6571 43.3631 32.3987L43.7553 32.7722C43.6028 32.9496 43.4145 33.085 43.1904 33.1784C42.9694 33.2718 42.7251 33.3185 42.4574 33.3185Z" fill="#15354E"/>
<path d="M45.7193 33.3185C45.268 33.3185 44.9163 33.1924 44.6642 32.9403C44.4121 32.6851 44.286 32.3209 44.286 31.8478V30.0037H44.893V31.8245C44.893 32.4657 45.17 32.7862 45.724 32.7862C46.2749 32.7862 46.5503 32.4657 46.5503 31.8245V30.0037H47.1479V31.8478C47.1479 32.3209 47.0218 32.6851 46.7697 32.9403C46.5207 33.1924 46.1706 33.3185 45.7193 33.3185Z" fill="#15354E"/>
<path d="M48.8942 30.0037V33.2718H48.2873V30.5126H47.5964V30.0037H48.8942Z" fill="#15354E"/>
<path d="M50.6723 30.0037V33.2718H50.0654V30.5126H49.3745V30.0037H50.6723Z" fill="#15354E"/>
<path d="M53.6876 32.7582V33.2718H51.2786V32.8656L52.5765 31.6331C52.7227 31.493 52.8208 31.3716 52.8706 31.2689C52.9235 31.1631 52.9499 31.0589 52.9499 30.9561C52.9499 30.8036 52.8986 30.6869 52.7959 30.606C52.6932 30.5251 52.5422 30.4846 52.343 30.4846C52.01 30.4846 51.7548 30.5982 51.5774 30.8254L51.1525 30.4986C51.2801 30.3274 51.4513 30.1952 51.6661 30.1018C51.8839 30.0053 52.1267 29.9571 52.3944 29.9571C52.7492 29.9571 53.0324 30.0411 53.2441 30.2092C53.4557 30.3772 53.5615 30.606 53.5615 30.8955C53.5615 31.0729 53.5242 31.2394 53.4495 31.395C53.3748 31.5506 53.2316 31.728 53.02 31.9272L52.1469 32.7582H53.6876Z" fill="#15354E"/>
<path d="M55.4291 31.353C55.731 31.3903 55.9613 31.493 56.1201 31.6611C56.2788 31.8292 56.3582 32.0393 56.3582 32.2914C56.3582 32.4812 56.3099 32.654 56.2135 32.8096C56.117 32.9652 55.9707 33.0897 55.7746 33.1831C55.5816 33.2733 55.3451 33.3185 55.065 33.3185C54.8315 33.3185 54.6059 33.2858 54.388 33.2204C54.1733 33.1519 53.9896 33.0586 53.8371 32.9403L54.0986 32.4688C54.2168 32.5684 54.36 32.6477 54.5281 32.7069C54.6993 32.7629 54.8751 32.7909 55.0556 32.7909C55.2704 32.7909 55.4385 32.7473 55.5598 32.6602C55.6843 32.5699 55.7466 32.4485 55.7466 32.296C55.7466 32.1435 55.6875 32.0253 55.5692 31.9412C55.454 31.8541 55.2766 31.8105 55.037 31.8105H54.7382V31.395L55.4805 30.5126H53.9959V30.0037H56.2228V30.4099L55.4291 31.353Z" fill="#15354E"/>
<path d="M58.2398 31.2549C58.4545 31.2549 58.6475 31.297 58.8187 31.381C58.9899 31.4619 59.1237 31.5786 59.2202 31.7311C59.3167 31.8836 59.3649 32.0595 59.3649 32.2587C59.3649 32.4703 59.312 32.6571 59.2062 32.8189C59.1004 32.9777 58.9572 33.1006 58.7767 33.1877C58.5961 33.2749 58.3938 33.3185 58.1697 33.3185C57.7216 33.3185 57.373 33.1784 57.124 32.8983C56.8781 32.6182 56.7552 32.2167 56.7552 31.6938C56.7552 31.3265 56.8221 31.0137 56.9559 30.7554C57.0897 30.494 57.2765 30.2963 57.5161 30.1625C57.7589 30.0255 58.039 29.9571 58.3565 29.9571C58.5246 29.9571 58.6817 29.9757 58.828 30.0131C58.9774 30.0473 59.1066 30.0987 59.2155 30.1671L58.9914 30.6247C58.8296 30.5189 58.6226 30.4659 58.3705 30.4659C58.0561 30.4659 57.8103 30.5624 57.6329 30.7554C57.4554 30.9484 57.3667 31.2269 57.3667 31.5911V31.5957C57.4632 31.4837 57.5862 31.3997 57.7356 31.3436C57.885 31.2845 58.053 31.2549 58.2398 31.2549ZM58.1371 32.8423C58.3269 32.8423 58.481 32.7925 58.5993 32.6929C58.7175 32.5902 58.7767 32.4548 58.7767 32.2867C58.7767 32.1155 58.7175 31.9801 58.5993 31.8805C58.481 31.7809 58.3223 31.7311 58.1231 31.7311C57.927 31.7311 57.7667 31.784 57.6422 31.8899C57.5208 31.9957 57.4601 32.1295 57.4601 32.2914C57.4601 32.4501 57.5193 32.5824 57.6375 32.6882C57.7589 32.7909 57.9254 32.8423 58.1371 32.8423Z" fill="#15354E"/>
<path d="M60.7046 31.2689C61.1652 31.2689 61.506 31.3592 61.727 31.5397C61.948 31.7171 62.0585 31.9599 62.0585 32.268C62.0585 32.4641 62.0102 32.6415 61.9137 32.8002C61.8173 32.959 61.6725 33.085 61.4796 33.1784C61.2866 33.2718 61.0485 33.3185 60.7653 33.3185C60.5318 33.3185 60.3062 33.2858 60.0883 33.2204C59.8705 33.1519 59.6868 33.0586 59.5374 32.9403L59.7942 32.4688C59.9156 32.5684 60.0603 32.6477 60.2284 32.7069C60.3996 32.7629 60.5754 32.7909 60.7559 32.7909C60.9707 32.7909 61.1388 32.7473 61.2601 32.6602C61.3846 32.5699 61.4469 32.447 61.4469 32.2914C61.4469 32.1233 61.38 31.9972 61.2461 31.9132C61.1154 31.8261 60.8898 31.7825 60.5692 31.7825H59.7802L59.9483 30.0037H61.8671V30.5126H60.4618L60.3918 31.2689H60.7046Z" fill="#15354E"/>
<path d="M64.8143 30.0037V30.4099L63.5444 33.2718H62.8955L64.1233 30.5173H62.8395V31.0729H62.2746V30.0037H64.8143Z" fill="#15354E"/>
<path d="M160.28 39.0575V39.2816H158.561V39.103L159.58 38.1051C159.708 37.979 159.795 37.8705 159.839 37.7795C159.886 37.6861 159.909 37.5927 159.909 37.4993C159.909 37.3546 159.859 37.2426 159.758 37.1632C159.66 37.0815 159.519 37.0407 159.335 37.0407C159.048 37.0407 158.825 37.1317 158.666 37.3138L158.487 37.1597C158.583 37.0477 158.704 36.9613 158.851 36.9006C159.001 36.8399 159.169 36.8096 159.356 36.8096C159.605 36.8096 159.803 36.8691 159.947 36.9881C160.094 37.1048 160.168 37.2659 160.168 37.4713C160.168 37.5974 160.14 37.7188 160.084 37.8355C160.028 37.9522 159.922 38.0864 159.765 38.2381L158.932 39.0575H160.28Z" fill="#15354E"/>
<path d="M161.36 36.8096C161.684 36.8096 161.933 36.9169 162.106 37.1317C162.278 37.3441 162.365 37.6452 162.365 38.0351C162.365 38.3082 162.318 38.5393 162.225 38.7284C162.131 38.9174 162.001 39.061 161.832 39.159C161.664 39.2547 161.468 39.3026 161.244 39.3026C161.001 39.3026 160.808 39.2582 160.663 39.1695L160.765 38.9665C160.881 39.0435 161.04 39.082 161.241 39.082C161.511 39.082 161.724 38.9968 161.878 38.8264C162.032 38.6537 162.109 38.4039 162.109 38.0771C162.109 38.0164 162.106 37.9499 162.099 37.8775C162.038 38.0106 161.941 38.1144 161.808 38.1891C161.675 38.2615 161.522 38.2977 161.349 38.2977C161.188 38.2977 161.045 38.2673 160.919 38.2066C160.795 38.1459 160.698 38.0607 160.628 37.951C160.558 37.839 160.523 37.7094 160.523 37.5624C160.523 37.413 160.559 37.2811 160.631 37.1667C160.704 37.0523 160.803 36.9648 160.929 36.9041C161.057 36.8411 161.201 36.8096 161.36 36.8096ZM161.388 38.0841C161.511 38.0841 161.62 38.0607 161.713 38.0141C161.809 37.9674 161.884 37.9032 161.937 37.8215C161.991 37.7398 162.018 37.6487 162.018 37.5484C162.018 37.455 161.992 37.3686 161.941 37.2893C161.892 37.2099 161.818 37.1457 161.72 37.0967C161.622 37.0477 161.506 37.0231 161.37 37.0231C161.193 37.0231 161.048 37.0722 160.936 37.1702C160.826 37.2659 160.772 37.3943 160.772 37.5554C160.772 37.7164 160.826 37.8448 160.936 37.9405C161.048 38.0362 161.199 38.0841 161.388 38.0841Z" fill="#15354E"/>
<path d="M164.539 39.3026C164.357 39.3026 164.182 39.2734 164.014 39.2151C163.848 39.1567 163.72 39.0797 163.629 38.984L163.731 38.7844C163.819 38.8731 163.937 38.9454 164.084 39.0015C164.231 39.0552 164.383 39.082 164.539 39.082C164.759 39.082 164.923 39.0423 165.033 38.9629C165.143 38.8812 165.198 38.7762 165.198 38.6478C165.198 38.5498 165.167 38.4716 165.107 38.4132C165.048 38.3549 164.976 38.3105 164.89 38.2802C164.803 38.2475 164.683 38.2125 164.529 38.1751C164.344 38.1284 164.197 38.0841 164.088 38.0421C163.978 37.9977 163.883 37.9312 163.804 37.8425C163.727 37.7538 163.689 37.6336 163.689 37.4818C163.689 37.3581 163.721 37.2461 163.787 37.1457C163.852 37.043 163.952 36.9613 164.088 36.9006C164.223 36.8399 164.391 36.8096 164.592 36.8096C164.732 36.8096 164.869 36.8294 165.002 36.8691C165.137 36.9064 165.254 36.959 165.352 37.0266L165.264 37.2332C165.161 37.1655 165.052 37.1153 164.935 37.0827C164.818 37.0477 164.704 37.0301 164.592 37.0301C164.377 37.0301 164.215 37.0722 164.105 37.1562C163.998 37.2379 163.944 37.3441 163.944 37.4748C163.944 37.5729 163.973 37.6522 164.032 37.7129C164.092 37.7713 164.167 37.8168 164.256 37.8495C164.347 37.8798 164.468 37.9137 164.62 37.951C164.8 37.9954 164.944 38.0397 165.054 38.0841C165.166 38.1261 165.261 38.1915 165.338 38.2802C165.415 38.3665 165.453 38.4844 165.453 38.6338C165.453 38.7575 165.419 38.8707 165.352 38.9735C165.286 39.0738 165.185 39.1544 165.047 39.2151C164.909 39.2734 164.74 39.3026 164.539 39.3026Z" fill="#15354E"/>
<path d="M167.569 38.4377H166.028C166.042 38.6291 166.116 38.7844 166.249 38.9034C166.382 39.0201 166.55 39.0785 166.753 39.0785C166.868 39.0785 166.973 39.0587 167.068 39.019C167.164 38.977 167.247 38.9163 167.317 38.8369L167.457 38.998C167.375 39.096 167.273 39.1707 167.149 39.2221C167.027 39.2734 166.893 39.2991 166.746 39.2991C166.557 39.2991 166.389 39.2594 166.242 39.18C166.097 39.0983 165.984 38.9863 165.902 38.8439C165.821 38.7015 165.78 38.5404 165.78 38.3607C165.78 38.181 165.818 38.0199 165.895 37.8775C165.975 37.7351 166.082 37.6242 166.217 37.5449C166.355 37.4655 166.509 37.4258 166.68 37.4258C166.85 37.4258 167.003 37.4655 167.138 37.5449C167.274 37.6242 167.38 37.7351 167.457 37.8775C167.534 38.0176 167.572 38.1786 167.572 38.3607L167.569 38.4377ZM166.68 37.6394C166.502 37.6394 166.353 37.6966 166.231 37.811C166.112 37.923 166.045 38.0701 166.028 38.2522H167.334C167.318 38.0701 167.249 37.923 167.128 37.811C167.009 37.6966 166.859 37.6394 166.68 37.6394Z" fill="#15354E"/>
<path d="M169.027 37.4258C169.2 37.4258 169.357 37.4655 169.497 37.5449C169.637 37.6219 169.746 37.7316 169.826 37.874C169.905 38.0164 169.945 38.1786 169.945 38.3607C169.945 38.5451 169.905 38.7085 169.826 38.8509C169.746 38.9933 169.637 39.1042 169.497 39.1835C169.359 39.2606 169.202 39.2991 169.027 39.2991C168.878 39.2991 168.743 39.2687 168.621 39.2081C168.502 39.145 168.404 39.054 168.327 38.9349V39.9609H168.079V37.4398H168.317V37.804C168.391 37.6826 168.489 37.5892 168.611 37.5239C168.734 37.4585 168.873 37.4258 169.027 37.4258ZM169.01 39.0785C169.138 39.0785 169.255 39.0493 169.36 38.991C169.465 38.9303 169.547 38.8451 169.605 38.7354C169.666 38.6256 169.696 38.5008 169.696 38.3607C169.696 38.2206 169.666 38.0969 169.605 37.9895C169.547 37.8798 169.465 37.7946 169.36 37.7339C169.255 37.6732 169.138 37.6429 169.01 37.6429C168.879 37.6429 168.761 37.6732 168.656 37.7339C168.554 37.7946 168.472 37.8798 168.411 37.9895C168.353 38.0969 168.324 38.2206 168.324 38.3607C168.324 38.5008 168.353 38.6256 168.411 38.7354C168.472 38.8451 168.554 38.9303 168.656 38.991C168.761 39.0493 168.879 39.0785 169.01 39.0785Z" fill="#15354E"/>
<path d="M172.877 39.0575V39.2816H171.158V39.103L172.177 38.1051C172.305 37.979 172.392 37.8705 172.436 37.7795C172.483 37.6861 172.506 37.5927 172.506 37.4993C172.506 37.3546 172.456 37.2426 172.355 37.1632C172.257 37.0815 172.116 37.0407 171.932 37.0407C171.645 37.0407 171.422 37.1317 171.263 37.3138L171.084 37.1597C171.18 37.0477 171.301 36.9613 171.448 36.9006C171.598 36.8399 171.766 36.8096 171.953 36.8096C172.202 36.8096 172.4 36.8691 172.544 36.9881C172.692 37.1048 172.765 37.2659 172.765 37.4713C172.765 37.5974 172.737 37.7188 172.681 37.8355C172.625 37.9522 172.519 38.0864 172.362 38.2381L171.529 39.0575H172.877Z" fill="#15354E"/>
<path d="M174.157 39.3026C173.968 39.3026 173.798 39.2524 173.649 39.152C173.502 39.0517 173.386 38.9081 173.302 38.7213C173.221 38.5323 173.18 38.3105 173.18 38.0561C173.18 37.8016 173.221 37.581 173.302 37.3943C173.386 37.2052 173.502 37.0605 173.649 36.9601C173.798 36.8597 173.968 36.8096 174.157 36.8096C174.346 36.8096 174.514 36.8597 174.661 36.9601C174.81 37.0605 174.927 37.2052 175.011 37.3943C175.095 37.581 175.137 37.8016 175.137 38.0561C175.137 38.3105 175.095 38.5323 175.011 38.7213C174.927 38.9081 174.81 39.0517 174.661 39.152C174.514 39.2524 174.346 39.3026 174.157 39.3026ZM174.157 39.0715C174.299 39.0715 174.424 39.0318 174.531 38.9524C174.641 38.8731 174.726 38.7575 174.787 38.6058C174.848 38.4541 174.878 38.2708 174.878 38.0561C174.878 37.8413 174.848 37.6581 174.787 37.5063C174.726 37.3546 174.641 37.2391 174.531 37.1597C174.424 37.0803 174.299 37.0407 174.157 37.0407C174.014 37.0407 173.888 37.0803 173.779 37.1597C173.671 37.2391 173.587 37.3546 173.526 37.5063C173.466 37.6581 173.435 37.8413 173.435 38.0561C173.435 38.2708 173.466 38.4541 173.526 38.6058C173.587 38.7575 173.671 38.8731 173.779 38.9524C173.888 39.0318 174.014 39.0715 174.157 39.0715Z" fill="#15354E"/>
<path d="M176.171 36.8306V39.2816H175.918V37.0547H175.341V36.8306H176.171Z" fill="#15354E"/>
<path d="M177.52 36.8096C177.844 36.8096 178.093 36.9169 178.266 37.1317C178.438 37.3441 178.525 37.6452 178.525 38.0351C178.525 38.3082 178.478 38.5393 178.385 38.7284C178.291 38.9174 178.161 39.061 177.992 39.159C177.824 39.2547 177.628 39.3026 177.404 39.3026C177.161 39.3026 176.968 39.2582 176.823 39.1695L176.925 38.9665C177.041 39.0435 177.2 39.082 177.401 39.082C177.672 39.082 177.884 38.9968 178.038 38.8264C178.192 38.6537 178.269 38.4039 178.269 38.0771C178.269 38.0164 178.266 37.9499 178.259 37.8775C178.198 38.0106 178.101 38.1144 177.968 38.1891C177.835 38.2615 177.682 38.2977 177.509 38.2977C177.348 38.2977 177.205 38.2673 177.079 38.2066C176.955 38.1459 176.858 38.0607 176.788 37.951C176.718 37.839 176.683 37.7094 176.683 37.5624C176.683 37.413 176.719 37.2811 176.791 37.1667C176.864 37.0523 176.963 36.9648 177.089 36.9041C177.217 36.8411 177.361 36.8096 177.52 36.8096ZM177.548 38.0841C177.672 38.0841 177.78 38.0607 177.873 38.0141C177.969 37.9674 178.044 37.9032 178.098 37.8215C178.151 37.7398 178.178 37.6487 178.178 37.5484C178.178 37.455 178.152 37.3686 178.101 37.2893C178.052 37.2099 177.978 37.1457 177.88 37.0967C177.782 37.0477 177.666 37.0231 177.53 37.0231C177.353 37.0231 177.208 37.0722 177.096 37.1702C176.986 37.2659 176.932 37.3943 176.932 37.5554C176.932 37.7164 176.986 37.8448 177.096 37.9405C177.208 38.0362 177.359 38.0841 177.548 38.0841Z" fill="#15354E"/>
<path d="M125.166 37.7795C125.512 37.7795 125.767 37.8472 125.933 37.9826C126.099 38.1157 126.182 38.2978 126.182 38.5289C126.182 38.6759 126.146 38.809 126.073 38.928C126.001 39.0471 125.892 39.1416 125.748 39.2116C125.603 39.2817 125.424 39.3167 125.212 39.3167C125.037 39.3167 124.868 39.2922 124.704 39.2432C124.541 39.1918 124.403 39.1218 124.291 39.0331L124.484 38.6794C124.575 38.7541 124.683 38.8136 124.809 38.858C124.938 38.9 125.07 38.921 125.205 38.921C125.366 38.921 125.492 38.8883 125.583 38.823C125.676 38.7553 125.723 38.6631 125.723 38.5464C125.723 38.4203 125.673 38.3258 125.573 38.2628C125.475 38.1974 125.305 38.1647 125.065 38.1647H124.473L124.599 36.8307H126.038V37.2123H124.984L124.932 37.7795H125.166Z" fill="#9FB1C1"/>
<path d="M127.292 36.8307V39.2817H126.837V37.2123H126.318V36.8307H127.292Z" fill="#9FB1C1"/>
<path d="M130.71 36.6836V39.2817H130.29V39.0401C130.217 39.1288 130.128 39.1953 130.02 39.2397C129.915 39.284 129.798 39.3062 129.67 39.3062C129.49 39.3062 129.328 39.2665 129.183 39.1871C129.041 39.1078 128.929 38.9957 128.847 38.851C128.765 38.7039 128.725 38.5359 128.725 38.3468C128.725 38.1577 128.765 37.9908 128.847 37.8461C128.929 37.7014 129.041 37.5893 129.183 37.5099C129.328 37.4306 129.49 37.3909 129.67 37.3909C129.794 37.3909 129.907 37.4119 130.01 37.4539C130.112 37.4959 130.2 37.559 130.272 37.643V36.6836H130.71ZM129.723 38.9315C129.828 38.9315 129.922 38.9082 130.006 38.8615C130.09 38.8125 130.157 38.7436 130.206 38.6549C130.255 38.5662 130.279 38.4635 130.279 38.3468C130.279 38.2301 130.255 38.1274 130.206 38.0387C130.157 37.95 130.09 37.8823 130.006 37.8356C129.922 37.7866 129.828 37.762 129.723 37.762C129.617 37.762 129.523 37.7866 129.439 37.8356C129.355 37.8823 129.288 37.95 129.239 38.0387C129.19 38.1274 129.166 38.2301 129.166 38.3468C129.166 38.4635 129.19 38.5662 129.239 38.6549C129.288 38.7436 129.355 38.8125 129.439 38.8615C129.523 38.9082 129.617 38.9315 129.723 38.9315Z" fill="#9FB1C1"/>
<path d="M131.997 37.3909C132.272 37.3909 132.482 37.4574 132.627 37.5905C132.774 37.7212 132.848 37.9196 132.848 38.1857V39.2817H132.434V39.0541C132.381 39.1358 132.304 39.1988 132.203 39.2432C132.105 39.2852 131.986 39.3062 131.846 39.3062C131.706 39.3062 131.584 39.2828 131.479 39.2362C131.374 39.1871 131.292 39.1206 131.233 39.0366C131.177 38.9502 131.149 38.8533 131.149 38.746C131.149 38.5779 131.211 38.4437 131.335 38.3433C131.461 38.2406 131.658 38.1892 131.927 38.1892H132.41V38.1612C132.41 38.0305 132.37 37.9301 132.291 37.8601C132.214 37.7901 132.098 37.755 131.944 37.755C131.839 37.755 131.735 37.7714 131.633 37.8041C131.532 37.8367 131.447 37.8823 131.377 37.9406L131.205 37.622C131.304 37.5473 131.421 37.4901 131.559 37.4504C131.697 37.4107 131.843 37.3909 131.997 37.3909ZM131.937 38.9876C132.047 38.9876 132.144 38.963 132.228 38.914C132.314 38.8627 132.375 38.7903 132.41 38.6969V38.4798H131.958C131.706 38.4798 131.58 38.5627 131.58 38.7284C131.58 38.8078 131.612 38.8708 131.675 38.9175C131.738 38.9642 131.825 38.9876 131.937 38.9876Z" fill="#9FB1C1"/>
<path d="M135.126 37.4119L134.251 39.4322C134.169 39.6353 134.07 39.7777 133.953 39.8594C133.836 39.9434 133.695 39.9855 133.529 39.9855C133.436 39.9855 133.344 39.9703 133.253 39.9399C133.162 39.9096 133.087 39.8676 133.029 39.8139L133.204 39.4918C133.246 39.5314 133.295 39.563 133.351 39.5863C133.409 39.6096 133.467 39.6213 133.526 39.6213C133.603 39.6213 133.666 39.6015 133.715 39.5618C133.766 39.5221 133.813 39.4556 133.855 39.3622L133.886 39.2887L133.071 37.4119H133.526L134.114 38.795L134.706 37.4119H135.126Z" fill="#9FB1C1"/>
<path d="M135.953 39.3062C135.802 39.3062 135.653 39.2863 135.509 39.2467C135.364 39.207 135.248 39.1568 135.162 39.0961L135.33 38.7635C135.414 38.8195 135.514 38.865 135.631 38.9C135.75 38.9327 135.867 38.949 135.981 38.949C136.243 38.949 136.373 38.8802 136.373 38.7424C136.373 38.6771 136.34 38.6316 136.272 38.6059C136.207 38.5802 136.1 38.5557 135.953 38.5324C135.799 38.509 135.673 38.4822 135.575 38.4518C135.479 38.4215 135.395 38.369 135.323 38.2943C135.253 38.2172 135.218 38.111 135.218 37.9756C135.218 37.7982 135.291 37.657 135.439 37.552C135.588 37.4446 135.789 37.3909 136.041 37.3909C136.169 37.3909 136.298 37.4061 136.426 37.4364C136.554 37.4644 136.659 37.5029 136.741 37.552L136.573 37.8846C136.414 37.7912 136.236 37.7445 136.037 37.7445C135.909 37.7445 135.811 37.7644 135.743 37.8041C135.678 37.8414 135.645 37.8916 135.645 37.9546C135.645 38.0247 135.68 38.0748 135.75 38.1052C135.823 38.1332 135.933 38.16 136.083 38.1857C136.232 38.2091 136.355 38.2359 136.45 38.2663C136.546 38.2966 136.628 38.348 136.696 38.4203C136.766 38.4927 136.801 38.5954 136.801 38.7284C136.801 38.9035 136.725 39.0436 136.573 39.1486C136.421 39.2537 136.215 39.3062 135.953 39.3062Z" fill="#9FB1C1"/>
<path d="M84.2713 39.0587V39.2828H82.552V39.1042L83.571 38.1063C83.6994 37.9802 83.7857 37.8717 83.8301 37.7807C83.8768 37.6873 83.9001 37.5939 83.9001 37.5005C83.9001 37.3558 83.8499 37.2438 83.7495 37.1644C83.6515 37.0827 83.5103 37.0419 83.3259 37.0419C83.0387 37.0419 82.8158 37.1329 82.6571 37.315L82.4785 37.1609C82.5742 37.0489 82.6956 36.9625 82.8427 36.9018C82.9921 36.8411 83.1601 36.8108 83.3469 36.8108C83.5966 36.8108 83.7939 36.8703 83.9386 36.9893C84.0857 37.106 84.1592 37.2671 84.1592 37.4725C84.1592 37.5986 84.1312 37.72 84.0752 37.8367C84.0192 37.9534 83.9129 38.0876 83.7565 38.2394L82.9232 39.0587H84.2713Z" fill="#15354E"/>
<path d="M86.2613 39.0587V39.2828H84.5421V39.1042L85.5611 38.1063C85.6894 37.9802 85.7758 37.8717 85.8202 37.7807C85.8668 37.6873 85.8902 37.5939 85.8902 37.5005C85.8902 37.3558 85.84 37.2438 85.7396 37.1644C85.6416 37.0827 85.5004 37.0419 85.316 37.0419C85.0288 37.0419 84.8059 37.1329 84.6472 37.315L84.4686 37.1609C84.5643 37.0489 84.6857 36.9625 84.8328 36.9018C84.9821 36.8411 85.1502 36.8108 85.337 36.8108C85.5867 36.8108 85.784 36.8703 85.9287 36.9893C86.0758 37.106 86.1493 37.2671 86.1493 37.4725C86.1493 37.5986 86.1213 37.72 86.0653 37.8367C86.0092 37.9534 85.903 38.0876 85.7466 38.2394L84.9133 39.0587H86.2613Z" fill="#15354E"/>
<path d="M87.9738 39.3038C87.8338 39.3038 87.7042 39.2735 87.5852 39.2128C87.4661 39.1521 87.3692 39.0657 87.2945 38.9537L87.4486 38.7786C87.584 38.9793 87.7602 39.0797 87.9773 39.0797C88.2808 39.0797 88.4325 38.9 88.4325 38.5405V37.0559H87.5361V36.8318H88.6881V38.53C88.6881 38.7867 88.6274 38.9805 88.5061 39.1112C88.387 39.2396 88.2096 39.3038 87.9738 39.3038Z" fill="#15354E"/>
<path d="M91.0725 37.441V39.2828H90.8344V38.9466C90.7691 39.0587 90.6792 39.1462 90.5648 39.2093C90.4504 39.2699 90.3197 39.3003 90.1727 39.3003C89.9322 39.3003 89.742 39.2338 89.6019 39.1007C89.4642 38.9653 89.3953 38.7681 89.3953 38.509V37.441H89.6439V38.4845C89.6439 38.6782 89.6918 38.8253 89.7875 38.9256C89.8832 39.026 90.0198 39.0762 90.1972 39.0762C90.3909 39.0762 90.5438 39.0178 90.6559 38.9011C90.7679 38.7821 90.8239 38.6175 90.8239 38.4074V37.441H91.0725Z" fill="#15354E"/>
<path d="M92.7072 37.427C92.9383 37.427 93.1215 37.4947 93.2569 37.6301C93.3946 37.7632 93.4635 37.9581 93.4635 38.2148V39.2828H93.2149V38.2394C93.2149 38.0479 93.1671 37.902 93.0713 37.8017C92.9756 37.7013 92.8391 37.6511 92.6617 37.6511C92.4633 37.6511 92.3057 37.7106 92.189 37.8297C92.0746 37.9464 92.0174 38.1086 92.0174 38.3164V39.2828H91.7688V37.441H92.0069V37.7807C92.0746 37.6686 92.168 37.5822 92.287 37.5216C92.4084 37.4585 92.5485 37.427 92.7072 37.427Z" fill="#15354E"/>
<path d="M96.564 39.0587V39.2828H94.8448V39.1042L95.8637 38.1063C95.9921 37.9802 96.0784 37.8717 96.1228 37.7807C96.1695 37.6873 96.1928 37.5939 96.1928 37.5005C96.1928 37.3558 96.1426 37.2438 96.0422 37.1644C95.9442 37.0827 95.803 37.0419 95.6186 37.0419C95.3315 37.0419 95.1085 37.1329 94.9498 37.315L94.7712 37.1609C94.8669 37.0489 94.9883 36.9625 95.1354 36.9018C95.2848 36.8411 95.4528 36.8108 95.6396 36.8108C95.8894 36.8108 96.0866 36.8703 96.2313 36.9893C96.3784 37.106 96.4519 37.2671 96.4519 37.4725C96.4519 37.5986 96.4239 37.72 96.3679 37.8367C96.3119 37.9534 96.2057 38.0876 96.0493 38.2394L95.2159 39.0587H96.564Z" fill="#15354E"/>
<path d="M97.8436 39.3038C97.6545 39.3038 97.4853 39.2536 97.3359 39.1532C97.1888 39.0529 97.0733 38.9093 96.9892 38.7226C96.9075 38.5335 96.8667 38.3117 96.8667 38.0573C96.8667 37.8028 96.9075 37.5822 96.9892 37.3955C97.0733 37.2064 97.1888 37.0617 97.3359 36.9613C97.4853 36.8609 97.6545 36.8108 97.8436 36.8108C98.0327 36.8108 98.2007 36.8609 98.3478 36.9613C98.4972 37.0617 98.6139 37.2064 98.6979 37.3955C98.782 37.5822 98.824 37.8028 98.824 38.0573C98.824 38.3117 98.782 38.5335 98.6979 38.7226C98.6139 38.9093 98.4972 39.0529 98.3478 39.1532C98.2007 39.2536 98.0327 39.3038 97.8436 39.3038ZM97.8436 39.0727C97.986 39.0727 98.1109 39.033 98.2182 38.9537C98.328 38.8743 98.4132 38.7587 98.4738 38.607C98.5345 38.4553 98.5649 38.272 98.5649 38.0573C98.5649 37.8425 98.5345 37.6593 98.4738 37.5076C98.4132 37.3558 98.328 37.2403 98.2182 37.1609C98.1109 37.0815 97.986 37.0419 97.8436 37.0419C97.7012 37.0419 97.5751 37.0815 97.4654 37.1609C97.358 37.2403 97.274 37.3558 97.2133 37.5076C97.1526 37.6593 97.1223 37.8425 97.1223 38.0573C97.1223 38.272 97.1526 38.4553 97.2133 38.607C97.274 38.7587 97.358 38.8743 97.4654 38.9537C97.5751 39.033 97.7012 39.0727 97.8436 39.0727Z" fill="#15354E"/>
<path d="M99.8575 36.8318V39.2828H99.6054V37.0559H99.0276V36.8318H99.8575Z" fill="#15354E"/>
<path d="M101.207 36.8108C101.531 36.8108 101.78 36.9181 101.952 37.1329C102.125 37.3453 102.212 37.6464 102.212 38.0363C102.212 38.3094 102.165 38.5405 102.072 38.7296C101.978 38.9186 101.847 39.0622 101.679 39.1602C101.511 39.2559 101.315 39.3038 101.091 39.3038C100.848 39.3038 100.655 39.2594 100.51 39.1707L100.611 38.9677C100.728 39.0447 100.887 39.0832 101.088 39.0832C101.358 39.0832 101.571 38.998 101.725 38.8276C101.879 38.6549 101.956 38.4051 101.956 38.0783C101.956 38.0176 101.952 37.9511 101.945 37.8787C101.885 38.0118 101.788 38.1156 101.655 38.1903C101.522 38.2627 101.369 38.2989 101.196 38.2989C101.035 38.2989 100.892 38.2685 100.765 38.2078C100.642 38.1471 100.545 38.0619 100.475 37.9522C100.405 37.8402 100.37 37.7106 100.37 37.5636C100.37 37.4142 100.406 37.2823 100.478 37.1679C100.551 37.0535 100.65 36.966 100.776 36.9053C100.904 36.8423 101.048 36.8108 101.207 36.8108ZM101.235 38.0853C101.358 38.0853 101.467 38.0619 101.56 38.0153C101.656 37.9686 101.731 37.9044 101.784 37.8227C101.838 37.741 101.865 37.6499 101.865 37.5496C101.865 37.4562 101.839 37.3698 101.788 37.2905C101.739 37.2111 101.665 37.1469 101.567 37.0979C101.469 37.0489 101.353 37.0243 101.217 37.0243C101.04 37.0243 100.895 37.0734 100.783 37.1714C100.673 37.2671 100.618 37.3955 100.618 37.5566C100.618 37.7176 100.673 37.846 100.783 37.9417C100.895 38.0374 101.046 38.0853 101.235 38.0853Z" fill="#15354E"/>
<path d="M142.519 30.9916V31.7473H143.843V32.2784H142.519V33.3201H141.857V30.4605H144.018V30.9916H142.519Z" fill="#15354E"/>
<path d="M144.382 31.1223H145.019V33.3201H144.382V31.1223ZM144.7 30.8159C144.583 30.8159 144.488 30.7819 144.414 30.7138C144.341 30.6457 144.304 30.5613 144.304 30.4605C144.304 30.3598 144.341 30.2753 144.414 30.2073C144.488 30.1392 144.583 30.1051 144.7 30.1051C144.817 30.1051 144.913 30.1378 144.986 30.2032C145.06 30.2685 145.096 30.3502 145.096 30.4483C145.096 30.5545 145.06 30.643 144.986 30.7138C144.913 30.7819 144.817 30.8159 144.7 30.8159Z" fill="#15354E"/>
<path d="M146.946 31.0896C147.218 31.0896 147.438 31.1713 147.604 31.3347C147.773 31.4981 147.857 31.7405 147.857 32.0619V33.3201H147.22V32.1599C147.22 31.9856 147.182 31.8562 147.105 31.7718C147.029 31.6847 146.919 31.6411 146.775 31.6411C146.614 31.6411 146.486 31.6915 146.391 31.7923C146.295 31.8903 146.248 32.0374 146.248 32.2334V33.3201H145.61V31.1223H146.219V31.3797C146.303 31.2871 146.408 31.2163 146.534 31.1672C146.659 31.1155 146.796 31.0896 146.946 31.0896Z" fill="#15354E"/>
<path d="M149.321 31.0896C149.662 31.0896 149.923 31.1713 150.105 31.3347C150.288 31.4954 150.379 31.7391 150.379 32.0659V33.3201H149.783V33.0464C149.663 33.2506 149.44 33.3527 149.113 33.3527C148.944 33.3527 148.797 33.3241 148.672 33.2669C148.549 33.2098 148.455 33.1308 148.39 33.03C148.324 32.9293 148.292 32.8149 148.292 32.6869C148.292 32.4826 148.368 32.3219 148.52 32.2048C148.676 32.0877 148.914 32.0292 149.235 32.0292H149.742C149.742 31.8903 149.7 31.7841 149.615 31.7106C149.531 31.6343 149.404 31.5962 149.235 31.5962C149.118 31.5962 149.003 31.6152 148.888 31.6534C148.776 31.6888 148.681 31.7378 148.602 31.8004L148.373 31.3552C148.493 31.2707 148.636 31.2054 148.802 31.1591C148.971 31.1128 149.144 31.0896 149.321 31.0896ZM149.272 32.9238C149.381 32.9238 149.478 32.8993 149.562 32.8503C149.647 32.7985 149.707 32.7236 149.742 32.6256V32.4009H149.305C149.043 32.4009 148.913 32.4867 148.913 32.6583C148.913 32.74 148.944 32.8053 149.007 32.8544C149.072 32.9007 149.16 32.9238 149.272 32.9238Z" fill="#15354E"/>
<path d="M150.956 30.289H151.593V33.3201H150.956V30.289Z" fill="#15354E"/>
<path d="M153.386 30.4605H154.686C154.996 30.4605 155.27 30.5204 155.507 30.6403C155.746 30.7574 155.931 30.9235 156.062 31.1386C156.196 31.3538 156.262 31.6043 156.262 31.8903C156.262 32.1762 156.196 32.4268 156.062 32.6419C155.931 32.8571 155.746 33.0246 155.507 33.1444C155.27 33.2615 154.996 33.3201 154.686 33.3201H153.386V30.4605ZM154.653 32.7767C154.939 32.7767 155.166 32.6978 155.335 32.5398C155.507 32.3791 155.592 32.1626 155.592 31.8903C155.592 31.618 155.507 31.4028 155.335 31.2449C155.166 31.0842 154.939 31.0038 154.653 31.0038H154.048V32.7767H154.653Z" fill="#15354E"/>
<path d="M159.219 32.0735C159.219 32.0829 159.214 32.1482 159.205 32.2696H157.305C157.339 32.4252 157.42 32.5482 157.547 32.6384C157.675 32.7287 157.834 32.7738 158.024 32.7738C158.154 32.7738 158.27 32.7552 158.369 32.7178C158.472 32.6773 158.567 32.6151 158.654 32.5311L159.041 32.9512C158.805 33.222 158.459 33.3574 158.005 33.3574C157.722 33.3574 157.471 33.3029 157.253 33.194C157.035 33.082 156.867 32.9279 156.749 32.7318C156.631 32.5357 156.572 32.3132 156.572 32.0642C156.572 31.8183 156.629 31.5973 156.744 31.4013C156.863 31.2021 157.023 31.048 157.225 30.9391C157.431 30.827 157.66 30.771 157.912 30.771C158.158 30.771 158.38 30.8239 158.579 30.9297C158.778 31.0355 158.934 31.1881 159.046 31.3872C159.161 31.5833 159.219 31.8121 159.219 32.0735ZM157.916 31.3219C157.751 31.3219 157.613 31.3686 157.501 31.4619C157.389 31.5553 157.32 31.6829 157.295 31.8448H158.533C158.508 31.686 158.439 31.56 158.327 31.4666C158.215 31.3701 158.078 31.3219 157.916 31.3219Z" fill="#15354E"/>
<path d="M160.549 33.3574C160.34 33.3574 160.136 33.3325 159.937 33.2827C159.738 33.2298 159.579 33.1644 159.461 33.0866L159.704 32.5637C159.816 32.6353 159.951 32.6945 160.11 32.7411C160.269 32.7847 160.424 32.8065 160.577 32.8065C160.885 32.8065 161.039 32.7303 161.039 32.5777C161.039 32.5062 160.997 32.4548 160.913 32.4237C160.829 32.3926 160.7 32.3661 160.525 32.3443C160.32 32.3132 160.15 32.2774 160.017 32.2369C159.883 32.1965 159.766 32.1249 159.666 32.0222C159.57 31.9195 159.522 31.7732 159.522 31.5833C159.522 31.4246 159.567 31.2845 159.657 31.1632C159.75 31.0387 159.884 30.9422 160.059 30.8737C160.236 30.8052 160.444 30.771 160.684 30.771C160.862 30.771 161.037 30.7912 161.212 30.8317C161.389 30.869 161.535 30.9219 161.651 30.9904L161.408 31.5086C161.187 31.3841 160.946 31.3219 160.684 31.3219C160.529 31.3219 160.412 31.3437 160.334 31.3872C160.256 31.4308 160.217 31.4868 160.217 31.5553C160.217 31.6331 160.259 31.6876 160.343 31.7187C160.427 31.7498 160.561 31.7794 160.745 31.8074C160.95 31.8417 161.118 31.879 161.249 31.9195C161.38 31.9568 161.493 32.0268 161.59 32.1296C161.686 32.2323 161.735 32.3754 161.735 32.5591C161.735 32.7147 161.688 32.8532 161.595 32.9746C161.501 33.096 161.364 33.1909 161.184 33.2594C161.006 33.3247 160.795 33.3574 160.549 33.3574Z" fill="#15354E"/>
<path d="M163.804 33.1987C163.732 33.2516 163.644 33.292 163.538 33.3201C163.435 33.345 163.326 33.3574 163.211 33.3574C162.912 33.3574 162.68 33.2811 162.515 33.1286C162.354 32.9761 162.273 32.752 162.273 32.4564V31.4246H161.885V30.8644H162.273V30.2528H163.001V30.8644H163.627V31.4246H163.001V32.447C163.001 32.5528 163.027 32.6353 163.08 32.6945C163.136 32.7505 163.214 32.7785 163.314 32.7785C163.429 32.7785 163.527 32.7474 163.608 32.6851L163.804 33.1987Z" fill="#15354E"/>
<path d="M164.213 30.8083H164.941V33.3201H164.213V30.8083ZM164.577 30.4582C164.443 30.4582 164.334 30.4193 164.25 30.3415C164.166 30.2637 164.124 30.1672 164.124 30.052C164.124 29.9369 164.166 29.8404 164.25 29.7626C164.334 29.6848 164.443 29.6459 164.577 29.6459C164.711 29.6459 164.82 29.6832 164.904 29.7579C164.988 29.8326 165.03 29.926 165.03 30.038C165.03 30.1594 164.988 30.2606 164.904 30.3415C164.82 30.4193 164.711 30.4582 164.577 30.4582Z" fill="#15354E"/>
<path d="M167.144 30.771C167.455 30.771 167.705 30.8644 167.895 31.0511C168.088 31.2379 168.185 31.5149 168.185 31.8821V33.3201H167.456V31.9942C167.456 31.795 167.413 31.6471 167.326 31.5507C167.239 31.4511 167.112 31.4013 166.948 31.4013C166.764 31.4013 166.618 31.4588 166.509 31.574C166.4 31.686 166.345 31.8541 166.345 32.0782V33.3201H165.617V30.8083H166.313V31.1025C166.409 30.9966 166.529 30.9157 166.672 30.8597C166.815 30.8006 166.972 30.771 167.144 30.771Z" fill="#15354E"/>
<path d="M169.858 30.771C170.247 30.771 170.546 30.8644 170.754 31.0511C170.963 31.2347 171.067 31.5133 171.067 31.8868V33.3201H170.386V33.0073C170.249 33.2407 169.993 33.3574 169.62 33.3574C169.427 33.3574 169.259 33.3247 169.116 33.2594C168.976 33.194 168.868 33.1037 168.794 32.9886C168.719 32.8734 168.681 32.7427 168.681 32.5964C168.681 32.363 168.769 32.1794 168.943 32.0455C169.12 31.9117 169.393 31.8448 169.76 31.8448H170.339C170.339 31.686 170.291 31.5647 170.194 31.4806C170.098 31.3935 169.953 31.3499 169.76 31.3499C169.626 31.3499 169.494 31.3717 169.363 31.4153C169.235 31.4557 169.127 31.5117 169.036 31.5833L168.775 31.0745C168.912 30.978 169.075 30.9033 169.265 30.8504C169.458 30.7974 169.656 30.771 169.858 30.771ZM169.802 32.8672C169.926 32.8672 170.037 32.8392 170.133 32.7832C170.23 32.724 170.298 32.6384 170.339 32.5264V32.2696H169.839C169.541 32.2696 169.391 32.3677 169.391 32.5637C169.391 32.6571 169.427 32.7318 169.498 32.7878C169.573 32.8407 169.674 32.8672 169.802 32.8672Z" fill="#15354E"/>
<path d="M173.102 33.2138C173.039 33.2601 172.962 33.2955 172.869 33.3201C172.779 33.3418 172.684 33.3527 172.583 33.3527C172.322 33.3527 172.119 33.286 171.974 33.1526C171.833 33.0191 171.762 32.823 171.762 32.5643V31.6615H171.423V31.1713H171.762V30.6362H172.399V31.1713H172.947V31.6615H172.399V32.5562C172.399 32.6487 172.422 32.7209 172.469 32.7727C172.518 32.8217 172.586 32.8462 172.673 32.8462C172.774 32.8462 172.859 32.819 172.93 32.7645L173.102 33.2138Z" fill="#15354E"/>
<path d="M173.46 31.1223H174.097V33.3201H173.46V31.1223ZM173.778 30.8159C173.661 30.8159 173.566 30.7819 173.492 30.7138C173.419 30.6457 173.382 30.5613 173.382 30.4605C173.382 30.3598 173.419 30.2753 173.492 30.2073C173.566 30.1392 173.661 30.1051 173.778 30.1051C173.895 30.1051 173.991 30.1378 174.064 30.2032C174.138 30.2685 174.174 30.3502 174.174 30.4483C174.174 30.5545 174.138 30.643 174.064 30.7138C173.991 30.7819 173.895 30.8159 173.778 30.8159Z" fill="#15354E"/>
<path d="M175.734 33.3527C175.502 33.3527 175.294 33.3051 175.109 33.2098C174.927 33.1117 174.784 32.9769 174.68 32.8053C174.577 32.6338 174.525 32.439 174.525 32.2212C174.525 32.0033 174.577 31.8086 174.68 31.637C174.784 31.4654 174.927 31.332 175.109 31.2367C175.294 31.1386 175.502 31.0896 175.734 31.0896C175.965 31.0896 176.172 31.1386 176.355 31.2367C176.537 31.332 176.68 31.4654 176.784 31.637C176.887 31.8086 176.939 32.0033 176.939 32.2212C176.939 32.439 176.887 32.6338 176.784 32.8053C176.68 32.9769 176.537 33.1117 176.355 33.2098C176.172 33.3051 175.965 33.3527 175.734 33.3527ZM175.734 32.8298C175.897 32.8298 176.031 32.7754 176.134 32.6664C176.241 32.5548 176.294 32.4064 176.294 32.2212C176.294 32.036 176.241 31.8889 176.134 31.78C176.031 31.6683 175.897 31.6125 175.734 31.6125C175.571 31.6125 175.436 31.6683 175.33 31.78C175.223 31.8889 175.17 32.036 175.17 32.2212C175.17 32.4064 175.223 32.5548 175.33 32.6664C175.436 32.7754 175.571 32.8298 175.734 32.8298Z" fill="#15354E"/>
<path d="M178.701 31.0896C178.973 31.0896 179.192 31.1713 179.359 31.3347C179.527 31.4981 179.612 31.7405 179.612 32.0619V33.3201H178.975V32.1599C178.975 31.9856 178.936 31.8562 178.86 31.7718C178.784 31.6847 178.674 31.6411 178.529 31.6411C178.369 31.6411 178.241 31.6915 178.145 31.7923C178.05 31.8903 178.002 32.0374 178.002 32.2334V33.3201H177.365V31.1223H177.974V31.3797C178.058 31.2871 178.163 31.2163 178.288 31.1672C178.414 31.1155 178.551 31.0896 178.701 31.0896Z" fill="#15354E"/>
<path d="M85.4971 32.9303C85.1578 32.9303 84.8512 32.8572 84.5773 32.7109C84.3066 32.5646 84.0934 32.3639 83.9377 32.1087C83.7852 31.8503 83.709 31.5609 83.709 31.2403C83.709 30.9197 83.7852 30.6318 83.9377 30.3766C84.0934 30.1183 84.3066 29.916 84.5773 29.7697C84.8512 29.6234 85.1578 29.5503 85.4971 29.5503C85.8363 29.5503 86.1413 29.6234 86.4121 29.7697C86.6829 29.916 86.8961 30.1183 87.0517 30.3766C87.2073 30.6318 87.2851 30.9197 87.2851 31.2403C87.2851 31.5609 87.2073 31.8503 87.0517 32.1087C86.8961 32.3639 86.6829 32.5646 86.4121 32.7109C86.1413 32.8572 85.8363 32.9303 85.4971 32.9303ZM85.4971 32.2861C85.69 32.2861 85.8643 32.2425 86.0199 32.1553C86.1756 32.0651 86.2969 31.9406 86.3841 31.7819C86.4744 31.6231 86.5195 31.4426 86.5195 31.2403C86.5195 31.038 86.4744 30.8575 86.3841 30.6987C86.2969 30.54 86.1756 30.4171 86.0199 30.3299C85.8643 30.2397 85.69 30.1945 85.4971 30.1945C85.3041 30.1945 85.1298 30.2397 84.9742 30.3299C84.8186 30.4171 84.6956 30.54 84.6054 30.6987C84.5182 30.8575 84.4746 31.038 84.4746 31.2403C84.4746 31.4426 84.5182 31.6231 84.6054 31.7819C84.6956 31.9406 84.8186 32.0651 84.9742 32.1553C85.1298 32.2425 85.3041 32.2861 85.4971 32.2861Z" fill="#15354E"/>
<path d="M90.3606 29.4102V32.8743H89.665V32.5849C89.4844 32.8027 89.223 32.9117 88.8806 32.9117C88.6441 32.9117 88.4293 32.8587 88.2364 32.7529C88.0465 32.6471 87.8971 32.4962 87.7882 32.3001C87.6792 32.104 87.6248 31.8768 87.6248 31.6185C87.6248 31.3601 87.6792 31.1329 87.7882 30.9368C87.8971 30.7408 88.0465 30.5898 88.2364 30.484C88.4293 30.3782 88.6441 30.3252 88.8806 30.3252C89.2012 30.3252 89.4518 30.4264 89.6323 30.6287V29.4102H90.3606ZM89.0067 32.3141C89.1903 32.3141 89.3428 32.2518 89.4642 32.1273C89.5856 31.9997 89.6463 31.8301 89.6463 31.6185C89.6463 31.4068 89.5856 31.2387 89.4642 31.1142C89.3428 30.9866 89.1903 30.9228 89.0067 30.9228C88.8199 30.9228 88.6659 30.9866 88.5445 31.1142C88.4231 31.2387 88.3624 31.4068 88.3624 31.6185C88.3624 31.8301 88.4231 31.9997 88.5445 32.1273C88.6659 32.2518 88.8199 32.3141 89.0067 32.3141Z" fill="#15354E"/>
<path d="M93.495 31.6278C93.495 31.6371 93.4903 31.7025 93.481 31.8239H91.5809C91.6151 31.9795 91.696 32.1024 91.8236 32.1927C91.9513 32.283 92.11 32.3281 92.2998 32.3281C92.4306 32.3281 92.5457 32.3094 92.6453 32.2721C92.748 32.2316 92.843 32.1693 92.9301 32.0853L93.3176 32.5055C93.0811 32.7763 92.7356 32.9117 92.2812 32.9117C91.9979 32.9117 91.7474 32.8572 91.5295 32.7483C91.3117 32.6362 91.1436 32.4821 91.0253 32.2861C90.907 32.09 90.8479 31.8674 90.8479 31.6185C90.8479 31.3726 90.9055 31.1516 91.0206 30.9555C91.1389 30.7563 91.2992 30.6023 91.5015 30.4933C91.7069 30.3813 91.9357 30.3252 92.1878 30.3252C92.4337 30.3252 92.6562 30.3782 92.8554 30.484C93.0546 30.5898 93.2102 30.7423 93.3223 30.9415C93.4374 31.1376 93.495 31.3663 93.495 31.6278ZM92.1925 30.8761C92.0275 30.8761 91.889 30.9228 91.777 31.0162C91.6649 31.1096 91.5964 31.2372 91.5715 31.399H92.8087C92.7838 31.2403 92.7153 31.1142 92.6033 31.0209C92.4913 30.9244 92.3543 30.8761 92.1925 30.8761Z" fill="#15354E"/>
<path d="M94.8249 32.9117C94.6164 32.9117 94.4125 32.8868 94.2133 32.837C94.0141 32.784 93.8554 32.7187 93.7371 32.6409L93.9799 32.118C94.0919 32.1896 94.2273 32.2487 94.386 32.2954C94.5448 32.339 94.7004 32.3608 94.8529 32.3608C95.161 32.3608 95.3151 32.2845 95.3151 32.132C95.3151 32.0604 95.2731 32.0091 95.1891 31.9779C95.105 31.9468 94.9759 31.9204 94.8016 31.8986C94.5961 31.8674 94.4265 31.8317 94.2927 31.7912C94.1588 31.7507 94.0421 31.6791 93.9425 31.5764C93.846 31.4737 93.7978 31.3274 93.7978 31.1376C93.7978 30.9789 93.8429 30.8388 93.9332 30.7174C94.0266 30.5929 94.1604 30.4964 94.3347 30.428C94.5121 30.3595 94.7206 30.3252 94.9603 30.3252C95.1377 30.3252 95.3135 30.3455 95.4878 30.3859C95.6652 30.4233 95.8115 30.4762 95.9267 30.5447L95.6839 31.0629C95.4629 30.9384 95.2217 30.8761 94.9603 30.8761C94.8047 30.8761 94.688 30.8979 94.6101 30.9415C94.5323 30.9851 94.4934 31.0411 94.4934 31.1096C94.4934 31.1874 94.5354 31.2419 94.6195 31.273C94.7035 31.3041 94.8373 31.3337 95.021 31.3617C95.2264 31.3959 95.3945 31.4333 95.5252 31.4737C95.6559 31.5111 95.7695 31.5811 95.866 31.6838C95.9625 31.7865 96.0107 31.9297 96.0107 32.1133C96.0107 32.2689 95.964 32.4074 95.8707 32.5288C95.7773 32.6502 95.6403 32.7451 95.4598 32.8136C95.2824 32.879 95.0708 32.9117 94.8249 32.9117Z" fill="#15354E"/>
<path d="M97.4732 30.3252C97.8622 30.3252 98.161 30.4186 98.3695 30.6054C98.5781 30.789 98.6823 31.0676 98.6823 31.441V32.8743H98.0007V32.5615C97.8638 32.7949 97.6086 32.9117 97.2351 32.9117C97.0421 32.9117 96.874 32.879 96.7309 32.8136C96.5908 32.7483 96.4834 32.658 96.4087 32.5428C96.334 32.4277 96.2967 32.297 96.2967 32.1507C96.2967 31.9172 96.3838 31.7336 96.5581 31.5998C96.7355 31.4659 97.0079 31.399 97.3751 31.399H97.954C97.954 31.2403 97.9058 31.1189 97.8093 31.0349C97.7128 30.9477 97.5681 30.9042 97.3751 30.9042C97.2413 30.9042 97.109 30.9259 96.9783 30.9695C96.8507 31.01 96.7418 31.066 96.6515 31.1376L96.39 30.6287C96.527 30.5322 96.6904 30.4575 96.8803 30.4046C97.0732 30.3517 97.2709 30.3252 97.4732 30.3252ZM97.4171 32.4215C97.5416 32.4215 97.6521 32.3934 97.7486 32.3374C97.8451 32.2783 97.9136 32.1927 97.954 32.0806V31.8239H97.4545C97.1557 31.8239 97.0063 31.9219 97.0063 32.118C97.0063 32.2114 97.0421 32.2861 97.1137 32.3421C97.1884 32.395 97.2895 32.4215 97.4171 32.4215Z" fill="#15354E"/>
<path d="M99.6216 32.0059C99.7523 32.0059 99.8597 32.048 99.9437 32.132C100.028 32.2129 100.07 32.3203 100.07 32.4541C100.07 32.5164 100.062 32.5786 100.046 32.6409C100.031 32.7031 99.9966 32.7965 99.9437 32.921L99.6776 33.5933H99.2154L99.4209 32.851C99.343 32.8198 99.2808 32.77 99.2341 32.7016C99.1905 32.63 99.1687 32.5475 99.1687 32.4541C99.1687 32.3203 99.2108 32.2129 99.2948 32.132C99.3819 32.048 99.4909 32.0059 99.6216 32.0059Z" fill="#15354E"/>
<path d="M103.389 32.9303C102.922 32.9303 102.558 32.8012 102.296 32.5428C102.038 32.2845 101.909 31.9157 101.909 31.4364V29.6063H102.665V31.4084C102.665 31.9935 102.908 32.2861 103.393 32.2861C103.63 32.2861 103.811 32.216 103.935 32.076C104.06 31.9328 104.122 31.7103 104.122 31.4084V29.6063H104.869V31.4364C104.869 31.9157 104.738 32.2845 104.477 32.5428C104.218 32.8012 103.856 32.9303 103.389 32.9303Z" fill="#15354E"/>
<path d="M107.7 32.174H106.183L105.893 32.8743H105.118L106.575 29.6063H107.322L108.783 32.8743H107.989L107.7 32.174ZM107.462 31.5998L106.944 30.3486L106.425 31.5998H107.462Z" fill="#15354E"/>
<path d="M146.022 53.0402L144.776 55.8997H144.253L143.003 53.0402H143.579L144.531 55.2461L145.491 53.0402H146.022Z" fill="#0088FF"/>
<path d="M146.294 53.7183H146.805V55.8997H146.294V53.7183ZM146.552 53.3588C146.459 53.3588 146.382 53.3302 146.319 53.273C146.256 53.2131 146.225 53.1396 146.225 53.0525C146.225 52.9653 146.256 52.8931 146.319 52.8359C146.382 52.776 146.459 52.7461 146.552 52.7461C146.644 52.7461 146.722 52.7747 146.785 52.8319C146.847 52.8863 146.879 52.9558 146.879 53.0402C146.879 53.1301 146.847 53.2063 146.785 53.269C146.725 53.3289 146.647 53.3588 146.552 53.3588Z" fill="#0088FF"/>
<path d="M149.526 54.8213C149.526 54.8567 149.523 54.9071 149.518 54.9724H147.806C147.836 55.1331 147.914 55.2611 148.039 55.3564C148.167 55.449 148.325 55.4953 148.513 55.4953C148.753 55.4953 148.95 55.4163 149.105 55.2584L149.379 55.5729C149.281 55.69 149.157 55.7785 149.007 55.8384C148.857 55.8984 148.689 55.9283 148.501 55.9283C148.261 55.9283 148.05 55.8807 147.867 55.7853C147.685 55.69 147.543 55.5579 147.443 55.3891C147.345 55.2175 147.296 55.0242 147.296 54.809C147.296 54.5966 147.343 54.406 147.439 54.2371C147.537 54.0655 147.671 53.9321 147.843 53.8368C148.014 53.7415 148.208 53.6938 148.423 53.6938C148.635 53.6938 148.825 53.7415 148.991 53.8368C149.16 53.9294 149.29 54.0615 149.383 54.233C149.478 54.4019 149.526 54.598 149.526 54.8213ZM148.423 54.1023C148.26 54.1023 148.121 54.1513 148.006 54.2494C147.895 54.3447 147.827 54.4727 147.802 54.6334H149.04C149.018 54.4754 148.951 54.3474 148.84 54.2494C148.728 54.1513 148.589 54.1023 148.423 54.1023Z" fill="#0088FF"/>
<path d="M153.379 53.7183L152.575 55.8997H152.084L151.521 54.3964L150.949 55.8997H150.459L149.658 53.7183H150.14L150.716 55.3278L151.316 53.7183H151.745L152.334 55.336L152.926 53.7183H153.379Z" fill="#0088FF"/>
<path d="M156.996 52.8686V55.8997H156.506V55.6179C156.421 55.7213 156.316 55.799 156.191 55.8507C156.069 55.9024 155.932 55.9283 155.783 55.9283C155.573 55.9283 155.384 55.882 155.215 55.7894C155.049 55.6968 154.918 55.5661 154.823 55.3973C154.727 55.2257 154.68 55.0296 154.68 54.809C154.68 54.5884 154.727 54.3937 154.823 54.2249C154.918 54.056 155.049 53.9253 155.215 53.8327C155.384 53.7401 155.573 53.6938 155.783 53.6938C155.927 53.6938 156.059 53.7183 156.179 53.7673C156.299 53.8164 156.401 53.8899 156.485 53.9879V52.8686H156.996ZM155.844 55.4912C155.966 55.4912 156.077 55.464 156.175 55.4095C156.273 55.3523 156.35 55.272 156.408 55.1685C156.465 55.065 156.493 54.9452 156.493 54.809C156.493 54.6729 156.465 54.553 156.408 54.4495C156.35 54.346 156.273 54.2671 156.175 54.2126C156.077 54.1554 155.966 54.1268 155.844 54.1268C155.721 54.1268 155.611 54.1554 155.513 54.2126C155.415 54.2671 155.337 54.346 155.28 54.4495C155.223 54.553 155.194 54.6729 155.194 54.809C155.194 54.9452 155.223 55.065 155.28 55.1685C155.337 55.272 155.415 55.3523 155.513 55.4095C155.611 55.464 155.721 55.4912 155.844 55.4912Z" fill="#0088FF"/>
<path d="M159.715 54.8213C159.715 54.8567 159.712 54.9071 159.706 54.9724H157.995C158.025 55.1331 158.102 55.2611 158.228 55.3564C158.356 55.449 158.514 55.4953 158.702 55.4953C158.941 55.4953 159.139 55.4163 159.294 55.2584L159.568 55.5729C159.47 55.69 159.346 55.7785 159.196 55.8384C159.046 55.8984 158.877 55.9283 158.689 55.9283C158.45 55.9283 158.239 55.8807 158.056 55.7853C157.874 55.69 157.732 55.5579 157.631 55.3891C157.533 55.2175 157.484 55.0242 157.484 54.809C157.484 54.5966 157.532 54.406 157.627 54.2371C157.725 54.0655 157.86 53.9321 158.032 53.8368C158.203 53.7415 158.397 53.6938 158.612 53.6938C158.824 53.6938 159.013 53.7415 159.179 53.8368C159.348 53.9294 159.479 54.0615 159.572 54.233C159.667 54.4019 159.715 54.598 159.715 54.8213ZM158.612 54.1023C158.448 54.1023 158.309 54.1513 158.195 54.2494C158.083 54.3447 158.015 54.4727 157.991 54.6334H159.228C159.207 54.4754 159.14 54.3474 159.028 54.2494C158.917 54.1513 158.778 54.1023 158.612 54.1023Z" fill="#0088FF"/>
<path d="M161.516 55.7813C161.456 55.8303 161.383 55.867 161.296 55.8916C161.211 55.9161 161.122 55.9283 161.026 55.9283C160.787 55.9283 160.601 55.8657 160.471 55.7404C160.34 55.6151 160.275 55.4327 160.275 55.193V54.1432H159.915V53.7347H160.275V53.2363H160.785V53.7347H161.369V54.1432H160.785V55.1808C160.785 55.287 160.811 55.3687 160.863 55.4259C160.915 55.4803 160.989 55.5076 161.087 55.5076C161.202 55.5076 161.297 55.4776 161.373 55.4177L161.516 55.7813Z" fill="#0088FF"/>
<path d="M162.77 53.6938C163.091 53.6938 163.336 53.7714 163.505 53.9267C163.677 54.0792 163.762 54.3106 163.762 54.6211V55.8997H163.28V55.6342C163.218 55.7295 163.128 55.803 163.011 55.8548C162.896 55.9038 162.758 55.9283 162.594 55.9283C162.431 55.9283 162.288 55.9011 162.165 55.8466C162.043 55.7894 161.947 55.7118 161.879 55.6138C161.814 55.513 161.781 55.4 161.781 55.2747C161.781 55.0786 161.853 54.922 161.998 54.8049C162.145 54.6851 162.375 54.6252 162.688 54.6252H163.252V54.5925C163.252 54.44 163.206 54.3229 163.113 54.2412C163.023 54.1595 162.888 54.1186 162.709 54.1186C162.586 54.1186 162.465 54.1377 162.345 54.1758C162.228 54.214 162.128 54.2671 162.047 54.3352L161.847 53.9634C161.961 53.8763 162.098 53.8095 162.259 53.7633C162.42 53.717 162.59 53.6938 162.77 53.6938ZM162.7 55.5566C162.828 55.5566 162.941 55.528 163.039 55.4708C163.14 55.4109 163.211 55.3265 163.252 55.2175V54.9643H162.725C162.431 54.9643 162.284 55.0609 162.284 55.2543C162.284 55.3469 162.32 55.4204 162.394 55.4749C162.468 55.5293 162.57 55.5566 162.7 55.5566Z" fill="#0088FF"/>
<path d="M164.418 53.7183H164.928V55.8997H164.418V53.7183ZM164.675 53.3588C164.583 53.3588 164.505 53.3302 164.442 53.273C164.38 53.2131 164.348 53.1396 164.348 53.0525C164.348 52.9653 164.38 52.8931 164.442 52.8359C164.505 52.776 164.583 52.7461 164.675 52.7461C164.768 52.7461 164.845 52.7747 164.908 52.8319C164.971 52.8863 165.002 52.9558 165.002 53.0402C165.002 53.1301 164.971 53.2063 164.908 53.269C164.848 53.3289 164.77 53.3588 164.675 53.3588Z" fill="#0088FF"/>
<path d="M165.599 52.8686H166.109V55.8997H165.599V52.8686Z" fill="#0088FF"/>
<path d="M167.453 55.9283C167.276 55.9283 167.104 55.9052 166.935 55.8589C166.766 55.8126 166.631 55.754 166.53 55.6832L166.726 55.2951C166.824 55.3605 166.941 55.4136 167.078 55.4545C167.217 55.4926 167.353 55.5116 167.486 55.5116C167.791 55.5116 167.944 55.4313 167.944 55.2706C167.944 55.1944 167.904 55.1413 167.825 55.1113C167.749 55.0814 167.625 55.0528 167.453 55.0255C167.274 54.9983 167.127 54.967 167.012 54.9316C166.901 54.8962 166.803 54.8349 166.718 54.7477C166.636 54.6579 166.596 54.534 166.596 54.376C166.596 54.169 166.681 54.0043 166.853 53.8817C167.027 53.7564 167.261 53.6938 167.556 53.6938C167.705 53.6938 167.855 53.7115 168.005 53.7469C168.155 53.7796 168.277 53.8245 168.373 53.8817L168.177 54.2698C167.991 54.1609 167.783 54.1064 167.552 54.1064C167.402 54.1064 167.287 54.1295 167.208 54.1758C167.132 54.2194 167.094 54.278 167.094 54.3515C167.094 54.4332 167.135 54.4917 167.217 54.5272C167.301 54.5598 167.43 54.5912 167.605 54.6211C167.779 54.6483 167.922 54.6797 168.034 54.7151C168.145 54.7505 168.241 54.8104 168.319 54.8948C168.401 54.9792 168.442 55.0991 168.442 55.2543C168.442 55.4585 168.354 55.6219 168.177 55.7445C168 55.867 167.758 55.9283 167.453 55.9283Z" fill="#0088FF"/>
<path fill-rule="evenodd" clip-rule="evenodd" d="M173.926 54.5742L172.901 53.5497L173.243 53.2079L174.61 54.5742L173.243 55.9405L172.901 55.5987L173.926 54.5742Z" fill="#0088FF"/>
<path d="M30.3174 55.2501H29.8109V55.8996H29.2962V55.2501H27.7275V54.8825L29.1369 53.0401H29.7047L28.3771 54.8008H29.3125V54.2248H29.8109V54.8008H30.3174V55.2501Z" fill="#9FB1C1"/>
<path d="M31.7338 55.9405C31.505 55.9405 31.3008 55.8833 31.121 55.7689C30.9413 55.6518 30.7997 55.483 30.6962 55.2624C30.5927 55.039 30.5409 54.7749 30.5409 54.4699C30.5409 54.1648 30.5927 53.902 30.6962 53.6815C30.7997 53.4581 30.9413 53.2893 31.121 53.1749C31.3008 53.0578 31.505 52.9993 31.7338 52.9993C31.9625 52.9993 32.1668 53.0578 32.3465 53.1749C32.529 53.2893 32.672 53.4581 32.7755 53.6815C32.8789 53.902 32.9307 54.1648 32.9307 54.4699C32.9307 54.7749 32.8789 55.039 32.7755 55.2624C32.672 55.483 32.529 55.6518 32.3465 55.7689C32.1668 55.8833 31.9625 55.9405 31.7338 55.9405ZM31.7338 55.4789C31.938 55.4789 32.0987 55.3944 32.2158 55.2256C32.3356 55.0567 32.3955 54.8048 32.3955 54.4699C32.3955 54.1349 32.3356 53.883 32.2158 53.7141C32.0987 53.5453 31.938 53.4609 31.7338 53.4609C31.5322 53.4609 31.3716 53.5453 31.2517 53.7141C31.1346 53.883 31.0761 54.1349 31.0761 54.4699C31.0761 54.8048 31.1346 55.0567 31.2517 55.2256C31.3716 55.3944 31.5322 55.4789 31.7338 55.4789Z" fill="#9FB1C1"/>
<path d="M35.5092 55.9405C35.2886 55.9405 35.0749 55.9092 34.8679 55.8465C34.6636 55.7839 34.5016 55.7008 34.3818 55.5973L34.5656 55.1847C34.6827 55.2773 34.8257 55.3536 34.9945 55.4135C35.1661 55.4707 35.3377 55.4993 35.5092 55.4993C35.7217 55.4993 35.8796 55.4652 35.9831 55.3972C36.0893 55.3291 36.1424 55.2392 36.1424 55.1276C36.1424 55.0459 36.1125 54.9791 36.0525 54.9274C35.9954 54.8729 35.9218 54.8307 35.832 54.8008C35.7421 54.7708 35.6195 54.7368 35.4643 54.6986C35.2464 54.6469 35.0694 54.5951 34.9332 54.5434C34.7998 54.4916 34.6841 54.4113 34.586 54.3024C34.4907 54.1907 34.443 54.0409 34.443 53.853C34.443 53.6951 34.4853 53.5521 34.5697 53.4241C34.6568 53.2934 34.7862 53.1899 34.9578 53.1136C35.1321 53.0374 35.3445 52.9993 35.595 52.9993C35.7693 52.9993 35.9409 53.021 36.1097 53.0646C36.2786 53.1082 36.4243 53.1708 36.5468 53.2525L36.3793 53.6651C36.2541 53.5916 36.1234 53.5358 35.9872 53.4976C35.851 53.4595 35.7189 53.4404 35.5909 53.4404C35.3812 53.4404 35.2246 53.4758 35.1212 53.5466C35.0204 53.6175 34.97 53.7114 34.97 53.8285C34.97 53.9102 34.9986 53.9769 35.0558 54.0287C35.1157 54.0804 35.1906 54.1213 35.2805 54.1512C35.3703 54.1812 35.4929 54.2152 35.6481 54.2534C35.8605 54.3024 36.0348 54.3541 36.171 54.4086C36.3072 54.4603 36.4229 54.5407 36.5182 54.6496C36.6163 54.7585 36.6653 54.9056 36.6653 55.0908C36.6653 55.2487 36.6217 55.3917 36.5346 55.5197C36.4502 55.6477 36.3208 55.7498 36.1465 55.8261C35.9722 55.9023 35.7598 55.9405 35.5092 55.9405Z" fill="#9FB1C1"/>
<path d="M38.4542 55.7812C38.3942 55.8302 38.3207 55.8669 38.2336 55.8915C38.1491 55.916 38.0593 55.9282 37.964 55.9282C37.7243 55.9282 37.5391 55.8656 37.4084 55.7403C37.2777 55.615 37.2123 55.4326 37.2123 55.1929V54.1431H36.8528V53.7346H37.2123V53.2362H37.7229V53.7346H38.3071V54.1431H37.7229V55.1807C37.7229 55.2869 37.7488 55.3686 37.8006 55.4258C37.8523 55.4802 37.9272 55.5075 38.0252 55.5075C38.1396 55.5075 38.2349 55.4775 38.3112 55.4176L38.4542 55.7812Z" fill="#9FB1C1"/>
<path d="M39.7076 53.6937C40.0289 53.6937 40.274 53.7713 40.4429 53.9266C40.6144 54.0791 40.7002 54.3105 40.7002 54.621V55.8996H40.2182V55.6341C40.1556 55.7294 40.0657 55.8029 39.9486 55.8547C39.8342 55.9037 39.6953 55.9282 39.5319 55.9282C39.3685 55.9282 39.2255 55.901 39.103 55.8465C38.9804 55.7893 38.8851 55.7117 38.817 55.6137C38.7517 55.5129 38.719 55.3999 38.719 55.2746C38.719 55.0785 38.7912 54.9219 38.9355 54.8048C39.0826 54.685 39.3127 54.6251 39.6259 54.6251H40.1896V54.5924C40.1896 54.4399 40.1433 54.3228 40.0507 54.2411C39.9608 54.1594 39.826 54.1185 39.6463 54.1185C39.5237 54.1185 39.4025 54.1376 39.2827 54.1757C39.1656 54.2139 39.0662 54.267 38.9845 54.3351L38.7843 53.9633C38.8987 53.8762 39.0363 53.8094 39.1969 53.7632C39.3576 53.7169 39.5278 53.6937 39.7076 53.6937ZM39.6381 55.5565C39.7661 55.5565 39.8791 55.5279 39.9772 55.4707C40.0779 55.4108 40.1487 55.3264 40.1896 55.2174V54.9642H39.6626C39.3685 54.9642 39.2214 55.0608 39.2214 55.2542C39.2214 55.3468 39.2582 55.4203 39.3317 55.4748C39.4053 55.5292 39.5074 55.5565 39.6381 55.5565Z" fill="#9FB1C1"/>
<path d="M42.5933 53.6937C42.8684 53.6937 43.089 53.774 43.2551 53.9347C43.4212 54.0954 43.5043 54.3337 43.5043 54.6496V55.8996H42.9937V54.715C42.9937 54.5243 42.9487 54.3814 42.8588 54.286C42.769 54.188 42.641 54.139 42.4749 54.139C42.2869 54.139 42.1385 54.1962 42.0296 54.3105C41.9207 54.4222 41.8662 54.5842 41.8662 54.7967V55.8996H41.3556V53.7182H41.8417V54.0001C41.9261 53.8993 42.0323 53.8231 42.1603 53.7713C42.2883 53.7196 42.4326 53.6937 42.5933 53.6937Z" fill="#9FB1C1"/>
<path d="M46.3085 52.8685V55.8996H45.8183V55.6178C45.7338 55.7212 45.629 55.7989 45.5037 55.8506C45.3812 55.9023 45.245 55.9282 45.0952 55.9282C44.8855 55.9282 44.6962 55.8819 44.5274 55.7893C44.3613 55.6967 44.2305 55.566 44.1352 55.3972C44.0399 55.2256 43.9923 55.0295 43.9923 54.8089C43.9923 54.5883 44.0399 54.3936 44.1352 54.2248C44.2305 54.0559 44.3613 53.9252 44.5274 53.8326C44.6962 53.74 44.8855 53.6937 45.0952 53.6937C45.2395 53.6937 45.3716 53.7182 45.4915 53.7672C45.6113 53.8163 45.7134 53.8898 45.7978 53.9878V52.8685H46.3085ZM45.1565 55.4911C45.279 55.4911 45.3893 55.4639 45.4874 55.4094C45.5854 55.3522 45.663 55.2719 45.7202 55.1684C45.7774 55.0649 45.806 54.9451 45.806 54.8089C45.806 54.6728 45.7774 54.5529 45.7202 54.4494C45.663 54.346 45.5854 54.267 45.4874 54.2125C45.3893 54.1553 45.279 54.1267 45.1565 54.1267C45.0339 54.1267 44.9236 54.1553 44.8256 54.2125C44.7276 54.267 44.6499 54.346 44.5928 54.4494C44.5356 54.5529 44.507 54.6728 44.507 54.8089C44.507 54.9451 44.5356 55.0649 44.5928 55.1684C44.6499 55.2719 44.7276 55.3522 44.8256 55.4094C44.9236 55.4639 45.0339 55.4911 45.1565 55.4911Z" fill="#9FB1C1"/>
<path d="M47.8098 53.6937C48.1312 53.6937 48.3763 53.7713 48.5451 53.9266C48.7167 54.0791 48.8025 54.3105 48.8025 54.621V55.8996H48.3204V55.6341C48.2578 55.7294 48.1679 55.8029 48.0508 55.8547C47.9364 55.9037 47.7976 55.9282 47.6342 55.9282C47.4708 55.9282 47.3278 55.901 47.2052 55.8465C47.0827 55.7893 46.9874 55.7117 46.9193 55.6137C46.8539 55.5129 46.8212 55.3999 46.8212 55.2746C46.8212 55.0785 46.8934 54.9219 47.0377 54.8048C47.1848 54.685 47.4149 54.6251 47.7281 54.6251H48.2918V54.5924C48.2918 54.4399 48.2455 54.3228 48.153 54.2411C48.0631 54.1594 47.9283 54.1185 47.7485 54.1185C47.626 54.1185 47.5048 54.1376 47.385 54.1757C47.2679 54.2139 47.1685 54.267 47.0868 54.3351L46.8866 53.9633C47.001 53.8762 47.1385 53.8094 47.2992 53.7632C47.4599 53.7169 47.6301 53.6937 47.8098 53.6937ZM47.7404 55.5565C47.8684 55.5565 47.9814 55.5279 48.0794 55.4707C48.1802 55.4108 48.251 55.3264 48.2918 55.2174V54.9642H47.7649C47.4708 54.9642 47.3237 55.0608 47.3237 55.2542C47.3237 55.3468 47.3605 55.4203 47.434 55.4748C47.5075 55.5292 47.6096 55.5565 47.7404 55.5565Z" fill="#9FB1C1"/>
<path d="M49.9439 54.0368C50.091 53.8081 50.3497 53.6937 50.7201 53.6937V54.1798C50.6765 54.1717 50.637 54.1676 50.6016 54.1676C50.4028 54.1676 50.2476 54.2261 50.1359 54.3432C50.0243 54.4576 49.9684 54.6237 49.9684 54.8416V55.8996H49.4578V53.7182H49.9439V54.0368Z" fill="#9FB1C1"/>
<path d="M53.2698 52.8685V55.8996H52.7796V55.6178C52.6951 55.7212 52.5903 55.7989 52.465 55.8506C52.3425 55.9023 52.2063 55.9282 52.0565 55.9282C51.8468 55.9282 51.6575 55.8819 51.4887 55.7893C51.3226 55.6967 51.1919 55.566 51.0965 55.3972C51.0012 55.2256 50.9536 55.0295 50.9536 54.8089C50.9536 54.5883 51.0012 54.3936 51.0965 54.2248C51.1919 54.0559 51.3226 53.9252 51.4887 53.8326C51.6575 53.74 51.8468 53.6937 52.0565 53.6937C52.2009 53.6937 52.3329 53.7182 52.4528 53.7672C52.5726 53.8163 52.6747 53.8898 52.7591 53.9878V52.8685H53.2698ZM52.1178 55.4911C52.2403 55.4911 52.3506 55.4639 52.4487 55.4094C52.5467 55.3522 52.6243 55.2719 52.6815 55.1684C52.7387 55.0649 52.7673 54.9451 52.7673 54.8089C52.7673 54.6728 52.7387 54.5529 52.6815 54.4494C52.6243 54.346 52.5467 54.267 52.4487 54.2125C52.3506 54.1553 52.2403 54.1267 52.1178 54.1267C51.9952 54.1267 51.8849 54.1553 51.7869 54.2125C51.6889 54.267 51.6112 54.346 51.5541 54.4494C51.4969 54.5529 51.4683 54.6728 51.4683 54.8089C51.4683 54.9451 51.4969 55.0649 51.5541 55.1684C51.6112 55.2719 51.6889 55.3522 51.7869 55.4094C51.8849 55.4639 51.9952 55.4911 52.1178 55.4911Z" fill="#9FB1C1"/>
<path d="M36.3966 44.1346V44.8108H33.5771V41.1695H36.3289V41.8457H34.4146V42.6364H36.1053V43.2919H34.4146V44.1346H36.3966Z" fill="white"/>
<path d="M40.5171 41.1695L38.941 44.8108H38.1087L36.5377 41.1695H37.448L38.556 43.7704L39.6796 41.1695H40.5171Z" fill="white"/>
<path d="M43.6405 44.1346V44.8108H40.8211V41.1695H43.5729V41.8457H41.6586V42.6364H43.3492V43.2919H41.6586V44.1346H43.6405Z" fill="white"/>
<path d="M46.6311 44.8108L45.9288 43.7964H45.8872H45.1538V44.8108H44.3111V41.1695H45.8872C46.2097 41.1695 46.4889 41.2232 46.7247 41.3308C46.964 41.4383 47.1478 41.5908 47.2761 41.7885C47.4044 41.9862 47.4686 42.2203 47.4686 42.4908C47.4686 42.7613 47.4027 42.9953 47.2709 43.193C47.1426 43.3872 46.9588 43.5363 46.7195 43.6404L47.5362 44.8108H46.6311ZM46.6155 42.4908C46.6155 42.2862 46.5496 42.1301 46.4178 42.0226C46.286 41.9116 46.0936 41.8561 45.8404 41.8561H45.1538V43.1254H45.8404C46.0936 43.1254 46.286 43.0699 46.4178 42.9589C46.5496 42.848 46.6155 42.6919 46.6155 42.4908Z" fill="white"/>
<path d="M50.5967 42.9329H51.3666V44.4103C51.1689 44.5594 50.9401 44.6738 50.68 44.7536C50.4199 44.8333 50.158 44.8732 49.8945 44.8732C49.5165 44.8732 49.1766 44.7935 48.8749 44.6339C48.5732 44.4709 48.3357 44.2473 48.1623 43.9629C47.9923 43.6751 47.9074 43.3508 47.9074 42.9901C47.9074 42.6295 47.9923 42.307 48.1623 42.0226C48.3357 41.7348 48.5749 41.5111 48.8801 41.3516C49.1853 41.1886 49.5286 41.1071 49.9101 41.1071C50.2291 41.1071 50.5187 41.1608 50.7788 41.2683C51.0389 41.3758 51.2574 41.5319 51.4342 41.7365L50.8932 42.2359C50.6331 41.9619 50.3193 41.8249 49.9517 41.8249C49.7194 41.8249 49.513 41.8735 49.3327 41.9706C49.1523 42.0677 49.0119 42.2047 48.9113 42.3815C48.8108 42.5584 48.7605 42.7613 48.7605 42.9901C48.7605 43.2156 48.8108 43.4167 48.9113 43.5936C49.0119 43.7704 49.1506 43.9091 49.3275 44.0097C49.5078 44.1068 49.7124 44.1554 49.9413 44.1554C50.184 44.1554 50.4025 44.1033 50.5967 43.9993V42.9329Z" fill="white"/>
<path d="M54.4694 44.8108L53.7672 43.7964H53.7256H52.9921V44.8108H52.1494V41.1695H53.7256C54.0481 41.1695 54.3272 41.2232 54.5631 41.3308C54.8024 41.4383 54.9862 41.5908 55.1145 41.7885C55.2428 41.9862 55.3069 42.2203 55.3069 42.4908C55.3069 42.7613 55.241 42.9953 55.1093 43.193C54.9809 43.3872 54.7971 43.5363 54.5579 43.6404L55.3746 44.8108H54.4694ZM54.4538 42.4908C54.4538 42.2862 54.3879 42.1301 54.2562 42.0226C54.1244 41.9116 53.9319 41.8561 53.6787 41.8561H52.9921V43.1254H53.6787C53.9319 43.1254 54.1244 43.0699 54.2562 42.9589C54.3879 42.848 54.4538 42.6919 54.4538 42.4908Z" fill="white"/>
<path d="M58.794 44.1346V44.8108H55.9746V41.1695H58.7264V41.8457H56.8121V42.6364H58.5027V43.2919H56.8121V44.1346H58.794Z" fill="white"/>
<path d="M62.2839 44.1346V44.8108H59.4645V41.1695H62.2163V41.8457H60.302V42.6364H61.9926V43.2919H60.302V44.1346H62.2839Z" fill="white"/>
<path d="M66.294 41.1695V44.8108H65.6022L63.7867 42.6V44.8108H62.9544V41.1695H63.6515L65.4617 43.3803V41.1695H66.294Z" fill="white"/>
</g>
<defs>
<filter id="filter0_d" x="0.206055" y="0.512177" width="230" height="95.0417" filterUnits="userSpaceOnUse" color-interpolation-filters="sRGB">
<feFlood flood-opacity="0" result="BackgroundImageFix"/>
<feColorMatrix in="SourceAlpha" type="matrix" values="0 0 0 0 0 0 0 0 0 0 0 0 0 0 0 0 0 0 127 0"/>
<feOffset dx="12" dy="5"/>
<feGaussianBlur stdDeviation="15"/>
<feColorMatrix type="matrix" values="0 0 0 0 0 0 0 0 0 0.223833 0 0 0 0 0.658333 0 0 0 0.15 0"/>
<feBlend mode="normal" in2="BackgroundImageFix" result="effect1_dropShadow"/>
<feBlend mode="normal" in="SourceGraphic" in2="effect1_dropShadow" result="shape"/>
</filter>
<filter id="filter1_d" x="10.2061" y="15.5122" width="194" height="59.0417" filterUnits="userSpaceOnUse" color-interpolation-filters="sRGB">
<feFlood flood-opacity="0" result="BackgroundImageFix"/>
<feColorMatrix in="SourceAlpha" type="matrix" values="0 0 0 0 0 0 0 0 0 0 0 0 0 0 0 0 0 0 127 0"/>
<feOffset dx="4" dy="2"/>
<feGaussianBlur stdDeviation="6"/>
<feColorMatrix type="matrix" values="0 0 0 0 0 0 0 0 0 0.223833 0 0 0 0 0.658333 0 0 0 0.12 0"/>
<feBlend mode="normal" in2="BackgroundImageFix" result="effect1_dropShadow"/>
<feBlend mode="normal" in="SourceGraphic" in2="effect1_dropShadow" result="shape"/>
</filter>
<filter id="filter2_d" x="115.726" y="38.1202" width="17.2947" height="17.2947" filterUnits="userSpaceOnUse" color-interpolation-filters="sRGB">
<feFlood flood-opacity="0" result="BackgroundImageFix"/>
<feColorMatrix in="SourceAlpha" type="matrix" values="0 0 0 0 0 0 0 0 0 0 0 0 0 0 0 0 0 0 127 0"/>
<feOffset/>
<feGaussianBlur stdDeviation="2.5"/>
<feColorMatrix type="matrix" values="0 0 0 0 0 0 0 0 0 0.34 0 0 0 0 0.85 0 0 0 0.3 0"/>
<feBlend mode="normal" in2="BackgroundImageFix" result="effect1_dropShadow"/>
<feBlend mode="normal" in="SourceGraphic" in2="effect1_dropShadow" result="shape"/>
</filter>
</defs>
</svg>
