<svg width="226" height="302" viewBox="0 0 226 302" fill="none" xmlns="http://www.w3.org/2000/svg">
<g filter="url(#filter0_d)">
<path d="M76.5747 27.815C76.85 26.4068 78.084 25.3907 79.5189 25.3907H193.987C195.245 25.3907 196.19 26.538 195.95 27.7727L149.906 264.389C149.632 265.799 148.397 266.816 146.961 266.816H32.2688C31.0102 266.816 30.0644 265.668 30.306 264.433L76.5747 27.815Z" fill="white" fill-opacity="0.8"/>
</g>
<path d="M76.5008 27.3917C76.7893 25.9988 78.0161 25 79.4385 25H194.326C195.582 25 196.527 26.1437 196.29 27.3769L192.349 47.9179C192.078 49.331 190.841 50.3526 189.402 50.3526H74.2027C72.935 50.3526 71.9872 49.1883 72.2442 47.947L76.5008 27.3917Z" fill="#476594"/>
<g filter="url(#filter1_d)">
<path d="M164.681 33.9145C164.772 33.4437 165.184 33.1035 165.663 33.1035H188.129C188.76 33.1035 189.234 33.6815 189.109 34.3005L187.595 41.8366C187.501 42.3037 187.091 42.6397 186.615 42.6397H164.212C163.584 42.6397 163.111 42.0674 163.23 41.4506L164.681 33.9145Z" fill="#3DA2FA"/>
</g>
<path d="M168.645 38.95C168.424 38.95 168.209 38.9207 168.001 38.862C167.796 38.8007 167.631 38.722 167.505 38.626L167.725 38.138C167.845 38.226 167.988 38.2967 168.153 38.35C168.319 38.4034 168.484 38.43 168.649 38.43C168.833 38.43 168.969 38.4034 169.057 38.35C169.145 38.294 169.189 38.2207 169.189 38.13C169.189 38.0634 169.163 38.0087 169.109 37.966C169.059 37.9207 168.992 37.8847 168.909 37.858C168.829 37.8314 168.72 37.802 168.581 37.77C168.368 37.7194 168.193 37.6687 168.057 37.618C167.921 37.5674 167.804 37.486 167.705 37.374C167.609 37.262 167.561 37.1127 167.561 36.926C167.561 36.7634 167.605 36.6167 167.693 36.486C167.781 36.3527 167.913 36.2474 168.089 36.17C168.268 36.0927 168.485 36.054 168.741 36.054C168.92 36.054 169.095 36.0754 169.265 36.118C169.436 36.1607 169.585 36.222 169.713 36.302L169.513 36.794C169.255 36.6474 168.996 36.574 168.737 36.574C168.556 36.574 168.421 36.6034 168.333 36.662C168.248 36.7207 168.205 36.798 168.205 36.894C168.205 36.99 168.255 37.062 168.353 37.11C168.455 37.1554 168.608 37.2007 168.813 37.246C169.027 37.2967 169.201 37.3474 169.337 37.398C169.473 37.4487 169.589 37.5287 169.685 37.638C169.784 37.7474 169.833 37.8954 169.833 38.082C169.833 38.242 169.788 38.3887 169.697 38.522C169.609 38.6527 169.476 38.7567 169.297 38.834C169.119 38.9114 168.901 38.95 168.645 38.95ZM172.444 38.382V38.902H170.276V36.102H172.392V36.622H170.92V37.23H172.22V37.734H170.92V38.382H172.444ZM174.804 38.302H173.504L173.256 38.902H172.592L173.84 36.102H174.48L175.732 38.902H175.052L174.804 38.302ZM174.6 37.81L174.156 36.738L173.712 37.81H174.6ZM177.806 38.902L177.266 38.122H177.234H176.67V38.902H176.022V36.102H177.234C177.482 36.102 177.697 36.1434 177.878 36.226C178.062 36.3087 178.204 36.426 178.302 36.578C178.401 36.73 178.45 36.91 178.45 37.118C178.45 37.326 178.4 37.506 178.298 37.658C178.2 37.8074 178.058 37.922 177.874 38.002L178.502 38.902H177.806ZM177.794 37.118C177.794 36.9607 177.744 36.8407 177.642 36.758C177.541 36.6727 177.393 36.63 177.198 36.63H176.67V37.606H177.198C177.393 37.606 177.541 37.5634 177.642 37.478C177.744 37.3927 177.794 37.2727 177.794 37.118ZM180.304 38.95C180.018 38.95 179.76 38.8887 179.528 38.766C179.298 38.6407 179.117 38.4687 178.984 38.25C178.853 38.0287 178.788 37.7794 178.788 37.502C178.788 37.2247 178.853 36.9767 178.984 36.758C179.117 36.5367 179.298 36.3647 179.528 36.242C179.76 36.1167 180.02 36.054 180.308 36.054C180.55 36.054 180.769 36.0967 180.964 36.182C181.161 36.2674 181.326 36.39 181.46 36.55L181.044 36.934C180.854 36.7154 180.62 36.606 180.34 36.606C180.166 36.606 180.012 36.6447 179.876 36.722C179.74 36.7967 179.633 36.902 179.556 37.038C179.481 37.174 179.444 37.3287 179.444 37.502C179.444 37.6754 179.481 37.83 179.556 37.966C179.633 38.102 179.74 38.2087 179.876 38.286C180.012 38.3607 180.166 38.398 180.34 38.398C180.62 38.398 180.854 38.2874 181.044 38.066L181.46 38.45C181.326 38.6127 181.161 38.7367 180.964 38.822C180.766 38.9074 180.546 38.95 180.304 38.95ZM184.465 36.102V38.902H183.817V37.754H182.545V38.902H181.897V36.102H182.545V37.206H183.817V36.102H184.465Z" fill="white"/>
<g filter="url(#filter2_d)">
<path d="M80.4349 33.9145C80.5255 33.4437 80.9375 33.1035 81.4169 33.1035H160.933C161.565 33.1035 162.039 33.6833 161.913 34.3031L160.378 41.8392C160.283 42.305 159.873 42.6397 159.398 42.6397H79.9658C79.3377 42.6397 78.8651 42.0674 78.9838 41.4506L80.4349 33.9145Z" fill="white"/>
</g>
<path d="M88.0854 39.3504L88.08 36.6012L86.7162 38.8922H86.4682L85.1044 36.6174V39.3504H84.5869V35.577H85.0289L86.603 38.2292L88.1554 35.577H88.5975L88.6028 39.3504H88.0854Z" fill="#15354E"/>
<path d="M90.8349 39.3935C90.551 39.3935 90.2761 39.3504 90.0102 39.2641C89.7478 39.1743 89.5412 39.0593 89.3903 38.9191L89.5897 38.4987C89.7335 38.6281 89.9167 38.7341 90.1396 38.8167C90.366 38.8958 90.5978 38.9353 90.8349 38.9353C91.1476 38.9353 91.3812 38.8832 91.5357 38.779C91.6902 38.6712 91.7675 38.5292 91.7675 38.3531C91.7675 38.2238 91.7244 38.1196 91.6381 38.0405C91.5555 37.9578 91.4512 37.8949 91.3255 37.8518C91.2033 37.8087 91.029 37.7602 90.8026 37.7063C90.5187 37.638 90.2887 37.5697 90.1126 37.5014C89.9401 37.4332 89.791 37.3289 89.6652 37.1888C89.543 37.045 89.4819 36.8528 89.4819 36.612C89.4819 36.4108 89.534 36.2293 89.6382 36.0676C89.7461 35.9058 89.9078 35.7765 90.1234 35.6794C90.339 35.5824 90.6067 35.5339 90.9266 35.5339C91.1494 35.5339 91.3686 35.5627 91.5842 35.6202C91.7998 35.6777 91.9849 35.7603 92.1394 35.8681L91.9615 36.2994C91.8034 36.1987 91.6345 36.1233 91.4548 36.073C91.2752 36.0191 91.0991 35.9921 90.9266 35.9921C90.6211 35.9921 90.3911 36.0478 90.2366 36.1592C90.0857 36.2706 90.0102 36.4144 90.0102 36.5904C90.0102 36.7198 90.0533 36.8258 90.1396 36.9085C90.2258 36.9875 90.3318 37.0504 90.4576 37.0972C90.587 37.1403 90.7613 37.187 90.9805 37.2373C91.2644 37.3056 91.4926 37.3739 91.6651 37.4421C91.8376 37.5104 91.9849 37.6146 92.1071 37.7548C92.2329 37.8949 92.2958 38.0836 92.2958 38.3208C92.2958 38.5184 92.2419 38.6999 92.134 38.8652C92.0262 39.027 91.8627 39.1563 91.6435 39.2534C91.4243 39.3468 91.1548 39.3935 90.8349 39.3935Z" fill="#15354E"/>
<path d="M94.7705 39.3935C94.3932 39.3935 94.0518 39.3109 93.7463 39.1455C93.4444 38.9766 93.2073 38.7466 93.0348 38.4556C92.8623 38.1609 92.776 37.8303 92.776 37.4637C92.776 37.0972 92.8623 36.7683 93.0348 36.4772C93.2073 36.1826 93.4462 35.9526 93.7517 35.7873C94.0572 35.6184 94.3986 35.5339 94.7759 35.5339C95.0706 35.5339 95.3401 35.5842 95.5845 35.6848C95.8288 35.7819 96.0373 35.9274 96.2098 36.1215L95.8594 36.4611C95.5755 36.1628 95.2215 36.0137 94.7975 36.0137C94.5172 36.0137 94.2638 36.0765 94.0374 36.2023C93.811 36.3281 93.6331 36.5024 93.5037 36.7252C93.378 36.9444 93.3151 37.1906 93.3151 37.4637C93.3151 37.7368 93.378 37.9848 93.5037 38.2076C93.6331 38.4268 93.811 38.5993 94.0374 38.7251C94.2638 38.8509 94.5172 38.9138 94.7975 38.9138C95.2179 38.9138 95.5719 38.7628 95.8594 38.461L96.2098 38.8006C96.0373 38.9946 95.827 39.142 95.5791 39.2426C95.3347 39.3432 95.0652 39.3935 94.7705 39.3935Z" fill="#15354E"/>
<path d="M98.5262 39.3935C98.0231 39.3935 97.6314 39.2498 97.3511 38.9623C97.0708 38.6748 96.9306 38.2615 96.9306 37.7225V35.577H97.4697V37.7009C97.4697 38.5095 97.8237 38.9138 98.5316 38.9138C98.8766 38.9138 99.1407 38.8149 99.324 38.6173C99.5073 38.416 99.5989 38.1106 99.5989 37.7009V35.577H100.122V37.7225C100.122 38.2651 99.9817 38.6802 99.7013 38.9677C99.421 39.2516 99.0293 39.3935 98.5262 39.3935Z" fill="#15354E"/>
<path d="M102.089 35.577V39.3504H101.556V36.046H100.704V35.577H102.089Z" fill="#15354E"/>
<path d="M104.085 35.577V39.3504H103.551V36.046H102.699V35.577H104.085Z" fill="#15354E"/>
<path d="M107.562 38.8814V39.3504H104.851V38.9838L106.387 37.5014C106.574 37.3218 106.7 37.1672 106.764 37.0379C106.829 36.9049 106.861 36.7719 106.861 36.639C106.861 36.4413 106.791 36.2886 106.651 36.1808C106.514 36.0694 106.317 36.0137 106.058 36.0137C105.641 36.0137 105.32 36.1502 105.093 36.4233L104.727 36.1053C104.874 35.9256 105.066 35.7855 105.303 35.6848C105.544 35.5842 105.812 35.5339 106.107 35.5339C106.502 35.5339 106.816 35.6291 107.05 35.8196C107.284 36.0065 107.4 36.2616 107.4 36.5851C107.4 36.7863 107.357 36.9768 107.271 37.1564C107.185 37.3361 107.021 37.541 106.78 37.771L105.627 38.8814H107.562Z" fill="#15354E"/>
<path d="M109.45 37.1618C109.82 37.1978 110.102 37.3128 110.296 37.5068C110.49 37.6973 110.587 37.9417 110.587 38.2399C110.587 38.4556 110.533 38.6514 110.426 38.8275C110.318 39 110.156 39.1384 109.94 39.2426C109.728 39.3432 109.468 39.3935 109.159 39.3935C108.889 39.3935 108.631 39.354 108.383 39.2749C108.135 39.1923 107.932 39.0791 107.773 38.9353L108.021 38.5095C108.151 38.6316 108.316 38.7305 108.517 38.8059C108.719 38.8778 108.932 38.9138 109.159 38.9138C109.439 38.9138 109.657 38.8545 109.811 38.7359C109.969 38.6173 110.048 38.4538 110.048 38.2453C110.048 38.0369 109.971 37.8752 109.816 37.7602C109.662 37.6452 109.428 37.5877 109.116 37.5877H108.814V37.2104L109.763 36.046H107.946V35.577H110.436V35.9436L109.45 37.1618Z" fill="#15354E"/>
<path d="M112.718 37.0594C112.966 37.0594 113.187 37.1061 113.381 37.1996C113.579 37.293 113.733 37.4278 113.845 37.6039C113.956 37.7764 114.012 37.9758 114.012 38.2022C114.012 38.4394 113.952 38.6478 113.834 38.8275C113.719 39.0072 113.559 39.1473 113.354 39.248C113.153 39.345 112.926 39.3935 112.675 39.3935C112.168 39.3935 111.776 39.23 111.5 38.903C111.227 38.5759 111.09 38.1124 111.09 37.5122C111.09 37.0918 111.164 36.7342 111.311 36.4395C111.462 36.1412 111.67 35.9166 111.936 35.7657C112.206 35.6112 112.519 35.5339 112.874 35.5339C113.058 35.5339 113.23 35.5537 113.392 35.5932C113.554 35.6291 113.694 35.683 113.812 35.7549L113.607 36.1754C113.428 36.0568 113.187 35.9975 112.885 35.9975C112.493 35.9975 112.186 36.1197 111.963 36.364C111.741 36.6048 111.629 36.957 111.629 37.4206C111.629 37.4781 111.631 37.523 111.634 37.5553C111.742 37.3936 111.89 37.2714 112.077 37.1888C112.267 37.1025 112.481 37.0594 112.718 37.0594ZM112.653 38.9569C112.901 38.9569 113.103 38.8904 113.257 38.7574C113.412 38.6245 113.489 38.4466 113.489 38.2238C113.489 38.001 113.41 37.8249 113.252 37.6955C113.097 37.5625 112.889 37.496 112.626 37.496C112.457 37.496 112.307 37.5284 112.174 37.5931C112.044 37.6578 111.942 37.7458 111.866 37.8572C111.794 37.9686 111.758 38.0926 111.758 38.2292C111.758 38.3621 111.793 38.4843 111.861 38.5957C111.933 38.7035 112.035 38.7916 112.168 38.8598C112.305 38.9245 112.466 38.9569 112.653 38.9569Z" fill="#15354E"/>
<path d="M115.495 37.081C116.034 37.081 116.429 37.1834 116.681 37.3882C116.936 37.5895 117.064 37.8662 117.064 38.2184C117.064 38.4412 117.01 38.6424 116.902 38.8221C116.798 38.9982 116.638 39.1384 116.422 39.2426C116.21 39.3432 115.948 39.3935 115.635 39.3935C115.369 39.3935 115.112 39.354 114.864 39.2749C114.616 39.1923 114.412 39.0791 114.25 38.9353L114.498 38.5095C114.627 38.6316 114.793 38.7305 114.994 38.8059C115.195 38.8778 115.407 38.9138 115.63 38.9138C115.914 38.9138 116.133 38.8545 116.288 38.7359C116.446 38.6137 116.525 38.4484 116.525 38.2399C116.525 38.0135 116.438 37.8428 116.266 37.7278C116.093 37.6093 115.799 37.55 115.382 37.55H114.525L114.724 35.577H116.854V36.046H115.177L115.075 37.081H115.495Z" fill="#15354E"/>
<path d="M120.193 35.577V35.9436L118.668 39.3504H118.096L119.589 36.046H117.864V36.7198H117.347V35.577H120.193Z" fill="#15354E"/>
<path fill-rule="evenodd" clip-rule="evenodd" d="M154.168 38.1365C154.855 38.1365 155.38 37.5994 155.38 36.9761C155.38 36.3528 154.855 35.8157 154.168 35.8157C153.481 35.8157 152.956 36.3528 152.956 36.9761C152.956 37.5994 153.481 38.1365 154.168 38.1365ZM154.168 38.8103C155.21 38.8103 156.054 37.9891 156.054 36.9761C156.054 35.9631 155.21 35.1419 154.168 35.1419C153.127 35.1419 152.282 35.9631 152.282 36.9761C152.282 37.9891 153.127 38.8103 154.168 38.8103Z" fill="#C6CDD8"/>
<path fill-rule="evenodd" clip-rule="evenodd" d="M156.383 39.7856L155.062 38.5016L155.532 38.0186L156.852 39.3026L156.383 39.7856Z" fill="#C6CDD8"/>
<path d="M71.6044 105.086L66.8623 130.723" stroke="#F1F4FB" stroke-width="0.3"/>
<path d="M62.3553 57.7777C62.6245 56.3624 63.8618 55.3383 65.3024 55.3383L175.997 55.3383C177.239 55.3383 178.181 56.4584 177.967 57.6819L176.403 66.6524C176.153 68.0888 174.906 69.137 173.448 69.137H62.6107C61.3562 69.137 60.4115 67.9956 60.6459 66.7633L62.3553 57.7777Z" fill="white"/>
<path d="M66.527 59.4014C66.6267 58.9415 67.0336 58.6134 67.5042 58.6134H75.841C76.4627 58.6134 76.9337 59.1746 76.8258 59.7869L76.2329 63.1521C76.1487 63.6301 75.7334 63.9786 75.2481 63.9786H66.7743C66.1367 63.9786 65.6619 63.3898 65.7971 62.7667L66.527 59.4014Z" fill="#FFD96E"/>
<path d="M66.6298 58.543C66.7217 58.0738 67.133 57.7354 67.6111 57.7354H70.2061C70.8277 57.7354 71.2988 58.2966 71.1909 58.9089L70.598 62.2741C70.5138 62.7521 70.0985 63.1006 69.6131 63.1006H66.9514C66.3219 63.1006 65.849 62.526 65.9701 61.9082L66.6298 58.543Z" fill="#FFD96E"/>
<path d="M66.217 60.5918C66.313 60.1273 66.7221 59.7942 67.1964 59.7942H75.6482C76.2699 59.7942 76.7409 60.3554 76.633 60.9677L76.0401 64.3329C75.9559 64.8109 75.5406 65.1594 75.0553 65.1594H66.5011C65.8675 65.1594 65.3936 64.5776 65.5218 63.9571L66.217 60.5918Z" fill="#FFBC00"/>
<path d="M85.6781 58.8515C86.0947 58.159 86.8438 57.7354 87.6521 57.7354H106.358C107.399 57.7354 108.116 58.7795 107.743 59.7513C107.413 60.6113 106.587 61.1788 105.665 61.1788H86.9941C85.7997 61.1788 85.0625 59.8751 85.6781 58.8515Z" fill="url(#paint0_linear)"/>
<path d="M85.248 64.1315C85.5583 63.7773 86.0063 63.5741 86.4773 63.5741H97.0979C97.8986 63.5741 98.4036 64.4354 98.0127 65.1342C97.7347 65.631 97.2098 65.9388 96.6405 65.9388H86.0675C85.1313 65.9388 84.6311 64.8358 85.248 64.1315Z" fill="url(#paint1_linear)" fill-opacity="0.4"/>
<path d="M157.335 64.1315C157.645 63.7773 158.093 63.5741 158.564 63.5741H170.678C171.479 63.5741 171.984 64.4354 171.593 65.1342C171.315 65.631 170.79 65.9388 170.221 65.9388H158.154C157.218 65.9388 156.718 64.8358 157.335 64.1315Z" fill="url(#paint2_linear)" fill-opacity="0.4"/>
<path d="M59.3445 73.3714C59.6138 71.9561 60.851 70.932 62.2917 70.932H172.841C174.083 70.932 175.024 72.0521 174.811 73.2756L173.247 82.2461C172.996 83.6825 171.749 84.7308 170.291 84.7308H59.5999C58.3455 84.7308 57.4007 83.5893 57.6352 82.357L59.3445 73.3714Z" fill="white"/>
<path d="M63.5914 74.9951C63.6912 74.5352 64.0981 74.2071 64.5687 74.2071H72.9054C73.5271 74.2071 73.9981 74.7683 73.8903 75.3806L73.2974 78.7458C73.2132 79.2238 72.7979 79.5723 72.3125 79.5723H63.8388C63.2011 79.5723 62.7263 78.9835 62.8615 78.3604L63.5914 74.9951Z" fill="#FFD96E"/>
<path d="M63.6142 74.1293C63.7091 73.6636 64.1188 73.3291 64.5941 73.3291H67.2705C67.8922 73.3291 68.3632 73.8903 68.2553 74.5026L67.6624 77.8678C67.5782 78.3458 67.1629 78.6943 66.6776 78.6943H63.908C63.2755 78.6943 62.8018 78.1144 62.9282 77.4946L63.6142 74.1293Z" fill="#FFD96E"/>
<path d="M63.2426 76.1933C63.3354 75.7251 63.7462 75.3879 64.2234 75.3879H72.7127C73.3344 75.3879 73.8054 75.9491 73.6975 76.5614L73.1046 79.9266C73.0204 80.4046 72.6051 80.7531 72.1198 80.7531H63.5558C62.9254 80.7531 62.4522 80.1769 62.5749 79.5585L63.2426 76.1933Z" fill="#FFBC00"/>
<path d="M82.5766 74.4453C82.9932 73.7527 83.7423 73.3291 84.5505 73.3291H103.256C104.297 73.3291 105.015 74.3732 104.641 75.345C104.311 76.205 103.485 76.7725 102.564 76.7725H83.8925C82.6981 76.7725 81.9609 75.4688 82.5766 74.4453Z" fill="url(#paint3_linear)"/>
<path d="M82.1464 79.7253C82.4567 79.371 82.9048 79.1678 83.3757 79.1678H93.9963C94.797 79.1678 95.3021 80.0291 94.9111 80.7279C94.6331 81.2247 94.1083 81.5325 93.5389 81.5325H82.966C82.0297 81.5325 81.5296 80.4295 82.1464 79.7253Z" fill="url(#paint4_linear)" fill-opacity="0.4"/>
<path d="M154.508 79.7252C154.818 79.371 155.266 79.1678 155.737 79.1678H167.851C168.652 79.1678 169.157 80.0291 168.766 80.7278C168.488 81.2247 167.963 81.5325 167.394 81.5325H155.327C154.391 81.5325 153.891 80.4295 154.508 79.7252Z" fill="url(#paint5_linear)" fill-opacity="0.4"/>
<path d="M57.1537 88.96C57.425 87.5471 58.6611 86.5258 60.0998 86.5258H170.34C171.584 86.5258 172.526 87.6491 172.309 88.874L168.616 109.762C168.362 111.195 167.117 112.24 165.662 112.24H55.1042C53.8483 112.24 52.9032 111.096 53.14 109.862L57.1537 88.96Z" fill="white"/>
<path d="M60.3685 95.1542C60.4591 94.6835 60.8711 94.3433 61.3505 94.3433H87.0703C87.6842 94.3433 88.1532 94.8913 88.0583 95.4978L86.8796 103.034C86.8035 103.521 86.3842 103.879 85.8916 103.879H59.8994C59.2713 103.879 58.7987 103.307 58.9174 102.69L60.3685 95.1542Z" fill="#E6B100"/>
<path d="M61.2633 90.2559C61.4718 89.2574 62.3519 88.542 63.372 88.542H78.2486C79.2897 88.542 80.007 89.5861 79.6337 90.558C79.3033 91.4179 78.4773 91.9854 77.556 91.9854H62.6691C61.758 91.9854 61.0772 91.1478 61.2633 90.2559Z" fill="url(#paint6_linear)"/>
<path d="M57.683 106.478C58.0996 105.785 58.8487 105.362 59.657 105.362H74.3941C75.4352 105.362 76.1526 106.406 75.7792 107.378C75.4488 108.237 74.6228 108.805 73.7016 108.805H58.999C57.8046 108.805 57.0674 107.501 57.683 106.478Z" fill="url(#paint7_linear)"/>
<path d="M94.5522 89.6582C94.9688 88.9656 95.7179 88.542 96.5261 88.542H115.232C116.273 88.542 116.99 89.5861 116.617 90.558C116.287 91.4179 115.461 91.9854 114.539 91.9854H95.8681C94.6737 91.9854 93.9365 90.6817 94.5522 89.6582Z" fill="url(#paint8_linear)"/>
<path d="M145.435 89.6582C145.852 88.9656 146.601 88.542 147.409 88.542H166.115C167.156 88.542 167.873 89.5861 167.5 90.558C167.169 91.4179 166.343 91.9854 165.422 91.9854H146.751C145.557 91.9854 144.819 90.6817 145.435 89.6582Z" fill="url(#paint9_linear)"/>
<path d="M91.3129 100.718C91.7295 100.025 92.4786 99.6015 93.2868 99.6015H163.341C164.382 99.6015 165.099 100.646 164.726 101.617C164.395 102.477 163.569 103.045 162.648 103.045H92.6289C91.4344 103.045 90.6973 101.741 91.3129 100.718Z" fill="url(#paint10_linear)" fill-opacity="0.5"/>
<path d="M93.3886 94.9382C93.6989 94.5839 94.147 94.3807 94.6179 94.3807H105.239C106.039 94.3807 106.544 95.2421 106.153 95.9408C105.875 96.4376 105.35 96.7454 104.781 96.7454H94.2081C93.2719 96.7454 92.7717 95.6425 93.3886 94.9382Z" fill="url(#paint11_linear)" fill-opacity="0.4"/>
<path d="M152.275 94.9382C152.586 94.5839 153.034 94.3807 153.505 94.3807H165.619C166.419 94.3807 166.924 95.2421 166.534 95.9408C166.256 96.4376 165.731 96.7454 165.161 96.7454H153.095C152.159 96.7454 151.658 95.6425 152.275 94.9382Z" fill="url(#paint12_linear)" fill-opacity="0.4"/>
<path d="M149.381 106.458C149.691 106.104 150.139 105.901 150.61 105.901H162.724C163.525 105.901 164.03 106.762 163.639 107.461C163.361 107.958 162.836 108.266 162.267 108.266H150.2C149.264 108.266 148.764 107.163 149.381 106.458Z" fill="url(#paint13_linear)" fill-opacity="0.4"/>
<path d="M119.875 94.9382C120.185 94.5839 120.633 94.3807 121.104 94.3807H133.218C134.019 94.3807 134.524 95.2421 134.133 95.9408C133.855 96.4377 133.33 96.7454 132.761 96.7454H120.694C119.758 96.7454 119.258 95.6425 119.875 94.9382Z" fill="url(#paint14_linear)"/>
<path d="M56.2787 89.322C56.55 87.9091 57.7861 86.8877 59.2248 86.8877H169.465C170.709 86.8877 171.651 88.0111 171.434 89.236L167.741 110.124C167.487 111.557 166.242 112.602 164.787 112.602H54.2292C52.9733 112.602 52.0282 111.458 52.265 110.224L56.2787 89.322Z" fill="white"/>
<path d="M59.4935 95.5162C59.5841 95.0454 59.9961 94.7053 60.4755 94.7053H86.1953C86.8092 94.7053 87.2782 95.2533 87.1833 95.8598L86.0046 103.396C85.9285 103.883 85.5092 104.241 85.0166 104.241H59.0244C58.3963 104.241 57.9237 103.669 58.0424 103.052L59.4935 95.5162Z" fill="#0088FF"/>
<path d="M60.3883 90.6179C60.5968 89.6194 61.4769 88.904 62.497 88.904H77.3736C78.4147 88.904 79.132 89.9481 78.7587 90.9199V90.9199C78.4283 91.7799 77.6023 92.3474 76.681 92.3474H61.7941C60.883 92.3474 60.2022 91.5098 60.3883 90.6179V90.6179Z" fill="url(#paint15_linear)"/>
<path d="M56.808 106.84C57.2246 106.147 57.9737 105.724 58.782 105.724H73.5191C74.5602 105.724 75.2776 106.768 74.9042 107.74V107.74C74.5738 108.599 73.7478 109.167 72.8266 109.167H58.124C56.9296 109.167 56.1924 107.863 56.808 106.84V106.84Z" fill="url(#paint16_linear)"/>
<path d="M93.6772 90.0202C94.0938 89.3276 94.8429 88.904 95.6511 88.904H114.357C115.398 88.904 116.115 89.9481 115.742 90.9199V90.9199C115.412 91.7799 114.586 92.3474 113.664 92.3474H94.9931C93.7987 92.3474 93.0615 91.0437 93.6772 90.0202V90.0202Z" fill="url(#paint17_linear)"/>
<path d="M144.56 90.0202C144.977 89.3276 145.726 88.904 146.534 88.904H165.24C166.281 88.904 166.998 89.9481 166.625 90.9199V90.9199C166.294 91.7799 165.468 92.3474 164.547 92.3474H145.876C144.682 92.3474 143.944 91.0437 144.56 90.0202V90.0202Z" fill="url(#paint18_linear)"/>
<path d="M90.4379 101.08C90.8545 100.387 91.6036 99.9635 92.4118 99.9635H162.466C163.507 99.9635 164.224 101.008 163.851 101.979V101.979C163.52 102.839 162.694 103.407 161.773 103.407H91.7539C90.5594 103.407 89.8223 102.103 90.4379 101.08V101.08Z" fill="url(#paint19_linear)" fill-opacity="0.5"/>
<path d="M92.5136 95.3002C92.8239 94.9459 93.272 94.7427 93.7429 94.7427H104.364C105.164 94.7427 105.669 95.6041 105.278 96.3028V96.3028C105 96.7996 104.475 97.1074 103.906 97.1074H93.3331C92.3969 97.1074 91.8967 96.0045 92.5136 95.3002V95.3002Z" fill="url(#paint20_linear)" fill-opacity="0.4"/>
<path d="M151.4 95.3002C151.711 94.9459 152.159 94.7427 152.63 94.7427H164.744C165.544 94.7427 166.049 95.6041 165.659 96.3028V96.3028C165.381 96.7996 164.856 97.1074 164.286 97.1074H152.22C151.284 97.1074 150.783 96.0045 151.4 95.3002V95.3002Z" fill="url(#paint21_linear)" fill-opacity="0.4"/>
<path d="M148.506 106.82C148.816 106.466 149.264 106.263 149.735 106.263H161.849C162.65 106.263 163.155 107.124 162.764 107.823V107.823C162.486 108.32 161.961 108.628 161.392 108.628H149.325C148.389 108.628 147.889 107.525 148.506 106.82V106.82Z" fill="url(#paint22_linear)" fill-opacity="0.4"/>
<path d="M119 95.3002C119.31 94.9459 119.758 94.7427 120.229 94.7427H132.343C133.144 94.7427 133.649 95.6041 133.258 96.3028V96.3028C132.98 96.7996 132.455 97.1074 131.886 97.1074H119.819C118.883 97.1074 118.383 96.0045 119 95.3002V95.3002Z" fill="url(#paint23_linear)"/>
<path d="M50.9291 117.193C51.2004 115.78 52.4365 114.759 53.8752 114.759H164.115C165.359 114.759 166.301 115.882 166.085 117.107L162.391 137.995C162.138 139.428 160.892 140.473 159.437 140.473H48.8796C47.6237 140.473 46.6786 139.329 46.9154 138.095L50.9291 117.193Z" fill="white"/>
<path d="M54.1439 123.387C54.2345 122.916 54.6465 122.576 55.1259 122.576H80.8457C81.4596 122.576 81.9286 123.124 81.8337 123.731L80.655 131.267C80.5789 131.754 80.1596 132.112 79.667 132.112H53.6748C53.0467 132.112 52.5741 131.54 52.6928 130.923L54.1439 123.387Z" fill="#09B44D"/>
<path d="M55.0387 118.489C55.2472 117.49 56.1273 116.775 57.1473 116.775H72.024C73.065 116.775 73.7824 117.819 73.409 118.791V118.791C73.0786 119.651 72.2526 120.218 71.3314 120.218H56.4445C55.5333 120.218 54.8526 119.381 55.0387 118.489V118.489Z" fill="url(#paint24_linear)"/>
<path d="M51.4584 134.711C51.875 134.018 52.6241 133.595 53.4323 133.595H68.1695C69.2106 133.595 69.9279 134.639 69.5546 135.61V135.61C69.2242 136.47 68.3981 137.038 67.4769 137.038H52.7744C51.5799 137.038 50.8428 135.734 51.4584 134.711V134.711Z" fill="url(#paint25_linear)"/>
<path d="M88.3276 117.891C88.7442 117.199 89.4933 116.775 90.3015 116.775H109.007C110.048 116.775 110.766 117.819 110.392 118.791V118.791C110.062 119.651 109.236 120.218 108.315 120.218H89.6435C88.4491 120.218 87.7119 118.915 88.3276 117.891V117.891Z" fill="url(#paint26_linear)"/>
<path d="M139.21 117.891C139.627 117.199 140.376 116.775 141.184 116.775H159.89C160.931 116.775 161.649 117.819 161.275 118.791V118.791C160.945 119.651 160.119 120.218 159.198 120.218H140.526C139.332 120.218 138.595 118.915 139.21 117.891V117.891Z" fill="url(#paint27_linear)"/>
<path d="M85.0883 128.951C85.5049 128.258 86.254 127.834 87.0622 127.834H157.116C158.157 127.834 158.874 128.879 158.501 129.85V129.85C158.171 130.71 157.345 131.278 156.423 131.278H86.4043C85.2098 131.278 84.4726 129.974 85.0883 128.951V128.951Z" fill="url(#paint28_linear)" fill-opacity="0.5"/>
<path d="M87.164 123.171C87.4743 122.817 87.9224 122.614 88.3933 122.614H99.0139C99.8146 122.614 100.32 123.475 99.9287 124.174V124.174C99.6507 124.671 99.1259 124.978 98.5565 124.978H87.9835C87.0473 124.978 86.5471 123.875 87.164 123.171V123.171Z" fill="url(#paint29_linear)" fill-opacity="0.4"/>
<path d="M146.051 123.171C146.361 122.817 146.809 122.614 147.28 122.614H159.394C160.195 122.614 160.7 123.475 160.309 124.174V124.174C160.031 124.671 159.506 124.978 158.937 124.978H146.87C145.934 124.978 145.434 123.875 146.051 123.171V123.171Z" fill="url(#paint30_linear)" fill-opacity="0.4"/>
<path d="M143.156 134.691C143.466 134.337 143.915 134.134 144.385 134.134H156.5C157.3 134.134 157.805 134.995 157.414 135.694V135.694C157.136 136.191 156.612 136.499 156.042 136.499H143.976C143.039 136.499 142.539 135.396 143.156 134.691V134.691Z" fill="url(#paint31_linear)" fill-opacity="0.4"/>
<path d="M113.65 123.171C113.961 122.817 114.409 122.614 114.88 122.614H126.994C127.794 122.614 128.299 123.475 127.909 124.174V124.174C127.631 124.671 127.106 124.978 126.536 124.978H114.47C113.534 124.978 113.033 123.875 113.65 123.171V123.171Z" fill="url(#paint32_linear)"/>
<path d="M45.4937 144.709C45.7619 143.293 46.9997 142.268 48.4413 142.268H158.728C159.972 142.268 160.914 143.391 160.697 144.616L157.004 165.504C156.75 166.937 155.505 167.981 154.049 167.981H43.5012C42.2474 167.981 41.3028 166.841 41.5361 165.609L45.4937 144.709Z" fill="white"/>
<path d="M48.9525 150.67C49.0431 150.2 49.4551 149.859 49.9345 149.859H75.6543C76.2682 149.859 76.7372 150.407 76.6423 151.014L75.4636 158.55C75.3875 159.037 74.9682 159.396 74.4756 159.396H48.4834C47.8553 159.396 47.3827 158.823 47.5014 158.206L48.9525 150.67Z" fill="#E6B100"/>
<path d="M49.5729 146.51C49.7813 145.512 50.6615 144.797 51.6815 144.797H66.9572C67.8581 144.797 68.5352 145.618 68.3629 146.503C68.1663 147.512 67.2824 148.24 66.2544 148.24H50.9787C50.0675 148.24 49.3867 147.402 49.5729 146.51Z" fill="url(#paint33_linear)"/>
<path d="M46.3667 163.345C46.5674 162.34 47.45 161.616 48.4753 161.616H63.585C64.4873 161.616 65.165 162.44 64.9907 163.325C64.7924 164.333 63.909 165.059 62.8821 165.059H47.7724C46.868 165.059 46.1896 164.232 46.3667 163.345Z" fill="url(#paint34_linear)"/>
<path d="M82.4653 145.913C82.8819 145.22 83.631 144.797 84.4392 144.797H103.145C104.186 144.797 104.903 145.841 104.53 146.812C104.2 147.672 103.374 148.24 102.453 148.24H83.7812C82.5868 148.24 81.8496 146.936 82.4653 145.913Z" fill="url(#paint35_linear)"/>
<path d="M133.539 145.913C133.956 145.22 134.705 144.796 135.513 144.796H154.219C155.26 144.796 155.978 145.841 155.604 146.812C155.274 147.672 154.448 148.24 153.527 148.24H134.855C133.661 148.24 132.924 146.936 133.539 145.913Z" fill="url(#paint36_linear)"/>
<path d="M80.0864 156.972C80.5029 156.28 81.252 155.856 82.0603 155.856H152.114C153.155 155.856 153.873 156.9 153.499 157.872C153.169 158.732 152.343 159.299 151.422 159.299H81.4023C80.2079 159.299 79.4707 157.996 80.0864 156.972Z" fill="url(#paint37_linear)" fill-opacity="0.5"/>
<path d="M81.1914 151.193C81.5017 150.838 81.9497 150.635 82.4206 150.635H93.0413C93.8419 150.635 94.347 151.497 93.956 152.195C93.6781 152.692 93.1532 153 92.5839 153H82.0109C81.0746 153 80.5745 151.897 81.1914 151.193Z" fill="url(#paint38_linear)" fill-opacity="0.4"/>
<path d="M140.085 151.193C140.395 150.838 140.843 150.635 141.314 150.635H153.428C154.229 150.635 154.734 151.497 154.343 152.195C154.065 152.692 153.54 153 152.971 153H140.904C139.968 153 139.468 151.897 140.085 151.193Z" fill="url(#paint39_linear)" fill-opacity="0.4"/>
<path d="M138.154 162.713C138.465 162.359 138.913 162.155 139.384 162.155H151.498C152.298 162.155 152.803 163.017 152.412 163.715C152.134 164.212 151.61 164.52 151.04 164.52H138.974C138.038 164.52 137.537 163.417 138.154 162.713Z" fill="url(#paint40_linear)" fill-opacity="0.4"/>
<path d="M108.648 151.193C108.959 150.838 109.407 150.635 109.878 150.635H121.992C122.792 150.635 123.297 151.497 122.907 152.195C122.629 152.692 122.104 153 121.534 153H109.468C108.532 153 108.032 151.897 108.648 151.193Z" fill="url(#paint41_linear)"/>
<path d="M40.047 172.768C40.3208 171.358 41.5556 170.34 42.992 170.34H153.243C154.487 170.34 155.429 171.463 155.213 172.688L151.519 193.576C151.266 195.009 150.02 196.054 148.565 196.054H37.9502C36.6927 196.054 35.7472 194.907 35.9869 193.673L40.047 172.768Z" fill="white"/>
<path d="M43.4652 178.134C43.5558 177.664 43.9678 177.324 44.4471 177.324H70.167C70.7809 177.324 71.2499 177.872 71.155 178.478L69.9763 186.014C69.9002 186.501 69.4809 186.86 68.9883 186.86H42.9961C42.368 186.86 41.8953 186.287 42.0141 185.671L43.4652 178.134Z" fill="#FF6556"/>
<path d="M44.1919 173.882C44.3848 172.87 45.2699 172.138 46.3004 172.138H61.5019C62.3775 172.138 63.0452 172.921 62.9064 173.785C62.7403 174.82 61.8475 175.581 60.7997 175.581H45.5976C44.6999 175.581 44.0239 174.764 44.1919 173.882Z" fill="url(#paint42_linear)"/>
<path d="M40.9732 190.702C41.1661 189.689 42.0512 188.957 43.0816 188.957H58.3085C59.2133 188.957 59.8919 189.785 59.7142 190.672C59.513 191.677 58.6305 192.4 57.6056 192.4H42.3788C41.4811 192.4 40.8051 191.583 40.9732 190.702Z" fill="url(#paint43_linear)"/>
<path d="M77.3471 173.254C77.7637 172.561 78.5128 172.138 79.321 172.138H98.0269C99.0679 172.138 99.7853 173.182 99.4119 174.153C99.0815 175.013 98.2555 175.581 97.3343 175.581H78.663C77.4686 175.581 76.7314 174.277 77.3471 173.254Z" fill="url(#paint44_linear)"/>
<path d="M128.52 173.254C128.937 172.561 129.686 172.138 130.494 172.138H149.2C150.241 172.138 150.958 173.182 150.585 174.153C150.254 175.013 149.428 175.581 148.507 175.581H129.836C128.641 175.581 127.904 174.277 128.52 173.254Z" fill="url(#paint45_linear)"/>
<path d="M75.0678 184.313C75.4844 183.621 76.2335 183.197 77.0417 183.197H147.095C148.137 183.197 148.854 184.241 148.481 185.213C148.15 186.073 147.324 186.64 146.403 186.64H76.3837C75.1893 186.64 74.4521 185.337 75.0678 184.313Z" fill="url(#paint46_linear)" fill-opacity="0.5"/>
<path d="M76.1718 178.534C76.4821 178.179 76.9302 177.976 77.4011 177.976H88.0217C88.8224 177.976 89.3274 178.838 88.9365 179.536C88.6585 180.033 88.1337 180.341 87.5643 180.341H76.9913C76.0551 180.341 75.5549 179.238 76.1718 178.534Z" fill="url(#paint47_linear)" fill-opacity="0.4"/>
<path d="M135.066 178.534C135.377 178.179 135.825 177.976 136.296 177.976H148.41C149.21 177.976 149.715 178.838 149.325 179.536C149.047 180.033 148.522 180.341 147.952 180.341H135.886C134.95 180.341 134.449 179.238 135.066 178.534Z" fill="url(#paint48_linear)" fill-opacity="0.4"/>
<path d="M133.135 190.054C133.445 189.7 133.893 189.496 134.364 189.496H146.478C147.279 189.496 147.784 190.358 147.393 191.057C147.115 191.553 146.59 191.861 146.021 191.861H133.954C133.018 191.861 132.518 190.758 133.135 190.054Z" fill="url(#paint49_linear)" fill-opacity="0.4"/>
<path d="M103.629 178.534C103.939 178.179 104.387 177.976 104.858 177.976H116.972C117.773 177.976 118.278 178.838 117.887 179.536C117.609 180.033 117.084 180.341 116.515 180.341H104.448C103.512 180.341 103.012 179.238 103.629 178.534Z" fill="url(#paint50_linear)"/>
<path d="M34.6997 200.285C34.9703 198.871 36.2068 197.849 37.6462 197.849H147.844C149.088 197.849 150.03 198.973 149.813 200.197L146.12 221.085C145.866 222.518 144.621 223.563 143.166 223.563H32.6624C31.407 223.563 30.462 222.42 30.6981 221.187L34.6997 200.285Z" fill="white"/>
<path d="M38.2044 205.644C38.2951 205.173 38.707 204.833 39.1864 204.833H64.9063C65.5202 204.833 65.9891 205.381 65.8943 205.987L64.7155 213.523C64.6394 214.01 64.2202 214.369 63.7276 214.369H37.7353C37.1072 214.369 36.6346 213.796 36.7534 213.18L38.2044 205.644Z" fill="#0088FF"/>
<path d="M38.8794 201.61C39.0723 200.598 39.9574 199.866 40.9879 199.866H56.3211C57.2161 199.866 57.8911 200.679 57.7266 201.558C57.5369 202.573 56.6509 203.309 55.6183 203.309H40.2851C39.3874 203.309 38.7114 202.492 38.8794 201.61Z" fill="url(#paint51_linear)"/>
<path d="M35.6792 218.415C35.8799 217.409 36.7625 216.685 37.7878 216.685H53.1804C54.0672 216.685 54.7392 217.486 54.5856 218.359C54.4056 219.383 53.5167 220.129 52.4778 220.129H37.0849C36.1805 220.129 35.5021 219.302 35.6792 218.415Z" fill="url(#paint52_linear)"/>
<path d="M71.8959 200.982C72.3125 200.289 73.0616 199.866 73.8698 199.866H92.5757C93.6168 199.866 94.3342 200.91 93.9608 201.882C93.6304 202.742 92.8044 203.309 91.8832 203.309H73.2119C72.0174 203.309 71.2803 202.006 71.8959 200.982Z" fill="url(#paint53_linear)"/>
<path d="M123.328 200.982C123.744 200.289 124.493 199.866 125.301 199.866H144.007C145.048 199.866 145.766 200.91 145.392 201.882C145.062 202.742 144.236 203.309 143.315 203.309H124.644C123.449 203.309 122.712 202.006 123.328 200.982Z" fill="url(#paint54_linear)"/>
<path d="M69.8744 212.041C70.291 211.349 71.0401 210.925 71.8484 210.925H141.902C142.943 210.925 143.661 211.969 143.287 212.941C142.957 213.801 142.131 214.369 141.21 214.369H71.1904C69.996 214.369 69.2588 213.065 69.8744 212.041Z" fill="url(#paint55_linear)" fill-opacity="0.5"/>
<path d="M70.9794 206.262C71.2897 205.908 71.7378 205.705 72.2087 205.705H82.8293C83.63 205.705 84.1351 206.566 83.7441 207.265C83.4661 207.761 82.9413 208.069 82.372 208.069H71.799C70.8627 208.069 70.3626 206.966 70.9794 206.262Z" fill="url(#paint56_linear)" fill-opacity="0.4"/>
<path d="M129.874 206.262C130.184 205.908 130.632 205.705 131.103 205.705H143.217C144.018 205.705 144.523 206.566 144.132 207.265C143.854 207.761 143.329 208.069 142.76 208.069H130.693C129.757 208.069 129.257 206.966 129.874 206.262Z" fill="url(#paint57_linear)" fill-opacity="0.4"/>
<path d="M127.942 217.782C128.253 217.428 128.701 217.225 129.172 217.225H141.286C142.086 217.225 142.591 218.086 142.201 218.785C141.923 219.282 141.398 219.589 140.828 219.589H128.762C127.826 219.589 127.325 218.486 127.942 217.782Z" fill="url(#paint58_linear)" fill-opacity="0.4"/>
<path d="M98.4365 206.262C98.7468 205.908 99.1948 205.705 99.6658 205.705H111.78C112.581 205.705 113.086 206.566 112.695 207.265C112.417 207.761 111.892 208.069 111.322 208.069H99.256C98.3197 208.069 97.8196 206.966 98.4365 206.262Z" fill="url(#paint59_linear)"/>
<defs>
<filter id="filter0_d" x="0.268555" y="0.390717" width="225.719" height="301.426" filterUnits="userSpaceOnUse" color-interpolation-filters="sRGB">
<feFlood flood-opacity="0" result="BackgroundImageFix"/>
<feColorMatrix in="SourceAlpha" type="matrix" values="0 0 0 0 0 0 0 0 0 0 0 0 0 0 0 0 0 0 127 0"/>
<feOffset dy="5"/>
<feGaussianBlur stdDeviation="15"/>
<feColorMatrix type="matrix" values="0 0 0 0 0 0 0 0 0 0.223833 0 0 0 0 0.658333 0 0 0 0.3 0"/>
<feBlend mode="normal" in2="BackgroundImageFix" result="effect1_dropShadow"/>
<feBlend mode="normal" in="SourceGraphic" in2="effect1_dropShadow" result="shape"/>
</filter>
<filter id="filter1_d" x="153.212" y="23.1035" width="45.9176" height="29.5361" filterUnits="userSpaceOnUse" color-interpolation-filters="sRGB">
<feFlood flood-opacity="0" result="BackgroundImageFix"/>
<feColorMatrix in="SourceAlpha" type="matrix" values="0 0 0 0 0 0 0 0 0 0 0 0 0 0 0 0 0 0 127 0"/>
<feOffset/>
<feGaussianBlur stdDeviation="5"/>
<feColorMatrix type="matrix" values="0 0 0 0 0 0 0 0 0 0.533333 0 0 0 0 1 0 0 0 0.4 0"/>
<feBlend mode="normal" in2="BackgroundImageFix" result="effect1_dropShadow"/>
<feBlend mode="normal" in="SourceGraphic" in2="effect1_dropShadow" result="shape"/>
</filter>
<filter id="filter2_d" x="68.9658" y="23.1035" width="102.968" height="29.5361" filterUnits="userSpaceOnUse" color-interpolation-filters="sRGB">
<feFlood flood-opacity="0" result="BackgroundImageFix"/>
<feColorMatrix in="SourceAlpha" type="matrix" values="0 0 0 0 0 0 0 0 0 0 0 0 0 0 0 0 0 0 127 0"/>
<feOffset/>
<feGaussianBlur stdDeviation="5"/>
<feColorMatrix type="matrix" values="0 0 0 0 0 0 0 0 0 0.533333 0 0 0 0 1 0 0 0 0.4 0"/>
<feBlend mode="normal" in2="BackgroundImageFix" result="effect1_dropShadow"/>
<feBlend mode="normal" in="SourceGraphic" in2="effect1_dropShadow" result="shape"/>
</filter>
<linearGradient id="paint0_linear" x1="112.01" y1="58.7375" x2="143.003" y2="49.5043" gradientUnits="userSpaceOnUse">
<stop stop-color="#D7DDF3"/>
<stop offset="1" stop-color="#E2E8FB"/>
</linearGradient>
<linearGradient id="paint1_linear" x1="102.065" y1="64.2623" x2="128.646" y2="53.7618" gradientUnits="userSpaceOnUse">
<stop stop-color="#D7DDF3"/>
<stop offset="1" stop-color="#E2E8FB"/>
</linearGradient>
<linearGradient id="paint2_linear" x1="175.958" y1="64.2623" x2="204.357" y2="51.9424" gradientUnits="userSpaceOnUse">
<stop stop-color="#D7DDF3"/>
<stop offset="1" stop-color="#E2E8FB"/>
</linearGradient>
<linearGradient id="paint3_linear" x1="108.908" y1="74.3312" x2="139.901" y2="65.098" gradientUnits="userSpaceOnUse">
<stop stop-color="#D7DDF3"/>
<stop offset="1" stop-color="#E2E8FB"/>
</linearGradient>
<linearGradient id="paint4_linear" x1="98.9639" y1="79.856" x2="125.544" y2="69.3555" gradientUnits="userSpaceOnUse">
<stop stop-color="#D7DDF3"/>
<stop offset="1" stop-color="#E2E8FB"/>
</linearGradient>
<linearGradient id="paint5_linear" x1="173.131" y1="79.856" x2="201.53" y2="67.5361" gradientUnits="userSpaceOnUse">
<stop stop-color="#D7DDF3"/>
<stop offset="1" stop-color="#E2E8FB"/>
</linearGradient>
<linearGradient id="paint6_linear" x1="87.8689" y1="89.5441" x2="118.862" y2="80.311" gradientUnits="userSpaceOnUse">
<stop stop-color="#D7DDF3"/>
<stop offset="1" stop-color="#E2E8FB"/>
</linearGradient>
<linearGradient id="paint7_linear" x1="65.4297" y1="106.726" x2="76.413" y2="105.459" gradientUnits="userSpaceOnUse">
<stop stop-color="#E1E4F1"/>
<stop offset="1" stop-color="#F4F4F6"/>
</linearGradient>
<linearGradient id="paint8_linear" x1="120.884" y1="89.5441" x2="151.877" y2="80.311" gradientUnits="userSpaceOnUse">
<stop stop-color="#D7DDF3"/>
<stop offset="1" stop-color="#E2E8FB"/>
</linearGradient>
<linearGradient id="paint9_linear" x1="171.766" y1="89.5441" x2="202.76" y2="80.311" gradientUnits="userSpaceOnUse">
<stop stop-color="#D7DDF3"/>
<stop offset="1" stop-color="#E2E8FB"/>
</linearGradient>
<linearGradient id="paint10_linear" x1="168.992" y1="100.604" x2="199.985" y2="91.3705" gradientUnits="userSpaceOnUse">
<stop stop-color="#D7DDF3"/>
<stop offset="1" stop-color="#E2E8FB"/>
</linearGradient>
<linearGradient id="paint11_linear" x1="110.206" y1="95.0689" x2="136.787" y2="84.5684" gradientUnits="userSpaceOnUse">
<stop stop-color="#D7DDF3"/>
<stop offset="1" stop-color="#E2E8FB"/>
</linearGradient>
<linearGradient id="paint12_linear" x1="170.898" y1="95.0689" x2="199.298" y2="82.7491" gradientUnits="userSpaceOnUse">
<stop stop-color="#D7DDF3"/>
<stop offset="1" stop-color="#E2E8FB"/>
</linearGradient>
<linearGradient id="paint13_linear" x1="168.004" y1="106.589" x2="196.403" y2="94.2693" gradientUnits="userSpaceOnUse">
<stop stop-color="#D7DDF3"/>
<stop offset="1" stop-color="#E2E8FB"/>
</linearGradient>
<linearGradient id="paint14_linear" x1="138.498" y1="95.0689" x2="166.897" y2="82.7491" gradientUnits="userSpaceOnUse">
<stop stop-color="#D7DDF3"/>
<stop offset="1" stop-color="#E2E8FB"/>
</linearGradient>
<linearGradient id="paint15_linear" x1="86.9939" y1="89.9061" x2="117.987" y2="80.673" gradientUnits="userSpaceOnUse">
<stop stop-color="#D7DDF3"/>
<stop offset="1" stop-color="#E2E8FB"/>
</linearGradient>
<linearGradient id="paint16_linear" x1="64.5547" y1="107.088" x2="75.538" y2="105.821" gradientUnits="userSpaceOnUse">
<stop stop-color="#E1E4F1"/>
<stop offset="1" stop-color="#F4F4F6"/>
</linearGradient>
<linearGradient id="paint17_linear" x1="120.009" y1="89.9061" x2="151.002" y2="80.673" gradientUnits="userSpaceOnUse">
<stop stop-color="#D7DDF3"/>
<stop offset="1" stop-color="#E2E8FB"/>
</linearGradient>
<linearGradient id="paint18_linear" x1="170.891" y1="89.9061" x2="201.885" y2="80.673" gradientUnits="userSpaceOnUse">
<stop stop-color="#D7DDF3"/>
<stop offset="1" stop-color="#E2E8FB"/>
</linearGradient>
<linearGradient id="paint19_linear" x1="168.117" y1="100.966" x2="199.11" y2="91.7324" gradientUnits="userSpaceOnUse">
<stop stop-color="#D7DDF3"/>
<stop offset="1" stop-color="#E2E8FB"/>
</linearGradient>
<linearGradient id="paint20_linear" x1="109.331" y1="95.4309" x2="135.912" y2="84.9304" gradientUnits="userSpaceOnUse">
<stop stop-color="#D7DDF3"/>
<stop offset="1" stop-color="#E2E8FB"/>
</linearGradient>
<linearGradient id="paint21_linear" x1="170.023" y1="95.4309" x2="198.423" y2="83.1111" gradientUnits="userSpaceOnUse">
<stop stop-color="#D7DDF3"/>
<stop offset="1" stop-color="#E2E8FB"/>
</linearGradient>
<linearGradient id="paint22_linear" x1="167.129" y1="106.951" x2="195.528" y2="94.6313" gradientUnits="userSpaceOnUse">
<stop stop-color="#D7DDF3"/>
<stop offset="1" stop-color="#E2E8FB"/>
</linearGradient>
<linearGradient id="paint23_linear" x1="137.623" y1="95.4309" x2="166.022" y2="83.1111" gradientUnits="userSpaceOnUse">
<stop stop-color="#D7DDF3"/>
<stop offset="1" stop-color="#E2E8FB"/>
</linearGradient>
<linearGradient id="paint24_linear" x1="81.6443" y1="117.777" x2="112.637" y2="108.544" gradientUnits="userSpaceOnUse">
<stop stop-color="#D7DDF3"/>
<stop offset="1" stop-color="#E2E8FB"/>
</linearGradient>
<linearGradient id="paint25_linear" x1="59.2051" y1="134.959" x2="70.1884" y2="133.692" gradientUnits="userSpaceOnUse">
<stop stop-color="#E1E4F1"/>
<stop offset="1" stop-color="#F4F4F6"/>
</linearGradient>
<linearGradient id="paint26_linear" x1="114.659" y1="117.777" x2="145.652" y2="108.544" gradientUnits="userSpaceOnUse">
<stop stop-color="#D7DDF3"/>
<stop offset="1" stop-color="#E2E8FB"/>
</linearGradient>
<linearGradient id="paint27_linear" x1="165.542" y1="117.777" x2="196.535" y2="108.544" gradientUnits="userSpaceOnUse">
<stop stop-color="#D7DDF3"/>
<stop offset="1" stop-color="#E2E8FB"/>
</linearGradient>
<linearGradient id="paint28_linear" x1="162.768" y1="128.837" x2="193.761" y2="119.603" gradientUnits="userSpaceOnUse">
<stop stop-color="#D7DDF3"/>
<stop offset="1" stop-color="#E2E8FB"/>
</linearGradient>
<linearGradient id="paint29_linear" x1="103.981" y1="123.302" x2="130.562" y2="112.801" gradientUnits="userSpaceOnUse">
<stop stop-color="#D7DDF3"/>
<stop offset="1" stop-color="#E2E8FB"/>
</linearGradient>
<linearGradient id="paint30_linear" x1="164.674" y1="123.302" x2="193.073" y2="110.982" gradientUnits="userSpaceOnUse">
<stop stop-color="#D7DDF3"/>
<stop offset="1" stop-color="#E2E8FB"/>
</linearGradient>
<linearGradient id="paint31_linear" x1="161.779" y1="134.822" x2="190.179" y2="122.502" gradientUnits="userSpaceOnUse">
<stop stop-color="#D7DDF3"/>
<stop offset="1" stop-color="#E2E8FB"/>
</linearGradient>
<linearGradient id="paint32_linear" x1="132.273" y1="123.302" x2="160.673" y2="110.982" gradientUnits="userSpaceOnUse">
<stop stop-color="#D7DDF3"/>
<stop offset="1" stop-color="#E2E8FB"/>
</linearGradient>
<linearGradient id="paint33_linear" x1="76.156" y1="145.799" x2="107.149" y2="136.565" gradientUnits="userSpaceOnUse">
<stop stop-color="#D7DDF3"/>
<stop offset="1" stop-color="#E2E8FB"/>
</linearGradient>
<linearGradient id="paint34_linear" x1="54.2031" y1="162.981" x2="65.1864" y2="161.713" gradientUnits="userSpaceOnUse">
<stop stop-color="#E1E4F1"/>
<stop offset="1" stop-color="#F4F4F6"/>
</linearGradient>
<linearGradient id="paint35_linear" x1="108.797" y1="145.799" x2="139.79" y2="136.565" gradientUnits="userSpaceOnUse">
<stop stop-color="#D7DDF3"/>
<stop offset="1" stop-color="#E2E8FB"/>
</linearGradient>
<linearGradient id="paint36_linear" x1="159.871" y1="145.799" x2="190.864" y2="136.565" gradientUnits="userSpaceOnUse">
<stop stop-color="#D7DDF3"/>
<stop offset="1" stop-color="#E2E8FB"/>
</linearGradient>
<linearGradient id="paint37_linear" x1="157.766" y1="156.858" x2="188.759" y2="147.625" gradientUnits="userSpaceOnUse">
<stop stop-color="#D7DDF3"/>
<stop offset="1" stop-color="#E2E8FB"/>
</linearGradient>
<linearGradient id="paint38_linear" x1="98.0088" y1="151.323" x2="124.589" y2="140.823" gradientUnits="userSpaceOnUse">
<stop stop-color="#D7DDF3"/>
<stop offset="1" stop-color="#E2E8FB"/>
</linearGradient>
<linearGradient id="paint39_linear" x1="158.708" y1="151.323" x2="187.107" y2="139.004" gradientUnits="userSpaceOnUse">
<stop stop-color="#D7DDF3"/>
<stop offset="1" stop-color="#E2E8FB"/>
</linearGradient>
<linearGradient id="paint40_linear" x1="156.777" y1="162.844" x2="185.177" y2="150.524" gradientUnits="userSpaceOnUse">
<stop stop-color="#D7DDF3"/>
<stop offset="1" stop-color="#E2E8FB"/>
</linearGradient>
<linearGradient id="paint41_linear" x1="127.271" y1="151.323" x2="155.671" y2="139.004" gradientUnits="userSpaceOnUse">
<stop stop-color="#D7DDF3"/>
<stop offset="1" stop-color="#E2E8FB"/>
</linearGradient>
<linearGradient id="paint42_linear" x1="70.6316" y1="173.14" x2="101.625" y2="163.906" gradientUnits="userSpaceOnUse">
<stop stop-color="#D7DDF3"/>
<stop offset="1" stop-color="#E2E8FB"/>
</linearGradient>
<linearGradient id="paint43_linear" x1="48.9336" y1="190.322" x2="59.9169" y2="189.054" gradientUnits="userSpaceOnUse">
<stop stop-color="#E1E4F1"/>
<stop offset="1" stop-color="#F4F4F6"/>
</linearGradient>
<linearGradient id="paint44_linear" x1="103.678" y1="173.14" x2="134.672" y2="163.906" gradientUnits="userSpaceOnUse">
<stop stop-color="#D7DDF3"/>
<stop offset="1" stop-color="#E2E8FB"/>
</linearGradient>
<linearGradient id="paint45_linear" x1="154.851" y1="173.14" x2="185.845" y2="163.906" gradientUnits="userSpaceOnUse">
<stop stop-color="#D7DDF3"/>
<stop offset="1" stop-color="#E2E8FB"/>
</linearGradient>
<linearGradient id="paint46_linear" x1="152.747" y1="184.199" x2="183.74" y2="174.966" gradientUnits="userSpaceOnUse">
<stop stop-color="#D7DDF3"/>
<stop offset="1" stop-color="#E2E8FB"/>
</linearGradient>
<linearGradient id="paint47_linear" x1="92.9893" y1="178.664" x2="119.57" y2="168.164" gradientUnits="userSpaceOnUse">
<stop stop-color="#D7DDF3"/>
<stop offset="1" stop-color="#E2E8FB"/>
</linearGradient>
<linearGradient id="paint48_linear" x1="153.689" y1="178.664" x2="182.089" y2="166.345" gradientUnits="userSpaceOnUse">
<stop stop-color="#D7DDF3"/>
<stop offset="1" stop-color="#E2E8FB"/>
</linearGradient>
<linearGradient id="paint49_linear" x1="151.758" y1="190.185" x2="180.157" y2="177.865" gradientUnits="userSpaceOnUse">
<stop stop-color="#D7DDF3"/>
<stop offset="1" stop-color="#E2E8FB"/>
</linearGradient>
<linearGradient id="paint50_linear" x1="122.252" y1="178.664" x2="150.651" y2="166.345" gradientUnits="userSpaceOnUse">
<stop stop-color="#D7DDF3"/>
<stop offset="1" stop-color="#E2E8FB"/>
</linearGradient>
<linearGradient id="paint51_linear" x1="65.5037" y1="200.868" x2="96.4968" y2="191.635" gradientUnits="userSpaceOnUse">
<stop stop-color="#D7DDF3"/>
<stop offset="1" stop-color="#E2E8FB"/>
</linearGradient>
<linearGradient id="paint52_linear" x1="43.7558" y1="218.05" x2="54.7391" y2="216.783" gradientUnits="userSpaceOnUse">
<stop stop-color="#E1E4F1"/>
<stop offset="1" stop-color="#F4F4F6"/>
</linearGradient>
<linearGradient id="paint53_linear" x1="98.2273" y1="200.868" x2="129.22" y2="191.635" gradientUnits="userSpaceOnUse">
<stop stop-color="#D7DDF3"/>
<stop offset="1" stop-color="#E2E8FB"/>
</linearGradient>
<linearGradient id="paint54_linear" x1="149.659" y1="200.868" x2="180.652" y2="191.635" gradientUnits="userSpaceOnUse">
<stop stop-color="#D7DDF3"/>
<stop offset="1" stop-color="#E2E8FB"/>
</linearGradient>
<linearGradient id="paint55_linear" x1="147.554" y1="211.927" x2="178.547" y2="202.694" gradientUnits="userSpaceOnUse">
<stop stop-color="#D7DDF3"/>
<stop offset="1" stop-color="#E2E8FB"/>
</linearGradient>
<linearGradient id="paint56_linear" x1="87.7969" y1="206.393" x2="114.377" y2="195.892" gradientUnits="userSpaceOnUse">
<stop stop-color="#D7DDF3"/>
<stop offset="1" stop-color="#E2E8FB"/>
</linearGradient>
<linearGradient id="paint57_linear" x1="148.497" y1="206.393" x2="176.896" y2="194.073" gradientUnits="userSpaceOnUse">
<stop stop-color="#D7DDF3"/>
<stop offset="1" stop-color="#E2E8FB"/>
</linearGradient>
<linearGradient id="paint58_linear" x1="146.565" y1="217.913" x2="174.965" y2="205.593" gradientUnits="userSpaceOnUse">
<stop stop-color="#D7DDF3"/>
<stop offset="1" stop-color="#E2E8FB"/>
</linearGradient>
<linearGradient id="paint59_linear" x1="117.059" y1="206.393" x2="145.459" y2="194.073" gradientUnits="userSpaceOnUse">
<stop stop-color="#D7DDF3"/>
<stop offset="1" stop-color="#E2E8FB"/>
</linearGradient>
</defs>
</svg>
