<svg width="24" height="24" viewBox="0 0 24 24" fill="none" xmlns="http://www.w3.org/2000/svg">
<path fill-rule="evenodd" clip-rule="evenodd" d="M20.7177 0.0244743C20.4825 0.0638639 20.1228 0.195335 19.8011 0.359568C19.424 0.552144 19.4208 0.555246 16.7058 3.38899C15.7208 4.41716 14.8902 5.24891 14.8601 5.23734C14.83 5.22578 12.3653 4.40852 9.383 3.42129C6.40072 2.43401 3.94879 1.61933 3.93427 1.61087C3.9197 1.60241 3.17303 2.3305 2.27497 3.22885L0.642088 4.8622L5.22533 7.67983C7.74613 9.22951 9.80952 10.5153 9.81065 10.5371C9.81178 10.5588 9.09736 11.3203 8.22308 12.2292C7.3488 13.1381 6.50728 14.0166 6.35311 14.1815L6.07282 14.4811L4.57447 14.2362L3.07611 13.9913L1.50997 15.5569C0.534918 16.5316 -0.0343507 17.1337 0.00160755 17.1521C0.0333354 17.1684 1.1698 17.5685 2.52705 18.0412C3.8843 18.5139 5.01833 18.9241 5.04709 18.9529C5.07586 18.9817 5.48611 20.1157 5.95879 21.4729C6.43146 22.8302 6.83156 23.9667 6.84787 23.9984C6.86635 24.0344 7.46871 23.4648 8.44405 22.4891L10.0106 20.922L9.76261 19.4317L9.51457 17.9415L9.72242 17.74C11.2033 16.304 13.4333 14.1878 13.4635 14.1895C13.485 14.1907 14.7705 16.2541 16.3202 18.7748L19.1378 23.3579L20.7664 21.7298L22.3951 20.1016L20.5706 14.5945L18.7461 9.08732L18.8976 8.93808C18.9809 8.85597 20.0115 7.86676 21.1877 6.73983C23.4673 4.55583 23.6121 4.39291 23.8417 3.75234C24.4054 2.17986 23.4121 0.406384 21.7753 0.0626888C21.4659 -0.00227113 20.9819 -0.0197567 20.7177 0.0244743ZM21.7804 1.54563C22.0656 1.68368 22.3163 1.93529 22.4605 2.22832C22.5533 2.4168 22.5739 2.52947 22.5718 2.83575C22.5675 3.47689 22.6494 3.38044 19.7314 6.18171C18.3091 7.54709 17.1454 8.68229 17.1454 8.70433C17.1454 8.72638 17.9597 11.2031 18.955 14.2081C19.9504 17.213 20.7647 19.6912 20.7647 19.7151C20.7647 19.739 20.4603 20.0624 20.0882 20.4338L19.4117 21.1091L19.3404 20.9972C19.3011 20.9357 18.0391 18.8865 16.5357 16.4435C15.0324 14.0004 13.7879 11.9869 13.77 11.969C13.7269 11.9256 8.05382 17.3684 8.03685 17.4695C8.02961 17.5127 8.1294 18.1932 8.25861 18.9817L8.49354 20.4154L7.9906 20.9206C7.71393 21.1986 7.47604 21.4259 7.46189 21.4259C7.44774 21.4259 7.15246 20.6148 6.80571 19.6235L6.17529 17.8209L4.37465 17.1912C3.38432 16.8448 2.57406 16.5504 2.57406 16.5369C2.57406 16.5234 2.80142 16.2858 3.07935 16.0089L3.58465 15.5055L5.01828 15.7409C5.80678 15.8704 6.48759 15.9704 6.53116 15.9632C6.57478 15.9559 7.8376 14.6703 9.33741 13.1062C11.3928 10.9627 12.0504 10.2497 12.0079 10.211C11.9768 10.1827 9.96313 8.93771 7.53301 7.44438C5.10289 5.95106 3.06427 4.6975 3.00278 4.65877L2.89091 4.58826L3.56622 3.91177C3.9376 3.53969 4.26104 3.23529 4.28492 3.23529C4.3088 3.23529 6.78696 4.04964 9.79194 5.04495C12.7969 6.04027 15.2736 6.85462 15.2957 6.85462C15.3177 6.85462 16.4528 5.69103 17.818 4.26891C20.2767 1.70774 20.4504 1.54516 20.8352 1.44344C21.0773 1.37947 21.5407 1.42957 21.7804 1.54563Z" fill="#E78200"/>
</svg>
