<svg width="26" height="24" viewBox="0 0 26 24" fill="none" xmlns="http://www.w3.org/2000/svg">
<path d="M12.2119 23.7431C12.3121 23.8015 12.3121 23.8934 12.2119 23.9519C12.1117 24.0104 11.9488 24.0104 11.8486 23.9519C11.7483 23.8934 11.7483 23.8015 11.8486 23.7431C11.9488 23.6846 12.1117 23.6846 12.2119 23.7431Z" fill="#E78200"/>
<path d="M11.2598 23.1918C11.36 23.2503 11.36 23.3422 11.2598 23.4006C11.1595 23.4591 10.9966 23.4591 10.8964 23.4006C10.7962 23.3422 10.7962 23.2503 10.8964 23.1918C10.9966 23.1333 11.1595 23.1333 11.2598 23.1918Z" fill="#E78200"/>
<path d="M10.3074 22.6444C10.4076 22.7029 10.4076 22.7948 10.3074 22.8533C10.2071 22.9117 10.0442 22.9117 9.94401 22.8533C9.84378 22.7948 9.84378 22.7029 9.94401 22.6444C10.0401 22.586 10.2071 22.586 10.3074 22.6444Z" fill="#E78200"/>
<path d="M9.34258 22.0893C9.44281 22.1477 9.44281 22.2396 9.34258 22.2981C9.24234 22.3566 9.07946 22.3566 8.97923 22.2981C8.87899 22.2396 8.87899 22.1477 8.97923 22.0893C9.07946 22.0308 9.24234 22.0308 9.34258 22.0893Z" fill="#E78200"/>
<path d="M8.39043 21.538C8.49067 21.5965 8.49067 21.6883 8.39043 21.7468C8.2902 21.8053 8.12732 21.8053 8.02708 21.7468C7.92685 21.6883 7.92685 21.5965 8.02708 21.538C8.12732 21.4795 8.2902 21.4795 8.39043 21.538Z" fill="#E78200"/>
<path d="M7.4381 20.9867C7.53833 21.0452 7.53833 21.1371 7.4381 21.1955C7.33786 21.254 7.17498 21.254 7.07475 21.1955C6.97451 21.1371 6.97451 21.0452 7.07475 20.9867C7.17498 20.9283 7.33786 20.9283 7.4381 20.9867Z" fill="#E78200"/>
<path d="M6.48595 20.4355C6.58619 20.4939 6.58619 20.5858 6.48595 20.6443C6.38572 20.7027 6.22284 20.7027 6.1226 20.6443C6.02237 20.5858 6.02237 20.4939 6.1226 20.4355C6.22284 20.377 6.38572 20.377 6.48595 20.4355Z" fill="#E78200"/>
<path d="M5.53362 19.8881C5.63385 19.9466 5.63385 20.0384 5.53362 20.0969C5.43338 20.1554 5.2705 20.1554 5.17027 20.0969C5.07003 20.0384 5.07003 19.9466 5.17027 19.8881C5.2705 19.8296 5.43338 19.8296 5.53362 19.8881Z" fill="#E78200"/>
<path d="M4.58147 19.3368C4.68171 19.3953 4.68171 19.4872 4.58147 19.5456C4.48124 19.6041 4.31836 19.6041 4.21812 19.5456C4.11789 19.4872 4.11789 19.3953 4.21812 19.3368C4.31836 19.2784 4.48124 19.2784 4.58147 19.3368Z" fill="#E78200"/>
<path d="M13.7613 23.747C13.8616 23.6885 14.0244 23.6885 14.1247 23.747C14.2249 23.8054 14.2249 23.8973 14.1247 23.9558C14.0244 24.0143 13.8616 24.0143 13.7613 23.9558C13.6611 23.9015 13.6569 23.8054 13.7613 23.747Z" fill="#E78200"/>
<path d="M15.0769 23.4089C14.9767 23.4674 14.8138 23.4674 14.7135 23.4089C14.6133 23.3505 14.6133 23.2586 14.7135 23.2001C14.8138 23.1416 14.9767 23.1416 15.0769 23.2001C15.1772 23.2544 15.1772 23.3505 15.0769 23.4089Z" fill="#E78200"/>
<path d="M16.0292 22.6488C16.1295 22.7073 16.1295 22.7992 16.0292 22.8577C15.929 22.9161 15.7661 22.9161 15.6659 22.8577C15.5656 22.7992 15.5656 22.7073 15.6659 22.6488C15.7661 22.5904 15.929 22.5904 16.0292 22.6488Z" fill="#E78200"/>
<path d="M16.9856 22.0976C17.0859 22.156 17.0859 22.2479 16.9856 22.3064C16.8854 22.3649 16.7225 22.3649 16.6223 22.3064C16.5221 22.2479 16.5221 22.156 16.6223 22.0976C16.7184 22.0391 16.8812 22.0391 16.9856 22.0976Z" fill="#E78200"/>
<path d="M17.7539 21.8051C17.8969 21.8051 18.0129 21.7378 18.0129 21.6547C18.0129 21.5717 17.8969 21.5044 17.7539 21.5044C17.6109 21.5044 17.495 21.5717 17.495 21.6547C17.495 21.7378 17.6109 21.8051 17.7539 21.8051Z" fill="#E78200"/>
<path d="M18.8899 20.9989C18.9902 21.0574 18.9902 21.1493 18.8899 21.2078C18.7897 21.2662 18.6268 21.2662 18.5266 21.2078C18.4264 21.1493 18.4264 21.0574 18.5266 20.9989C18.6268 20.9405 18.7897 20.9405 18.8899 20.9989Z" fill="#E78200"/>
<path d="M19.8423 20.4477C19.9425 20.5061 19.9425 20.598 19.8423 20.6565C19.742 20.715 19.5792 20.715 19.4789 20.6565C19.3787 20.598 19.3787 20.5061 19.4789 20.4477C19.5792 20.3892 19.742 20.3892 19.8423 20.4477Z" fill="#E78200"/>
<path d="M20.7944 19.8964C20.8947 19.9549 20.8947 20.0467 20.7944 20.1052C20.6942 20.1637 20.5313 20.1637 20.4311 20.1052C20.3308 20.0467 20.3308 19.9549 20.4311 19.8964C20.5313 19.8379 20.6942 19.8379 20.7944 19.8964Z" fill="#E78200"/>
<path d="M21.7468 19.3454C21.847 19.4039 21.847 19.4958 21.7468 19.5542C21.6465 19.6127 21.4836 19.6127 21.3834 19.5542C21.2832 19.4958 21.2832 19.4039 21.3834 19.3454C21.4836 19.2911 21.6465 19.2911 21.7468 19.3454Z" fill="#E78200"/>
<path d="M12.805 23.2001C12.9052 23.1416 13.0681 23.1416 13.1683 23.2001C13.2686 23.2586 13.2686 23.3505 13.1683 23.4089C13.0681 23.4674 12.9052 23.4674 12.805 23.4089C12.7047 23.3505 12.7047 23.2586 12.805 23.2001Z" fill="#E78200"/>
<path d="M14.1247 22.6488C14.225 22.7073 14.225 22.7992 14.1247 22.8577C14.0245 22.9161 13.8616 22.9161 13.7614 22.8577C13.6612 22.7992 13.6612 22.7073 13.7614 22.6488C13.8616 22.5904 14.0245 22.5904 14.1247 22.6488Z" fill="#E78200"/>
<path d="M15.0769 22.0976C15.1772 22.156 15.1772 22.2479 15.0769 22.3064C14.9767 22.3649 14.8138 22.3649 14.7135 22.3064C14.6133 22.2479 14.6133 22.156 14.7135 22.0976C14.8138 22.0391 14.9767 22.0391 15.0769 22.0976Z" fill="#E78200"/>
<path d="M16.0292 21.5463C16.1295 21.6048 16.1295 21.6966 16.0292 21.7551C15.929 21.8136 15.7661 21.8136 15.6659 21.7551C15.5656 21.6966 15.5656 21.6048 15.6659 21.5463C15.7661 21.4878 15.929 21.4878 16.0292 21.5463Z" fill="#E78200"/>
<path d="M16.9856 20.9989C17.0859 21.0574 17.0859 21.1493 16.9856 21.2078C16.8854 21.2662 16.7225 21.2662 16.6223 21.2078C16.5221 21.1493 16.5221 21.0574 16.6223 20.9989C16.7184 20.9405 16.8812 20.9405 16.9856 20.9989Z" fill="#E78200"/>
<path d="M17.9378 20.4477C18.038 20.5061 18.038 20.598 17.9378 20.6565C17.8376 20.715 17.6747 20.715 17.5744 20.6565C17.4742 20.598 17.4742 20.5061 17.5744 20.4477C17.6747 20.3892 17.8376 20.3892 17.9378 20.4477Z" fill="#E78200"/>
<path d="M18.8899 19.8964C18.9902 19.9549 18.9902 20.0467 18.8899 20.1052C18.7897 20.1637 18.6268 20.1637 18.5266 20.1052C18.4264 20.0467 18.4264 19.9549 18.5266 19.8964C18.6268 19.8379 18.7897 19.8379 18.8899 19.8964Z" fill="#E78200"/>
<path d="M19.8423 19.3454C19.9425 19.4039 19.9425 19.4958 19.8423 19.5542C19.742 19.6127 19.5792 19.6127 19.4789 19.5542C19.3787 19.4958 19.3787 19.4039 19.4789 19.3454C19.5792 19.2911 19.742 19.2911 19.8423 19.3454Z" fill="#E78200"/>
<path d="M20.7944 18.7982C20.8947 18.8567 20.8947 18.9486 20.7944 19.0071C20.6942 19.0655 20.5313 19.0655 20.4311 19.0071C20.3308 18.9486 20.3308 18.8567 20.4311 18.7982C20.5313 18.7398 20.6942 18.7398 20.7944 18.7982Z" fill="#E78200"/>
<path d="M21.7468 18.247C21.847 18.3054 21.847 18.3973 21.7468 18.4558C21.6465 18.5143 21.4836 18.5143 21.3834 18.4558C21.2832 18.3973 21.2832 18.3054 21.3834 18.247C21.4836 18.1885 21.6465 18.1885 21.7468 18.247Z" fill="#E78200"/>
<path d="M11.8526 22.6488C11.9528 22.5904 12.1157 22.5904 12.2159 22.6488C12.3162 22.7073 12.3162 22.7992 12.2159 22.8577C12.1157 22.9161 11.9528 22.9161 11.8526 22.8577C11.7523 22.7992 11.7523 22.7073 11.8526 22.6488Z" fill="#E78200"/>
<path d="M13.1724 22.0976C13.2726 22.156 13.2726 22.2479 13.1724 22.3064C13.0721 22.3649 12.9092 22.3649 12.809 22.3064C12.7088 22.2479 12.7088 22.156 12.809 22.0976C12.9092 22.0391 13.0721 22.0391 13.1724 22.0976Z" fill="#E78200"/>
<path d="M14.1247 21.5463C14.225 21.6048 14.225 21.6966 14.1247 21.7551C14.0245 21.8136 13.8616 21.8136 13.7614 21.7551C13.6612 21.6966 13.6612 21.6048 13.7614 21.5463C13.8616 21.4878 14.0245 21.4878 14.1247 21.5463Z" fill="#E78200"/>
<path d="M15.0769 20.9989C15.1772 21.0574 15.1772 21.1493 15.0769 21.2078C14.9767 21.2662 14.8138 21.2662 14.7135 21.2078C14.6133 21.1493 14.6133 21.0574 14.7135 20.9989C14.8138 20.9405 14.9767 20.9405 15.0769 20.9989Z" fill="#E78200"/>
<path d="M16.0292 20.4477C16.1295 20.5061 16.1295 20.598 16.0292 20.6565C15.929 20.715 15.7661 20.715 15.6659 20.6565C15.5656 20.598 15.5656 20.5061 15.6659 20.4477C15.7661 20.3892 15.929 20.3892 16.0292 20.4477Z" fill="#E78200"/>
<path d="M16.9856 19.8964C17.0859 19.9549 17.0859 20.0467 16.9856 20.1052C16.8854 20.1637 16.7225 20.1637 16.6223 20.1052C16.5221 20.0467 16.5221 19.9549 16.6223 19.8964C16.7184 19.8379 16.8812 19.8379 16.9856 19.8964Z" fill="#E78200"/>
<path d="M17.7539 19.6039C17.8969 19.6039 18.0129 19.5366 18.0129 19.4536C18.0129 19.3705 17.8969 19.3032 17.7539 19.3032C17.6109 19.3032 17.495 19.3705 17.495 19.4536C17.495 19.5366 17.6109 19.6039 17.7539 19.6039Z" fill="#E78200"/>
<path d="M18.8899 18.7982C18.9902 18.8567 18.9902 18.9486 18.8899 19.0071C18.7897 19.0655 18.6268 19.0655 18.5266 19.0071C18.4264 18.9486 18.4264 18.8567 18.5266 18.7982C18.6268 18.7398 18.7897 18.7398 18.8899 18.7982Z" fill="#E78200"/>
<path d="M19.8423 18.247C19.9425 18.3054 19.9425 18.3973 19.8423 18.4558C19.742 18.5143 19.5792 18.5143 19.4789 18.4558C19.3787 18.3973 19.3787 18.3054 19.4789 18.247C19.5792 18.1885 19.742 18.1885 19.8423 18.247Z" fill="#E78200"/>
<path d="M20.7944 17.6957C20.8947 17.7542 20.8947 17.8461 20.7944 17.9045C20.6942 17.963 20.5313 17.963 20.4311 17.9045C20.3308 17.8461 20.3308 17.7542 20.4311 17.6957C20.5313 17.6372 20.6942 17.6372 20.7944 17.6957Z" fill="#E78200"/>
<path d="M10.9004 22.0976C11.0007 22.0391 11.1635 22.0391 11.2638 22.0976C11.364 22.156 11.364 22.2479 11.2638 22.3064C11.1635 22.3649 11.0007 22.3649 10.9004 22.3064C10.8002 22.2521 10.8002 22.156 10.9004 22.0976Z" fill="#E78200"/>
<path d="M12.2203 21.5463C12.3205 21.6048 12.3205 21.6966 12.2203 21.7551C12.12 21.8136 11.9571 21.8136 11.8569 21.7551C11.7567 21.6966 11.7567 21.6048 11.8569 21.5463C11.9571 21.4878 12.12 21.4878 12.2203 21.5463Z" fill="#E78200"/>
<path d="M9.93998 21.5419C10.0402 21.4834 10.2031 21.4834 10.3033 21.5419C10.4036 21.6004 10.4036 21.6923 10.3033 21.7507C10.2031 21.8092 10.0402 21.8092 9.93998 21.7507C9.83975 21.6964 9.83975 21.6004 9.93998 21.5419Z" fill="#E78200"/>
<path d="M11.0758 21.2455C11.2188 21.2455 11.3348 21.1782 11.3348 21.0952C11.3348 21.0121 11.2188 20.9448 11.0758 20.9448C10.9328 20.9448 10.8169 21.0121 10.8169 21.0952C10.8169 21.1782 10.9328 21.2455 11.0758 21.2455Z" fill="#E78200"/>
<path d="M8.98759 20.9906C9.08783 20.9322 9.25071 20.9322 9.35094 20.9906C9.45118 21.0491 9.45118 21.141 9.35094 21.1995C9.25071 21.2579 9.08783 21.2579 8.98759 21.1995C8.88736 21.1452 8.88736 21.0491 8.98759 20.9906Z" fill="#E78200"/>
<path d="M10.3033 20.4396C10.4036 20.4981 10.4036 20.59 10.3033 20.6485C10.2031 20.7069 10.0402 20.7069 9.93998 20.6485C9.83975 20.59 9.83975 20.4981 9.93998 20.4396C10.0402 20.3854 10.2031 20.3854 10.3033 20.4396Z" fill="#E78200"/>
<path d="M8.03544 20.4438C8.13568 20.3853 8.29856 20.3853 8.39879 20.4438C8.49903 20.5022 8.49903 20.5941 8.39879 20.6526C8.29856 20.711 8.13568 20.711 8.03544 20.6526C7.93521 20.5941 7.93521 20.5022 8.03544 20.4438Z" fill="#E78200"/>
<path d="M9.35094 19.8925C9.45118 19.951 9.45118 20.0428 9.35094 20.1013C9.25071 20.1598 9.08783 20.1598 8.98759 20.1013C8.88736 20.0428 8.88736 19.951 8.98759 19.8925C9.08783 19.834 9.25071 19.834 9.35094 19.8925Z" fill="#E78200"/>
<path d="M7.07902 19.8925C7.17926 19.834 7.34214 19.834 7.44237 19.8925C7.54261 19.951 7.54261 20.0428 7.44237 20.1013C7.34214 20.1598 7.17926 20.1598 7.07902 20.1013C6.97879 20.0428 6.97879 19.951 7.07902 19.8925Z" fill="#E78200"/>
<path d="M8.39879 19.3412C8.49903 19.3997 8.49903 19.4916 8.39879 19.55C8.29856 19.6085 8.13568 19.6085 8.03544 19.55C7.93521 19.4916 7.93521 19.3997 8.03544 19.3412C8.13568 19.2827 8.29856 19.2827 8.39879 19.3412Z" fill="#E78200"/>
<path d="M6.12669 19.3412C6.22692 19.2827 6.38983 19.2827 6.49007 19.3412C6.5903 19.3997 6.5903 19.4916 6.49007 19.55C6.38983 19.6085 6.22692 19.6085 6.12669 19.55C6.02645 19.4957 6.02645 19.3997 6.12669 19.3412Z" fill="#E78200"/>
<path d="M7.44646 18.7895C7.5467 18.8479 7.5467 18.9398 7.44646 18.9983C7.34623 19.0568 7.18335 19.0568 7.08311 18.9983C6.98288 18.9398 6.98288 18.8479 7.08311 18.7895C7.18335 18.731 7.34623 18.731 7.44646 18.7895Z" fill="#E78200"/>
<path d="M5.17454 18.7895C5.27478 18.731 5.43766 18.731 5.53789 18.7895C5.63813 18.8479 5.63813 18.9398 5.53789 18.9983C5.43766 19.0568 5.27478 19.0568 5.17454 18.9983C5.07431 18.944 5.07431 18.8479 5.17454 18.7895Z" fill="#E78200"/>
<path d="M6.31045 18.4975C6.45346 18.4975 6.56939 18.4302 6.56939 18.3471C6.56939 18.2641 6.45346 18.1968 6.31045 18.1968C6.16744 18.1968 6.05151 18.2641 6.05151 18.3471C6.05151 18.4302 6.16744 18.4975 6.31045 18.4975Z" fill="#E78200"/>
<path d="M4.22221 18.2426C4.32244 18.1841 4.48532 18.1841 4.58556 18.2426C4.68579 18.3011 4.68579 18.3929 4.58556 18.4514C4.48532 18.5099 4.32244 18.5099 4.22221 18.4514C4.12197 18.3929 4.12197 18.3011 4.22221 18.2426Z" fill="#E78200"/>
<path d="M5.54198 17.6913C5.64222 17.7498 5.64222 17.8417 5.54198 17.9001C5.44175 17.9586 5.27887 17.9586 5.17863 17.9001C5.0784 17.8417 5.0784 17.7498 5.17863 17.6913C5.27887 17.6328 5.44175 17.6328 5.54198 17.6913Z" fill="#E78200"/>
<path d="M5.32902 9.05046L2.30945 4.45217L9.90224 0.0668945L12.9218 4.66518L5.32902 9.05046Z" fill="#444444"/>
<path d="M5.17033 9.92323L2.15076 5.32913L9.74355 0.943848L12.7631 5.54213L5.17033 9.92323Z" fill="#FFF4E5"/>
<path d="M5.31236 9.1172L2.23846 4.4354L9.91897 0L12.997 4.68181L5.31236 9.1172ZM2.38466 4.4688L5.34575 8.97938L12.8509 4.64839L9.88556 0.137817L2.38466 4.4688Z" fill="#E78200"/>
<path d="M20.5521 9.07535L23.5717 4.47708L15.9789 0.0917969L12.9593 4.69007L20.5521 9.07535Z" fill="#444444"/>
<path d="M20.7024 9.92323L23.7178 5.32913L16.1291 0.943848L13.1096 5.54213L20.7024 9.92323Z" fill="#FFF4E5"/>
<path d="M20.569 9.1421L12.8885 4.70671L15.9665 0.0249023L23.647 4.4603L23.6178 4.50623L20.569 9.1421ZM13.0305 4.6733L20.5356 9.00429L23.4967 4.4937L15.9958 0.16272L13.0305 4.6733Z" fill="#E78200"/>
<path d="M5.367 9.0752V17.19L12.9598 21.5712V13.4563L5.367 9.0752Z" fill="#444444"/>
<path d="M12.9596 13.3979L5.31665 8.9834V17.2152L12.9596 21.6297L20.5774 17.2319L20.6025 17.2152V8.9834L12.9596 13.3979ZM5.41691 17.1609V9.163L12.9095 13.4898V21.4877L5.41691 17.1609Z" fill="#E78200"/>
<path d="M20.5525 9.07571L12.9597 13.4568L5.36694 9.07571L12.9597 4.69043L20.5525 9.07571Z" fill="#444444"/>
<path d="M12.9596 13.5193L5.26239 9.07558L12.9596 4.63184L12.9847 4.64853L20.6568 9.07976L12.9596 13.5193ZM5.47121 9.07558L12.9596 13.3982L20.448 9.07558L12.9596 4.75294L5.47121 9.07558Z" fill="#E78200"/>
<path d="M14.5842 19.5416V18.1049L13.8659 18.5183L15.1355 15.7368L16.4052 17.0524L15.7286 17.445V18.8817L14.5842 19.5416ZM14.7137 17.871V19.3077L15.595 18.7982V17.3615L16.1922 17.019L15.1773 15.9665L14.1624 18.1926L14.7137 17.871Z" fill="#444444"/>
<path d="M12.9596 4.68994L5.26239 9.07522L12.9345 13.5023L13.0139 13.4605L12.9596 13.5106V4.68994Z" fill="#E78200"/>
<path d="M12.9595 13.4563L7.92686 13.6275L0.183716 9.2339L5.36671 9.0752L12.9595 13.4563Z" fill="#444444"/>
<path d="M12.9093 14.1499L7.87669 14.317L0.133545 9.92336L5.31652 9.76465L12.9093 14.1499Z" fill="#FFF4E5"/>
<path d="M7.91439 13.6778L7.90185 13.6694L0 9.18806L5.3751 9.021L5.38764 9.02936L13.135 13.5023L7.91439 13.6778ZM0.36753 9.27995L7.93945 13.5733L12.78 13.4105L5.35422 9.12124L0.36753 9.27995Z" fill="#E78200"/>
<path d="M19.3454 17.9461L19.2117 18.0213V13.5942L19.3454 13.519V17.9461Z" fill="#444444"/>
<path d="M12.9599 13.4563L17.9925 13.6275L25.7357 9.2339L20.5527 9.0752L12.9599 13.4563Z" fill="#444444"/>
<path d="M12.9097 14.1499L17.9424 14.317L25.6813 9.92336L20.5025 9.76465L12.9097 14.1499Z" fill="#FFF4E5"/>
<path d="M18.0048 13.6778H17.9922L12.78 13.5023L20.5399 9.021H20.5524L25.915 9.18806L18.0048 13.6778ZM13.1392 13.4146L17.9797 13.5775L25.5516 9.28411L20.5691 9.12959L13.1392 13.4146Z" fill="#E78200"/>
<path d="M8.9082 11.1513L12.9176 8.8877L16.8101 11.1722L12.9176 13.4651L8.9082 11.1513Z" fill="#444444"/>
<path d="M9.45538 11.4601L13.114 9.39697L16.4551 11.3474L12.9177 13.4356L9.45538 11.4601Z" fill="#FFF4E5"/>
<path d="M12.9178 13.536L12.8885 13.5193L8.84991 11.1179L12.922 8.8208L12.9512 8.8375L16.9272 11.1763L12.9178 13.536ZM9.02532 11.1513L12.9178 13.3982L16.6933 11.1721L12.9178 8.95027L9.02532 11.1513Z" fill="#E78200"/>
</svg>
