<svg width="20" height="24" viewBox="0 0 20 24" fill="none" xmlns="http://www.w3.org/2000/svg">
<path d="M2.19673 19.4488C2.34982 19.5353 2.34982 19.6818 2.19673 19.7683C2.04364 19.8548 1.79073 19.8548 1.63764 19.7683C1.48455 19.6818 1.48455 19.5353 1.63764 19.4488C1.79739 19.3556 2.04364 19.3556 2.19673 19.4488Z" fill="#E78200"/>
<path d="M3.65437 18.6035C3.80746 18.69 3.80746 18.8364 3.65437 18.923C3.50128 19.0095 3.24837 19.0095 3.09529 18.923C2.9422 18.8364 2.9422 18.69 3.09529 18.6035C3.25503 18.5169 3.50128 18.5169 3.65437 18.6035Z" fill="#E78200"/>
<path d="M0.745556 18.6035C0.898645 18.69 0.898645 18.8364 0.745556 18.923C0.592467 19.0095 0.339561 19.0095 0.186472 18.923C0.0333831 18.8364 0.0333831 18.69 0.186472 18.6035C0.339561 18.5169 0.592467 18.5169 0.745556 18.6035Z" fill="#E78200"/>
<path d="M2.19673 17.7651C2.34982 17.8516 2.34982 17.9981 2.19673 18.0846C2.04364 18.1711 1.79073 18.1711 1.63764 18.0846C1.48455 17.9981 1.48455 17.8516 1.63764 17.7651C1.79739 17.6786 2.04364 17.6786 2.19673 17.7651Z" fill="#E78200"/>
<path d="M0.745556 16.9263C0.898645 17.0129 0.898645 17.1593 0.745556 17.2458C0.592467 17.3324 0.339561 17.3324 0.186472 17.2458C0.0333831 17.1593 0.0333831 17.0129 0.186472 16.9263C0.339561 16.8331 0.592467 16.8331 0.745556 16.9263Z" fill="#E78200"/>
<path d="M12.4203 23.6157C12.5734 23.7022 12.5734 23.8486 12.4203 23.9352C12.2673 24.0217 12.0143 24.0217 11.8612 23.9352C11.7081 23.8486 11.7081 23.7022 11.8612 23.6157C12.0143 23.5291 12.2673 23.5291 12.4203 23.6157Z" fill="#E78200"/>
<path d="M13.8711 22.7768C14.0242 22.8633 14.0242 23.0098 13.8711 23.0963C13.7181 23.1828 13.4651 23.1828 13.312 23.0963C13.1589 23.0098 13.1589 22.8633 13.312 22.7768C13.4718 22.6903 13.7181 22.6903 13.8711 22.7768Z" fill="#E78200"/>
<path d="M15.3291 21.9381C15.4822 22.0246 15.4822 22.171 15.3291 22.2575C15.176 22.3441 14.9231 22.3441 14.77 22.2575C14.6169 22.171 14.6169 22.0246 14.77 21.9381C14.9297 21.8449 15.176 21.8449 15.3291 21.9381Z" fill="#E78200"/>
<path d="M16.5071 21.4858C16.724 21.4858 16.8998 21.3845 16.8998 21.2595C16.8998 21.1345 16.724 21.0332 16.5071 21.0332C16.2902 21.0332 16.1144 21.1345 16.1144 21.2595C16.1144 21.3845 16.2902 21.4858 16.5071 21.4858Z" fill="#E78200"/>
<path d="M18.2444 20.2543C18.3975 20.3409 18.3975 20.4873 18.2444 20.5738C18.0913 20.6604 17.8383 20.6604 17.6853 20.5738C17.5322 20.4873 17.5322 20.3409 17.6853 20.2543C17.8383 20.1678 18.0846 20.1678 18.2444 20.2543Z" fill="#E78200"/>
<path d="M19.6952 19.4155C19.8483 19.502 19.8483 19.6484 19.6952 19.735C19.5421 19.8215 19.2891 19.8215 19.1361 19.735C18.983 19.6484 18.983 19.502 19.1361 19.4155C19.2958 19.329 19.5421 19.329 19.6952 19.4155Z" fill="#E78200"/>
<path d="M9.50506 23.6157C9.65815 23.7022 9.65815 23.8486 9.50506 23.9352C9.35197 24.0217 9.09902 24.0217 8.94593 23.9352C8.79284 23.8486 8.79284 23.7022 8.94593 23.6157C9.10568 23.5291 9.35197 23.5291 9.50506 23.6157Z" fill="#E78200"/>
<path d="M10.9627 22.7768C11.1158 22.8633 11.1158 23.0098 10.9627 23.0963C10.8096 23.1828 10.5567 23.1828 10.4036 23.0963C10.2505 23.0098 10.2505 22.8633 10.4036 22.7768C10.5567 22.6903 10.8096 22.6903 10.9627 22.7768Z" fill="#E78200"/>
<path d="M12.4203 21.9381C12.5734 22.0246 12.5734 22.171 12.4203 22.2575C12.2673 22.3441 12.0143 22.3441 11.8612 22.2575C11.7081 22.171 11.7081 22.0246 11.8612 21.9381C12.0143 21.8449 12.2673 21.8449 12.4203 21.9381Z" fill="#E78200"/>
<path d="M13.8711 21.0927C14.0242 21.1793 14.0242 21.3257 13.8711 21.4122C13.7181 21.4987 13.4651 21.4987 13.312 21.4122C13.1589 21.3257 13.1589 21.1793 13.312 21.0927C13.4718 21.0062 13.7181 21.0062 13.8711 21.0927Z" fill="#E78200"/>
<path d="M15.3291 20.2543C15.4822 20.3409 15.4822 20.4873 15.3291 20.5738C15.176 20.6604 14.9231 20.6604 14.77 20.5738C14.6169 20.4873 14.6169 20.3409 14.77 20.2543C14.9297 20.1678 15.176 20.1678 15.3291 20.2543Z" fill="#E78200"/>
<path d="M16.5071 19.8017C16.724 19.8017 16.8998 19.7004 16.8998 19.5754C16.8998 19.4504 16.724 19.3491 16.5071 19.3491C16.2902 19.3491 16.1144 19.4504 16.1144 19.5754C16.1144 19.7004 16.2902 19.8017 16.5071 19.8017Z" fill="#E78200"/>
<path d="M18.2444 18.5767C18.3975 18.6633 18.3975 18.8097 18.2444 18.8962C18.0913 18.9827 17.8383 18.9827 17.6853 18.8962C17.5322 18.8097 17.5322 18.6633 17.6853 18.5767C17.8383 18.4835 18.0846 18.4835 18.2444 18.5767Z" fill="#E78200"/>
<path d="M19.6952 17.7314C19.8483 17.8179 19.8483 17.9644 19.6952 18.0509C19.5421 18.1374 19.2891 18.1374 19.1361 18.0509C18.983 17.9644 18.983 17.8179 19.1361 17.7314C19.2958 17.6449 19.5421 17.6449 19.6952 17.7314Z" fill="#E78200"/>
<path d="M8.04064 22.7701C8.19373 22.8566 8.19373 23.0031 8.04064 23.0896C7.88755 23.1761 7.6346 23.1761 7.48152 23.0896C7.32843 23.0031 7.32843 22.8566 7.48152 22.7701C7.6346 22.6769 7.8809 22.6769 8.04064 22.7701Z" fill="#E78200"/>
<path d="M9.49171 21.9248C9.6448 22.0113 9.6448 22.1577 9.49171 22.2442C9.33862 22.3308 9.08572 22.3308 8.93263 22.2442C8.77954 22.1577 8.77954 22.0113 8.93263 21.9248C9.09237 21.8382 9.33862 21.8382 9.49171 21.9248Z" fill="#E78200"/>
<path d="M10.9494 21.0864C11.1024 21.1729 11.1024 21.3193 10.9494 21.4059C10.7963 21.4924 10.5434 21.4924 10.3903 21.4059C10.2372 21.3193 10.2372 21.1729 10.3903 21.0864C10.5434 20.9999 10.7963 20.9999 10.9494 21.0864Z" fill="#E78200"/>
<path d="M12.407 20.2476C12.5601 20.3342 12.5601 20.4806 12.407 20.5671C12.2539 20.6536 12.001 20.6536 11.8479 20.5671C11.6948 20.4806 11.6948 20.3342 11.8479 20.2476C12.001 20.1544 12.2539 20.1544 12.407 20.2476Z" fill="#E78200"/>
<path d="M13.8581 19.4088C14.0112 19.4953 14.0112 19.6417 13.8581 19.7282C13.705 19.8148 13.4521 19.8148 13.299 19.7282C13.1459 19.6417 13.1459 19.4953 13.299 19.4088C13.4588 19.3156 13.705 19.3156 13.8581 19.4088Z" fill="#E78200"/>
<path d="M15.3157 18.5634C15.4688 18.65 15.4688 18.7964 15.3157 18.8829C15.1627 18.9694 14.9098 18.9694 14.7567 18.8829C14.6036 18.7964 14.6036 18.65 14.7567 18.5634C14.9164 18.4769 15.1627 18.4769 15.3157 18.5634Z" fill="#E78200"/>
<path d="M16.4938 18.1108C16.7107 18.1108 16.8865 18.0095 16.8865 17.8845C16.8865 17.7595 16.7107 17.6582 16.4938 17.6582C16.2769 17.6582 16.1011 17.7595 16.1011 17.8845C16.1011 18.0095 16.2769 18.1108 16.4938 18.1108Z" fill="#E78200"/>
<path d="M18.2311 16.8863C18.3842 16.9728 18.3842 17.1193 18.2311 17.2058C18.078 17.2923 17.825 17.2923 17.6719 17.2058C17.5189 17.1193 17.5189 16.9728 17.6719 16.8863C17.825 16.7931 18.078 16.7931 18.2311 16.8863Z" fill="#E78200"/>
<path d="M6.30337 22.3179C6.52025 22.3179 6.69605 22.2165 6.69605 22.0915C6.69605 21.9666 6.52025 21.8652 6.30337 21.8652C6.08648 21.8652 5.91064 21.9666 5.91064 22.0915C5.91064 22.2165 6.08648 22.3179 6.30337 22.3179Z" fill="#E78200"/>
<path d="M7.76101 21.4721C7.9779 21.4721 8.15369 21.3708 8.15369 21.2458C8.15369 21.1208 7.9779 21.0195 7.76101 21.0195C7.54412 21.0195 7.36829 21.1208 7.36829 21.2458C7.36829 21.3708 7.54412 21.4721 7.76101 21.4721Z" fill="#E78200"/>
<path d="M9.49171 20.567C9.33862 20.6536 9.08572 20.6536 8.93263 20.567C8.77954 20.4805 8.77954 20.3341 8.93263 20.2475C9.09237 20.1544 9.6448 20.4805 9.49171 20.567Z" fill="#E78200"/>
<path d="M4.84573 21.4721C5.06261 21.4721 5.23841 21.3708 5.23841 21.2458C5.23841 21.1208 5.06261 21.0195 4.84573 21.0195C4.62884 21.0195 4.453 21.1208 4.453 21.2458C4.453 21.3708 4.62884 21.4721 4.84573 21.4721Z" fill="#E78200"/>
<path d="M6.583 20.2476C6.73609 20.3342 6.73609 20.4806 6.583 20.5671C6.42991 20.6536 6.17696 20.6536 6.02387 20.5671C5.87079 20.4806 5.87079 20.3342 6.02387 20.2476C6.17696 20.1544 6.42991 20.1544 6.583 20.2476Z" fill="#E78200"/>
<path d="M3.66768 20.2476C3.82076 20.3342 3.82076 20.4806 3.66768 20.5671C3.51459 20.6536 3.26168 20.6536 3.10859 20.5671C2.9555 20.4806 2.9555 20.3342 3.10859 20.2476C3.26834 20.1544 3.51459 20.1544 3.66768 20.2476Z" fill="#E78200"/>
<path d="M5.12532 19.4088C5.27841 19.4953 5.27841 19.6417 5.12532 19.7282C4.97223 19.8148 4.71932 19.8148 4.56623 19.7282C4.41314 19.6417 4.41314 19.4953 4.56623 19.4088C4.72598 19.3156 4.97223 19.3156 5.12532 19.4088Z" fill="#E78200"/>
<path d="M18.0246 5.36466L9.09886 0.212891L0.179749 5.36466V15.6682L9.09886 20.82V10.5431L18.0246 5.36466Z" fill="#FFF4E5"/>
<path d="M0.179749 15.6351L9.09886 20.7869V10.5099L0.179749 5.33154V15.6351Z" fill="#444444"/>
<path d="M18.2043 5.25827L9.09883 0L0.0266502 5.2383L0 5.25161V5.45795V15.7615L8.92577 20.9133L9.10546 21.0198L9.28518 20.9133L18.1178 15.8147L18.2043 15.7615V5.45795V5.25827ZM9.09883 0.419329L13.2921 2.84213L4.72581 7.78756L0.532475 5.36476L9.09883 0.419329ZM8.91911 20.5072L0.35279 15.5618V5.67094L8.91911 10.6164V20.5072ZM12.733 8.21355L9.09883 10.3102L4.9055 7.8874L13.4718 2.94197L17.6652 5.36476L12.733 8.21355Z" fill="#E78200"/>
<path d="M5.55775 10.5301L3.90041 9.57159C3.72069 9.46509 3.53431 9.45843 3.38122 9.54496C3.20816 9.6448 3.10834 9.8578 3.10834 10.124C3.10834 10.5766 3.38122 11.0825 3.72068 11.2822L5.37803 12.2407C5.47787 12.3006 5.57772 12.3272 5.67756 12.3272C5.75743 12.3272 5.83062 12.3072 5.90384 12.2673C6.0769 12.1674 6.17676 11.9544 6.17676 11.6882C6.17011 11.2356 5.89721 10.7231 5.55775 10.5301ZM5.71749 11.9544C5.66424 11.9811 5.59103 11.9478 5.55109 11.9278L3.89375 10.9694C3.66078 10.8362 3.46109 10.4435 3.46109 10.124C3.46109 9.96429 3.50769 9.87776 3.55428 9.8578C3.60753 9.82452 3.68075 9.86445 3.72068 9.88442L3.83382 9.95098C3.87376 10.337 4.10674 10.7431 4.39295 10.9095L5.80402 11.7215C5.80402 11.8546 5.76409 11.9278 5.71749 11.9544Z" fill="#E78200"/>
</svg>
