<svg width="30" height="37" viewBox="0 0 30 37" fill="none" xmlns="http://www.w3.org/2000/svg">
<path d="M3.30006 29.2202C3.53006 29.3502 3.53006 29.5702 3.30006 29.7002C3.07006 29.8302 2.6901 29.8302 2.4601 29.7002C2.2301 29.5702 2.2301 29.3502 2.4601 29.2202C2.7001 29.0802 3.07006 29.0802 3.30006 29.2202Z" fill="#E78200"/>
<path d="M5.49 27.95C5.72 28.08 5.72 28.3 5.49 28.43C5.26 28.56 4.88004 28.56 4.65004 28.43C4.42004 28.3 4.42004 28.08 4.65004 27.95C4.89004 27.82 5.26 27.82 5.49 27.95Z" fill="#E78200"/>
<path d="M1.12001 27.95C1.35001 28.08 1.35001 28.3 1.12001 28.43C0.89001 28.56 0.510044 28.56 0.280044 28.43C0.0500439 28.3 0.0500439 28.08 0.280044 27.95C0.510044 27.82 0.89001 27.82 1.12001 27.95Z" fill="#E78200"/>
<path d="M3.30006 26.6903C3.53006 26.8203 3.53006 27.0403 3.30006 27.1703C3.07006 27.3003 2.6901 27.3003 2.4601 27.1703C2.2301 27.0403 2.2301 26.8203 2.4601 26.6903C2.7001 26.5603 3.07006 26.5603 3.30006 26.6903Z" fill="#E78200"/>
<path d="M1.12001 25.4302C1.35001 25.5602 1.35001 25.7802 1.12001 25.9102C0.89001 26.0402 0.510044 26.0402 0.280044 25.9102C0.0500439 25.7802 0.0500439 25.5602 0.280044 25.4302C0.510044 25.2902 0.89001 25.2902 1.12001 25.4302Z" fill="#E78200"/>
<path d="M18.66 35.4803C18.89 35.6103 18.89 35.8303 18.66 35.9603C18.43 36.0903 18.05 36.0903 17.82 35.9603C17.59 35.8303 17.59 35.6103 17.82 35.4803C18.05 35.3503 18.43 35.3503 18.66 35.4803Z" fill="#E78200"/>
<path d="M20.8398 34.2201C21.0698 34.3501 21.0698 34.5701 20.8398 34.7001C20.6098 34.8301 20.2298 34.8301 19.9998 34.7001C19.7698 34.5701 19.7698 34.3501 19.9998 34.2201C20.2398 34.0901 20.6098 34.0901 20.8398 34.2201Z" fill="#E78200"/>
<path d="M23.0301 32.96C23.2601 33.09 23.2601 33.31 23.0301 33.44C22.8001 33.57 22.4201 33.57 22.1901 33.44C21.9601 33.31 21.9601 33.09 22.1901 32.96C22.4301 32.82 22.8001 32.82 23.0301 32.96Z" fill="#E78200"/>
<path d="M24.7999 32.2801C25.1258 32.2801 25.39 32.1279 25.39 31.9401C25.39 31.7523 25.1258 31.6001 24.7999 31.6001C24.4741 31.6001 24.21 31.7523 24.21 31.9401C24.21 32.1279 24.4741 32.2801 24.7999 32.2801Z" fill="#E78200"/>
<path d="M27.41 30.43C27.64 30.56 27.64 30.78 27.41 30.91C27.18 31.04 26.8 31.04 26.57 30.91C26.34 30.78 26.34 30.56 26.57 30.43C26.8 30.3 27.17 30.3 27.41 30.43Z" fill="#E78200"/>
<path d="M29.5898 29.1703C29.8198 29.3003 29.8198 29.5202 29.5898 29.6502C29.3598 29.7802 28.9798 29.7802 28.7498 29.6502C28.5198 29.5202 28.5198 29.3003 28.7498 29.1703C28.9898 29.0403 29.3598 29.0403 29.5898 29.1703Z" fill="#E78200"/>
<path d="M14.2801 35.4803C14.5101 35.6103 14.5101 35.8303 14.2801 35.9603C14.0501 36.0903 13.6701 36.0903 13.4401 35.9603C13.2101 35.8303 13.2101 35.6103 13.4401 35.4803C13.6801 35.3503 14.0501 35.3503 14.2801 35.4803Z" fill="#E78200"/>
<path d="M16.47 34.2201C16.7 34.3501 16.7 34.5701 16.47 34.7001C16.24 34.8301 15.86 34.8301 15.63 34.7001C15.4 34.5701 15.4 34.3501 15.63 34.2201C15.86 34.0901 16.24 34.0901 16.47 34.2201Z" fill="#E78200"/>
<path d="M18.66 32.96C18.89 33.09 18.89 33.31 18.66 33.44C18.43 33.57 18.05 33.57 17.82 33.44C17.59 33.31 17.59 33.09 17.82 32.96C18.05 32.82 18.43 32.82 18.66 32.96Z" fill="#E78200"/>
<path d="M20.8398 31.6903C21.0698 31.8203 21.0698 32.0403 20.8398 32.1703C20.6098 32.3003 20.2298 32.3003 19.9998 32.1703C19.7698 32.0403 19.7698 31.8203 19.9998 31.6903C20.2398 31.5603 20.6098 31.5603 20.8398 31.6903Z" fill="#E78200"/>
<path d="M23.0301 30.43C23.2601 30.56 23.2601 30.78 23.0301 30.91C22.8001 31.04 22.4201 31.04 22.1901 30.91C21.9601 30.78 21.9601 30.56 22.1901 30.43C22.4301 30.3 22.8001 30.3 23.0301 30.43Z" fill="#E78200"/>
<path d="M24.7999 29.7503C25.1258 29.7503 25.39 29.5981 25.39 29.4103C25.39 29.2225 25.1258 29.0703 24.7999 29.0703C24.4741 29.0703 24.21 29.2225 24.21 29.4103C24.21 29.5981 24.4741 29.7503 24.7999 29.7503Z" fill="#E78200"/>
<path d="M27.41 27.9102C27.64 28.0402 27.64 28.2602 27.41 28.3902C27.18 28.5202 26.8 28.5202 26.57 28.3902C26.34 28.2602 26.34 28.0402 26.57 27.9102C26.8 27.7702 27.17 27.7702 27.41 27.9102Z" fill="#E78200"/>
<path d="M29.5898 26.64C29.8198 26.77 29.8198 26.99 29.5898 27.12C29.3598 27.25 28.9798 27.25 28.7498 27.12C28.5198 26.99 28.5198 26.77 28.7498 26.64C28.9898 26.51 29.3598 26.51 29.5898 26.64Z" fill="#E78200"/>
<path d="M12.08 34.21C12.31 34.34 12.31 34.56 12.08 34.69C11.85 34.82 11.47 34.82 11.24 34.69C11.01 34.56 11.01 34.34 11.24 34.21C11.47 34.07 11.84 34.07 12.08 34.21Z" fill="#E78200"/>
<path d="M14.26 32.9403C14.49 33.0703 14.49 33.2903 14.26 33.4203C14.03 33.5503 13.6501 33.5503 13.4201 33.4203C13.1901 33.2903 13.1901 33.0703 13.4201 32.9403C13.6601 32.8103 14.03 32.8103 14.26 32.9403Z" fill="#E78200"/>
<path d="M16.45 31.68C16.68 31.81 16.68 32.03 16.45 32.16C16.22 32.29 15.84 32.29 15.61 32.16C15.38 32.03 15.38 31.81 15.61 31.68C15.84 31.55 16.22 31.55 16.45 31.68Z" fill="#E78200"/>
<path d="M18.64 30.4199C18.87 30.5499 18.87 30.7699 18.64 30.8999C18.41 31.0299 18.0299 31.0299 17.7999 30.8999C17.5699 30.7699 17.5699 30.5499 17.7999 30.4199C18.0299 30.2799 18.41 30.2799 18.64 30.4199Z" fill="#E78200"/>
<path d="M20.8201 29.1602C21.0501 29.2902 21.0501 29.5102 20.8201 29.6402C20.5901 29.7702 20.2101 29.7702 19.9801 29.6402C19.7501 29.5102 19.7501 29.2902 19.9801 29.1602C20.2201 29.0202 20.5901 29.0202 20.8201 29.1602Z" fill="#E78200"/>
<path d="M23.01 27.89C23.24 28.02 23.24 28.24 23.01 28.37C22.78 28.5 22.4001 28.5 22.1701 28.37C21.9401 28.24 21.9401 28.02 22.1701 27.89C22.4101 27.76 22.78 27.76 23.01 27.89Z" fill="#E78200"/>
<path d="M24.78 27.2103C25.1058 27.2103 25.3699 27.058 25.3699 26.8703C25.3699 26.6825 25.1058 26.5303 24.78 26.5303C24.4541 26.5303 24.1899 26.6825 24.1899 26.8703C24.1899 27.058 24.4541 27.2103 24.78 27.2103Z" fill="#E78200"/>
<path d="M27.39 25.3701C27.62 25.5001 27.62 25.7201 27.39 25.8501C27.16 25.9801 26.7799 25.9801 26.5499 25.8501C26.3199 25.7201 26.3199 25.5001 26.5499 25.3701C26.7799 25.2301 27.16 25.2301 27.39 25.3701Z" fill="#E78200"/>
<path d="M9.47003 33.5301C9.79588 33.5301 10.06 33.3779 10.06 33.1901C10.06 33.0023 9.79588 32.8501 9.47003 32.8501C9.14418 32.8501 8.88 33.0023 8.88 33.1901C8.88 33.3779 9.14418 33.5301 9.47003 33.5301Z" fill="#E78200"/>
<path d="M11.6601 32.2601C11.9859 32.2601 12.2501 32.1079 12.2501 31.9201C12.2501 31.7323 11.9859 31.5801 11.6601 31.5801C11.3342 31.5801 11.0701 31.7323 11.0701 31.9201C11.0701 32.1079 11.3342 32.2601 11.6601 32.2601Z" fill="#E78200"/>
<path d="M14.26 30.8999C14.03 31.0299 13.6501 31.0299 13.4201 30.8999C13.1901 30.7699 13.1901 30.5499 13.4201 30.4199C13.6601 30.2799 14.49 30.7699 14.26 30.8999Z" fill="#E78200"/>
<path d="M7.27997 32.2601C7.60582 32.2601 7.86993 32.1079 7.86993 31.9201C7.86993 31.7323 7.60582 31.5801 7.27997 31.5801C6.95412 31.5801 6.68994 31.7323 6.68994 31.9201C6.68994 32.1079 6.95412 32.2601 7.27997 32.2601Z" fill="#E78200"/>
<path d="M9.88997 30.4199C10.12 30.5499 10.12 30.7699 9.88997 30.8999C9.65997 31.0299 9.27994 31.0299 9.04994 30.8999C8.81994 30.7699 8.81994 30.5499 9.04994 30.4199C9.27994 30.2799 9.65997 30.2799 9.88997 30.4199Z" fill="#E78200"/>
<path d="M5.51002 30.4199C5.74002 30.5499 5.74002 30.7699 5.51002 30.8999C5.28002 31.0299 4.90006 31.0299 4.67006 30.8999C4.44006 30.7699 4.44006 30.5499 4.67006 30.4199C4.91006 30.2799 5.28002 30.2799 5.51002 30.4199Z" fill="#E78200"/>
<path d="M7.69997 29.1602C7.92997 29.2902 7.92997 29.5102 7.69997 29.6402C7.46997 29.7702 7.09 29.7702 6.86 29.6402C6.63 29.5102 6.63 29.2902 6.86 29.1602C7.1 29.0202 7.46997 29.0202 7.69997 29.1602Z" fill="#E78200"/>
<path d="M27.08 8.05982L13.67 0.319824L0.27002 8.05982V23.5398L13.67 31.2798V15.8398L27.08 8.05982Z" fill="#FFF4E5"/>
<path d="M0.27002 23.4898L13.67 31.2298V15.7898L0.27002 8.00977V23.4898Z" fill="#444444"/>
<path d="M27.35 7.9L13.67 0L0.0400391 7.87L0 7.89V8.2V23.68L13.41 31.42L13.68 31.58L13.95 31.42L27.22 23.76L27.35 23.68V8.2V7.9ZM13.67 0.629997L19.97 4.27L7.10004 11.7L0.799988 8.06L13.67 0.629997ZM13.4 30.81L0.530029 23.38V8.52L13.4 15.95V30.81ZM19.13 12.34L13.67 15.49L7.37 11.85L20.24 4.42L26.54 8.06L19.13 12.34Z" fill="#E78200"/>
<path d="M8.35004 15.8201L5.86005 14.38C5.59005 14.22 5.31002 14.21 5.08002 14.34C4.82002 14.49 4.67004 14.81 4.67004 15.21C4.67004 15.89 5.08003 16.65 5.59003 16.95L8.08002 18.39C8.23002 18.4801 8.38003 18.52 8.53003 18.52C8.65003 18.52 8.75999 18.4901 8.87 18.4301C9.13 18.2801 9.28003 17.96 9.28003 17.56C9.27003 16.88 8.86004 16.1101 8.35004 15.8201ZM8.59003 17.96C8.51003 18 8.40003 17.95 8.34003 17.92L5.85004 16.48C5.50004 16.28 5.20001 15.69 5.20001 15.21C5.20001 14.97 5.27003 14.84 5.34003 14.81C5.42003 14.76 5.53003 14.82 5.59003 14.85L5.76001 14.95C5.82001 15.53 6.17004 16.14 6.60004 16.39L8.72003 17.6101C8.72003 17.8101 8.66003 17.92 8.59003 17.96Z" fill="#E78200"/>
</svg>
