<svg width="36" height="42" viewBox="0 0 36 42" fill="none" xmlns="http://www.w3.org/2000/svg">
<path fill-rule="evenodd" clip-rule="evenodd" d="M17.0477 1.57257C16.6814 1.98489 16.4942 2.71409 16.398 4.10078L16.263 6.04954L14.6181 6.3907C12.1749 6.89761 9.81578 8.2399 7.78459 10.2788L5.99761 12.0726L4.3276 11.1614C2.91692 10.3919 2.53953 10.2929 1.89633 10.5238C1.2588 10.7527 1.13507 10.9529 1.13507 11.7557C1.13507 12.603 1.29202 12.8184 2.48578 13.6096C4.59693 15.0087 4.54182 14.9213 4.05043 16.0912C3.40912 17.6175 3.25217 22.7439 3.78218 24.8546C4.00991 25.7619 4.23683 26.6745 4.28653 26.883C4.33867 27.1017 3.81352 27.5841 3.04497 28.0234C1.55055 28.8784 1 29.508 1 30.3627C1 31.8131 2.6176 32.0045 4.63367 30.793L5.97113 29.9893L7.75433 31.7067C9.77607 33.6538 11.9299 34.8877 14.5459 35.5979L16.3408 36.0849L16.4445 37.9622C16.6001 40.7726 17.8463 41.8576 19.0797 40.2566C19.5117 39.6962 19.6397 39.1327 19.6397 37.7932C19.6397 35.9117 19.58 35.9809 21.5307 35.5995C23.3682 35.2402 26.2349 33.5953 28.1424 31.806L30.0269 30.0384L31.426 30.8222C33.0917 31.7555 34.353 31.8454 34.7646 31.0605C35.2936 30.0514 34.8038 29.1865 33.1079 28.1349C31.7415 27.2874 31.5332 27.0538 31.6918 26.5468C32.768 23.1099 32.9001 19.8511 32.0848 16.8494C31.798 15.7931 31.6213 14.8692 31.6926 14.7966C31.7637 14.7241 32.3896 14.3498 33.0836 13.9654C33.7776 13.5807 34.5245 12.9389 34.743 12.5393C35.0991 11.8887 35.0923 11.7372 34.6777 11.0913C34.0628 10.1332 33.2235 10.1655 31.3963 11.2182L29.9243 12.0665L29.046 11.045C28.5627 10.4832 27.5527 9.56013 26.8014 8.99337C24.5936 7.3284 23.4825 6.83032 20.3826 6.11766C19.6678 5.95329 19.6397 5.88076 19.6397 4.19676C19.6397 1.50142 18.3082 0.153337 17.0477 1.57257ZM18.6751 1.7022C18.9838 2.01771 19.0994 2.68761 19.0994 4.16228V6.18909L21.0528 6.6425C23.7734 7.27434 25.9467 8.52397 28.0938 10.6914L29.9297 12.5445L31.5578 11.5704C33.596 10.3506 34.5788 10.4352 34.4464 11.8186C34.3621 12.7009 33.9232 13.1154 31.8433 14.2773L31.0205 14.7368L31.5767 16.2079C32.4009 18.3872 32.5222 22.1046 31.849 24.5735C31.5597 25.6353 31.2485 26.6903 31.1572 26.9178C31.0391 27.2129 31.4857 27.6313 32.7164 28.3787C34.4664 29.441 34.8962 30.061 34.4489 30.8776C34.0798 31.5506 33.2613 31.432 31.5178 30.4535L29.9553 29.5767L28.063 31.3652C25.9124 33.3981 23.5746 34.7087 20.9229 35.3687L19.0994 35.8224L19.0954 37.7824C19.0905 40.101 18.8985 40.507 17.8652 40.3848C16.9591 40.2778 16.7354 39.694 16.6952 37.3343C16.6698 35.8436 16.626 35.7443 15.9253 35.5863C11.8305 34.6629 9.25848 33.1502 6.88205 30.267L6.16374 29.3955L4.74145 30.2516C3.95912 30.7226 2.92475 31.1733 2.44309 31.253C1.66995 31.3812 1.54622 31.3128 1.38846 30.6713C1.16235 29.7519 1.4876 29.3531 3.35293 28.2637C4.5691 27.5532 4.80629 27.2956 4.68742 26.8141C4.608 26.492 4.35569 25.4837 4.12634 24.5735C3.55472 22.3024 3.59768 19.4214 4.24196 16.8499C4.53939 15.6629 4.75226 14.6695 4.71471 14.6425C4.67743 14.6154 3.94292 14.1706 3.08279 13.6537C1.45168 12.6741 0.935706 11.8034 1.54325 11.056C2.03788 10.4474 2.529 10.5439 4.46267 11.6289C5.80203 12.3807 6.26505 12.5282 6.42983 12.2563C6.54815 12.0608 7.32022 11.2077 8.1455 10.3608C9.88899 8.57113 12.39 7.20181 14.8334 6.69876L16.5331 6.34878L16.6031 4.84294C16.6949 2.86715 16.8502 2.22566 17.3632 1.70192C17.896 1.15806 18.1418 1.15806 18.6751 1.7022ZM14.7091 9.40099C12.2719 10.0858 9.26415 12.4993 7.91129 14.8565C6.13484 17.9509 5.93277 22.6562 7.4353 25.934C7.88805 26.9219 8.83112 28.3552 9.53078 29.1186C10.8013 30.5056 12.5266 31.7894 12.7768 31.534C12.8497 31.4596 12.4877 31.1449 11.9723 30.8346L11.0355 30.2701L11.432 28.9388C11.6503 28.2063 12.0091 25.8739 12.2298 23.7553C12.7749 18.5168 13.1925 17.9161 15.6862 18.7816C17.0007 19.2377 17.1512 19.24 17.9538 18.8163C18.4265 18.5667 18.9452 18.1109 19.1065 17.8033C19.5757 16.9084 20.18 13.2365 20.18 11.2814V9.48291L20.9229 9.66107C23.8853 10.3715 26.9384 12.9736 28.4377 16.0656C29.1625 17.5609 29.22 17.9112 29.2246 20.8633C29.2297 23.9894 29.2111 24.0862 28.2208 26.1332C27.2712 28.0965 26.3049 29.2323 24.0827 30.9976L23.2866 31.6303L24.1889 31.1355C25.6255 30.3484 27.6691 28.0877 28.5247 26.34C29.6282 24.0848 30.0596 21.4116 29.6774 19.195C28.8553 14.4312 25.5129 10.5571 21.2179 9.38996C19.4536 8.91036 16.4372 8.9156 14.7091 9.40099ZM17.2925 22.6794C17.1993 22.927 17.2565 23.3476 17.4194 23.6143C17.5826 23.8807 17.6658 24.7641 17.6042 25.5772C17.5429 26.3905 17.4359 27.9556 17.3662 29.0552L17.2398 31.0547H17.9708H18.7018L18.4706 27.7035C18.3139 25.4332 18.3322 24.1447 18.527 23.7078C18.6853 23.3531 18.7442 22.8755 18.658 22.6463C18.4492 22.0903 17.5053 22.1132 17.2925 22.6794ZM16.5666 25.7592C16.4564 25.9415 15.8264 26.0904 15.1665 26.0904C14.5065 26.0904 13.9668 26.1574 13.9668 26.2393C13.9668 26.3212 14.2131 26.8814 14.5146 27.4843C14.9493 28.3544 15.0006 28.6983 14.7629 29.1517C14.4093 29.8258 14.3758 29.7808 15.6327 30.3125L16.6236 30.7317L16.8111 28.4341C17.0075 26.0272 16.9283 25.1618 16.5666 25.7592ZM19.0803 25.6905C19.017 26.5615 19.1573 30.3757 19.2591 30.5437C19.3585 30.7078 21.1652 30.1126 21.4818 29.8114C21.5294 29.7665 21.4127 29.4755 21.2228 29.165C20.9321 28.6898 20.9602 28.4344 21.3997 27.5521C21.6869 26.9757 21.9656 26.4109 22.0189 26.2973C22.0723 26.1836 21.5831 26.0904 20.9318 26.0904C20.2808 26.0904 19.6019 25.9415 19.4236 25.7595C19.2453 25.5774 19.0908 25.5463 19.0803 25.6905ZM21.8009 30.7789C21.8009 30.9306 21.9297 31.0547 22.0869 31.0547C22.2442 31.0547 22.2979 30.9306 22.2061 30.7789C22.1142 30.6272 21.9856 30.5031 21.92 30.5031C21.8543 30.5031 21.8009 30.6272 21.8009 30.7789ZM15.3645 31.5922C15.71 32.0396 16.2359 32.4886 16.5331 32.59C16.8303 32.6915 17.286 32.9654 17.5461 33.1985C17.9721 33.5804 18.0675 33.5774 18.513 33.1659C18.7847 32.9149 19.1265 32.7095 19.2729 32.7095C19.6962 32.7095 21.1074 31.0823 20.8829 30.8531C20.7711 30.7389 20.5612 30.8616 20.4164 31.1259C20.0587 31.7787 16.1082 31.833 15.5876 31.1926C14.9482 30.406 14.7383 30.7817 15.3645 31.5922Z" fill="#444444" stroke="#444444"/>
</svg>
