<?xml version="1.0" standalone="no"?>
<!DOCTYPE svg PUBLIC "-//W3C//DTD SVG 20010904//EN"
 "http://www.w3.org/TR/2001/REC-SVG-20010904/DTD/svg10.dtd">
<svg version="1.0" xmlns="http://www.w3.org/2000/svg"
 width="700.000000pt" height="700.000000pt" viewBox="0 0 700.000000 700.000000"
 preserveAspectRatio="xMidYMid meet">
<metadata>
Created by potrace 1.14, written by Peter Selinger 2001-2017
</metadata>
<g transform="translate(0.000000,700.000000) scale(0.100000,-0.100000)"
fill="#000000" stroke="none">
<path d="M1508 6995 c-2 -2 -36 -6 -77 -9 -110 -10 -259 -45 -321 -76 -70 -35
-127 -91 -154 -149 l-21 -46 -1 -1312 c-1 -1227 0 -1315 16 -1345 49 -92 172
-100 232 -16 l23 33 2 1275 c0 701 2 1283 2 1292 1 20 61 43 146 58 207 35
631 32 805 -4 112 -24 120 -29 121 -78 0 -24 1 -641 1 -1373 1 -1263 2 -1332
19 -1366 32 -65 101 -90 170 -62 34 13 65 51 231 282 106 146 196 271 201 276
4 6 78 107 163 225 85 118 172 238 192 266 120 166 194 267 373 514 110 151
208 286 217 300 13 19 543 753 649 899 74 102 116 119 338 138 113 9 453 9
564 0 103 -9 226 -34 263 -53 24 -12 27 -19 23 -45 -10 -56 -32 -107 -79 -186
-112 -186 -92 -158 -329 -468 -37 -49 -78 -103 -90 -119 -329 -432 -421 -553
-466 -611 -70 -93 -77 -102 -138 -182 -29 -37 -208 -273 -399 -523 -190 -250
-355 -466 -365 -480 -106 -137 -169 -224 -170 -234 0 -6 -2 -21 -5 -34 -8 -44
-34 -3 551 -887 109 -165 286 -433 393 -595 108 -162 282 -425 387 -585 105
-159 303 -458 439 -663 256 -388 364 -580 373 -663 6 -53 -2 -59 -119 -83
-108 -22 -229 -30 -458 -30 -323 0 -501 19 -573 61 -26 16 -160 192 -185 243
-4 8 -133 203 -287 433 -154 230 -284 426 -290 434 -5 9 -314 473 -686 1032
-586 881 -680 1018 -711 1033 -62 29 -135 8 -175 -50 -17 -26 -18 -95 -19
-1559 -1 -843 -4 -1539 -7 -1548 -8 -19 -42 -32 -127 -51 -182 -39 -620 -39
-812 1 -65 13 -127 39 -129 53 0 4 -2 583 -2 1287 -2 1235 -3 1281 -21 1311
-54 90 -183 87 -234 -5 -20 -36 -20 -54 -19 -1346 l2 -1310 24 -52 c50 -112
167 -178 386 -218 107 -20 547 -28 706 -13 277 26 431 103 485 244 18 47 19
103 19 1361 0 722 1 1313 3 1313 1 0 409 -611 907 -1358 497 -746 918 -1373
937 -1393 89 -97 206 -142 431 -166 151 -16 762 -8 818 11 8 3 32 7 54 10 93
12 214 61 265 108 95 85 120 220 70 369 -23 66 -122 271 -164 337 -13 20 -147
224 -298 452 -647 978 -768 1162 -768 1170 0 4 -4 10 -8 12 -5 2 -54 73 -110
158 -55 85 -110 169 -122 185 -44 62 -592 895 -614 932 -6 10 27 67 54 93 3 3
32 41 65 85 33 44 62 82 65 85 3 3 60 77 126 165 67 88 233 307 370 486 137
180 259 340 271 355 12 16 197 260 412 542 403 528 477 634 567 809 58 113 74
172 74 268 0 86 -44 173 -114 226 -55 42 -169 83 -272 99 -38 6 -85 13 -104
16 -61 10 -591 12 -690 3 -207 -20 -348 -73 -433 -163 -26 -28 -249 -330 -495
-671 -952 -1319 -1284 -1775 -1290 -1775 -4 0 -7 516 -6 1147 0 871 -3 1159
-12 1195 -52 200 -268 275 -800 275 -128 1 -234 -1 -236 -2z"/>
<path d="M1005 3622 c-47 -29 -69 -70 -68 -124 4 -168 248 -175 267 -7 8 76
-42 135 -121 144 -37 4 -55 1 -78 -13z"/>
</g>
</svg>
