<svg width="34" height="40" viewBox="0 0 34 40" fill="none" xmlns="http://www.w3.org/2000/svg">
<path fill-rule="evenodd" clip-rule="evenodd" d="M16.9391 0C16.9909 0.00444829 17.0438 0.00889658 17.0966 0.016125C19.1767 0.328061 20.8307 4.01291 21.6511 9.38422C24.9653 9.74231 28.2704 12.7093 29.1691 16.3425C29.4192 17.3505 29.5574 18.4042 29.5818 19.4713C29.5991 20.2453 29.5574 21.0259 29.4558 21.8005C31.3762 20.9626 32.4721 19.985 32.3999 18.9786C32.343 18.2269 31.6456 17.5457 30.4551 16.9652C32.5931 17.6475 33.9056 18.5538 33.995 19.598C34.1089 20.9147 32.2637 22.2214 29.1884 23.2651C28.2419 27.3014 25.5967 30.9373 21.1631 32.2679C20.8765 32.3541 20.5918 32.4308 20.3092 32.4997C18.9286 37.3156 16.9563 40.2843 14.9271 39.9784C14.001 39.8389 13.1613 39.0321 12.4415 37.7059C12.0501 36.9858 11.6953 36.1129 11.3811 35.1103C11.739 35.9077 12.1345 36.5566 12.5615 37.032C13.02 37.5436 13.5161 37.8549 14.0406 37.9356C15.6469 38.1758 17.2186 36.2046 18.4538 32.8317C16.2335 33.0819 14.182 32.7694 12.412 31.9343C13.0403 33.8087 13.8902 35.2177 14.8905 35.9766C13.27 35.6914 11.9545 33.9032 11.1067 31.1875C9.42922 30.046 8.08524 28.3534 7.20078 26.1526C7.0371 25.7484 6.91104 25.2919 6.81751 24.8142C3.28879 24.1764 0.769587 23.1055 0 21.8917C1.32365 22.7713 3.68629 23.4669 6.68026 23.8851C6.60808 23.1823 6.60198 22.48 6.65485 21.8733C6.69449 21.4107 6.76973 21.0037 6.87545 20.6945C7.09098 20.0462 7.10521 20.158 7.17638 20.7363C7.22212 21.1043 7.29024 21.6621 7.44883 22.3337C7.57083 22.8497 7.7467 23.4325 8.00594 24.048C8.66777 24.1186 9.35603 24.1764 10.0646 24.2204C10.0219 22.6601 10.0799 21.0093 10.2517 19.31C10.3462 18.3798 10.4662 17.4784 10.6116 16.6094C6.08858 17.7009 2.60562 19.5636 1.66219 21.5375C1.59916 19.0704 5.42168 16.6155 10.8423 15.3577C11.1097 14.0282 11.435 12.7872 11.8071 11.6512C10.6512 12.1688 9.66508 13.1603 7.81177 15.1614C8.8345 12.7688 10.5038 11.0078 12.4567 9.8891C13.9461 6.29155 15.9519 4.13858 17.9974 4.21086C16.5954 4.88033 15.2189 6.65297 14.0772 9.1479C15.4375 8.72031 16.9858 8.75145 17.0367 9.25244C17.1312 10.2989 15.6917 11.0273 15.0044 11.0673C14.7513 11.0818 14.5134 11.0979 14.2887 11.1163C13.9024 11.148 13.5547 11.1869 13.2355 11.2403C12.8176 12.423 12.4486 13.7135 12.1457 15.0841C12.475 15.0224 12.8085 14.9652 13.146 14.9123C13.7977 14.81 14.4656 14.7255 15.1478 14.6593C17.1576 14.4658 19.1157 14.4492 20.9049 14.5876C20.8663 13.1925 20.7789 11.853 20.6477 10.588C20.2024 10.4196 19.8029 10.2911 19.4847 10.1882C18.9316 10.0103 18.6216 9.91079 18.7365 9.81626C19.3068 9.56326 19.9015 9.41758 20.5054 9.36754C19.8791 4.59453 18.5982 1.07704 16.9391 0ZM21.8799 11.1218C22.008 12.2628 22.1015 13.465 22.1564 14.7133C23.6152 14.8945 24.9308 15.1859 26.0287 15.5735C25.2429 13.2464 23.479 11.9164 21.8799 11.1218ZM20.9242 15.6847C19.2732 15.5746 17.4636 15.6013 15.5534 15.787C14.919 15.8481 14.2928 15.9249 13.6767 16.0161C13.0698 16.1061 12.474 16.2101 11.8925 16.3269C11.6963 17.3789 11.5387 18.4704 11.4249 19.5908C11.2612 21.2144 11.2012 22.788 11.2327 24.2799C11.8844 24.306 12.5513 24.321 13.2314 24.3244C13.6818 24.3266 14.1372 24.3232 14.5967 24.3149C15.043 24.3071 15.4944 24.2938 15.9499 24.276C17.5155 24.2137 19.0272 24.0947 20.4566 23.9268C20.6264 22.5651 20.7534 21.1399 20.8338 19.6687C20.907 18.3092 20.9364 16.9763 20.9242 15.6847ZM21.9032 23.7366C21.9937 22.818 22.0659 21.8756 22.1178 20.9147C22.2133 19.1577 22.2357 17.4428 22.194 15.7998C23.7769 15.9827 25.1819 16.2996 26.349 16.7283C26.8491 18.9186 26.7424 21.0382 26.1639 22.8965C24.886 23.2262 23.4526 23.5103 21.9032 23.7366ZM20.3 25.0861C19.3241 25.1923 18.3176 25.278 17.2867 25.3397C16.6107 25.3803 15.9428 25.407 15.285 25.4209C14.8123 25.4309 14.3456 25.4342 13.8841 25.4309L13.3321 25.4236C12.6286 25.4103 11.9403 25.3819 11.2714 25.3397C11.3232 26.3472 11.4198 27.3119 11.554 28.2227C13.4785 29.3509 16.0282 29.783 19.2326 29.2686C19.3291 29.2531 19.4247 29.2364 19.5203 29.2175C19.8232 27.9397 20.0865 26.5546 20.3 25.0861ZM21.2018 28.6909C21.4275 27.4926 21.6206 26.2266 21.7762 24.906C23.1476 24.7202 24.4458 24.4923 25.6465 24.2304C24.7 26.2488 23.1456 27.8402 21.2018 28.6909ZM8.50816 25.0761C8.98801 25.9296 9.58375 26.6814 10.2964 27.3119C10.2527 26.965 10.2141 26.6108 10.1825 26.2499C10.1531 25.9224 10.1287 25.5893 10.1093 25.2513C9.56037 25.2018 9.02562 25.1434 8.50816 25.0761Z" fill="#444444"/>
</svg>
