<svg width="157" height="185" viewBox="0 0 157 185" fill="none" xmlns="http://www.w3.org/2000/svg">
<path d="M17.3515 149.232C18.5261 149.896 18.5261 151.02 17.3515 151.683C16.1768 152.347 14.2363 152.347 13.0616 151.683C11.887 151.02 11.887 149.896 13.0616 149.232C14.2874 148.517 16.1768 148.517 17.3515 149.232Z" fill="#909CAB"/>
<path d="M28.539 142.745C29.7136 143.408 29.7136 144.532 28.539 145.196C27.3643 145.86 25.4238 145.86 24.2491 145.196C23.0745 144.532 23.0745 143.408 24.2491 142.745C25.4749 142.081 27.3643 142.081 28.539 142.745Z" fill="#909CAB"/>
<path d="M6.21963 142.745C7.39427 143.408 7.39427 144.532 6.21963 145.196C5.04499 145.86 3.10445 145.86 1.92981 145.196C0.755168 144.532 0.755168 143.408 1.92981 142.745C3.10445 142.081 5.04499 142.081 6.21963 142.745Z" fill="#909CAB"/>
<path d="M17.3515 136.311C18.5261 136.975 18.5261 138.098 17.3515 138.762C16.1768 139.426 14.2363 139.426 13.0616 138.762C11.887 138.098 11.887 136.975 13.0616 136.311C14.2874 135.647 16.1768 135.647 17.3515 136.311Z" fill="#909CAB"/>
<path d="M6.21963 129.876C7.39427 130.54 7.39427 131.663 6.21963 132.327C5.04499 132.991 3.10445 132.991 1.92981 132.327C0.755168 131.663 0.755168 130.54 1.92981 129.876C3.10445 129.161 5.04499 129.161 6.21963 129.876Z" fill="#909CAB"/>
<path d="M95.799 181.203C96.9737 181.867 96.9737 182.99 95.799 183.654C94.6244 184.318 92.6836 184.318 91.5089 183.654C90.3343 182.99 90.3343 181.867 91.5089 181.203C92.6836 180.539 94.6244 180.539 95.799 181.203Z" fill="#909CAB"/>
<path d="M106.932 174.767C108.106 175.43 108.106 176.554 106.932 177.218C105.757 177.882 103.816 177.882 102.642 177.218C101.467 176.554 101.467 175.43 102.642 174.767C103.867 174.103 105.757 174.103 106.932 174.767Z" fill="#909CAB"/>
<path d="M118.118 168.332C119.293 168.996 119.293 170.119 118.118 170.783C116.944 171.447 115.003 171.447 113.828 170.783C112.654 170.119 112.654 168.996 113.828 168.332C115.054 167.617 116.944 167.617 118.118 168.332Z" fill="#909CAB"/>
<path d="M127.157 164.859C128.821 164.859 130.17 164.082 130.17 163.123C130.17 162.164 128.821 161.386 127.157 161.386C125.492 161.386 124.144 162.164 124.144 163.123C124.144 164.082 125.492 164.859 127.157 164.859Z" fill="#909CAB"/>
<path d="M140.487 155.411C141.661 156.074 141.661 157.198 140.487 157.862C139.312 158.526 137.371 158.526 136.196 157.862C135.022 157.198 135.022 156.074 136.196 155.411C137.371 154.747 139.261 154.747 140.487 155.411Z" fill="#909CAB"/>
<path d="M151.618 148.976C152.793 149.64 152.793 150.764 151.618 151.428C150.444 152.092 148.503 152.092 147.328 151.428C146.154 150.764 146.154 149.64 147.328 148.976C148.554 148.313 150.444 148.313 151.618 148.976Z" fill="#909CAB"/>
<path d="M73.4299 181.203C74.6045 181.867 74.6045 182.99 73.4299 183.654C72.2553 184.318 70.3144 184.318 69.1398 183.654C67.9651 182.99 67.9651 181.867 69.1398 181.203C70.3655 180.539 72.2553 180.539 73.4299 181.203Z" fill="#909CAB"/>
<path d="M84.6125 174.767C85.7872 175.43 85.7872 176.554 84.6125 177.218C83.4379 177.882 81.497 177.882 80.3224 177.218C79.1477 176.554 79.1477 175.43 80.3224 174.767C81.497 174.103 83.4379 174.103 84.6125 174.767Z" fill="#909CAB"/>
<path d="M95.799 168.332C96.9737 168.996 96.9737 170.119 95.799 170.783C94.6244 171.447 92.6836 171.447 91.5089 170.783C90.3343 170.119 90.3343 168.996 91.5089 168.332C92.6836 167.617 94.6244 167.617 95.799 168.332Z" fill="#909CAB"/>
<path d="M106.932 161.847C108.106 162.511 108.106 163.635 106.932 164.298C105.757 164.962 103.816 164.962 102.642 164.298C101.467 163.635 101.467 162.511 102.642 161.847C103.867 161.183 105.757 161.183 106.932 161.847Z" fill="#909CAB"/>
<path d="M118.118 155.411C119.293 156.074 119.293 157.198 118.118 157.862C116.944 158.526 115.003 158.526 113.828 157.862C112.654 157.198 112.654 156.074 113.828 155.411C115.054 154.747 116.944 154.747 118.118 155.411Z" fill="#909CAB"/>
<path d="M127.157 151.939C128.821 151.939 130.17 151.162 130.17 150.203C130.17 149.244 128.821 148.466 127.157 148.466C125.492 148.466 124.144 149.244 124.144 150.203C124.144 151.162 125.492 151.939 127.157 151.939Z" fill="#909CAB"/>
<path d="M140.487 142.541C141.661 143.205 141.661 144.329 140.487 144.993C139.312 145.656 137.371 145.656 136.196 144.993C135.022 144.329 135.022 143.205 136.196 142.541C137.371 141.826 139.261 141.826 140.487 142.541Z" fill="#909CAB"/>
<path d="M151.618 136.054C152.793 136.718 152.793 137.842 151.618 138.505C150.444 139.169 148.503 139.169 147.328 138.505C146.154 137.842 146.154 136.718 147.328 136.054C148.554 135.39 150.444 135.39 151.618 136.054Z" fill="#909CAB"/>
<path d="M62.1936 174.715C63.3682 175.379 63.3682 176.503 62.1936 177.167C61.0189 177.831 59.0781 177.831 57.9034 177.167C56.7288 176.503 56.7288 175.379 57.9034 174.715C59.0781 174 60.9679 174 62.1936 174.715Z" fill="#909CAB"/>
<path d="M73.3261 168.231C74.5007 168.895 74.5007 170.018 73.3261 170.682C72.1514 171.346 70.2109 171.346 69.0363 170.682C67.8616 170.018 67.8616 168.895 69.0363 168.231C70.262 167.567 72.1514 167.567 73.3261 168.231Z" fill="#909CAB"/>
<path d="M84.5126 161.794C85.6872 162.458 85.6872 163.582 84.5126 164.246C83.338 164.91 81.3974 164.91 80.2228 164.246C79.0481 163.582 79.0481 162.458 80.2228 161.794C81.3974 161.13 83.338 161.13 84.5126 161.794Z" fill="#909CAB"/>
<path d="M95.6945 155.359C96.8692 156.023 96.8692 157.146 95.6945 157.81C94.5199 158.474 92.5791 158.474 91.4044 157.81C90.2298 157.146 90.2298 156.023 91.4044 155.359C92.5791 154.644 94.5199 154.644 95.6945 155.359Z" fill="#909CAB"/>
<path d="M106.831 148.925C108.006 149.589 108.006 150.713 106.831 151.377C105.656 152.041 103.716 152.041 102.541 151.377C101.366 150.713 101.366 149.589 102.541 148.925C103.767 148.21 105.656 148.21 106.831 148.925Z" fill="#909CAB"/>
<path d="M118.013 142.438C119.187 143.102 119.187 144.225 118.013 144.889C116.838 145.553 114.897 145.553 113.723 144.889C112.548 144.225 112.548 143.102 113.723 142.438C114.948 141.774 116.838 141.774 118.013 142.438Z" fill="#909CAB"/>
<path d="M127.052 138.967C128.717 138.967 130.065 138.19 130.065 137.231C130.065 136.272 128.717 135.494 127.052 135.494C125.388 135.494 124.039 136.272 124.039 137.231C124.039 138.19 125.388 138.967 127.052 138.967Z" fill="#909CAB"/>
<path d="M140.382 129.569C141.557 130.233 141.557 131.356 140.382 132.02C139.207 132.684 137.267 132.684 136.092 132.02C134.917 131.356 134.917 130.233 136.092 129.569C137.267 128.854 139.207 128.854 140.382 129.569Z" fill="#909CAB"/>
<path d="M48.8639 171.243C50.5281 171.243 51.877 170.466 51.877 169.507C51.877 168.548 50.5281 167.77 48.8639 167.77C47.1998 167.77 45.8506 168.548 45.8506 169.507C45.8506 170.466 47.1998 171.243 48.8639 171.243Z" fill="#909CAB"/>
<path d="M60.0514 164.757C61.7156 164.757 63.0645 163.98 63.0645 163.021C63.0645 162.062 61.7156 161.284 60.0514 161.284C58.3873 161.284 57.0381 162.062 57.0381 163.021C57.0381 163.98 58.3873 164.757 60.0514 164.757Z" fill="#909CAB"/>
<path d="M73.3261 157.81C72.1514 158.474 70.2109 158.474 69.0363 157.81C67.8616 157.146 67.8616 156.023 69.0363 155.359C70.262 154.644 74.5007 157.146 73.3261 157.81Z" fill="#909CAB"/>
<path d="M37.6774 164.757C39.3416 164.757 40.6904 163.98 40.6904 163.021C40.6904 162.062 39.3416 161.284 37.6774 161.284C36.0133 161.284 34.6641 162.062 34.6641 163.021C34.6641 163.98 36.0133 164.757 37.6774 164.757Z" fill="#909CAB"/>
<path d="M51.007 155.359C52.1817 156.023 52.1817 157.146 51.007 157.81C49.8324 158.474 47.8916 158.474 46.7169 157.81C45.5423 157.146 45.5423 156.023 46.7169 155.359C47.8916 154.644 49.8324 154.644 51.007 155.359Z" fill="#909CAB"/>
<path d="M28.6386 155.359C29.8132 156.023 29.8132 157.146 28.6386 157.81C27.4639 158.474 25.5234 158.474 24.3488 157.81C23.1741 157.146 23.1741 156.023 24.3488 155.359C25.5745 154.644 27.4639 154.644 28.6386 155.359Z" fill="#909CAB"/>
<path d="M39.8251 148.925C40.9997 149.589 40.9997 150.713 39.8251 151.377C38.6505 152.041 36.7099 152.041 35.5353 151.377C34.3606 150.713 34.3606 149.589 35.5353 148.925C36.761 148.21 38.6505 148.21 39.8251 148.925Z" fill="#909CAB"/>
<path d="M138.799 41.1625L70.3127 1.6333L1.87695 41.1625V120.221L70.3127 159.75V80.896L138.799 41.1625Z" fill="#FFF4E5"/>
<path d="M1.87695 119.965L70.3127 159.494V80.6403L1.87695 40.9067V119.965Z" fill="#484848" fill-opacity="0.7"/>
<path d="M140.18 40.3464L70.3147 0L0.704485 40.1931L0.5 40.2953V41.8785V120.937L68.9868 160.466L70.3655 161.283L71.7446 160.466L139.516 121.345L140.18 120.937V41.8785V40.3464ZM70.3147 3.21748L102.49 21.8074L36.7608 59.7534L4.58564 41.1635L70.3147 3.21748ZM68.9357 157.351L3.20693 119.405V43.5128L68.9357 81.4588V157.351ZM98.1995 63.022L70.3147 79.1095L38.1395 60.5195L103.868 22.5735L136.044 41.1635L98.1995 63.022Z" fill="#E78200"/>
<path d="M43.1438 80.7948L30.4271 73.4405C29.0482 72.6233 27.618 72.5723 26.4434 73.2362C25.1155 74.0023 24.3496 75.6366 24.3496 77.6794C24.3496 81.1523 26.4434 85.0337 29.0481 86.5658L41.7648 93.9201C42.5309 94.3797 43.297 94.584 44.0631 94.584C44.6759 94.584 45.2375 94.4308 45.7993 94.1244C47.1272 93.3583 47.8934 91.724 47.8934 89.6812C47.8423 86.2083 45.7485 82.2758 43.1438 80.7948ZM44.3695 91.724C43.9609 91.9283 43.3991 91.673 43.0927 91.5197L30.376 84.1655C28.5885 83.144 27.0562 80.1308 27.0562 77.6794C27.0562 76.4537 27.4138 75.7898 27.7713 75.6366C28.1799 75.3812 28.7417 75.6876 29.0481 75.8408L29.9162 76.3516C30.2226 79.3137 32.0103 82.4291 34.2063 83.7058L45.0334 89.9365C45.0334 90.958 44.727 91.5197 44.3695 91.724Z" fill="#909CAB"/>
<path d="M152.5 99.5355L143.773 99.5355L143.773 98.4786L147.659 98.4786L147.659 93.8252L143.773 93.8252L143.773 92.7684L152.5 92.7684L152.5 93.8252L148.597 93.8252L148.597 98.4786L152.5 98.4786L152.5 99.5355ZM152.636 88.0447C152.636 88.6754 152.497 89.2194 152.219 89.6768C151.937 90.1313 151.545 90.4822 151.043 90.7294C150.537 90.9737 149.949 91.0958 149.278 91.0958C148.608 91.0958 148.017 90.9737 147.506 90.7294C146.991 90.4822 146.591 90.1384 146.304 89.6981C146.014 89.2549 145.869 88.7379 145.869 88.147C145.869 87.8061 145.926 87.4694 146.04 87.137C146.153 86.8046 146.338 86.5021 146.594 86.2294C146.847 85.9566 147.182 85.7393 147.599 85.5774C148.017 85.4154 148.531 85.3345 149.142 85.3345L149.568 85.3345L149.568 90.3799L148.699 90.3799L148.699 86.3572C148.33 86.3572 148 86.4311 147.71 86.5788C147.42 86.7237 147.192 86.9311 147.024 87.2009C146.857 87.468 146.773 87.7833 146.773 88.147C146.773 88.5475 146.872 88.8941 147.071 89.1867C147.267 89.4765 147.523 89.6995 147.838 89.8558C148.153 90.012 148.491 90.0902 148.852 90.0902L149.432 90.0902C149.926 90.0902 150.345 90.0049 150.689 89.8345C151.03 89.6612 151.29 89.4211 151.469 89.1143C151.645 88.8075 151.733 88.4509 151.733 88.0447C151.733 87.7805 151.696 87.5419 151.622 87.3288C151.545 87.1129 151.432 86.9268 151.281 86.7706C151.128 86.6143 150.937 86.4936 150.71 86.4083L150.983 85.4367C151.312 85.539 151.602 85.7109 151.852 85.9524C152.099 86.1938 152.293 86.4921 152.432 86.8473C152.568 87.2024 152.636 87.6015 152.636 88.0447ZM152.5 83.8046L145.955 83.8046L145.955 82.799L152.5 82.799L152.5 83.8046ZM144.864 83.2933C144.864 83.4893 144.797 83.6583 144.663 83.8004C144.53 83.9396 144.369 84.0092 144.182 84.0092C143.994 84.0092 143.834 83.9396 143.7 83.8004C143.567 83.6583 143.5 83.4893 143.5 83.2933C143.5 83.0973 143.567 82.9296 143.7 82.7904C143.834 82.6484 143.994 82.5774 144.182 82.5774C144.369 82.5774 144.53 82.6484 144.663 82.7904C144.797 82.9296 144.864 83.0973 144.864 83.2933ZM155.091 78.3149C155.091 78.8007 155.028 79.2183 154.903 79.5678C154.781 79.9172 154.619 80.2084 154.418 80.4414C154.219 80.6715 154.006 80.8547 153.778 80.9911L153.216 80.1899C153.335 80.099 153.472 79.984 153.625 79.8448C153.781 79.7056 153.916 79.5152 154.03 79.2737C154.146 79.0294 154.205 78.7098 154.205 78.3149C154.205 77.7865 154.077 77.3505 153.821 77.0067C153.565 76.663 153.165 76.4911 152.619 76.4911L151.29 76.4911L151.29 76.5763C151.409 76.6502 151.557 76.7553 151.733 76.8916C151.906 77.0252 152.061 77.2183 152.197 77.4712C152.331 77.7212 152.398 78.0593 152.398 78.4854C152.398 79.0138 152.273 79.4882 152.023 79.9087C151.773 80.3263 151.409 80.6573 150.932 80.9016C150.455 81.1431 149.875 81.2638 149.193 81.2638C148.523 81.2638 147.939 81.1459 147.442 80.9101C146.942 80.6743 146.555 80.3462 146.283 79.9257C146.007 79.5053 145.869 79.0195 145.869 78.4684C145.869 78.0422 145.94 77.7041 146.082 77.4541C146.222 77.2013 146.381 77.0081 146.56 76.8746C146.736 76.7382 146.881 76.6331 146.994 76.5593L146.994 76.457L145.955 76.457L145.955 75.4854L152.687 75.4854C153.25 75.4854 153.707 75.6132 154.06 75.8689C154.415 76.1218 154.675 76.4627 154.839 76.8916C155.007 77.3178 155.091 77.7922 155.091 78.3149ZM151.494 78.349C151.494 77.9456 151.402 77.6047 151.217 77.3263C151.033 77.0479 150.767 76.8362 150.42 76.6914C150.074 76.5465 149.659 76.474 149.176 76.474C148.705 76.474 148.288 76.5451 147.928 76.6871C147.567 76.8291 147.284 77.0394 147.08 77.3178C146.875 77.5962 146.773 77.9399 146.773 78.349C146.773 78.7752 146.881 79.1303 147.097 79.4144C147.312 79.6956 147.602 79.9073 147.966 80.0493C148.33 80.1885 148.733 80.2581 149.176 80.2581C149.631 80.2581 150.033 80.1871 150.382 80.0451C150.729 79.9002 151.001 79.6871 151.2 79.4058C151.396 79.1218 151.494 78.7695 151.494 78.349ZM148.562 72.6388L152.5 72.6388L152.5 73.6445L143.773 73.6445L143.773 72.6388L146.977 72.6388L146.977 72.5536C146.639 72.4002 146.371 72.1701 146.172 71.8632C145.97 71.5536 145.869 71.1416 145.869 70.6274C145.869 70.1814 145.959 69.7908 146.138 69.4556C146.314 69.1203 146.585 68.8604 146.952 68.6757C147.315 68.4882 147.778 68.3945 148.341 68.3945L152.5 68.3945L152.5 69.4002L148.409 69.4002C147.889 69.4002 147.487 69.5351 147.203 69.805C146.916 70.072 146.773 70.4428 146.773 70.9172C146.773 71.2468 146.842 71.5422 146.982 71.8036C147.121 72.0621 147.324 72.2666 147.591 72.4172C147.858 72.5649 148.182 72.6388 148.562 72.6388ZM145.955 63.7081L146.807 63.7081L146.807 67.1001L145.955 67.1001L145.955 63.7081ZM144.386 66.1115L144.386 65.1058L150.625 65.1058C150.909 65.1058 151.122 65.0646 151.264 64.9822C151.403 64.897 151.497 64.789 151.545 64.6583C151.591 64.5248 151.614 64.3842 151.614 64.2365C151.614 64.1257 151.608 64.0348 151.597 63.9637C151.582 63.8927 151.571 63.8359 151.562 63.7933L152.466 63.5887C152.491 63.6569 152.517 63.7521 152.543 63.8742C152.571 63.9964 152.585 64.1512 152.585 64.3387C152.585 64.6228 152.524 64.9012 152.402 65.174C152.28 65.4438 152.094 65.6683 151.844 65.8473C151.594 66.0234 151.278 66.1115 150.898 66.1115L144.386 66.1115Z" fill="#0C263F"/>
<path d="M91.4617 143.587L87.0624 136.049L87.9752 135.516L91.9018 142.244L95.4055 140.199L95.8781 141.009L91.4617 143.587ZM99.6125 138.987C99.0678 139.305 98.5277 139.459 97.9924 139.449C97.458 139.435 96.9574 139.274 96.4905 138.964C96.0246 138.65 95.6226 138.204 95.2847 137.625C94.9467 137.046 94.7543 136.474 94.7076 135.909C94.6618 135.341 94.7568 134.821 94.9925 134.352C95.2292 133.878 95.6027 133.492 96.113 133.194C96.4075 133.022 96.7268 132.902 97.0712 132.832C97.4155 132.763 97.7699 132.77 98.1344 132.853C98.4974 132.934 98.854 133.114 99.2044 133.393C99.5548 133.672 99.8839 134.076 100.192 134.603L100.407 134.971L96.049 137.514L95.6108 136.764L99.0851 134.736C98.8989 134.417 98.669 134.17 98.3954 133.994C98.1242 133.817 97.8298 133.724 97.5122 133.715C97.1971 133.705 96.8825 133.791 96.5684 133.975C96.2225 134.176 95.9732 134.437 95.8208 134.756C95.6693 135.072 95.6056 135.405 95.6296 135.756C95.6536 136.107 95.7566 136.438 95.9384 136.75L96.2306 137.251C96.4797 137.678 96.7646 137.996 97.0851 138.207C97.4066 138.415 97.7449 138.518 98.1001 138.518C98.4539 138.515 98.8062 138.412 99.1571 138.207C99.3853 138.074 99.5728 137.922 99.7195 137.75C99.8673 137.575 99.9708 137.383 100.03 137.175C100.087 136.963 100.096 136.738 100.055 136.499L101.031 136.245C101.109 136.581 101.107 136.918 101.024 137.255C100.94 137.59 100.78 137.908 100.544 138.207C100.306 138.504 99.9952 138.764 99.6125 138.987ZM102.089 132.825L104.074 136.225L103.206 136.732L99.9063 131.079L100.745 130.589L101.261 131.473L101.335 131.43C101.299 131.065 101.366 130.717 101.534 130.385C101.701 130.051 101.998 129.76 102.425 129.51C102.808 129.287 103.188 129.17 103.567 129.16C103.944 129.147 104.305 129.252 104.649 129.475C104.992 129.696 105.304 130.047 105.585 130.528L107.681 134.12L106.812 134.627L104.75 131.094C104.491 130.65 104.174 130.371 103.799 130.258C103.422 130.142 103.032 130.202 102.63 130.437C102.353 130.599 102.14 130.803 101.992 131.051C101.846 131.297 101.778 131.572 101.787 131.876C101.797 132.18 101.898 132.496 102.089 132.825ZM112.856 134.1C112.436 134.344 112.044 134.501 111.679 134.569C111.316 134.64 110.983 134.647 110.68 134.59C110.381 134.534 110.115 134.443 109.883 134.315L110.292 133.425C110.43 133.483 110.598 133.542 110.796 133.605C110.995 133.669 111.227 133.69 111.493 133.666C111.763 133.644 112.068 133.533 112.409 133.334C112.866 133.068 113.178 132.737 113.346 132.343C113.514 131.949 113.46 131.517 113.185 131.046L112.515 129.897L112.442 129.94C112.438 130.081 112.422 130.261 112.393 130.482C112.365 130.699 112.276 130.93 112.126 131.175C111.978 131.417 111.719 131.645 111.351 131.86C110.895 132.126 110.422 132.257 109.933 132.253C109.446 132.248 108.977 132.1 108.526 131.811C108.076 131.521 107.68 131.081 107.336 130.492C106.998 129.913 106.806 129.35 106.759 128.802C106.711 128.251 106.799 127.752 107.025 127.304C107.249 126.854 107.599 126.49 108.075 126.213C108.443 125.998 108.771 125.889 109.058 125.885C109.347 125.878 109.594 125.918 109.8 126.005C110.006 126.089 110.17 126.161 110.291 126.222L110.379 126.17L109.855 125.272L110.694 124.783L114.088 130.598C114.372 131.083 114.492 131.543 114.449 131.976C114.409 132.41 114.246 132.806 113.959 133.165C113.675 133.525 113.307 133.836 112.856 134.1ZM111.014 131.011C111.362 130.807 111.61 130.556 111.757 130.256C111.905 129.956 111.954 129.62 111.904 129.248C111.854 128.875 111.708 128.48 111.464 128.063C111.227 127.656 110.956 127.332 110.651 127.092C110.346 126.852 110.022 126.714 109.679 126.678C109.335 126.642 108.987 126.726 108.634 126.933C108.266 127.148 108.013 127.42 107.877 127.749C107.743 128.078 107.706 128.435 107.767 128.82C107.83 129.205 107.973 129.588 108.196 129.971C108.425 130.363 108.689 130.675 108.988 130.905C109.288 131.131 109.61 131.259 109.953 131.289C110.297 131.315 110.65 131.222 111.014 131.011ZM114.743 122.42L115.172 123.156L112.243 124.866L111.813 124.13L114.743 122.42ZM111.877 122.277L112.745 121.77L115.89 127.158C116.033 127.403 116.176 127.567 116.319 127.648C116.463 127.725 116.603 127.752 116.74 127.727C116.879 127.699 117.011 127.648 117.139 127.574C117.235 127.518 117.31 127.467 117.366 127.421C117.42 127.373 117.463 127.335 117.496 127.306L118.128 127.983C118.082 128.04 118.013 128.11 117.92 128.193C117.829 128.279 117.702 128.37 117.54 128.464C117.295 128.607 117.024 128.695 116.727 128.727C116.432 128.758 116.144 128.71 115.864 128.584C115.586 128.457 115.351 128.229 115.159 127.9L111.877 122.277ZM118.354 123.332L120.339 126.732L119.47 127.239L115.071 119.702L115.939 119.195L117.555 121.963L117.628 121.92C117.591 121.55 117.654 121.202 117.819 120.876C117.984 120.546 118.289 120.251 118.733 119.992C119.119 119.767 119.501 119.647 119.881 119.633C120.259 119.616 120.62 119.719 120.965 119.943C121.31 120.162 121.624 120.515 121.908 121.001L124.004 124.593L123.136 125.1L121.074 121.567C120.812 121.118 120.492 120.839 120.116 120.729C119.741 120.616 119.348 120.679 118.939 120.918C118.654 121.084 118.434 121.293 118.278 121.545C118.125 121.796 118.051 122.074 118.056 122.381C118.063 122.686 118.162 123.003 118.354 123.332Z" fill="#0C263F"/>
<path d="M17.8368 121.943L20.1609 113.199L21.0892 113.739L19.0929 120.8L19.1666 120.843L24.3457 115.632L25.3772 116.232L23.4104 123.311L23.484 123.354L28.6337 118.126L29.562 118.666L23.1121 125.01L22.169 124.462L23.9998 117.482L23.9409 117.448L18.7799 122.491L17.8368 121.943ZM26.1955 126.803L29.4857 121.145L30.3551 121.651L27.0649 127.309L26.1955 126.803ZM30.4762 120.459C30.3067 120.36 30.1941 120.218 30.1385 120.031C30.0852 119.846 30.1057 119.672 30.2 119.51C30.2943 119.348 30.4351 119.244 30.6226 119.198C30.8125 119.154 30.9922 119.182 31.1616 119.28C31.3311 119.379 31.4424 119.521 31.4956 119.706C31.5513 119.893 31.532 120.067 31.4378 120.229C31.3435 120.392 31.2014 120.495 31.0115 120.539C30.8241 120.584 30.6456 120.558 30.4762 120.459ZM30.7253 129.595C30.2538 129.321 29.9067 128.96 29.6842 128.512C29.4632 128.061 29.3778 127.558 29.4282 127.002C29.48 126.444 29.6801 125.865 30.0285 125.266C30.3741 124.672 30.7759 124.215 31.234 123.897C31.692 123.578 32.172 123.405 32.674 123.378C33.176 123.352 33.6652 123.477 34.1417 123.754C34.51 123.968 34.7654 124.199 34.9076 124.446C35.0538 124.692 35.1383 124.925 35.1613 125.145C35.1882 125.365 35.205 125.542 35.2118 125.677L35.2854 125.72L36.9049 122.935L37.7742 123.441L33.3873 130.985L32.5473 130.497L33.0529 129.627L32.9497 129.568C32.8259 129.634 32.6593 129.711 32.4501 129.799C32.2422 129.886 31.9933 129.927 31.7033 129.922C31.4148 129.916 31.0888 129.806 30.7253 129.595ZM31.2973 128.883C31.646 129.085 31.9936 129.166 32.3399 129.124C32.6877 129.08 33.0185 128.932 33.3322 128.681C33.6474 128.427 33.9292 128.086 34.1777 127.659C34.4234 127.237 34.5769 126.831 34.6383 126.443C34.7012 126.053 34.6637 125.699 34.5258 125.382C34.3894 125.063 34.1443 124.8 33.7907 124.595C33.4223 124.38 33.0603 124.297 32.7048 124.343C32.3531 124.388 32.0223 124.536 31.7125 124.786C31.4065 125.036 31.1378 125.359 30.9065 125.757C30.6723 126.16 30.5209 126.561 30.4523 126.962C30.3876 127.361 30.4205 127.729 30.5508 128.064C30.685 128.398 30.9338 128.671 31.2973 128.883ZM40.8513 127.754L40.4229 128.491L37.4905 126.786L37.919 126.049L40.8513 127.754ZM39.5619 125.19L40.4313 125.696L37.2953 131.089C37.1525 131.334 37.081 131.539 37.0808 131.703C37.0845 131.867 37.1307 132.002 37.2194 132.109C37.312 132.216 37.4221 132.306 37.5498 132.38C37.6456 132.436 37.727 132.477 37.7941 132.503C37.8627 132.526 37.9175 132.545 37.9586 132.559L37.6813 133.443C37.6095 133.431 37.5144 133.405 37.396 133.366C37.2761 133.329 37.1351 133.263 36.973 133.169C36.7274 133.026 36.5174 132.833 36.3431 132.591C36.1712 132.349 36.0707 132.076 36.0416 131.77C36.0151 131.465 36.0974 131.148 36.2888 130.819L39.5619 125.19ZM41.8391 131.345L39.8598 134.749L38.9904 134.243L43.3774 126.699L44.2468 127.204L42.6359 129.975L42.7096 130.017C43.0121 129.802 43.346 129.686 43.7112 129.668C44.0803 129.65 44.4871 129.769 44.9316 130.028C45.3172 130.252 45.6099 130.526 45.8097 130.849C46.011 131.17 46.0993 131.535 46.0747 131.945C46.054 132.353 45.9023 132.801 45.6196 133.287L43.5289 136.882L42.6595 136.377L44.7159 132.84C44.9772 132.391 45.0626 131.976 44.9721 131.594C44.8855 131.212 44.6371 130.902 44.227 130.663C43.9421 130.498 43.6517 130.409 43.3558 130.398C43.0623 130.389 42.7834 130.461 42.519 130.617C42.2571 130.773 42.0304 131.016 41.8391 131.345Z" fill="#0C263F"/>
</svg>
