<svg width="151" height="151" viewBox="0 0 151 151" fill="none" xmlns="http://www.w3.org/2000/svg">
<circle cx="75.3516" cy="75.2891" r="75" fill="white"/>
<path d="M97.377 114.289H47.0161C45.7539 114.289 44.731 113.266 44.731 112.004C44.731 110.742 45.7539 109.719 47.0161 109.719H97.377C99.8073 109.719 101.784 107.742 101.784 105.312V95.5691C101.784 93.1394 99.8073 91.1625 97.377 91.1625H75.2955C70.3455 91.1625 66.3185 87.1355 66.3185 82.1855V72.3135C66.3185 69.8838 64.3416 67.9069 61.9119 67.9069H53.5473C48.5973 67.9069 44.5703 63.8799 44.5703 58.9299V45.266C44.5703 40.316 48.5973 36.2891 53.5473 36.2891H75.6293C80.5793 36.2891 84.6063 40.316 84.6063 45.266L84.6057 56.0318C84.6057 58.4616 86.5826 60.4385 89.0123 60.4385H103.688C104.95 60.4385 105.973 61.4614 105.973 62.7236C105.973 63.9858 104.95 65.0088 103.688 65.0088H89.0123C84.0624 65.0088 80.0354 60.9818 80.0354 56.0318L80.036 45.266C80.036 42.8363 78.0591 40.8594 75.6293 40.8594H53.5473C51.1175 40.8594 49.1406 42.8363 49.1406 45.266V58.9299C49.1406 61.3597 51.1175 63.3366 53.5473 63.3366H61.9119C66.8618 63.3366 70.8888 67.3636 70.8888 72.3135V82.1861C70.8888 84.6159 72.8657 86.5928 75.2955 86.5928H97.377C102.327 86.5928 106.354 90.6197 106.354 95.5697V105.312C106.354 110.262 102.327 114.289 97.377 114.289V114.289Z" fill="#C9DFF7"/>
<path d="M97.3766 86.5928H75.6289V91.1631H97.3766C99.8069 91.1631 101.783 93.1394 101.783 95.5697V105.312C101.783 107.742 99.8069 109.719 97.3766 109.719H75.6289V114.289H97.3766C102.327 114.289 106.354 110.262 106.354 105.312V95.5697C106.354 90.6198 102.327 86.5928 97.3766 86.5928V86.5928Z" fill="#AECEF2"/>
<path d="M80.0356 45.266L80.035 56.0319C80.035 60.9818 84.062 65.0088 89.0119 65.0088H103.688C104.95 65.0088 105.973 63.9859 105.973 62.7237C105.973 61.4615 104.95 60.4385 103.688 60.4385H89.0119C86.5822 60.4385 84.6053 58.4616 84.6053 56.0319L84.6059 45.266C84.6059 40.3161 80.5789 36.2891 75.6289 36.2891V40.8594C78.0587 40.8594 80.0356 42.8363 80.0356 45.266V45.266Z" fill="#AECEF2"/>
<path d="M47.0156 114.289C46.3884 114.289 45.7891 114.031 45.3577 113.577C45.2672 113.481 43.1112 111.198 40.9373 108.007C37.8946 103.539 36.3516 99.5784 36.3516 96.2334C36.3516 90.3533 41.1355 85.5693 47.0156 85.5693C52.8957 85.5693 57.6797 90.3533 57.6797 96.2334C57.6797 99.5784 56.1366 103.539 53.0933 108.007C50.92 111.198 48.764 113.481 48.673 113.577C48.2421 114.031 47.6423 114.289 47.0156 114.289Z" fill="#FF2B16"/>
<path d="M48.6736 113.577C48.764 113.481 50.92 111.198 53.0939 108.007C56.1366 103.539 57.6797 99.5784 57.6797 96.2334C57.6797 90.3533 52.8957 85.5693 47.0156 85.5693V114.289C47.6423 114.289 48.2421 114.031 48.6736 113.577Z" fill="#EB230F"/>
<path d="M47.0156 99.9838C46.0129 99.9838 45.0304 99.5779 44.3216 98.8698C43.6135 98.1586 43.207 97.1785 43.207 96.1752C43.207 95.1725 43.6135 94.1923 44.3216 93.4818C45.0304 92.773 46.0129 92.3672 47.0156 92.3672C48.019 92.3672 48.9985 92.773 49.7072 93.4818C50.4178 94.1923 50.8242 95.1725 50.8242 96.1752C50.8242 97.1785 50.4178 98.1586 49.7072 98.8698C48.9985 99.5779 48.016 99.9838 47.0156 99.9838Z" fill="#28415E"/>
<path d="M47.0156 92.3672V99.9838C48.016 99.9838 48.9985 99.5779 49.7072 98.8698C50.4178 98.1586 50.8242 97.1785 50.8242 96.1752C50.8242 95.1725 50.4178 94.1923 49.7072 93.4818C48.9985 92.773 48.019 92.3672 47.0156 92.3672Z" fill="#18304A"/>
<path d="M103.688 65.0088C103.061 65.0088 102.461 64.7512 102.03 64.2965C101.939 64.2007 99.7831 61.9179 97.6092 58.727C94.5665 54.2597 93.0234 50.2981 93.0234 46.9531C93.0234 41.073 97.8074 36.2891 103.688 36.2891C109.568 36.2891 114.352 41.073 114.352 46.9531C114.352 50.2981 112.808 54.2597 109.765 58.727C107.592 61.9179 105.436 64.2007 105.345 64.2965C104.914 64.7512 104.315 65.0088 103.688 65.0088Z" fill="#0088FF"/>
<path d="M105.345 64.2965C105.436 64.2007 107.592 61.9179 109.766 58.727C112.809 54.2597 114.352 50.2981 114.352 46.9531C114.352 41.073 109.568 36.2891 103.688 36.2891V65.0088C104.315 65.0088 104.914 64.7512 105.345 64.2965Z" fill="#0078E1"/>
<path d="M103.688 50.7041C102.684 50.7041 101.704 50.2982 100.996 49.5895C100.285 48.879 99.8789 47.8988 99.8789 46.8955C99.8789 45.8928 100.285 44.9103 100.996 44.2015C101.704 43.4934 102.684 43.0869 103.688 43.0869C104.69 43.0869 105.67 43.4934 106.381 44.2015C107.09 44.9103 107.496 45.8928 107.496 46.8955C107.496 47.8988 107.09 48.879 106.381 49.5895C105.67 50.2982 104.69 50.7041 103.688 50.7041Z" fill="#28415E"/>
<path d="M103.688 43.0869V50.7041C104.69 50.7041 105.67 50.2982 106.381 49.5895C107.09 48.879 107.496 47.8988 107.496 46.8955C107.496 45.8928 107.09 44.9103 106.381 44.2015C105.67 43.4934 104.69 43.0869 103.688 43.0869Z" fill="#18304A"/>
</svg>
