<svg width="151" height="151" viewBox="0 0 151 151" fill="none" xmlns="http://www.w3.org/2000/svg">
<circle cx="75.3516" cy="75.2891" r="75" fill="white"/>
<path d="M115.638 38.8498L110.031 44.3882C109.08 45.3278 107.585 45.3279 106.634 44.3882C105.683 43.4485 105.683 41.9718 106.634 41.0322L112.241 35.4939C113.192 34.5541 114.687 34.5541 115.638 35.4939C116.589 36.4336 116.589 37.9101 115.638 38.8498Z" fill="#555A66"/>
<path d="M106.634 44.3885L115.638 35.4941C116.589 36.4339 116.589 37.9104 115.638 38.8501L110.031 44.3885C109.08 45.328 107.585 45.3282 106.634 44.3885Z" fill="#383838"/>
<path d="M112.205 55.1274L104.935 56.1344L101.334 55.933L95.1503 49.8251L94.7427 46.0663L95.7621 38.8844C95.9656 37.9447 96.7131 37.2063 97.6646 37.0051H104.459C105.275 36.8708 106.056 37.1059 106.633 37.6764L113.428 44.3883C114.006 44.9588 114.244 45.7306 114.108 46.5359V53.2478C113.904 54.188 113.157 54.9262 112.205 55.1274Z" fill="#E6F1FF"/>
<path d="M112.206 55.1272L104.935 56.1341L101.334 55.9327L98.1401 52.7782L110.031 41.0322L113.428 44.3882C114.006 44.9587 114.244 45.7305 114.108 46.5358V53.2477C113.904 54.1878 113.157 54.9259 112.206 55.1272Z" fill="#BFE1FF"/>
<path d="M101.844 65.9003L101.538 66.2025H94.7431L84.5508 56.1345V49.4224L84.8567 49.1202C86.9291 47.0731 88.0162 47.4088 94.7431 46.0664L104.935 56.1345C103.542 62.8128 103.916 63.8532 101.844 65.9003Z" fill="#A3D4FF"/>
<path d="M94.7427 66.2022L89.6465 61.1681L99.8388 51.1001L104.935 56.1341C103.542 62.8125 103.916 63.8529 101.844 65.9L101.538 66.2022H94.7427Z" fill="#8BC8E8"/>
<path d="M69.2617 67.8802L62.4669 61.1683C61.5279 60.2408 61.5279 58.7397 62.4669 57.8124C63.4059 56.8848 64.9255 56.8848 65.8643 57.8124L72.6591 64.5243C73.5981 65.4518 73.5981 66.9529 72.6591 67.8802C71.7203 68.8078 70.2007 68.8078 69.2617 67.8802Z" fill="#555A66"/>
<path d="M89.6465 88.0165L82.8517 81.3046C81.9127 80.377 81.9127 78.876 82.8517 77.9486C83.7907 77.021 85.3103 77.021 86.2491 77.9486L93.0439 84.6605C93.9829 85.5881 93.9829 87.0891 93.0439 88.0165C92.1051 88.944 90.5855 88.944 89.6465 88.0165Z" fill="#383838"/>
<path d="M68.0392 114.797C58.7642 117.382 48.8436 114.831 42.0828 108.152C35.322 101.474 32.7398 91.6745 35.3559 82.5126C35.7296 81.2709 37.0547 80.5662 38.3457 80.9018C39.6028 81.2709 40.3501 82.5461 40.0104 83.8214C37.8359 91.2717 39.9423 99.3261 45.4802 104.796C51.0181 110.267 59.1719 112.348 66.7142 110.2C68.0052 109.864 69.2962 110.602 69.6699 111.844C70.0096 113.119 69.2962 114.428 68.0392 114.797Z" fill="#33A0FF"/>
<path d="M58.39 106.139C54.7548 105.635 51.4594 103.991 48.8772 101.44C46.2952 98.8898 44.6304 95.6346 44.1209 92.0435C43.9508 90.7347 44.8682 89.56 46.1592 89.3585C47.484 89.1908 48.7074 90.0633 48.8771 91.3723C49.2847 93.9228 50.5078 96.2718 52.3086 98.0506C54.1094 99.8295 56.4874 101.038 59.0694 101.44C60.3604 101.641 61.2778 102.816 61.108 104.125C60.904 105.4 59.715 106.306 58.39 106.139Z" fill="#33A0FF"/>
<path d="M113.429 91.3721L108.332 86.3381L103.661 88.4357L104.935 82.9821L99.8388 77.9481C98.8998 77.0206 97.3803 77.0206 96.4414 77.9481L82.8517 91.3721C81.9127 92.2997 81.9127 93.8007 82.8517 94.7281L87.9479 99.7621L93.0441 98.084L91.3453 103.118L96.4414 108.152C97.3804 109.08 98.9 109.08 99.8388 108.152L113.429 94.7281C114.368 93.8007 114.368 92.2997 113.429 91.3721Z" fill="#0088FF"/>
<path d="M91.3457 103.119L108.333 86.3389L104.935 82.9829L87.9483 99.7626L91.3457 103.119Z" fill="#0053BF"/>
<path d="M72.66 51.1003L67.5638 46.0663L62.8924 48.1637L64.1665 42.7102L59.0703 37.6761C58.1313 36.7486 56.6117 36.7486 55.6729 37.6761L42.0832 51.1001C41.1442 52.0277 41.1442 53.5287 42.0832 54.4561L47.1793 59.4901L52.2755 57.8121L50.5767 62.8461L55.6729 67.8801C56.6119 68.8077 58.1314 68.8077 59.0703 67.8801L72.66 54.4561C73.599 53.5287 73.599 52.0278 72.66 51.1003Z" fill="#33A0FF"/>
<path d="M50.5756 62.8466L67.5625 46.0669L64.1651 42.7109L47.1782 59.4906L50.5756 62.8466Z" fill="#2864F0"/>
<path d="M58.3907 106.139C54.7555 105.636 51.4601 103.991 48.8779 101.44L52.3094 98.0508C54.1102 99.8296 56.4882 101.038 59.0703 101.44C60.3613 101.642 61.2787 102.816 61.1089 104.125C60.9047 105.4 59.7157 106.307 58.3907 106.139Z" fill="#0088FF"/>
<path d="M68.0394 114.797C58.7644 117.381 48.8438 114.831 42.083 108.152L45.4804 104.796C51.0183 110.267 59.1722 112.347 66.7144 110.199C68.0054 109.864 69.2964 110.602 69.6701 111.844C70.0098 113.119 69.2964 114.428 68.0394 114.797Z" fill="#0088FF"/>
<path d="M62.4672 91.3723L59.0698 94.7282C58.1186 95.6678 56.6237 95.668 55.6724 94.7282C54.7211 93.7885 54.7213 92.3118 55.6724 91.3723L59.0698 88.0163C60.0211 87.0766 61.5159 87.0766 62.4672 88.0163C63.4185 88.956 63.4185 90.4326 62.4672 91.3723Z" fill="#555A66"/>
<path d="M55.6719 94.7285L62.4667 88.0166C63.418 88.9563 63.418 90.4328 62.4667 91.3726L59.0693 94.7285C58.1183 95.6681 56.6234 95.6682 55.6719 94.7285Z" fill="#383838"/>
<path d="M84.5508 82.9821L82.852 84.6602C80.0323 87.4455 75.4797 87.4457 72.6596 84.6602L65.8648 77.9483C63.045 75.1628 63.0451 70.6655 65.8648 67.8802L67.5636 66.2021H74.3584L84.5508 76.2702V82.9821V82.9821Z" fill="#A3D4FF"/>
<path d="M72.6591 84.6603L69.2617 81.3044L79.4541 71.2363L84.5502 76.2704V82.9823L82.8515 84.6603C80.0317 87.4457 75.4791 87.4458 72.6591 84.6603Z" fill="#8BC8E8"/>
<path d="M84.5507 82.9814L101.538 66.2017L84.5507 49.422L67.5639 66.2017L84.5507 82.9814Z" fill="#E6F1FF"/>
<path d="M84.5512 82.9828L101.538 66.2031L93.0447 57.8133L76.0578 74.593L84.5512 82.9828Z" fill="#BFE1FF"/>
<path d="M72.6594 77.9486C66.1025 71.4716 55.4345 71.4716 48.8775 77.9486C47.9263 78.8881 47.9262 80.3648 48.8775 81.3045L69.262 101.44C70.2134 102.38 71.7083 102.38 72.6594 101.44C79.2165 94.9635 79.2165 84.4256 72.6594 77.9486Z" fill="#E6F1FF"/>
<path d="M72.6591 101.44C71.7079 102.38 70.213 102.38 69.2617 101.44L59.0693 91.3722L72.6591 77.9482C79.2162 84.4254 79.2162 94.9633 72.6591 101.44Z" fill="#BFE1FF"/>
</svg>
