<svg width="150" height="150" viewBox="0 0 150 150" fill="none" xmlns="http://www.w3.org/2000/svg">
<circle cx="75" cy="75" r="75" fill="white"/>
<g clip-path="url(#clip0)">
<path d="M58.1143 46.2361H75.2247V71.0738H58.1143V46.2361Z" fill="#E6F1FF"/>
<path d="M75.2246 46.2361H91.2311V71.0738H75.2246V46.2361Z" fill="#BFE1FF"/>
<path d="M102.617 73.845V74.6913C102.617 83.2058 99.729 91.438 94.4013 97.9606C91.0654 99.3048 87.2811 99.0558 84.194 97.0145C81.4555 95.222 78.3686 94.3256 75.2315 94.3256C72.2442 94.3256 69.1571 95.2222 66.518 97.0145C63.3314 99.1556 59.348 99.3048 55.9622 97.7612C50.6843 91.2883 47.8462 83.1559 47.8462 74.6913V73.845C47.8462 72.9488 48.2945 72.1519 49.0412 71.704L73.937 56.7665C74.3355 56.5174 74.7832 56.418 75.2315 56.418C75.6798 56.418 76.1278 56.5174 76.5261 56.7665L101.422 71.704C102.169 72.1521 102.617 72.9489 102.617 73.845V73.845Z" fill="#33A0FF"/>
<path d="M84.1944 97.0147C81.4559 95.2222 78.369 94.3258 75.2319 94.3258V56.418C75.6802 56.418 76.1282 56.5174 76.5265 56.7665L101.422 71.704C102.169 72.1519 102.617 72.9488 102.617 73.845V74.6913C102.617 83.2058 99.7292 91.438 94.4015 97.9606C91.0656 99.3049 87.2815 99.056 84.1944 97.0147Z" fill="#0088FF"/>
<path d="M117.522 108.765C117.024 110.01 115.53 110.658 114.285 110.11C113.339 109.711 112.393 109.214 111.497 108.616C107.762 106.176 102.866 106.176 99.1318 108.616C96.4432 110.409 93.3561 111.355 90.2691 111.355C87.2316 111.355 84.1445 110.409 81.4558 108.616C79.5637 107.371 77.4227 106.774 75.2318 106.774C73.1905 106.774 71.099 107.371 69.2568 108.616C66.5802 110.401 63.5212 111.347 60.4603 111.355C57.3719 111.363 54.2817 110.417 51.5808 108.616C47.8465 106.176 42.9503 106.176 39.2159 108.616C38.2699 109.263 37.2244 109.811 36.1289 110.209C34.8343 110.757 33.3903 110.11 32.8926 108.815C32.3945 107.521 33.0418 106.077 34.3364 105.579C35.0831 105.28 35.7802 104.931 36.4774 104.483C41.8551 100.898 48.9417 100.898 54.3194 104.483C58.0537 106.923 62.7839 106.923 66.5183 104.483C69.1574 102.691 72.2445 101.794 75.2318 101.794C78.3687 101.794 81.4558 102.691 84.1943 104.483C87.9287 106.923 92.6589 106.923 96.3932 104.483C101.771 100.898 108.858 100.898 114.235 104.483C114.883 104.882 115.53 105.23 116.177 105.529C117.472 106.027 118.069 107.471 117.522 108.765Z" fill="#E6F1FF"/>
<path d="M117.522 98.8072C117.024 100.052 115.53 100.699 114.285 100.152C113.339 99.7532 112.393 99.2555 111.497 98.658C107.762 96.2178 102.866 96.2178 99.1318 98.658C96.4432 100.45 93.3561 101.347 90.2691 101.347C87.2316 101.347 84.1445 100.45 81.4558 98.658C79.5637 97.4132 77.4227 96.8153 75.2318 96.8153C73.1905 96.8153 71.099 97.4132 69.2568 98.658C63.8792 102.243 56.9585 102.243 51.5808 98.658C47.8465 96.2178 42.9503 96.2178 39.2159 98.658C38.2699 99.3049 37.2244 99.8529 36.1289 100.251C34.8343 100.749 33.3903 100.152 32.8926 98.857C32.3945 97.5624 33.0418 96.1184 34.3364 95.6203C35.0831 95.3216 35.7802 94.973 36.4774 94.5251C41.8551 90.9399 48.9417 90.9399 54.3194 94.5251C58.0537 96.9649 62.7839 96.9649 66.5183 94.5251C69.1574 92.7326 72.2445 91.8362 75.2318 91.8362C78.3687 91.8362 81.4558 92.7328 84.1943 94.5251C87.9287 96.9649 92.6589 96.9649 96.3932 94.5251C101.771 90.9399 108.858 90.9399 114.235 94.5251C114.883 94.9236 115.53 95.2718 116.177 95.5705C117.472 96.0686 118.069 97.5126 117.522 98.8072Z" fill="#E6F1FF"/>
<path d="M117.522 108.765C117.024 110.01 115.53 110.658 114.285 110.11C113.339 109.711 112.393 109.214 111.497 108.616C107.762 106.176 102.866 106.176 99.1319 108.616C96.4433 110.409 93.3562 111.355 90.2692 111.355C87.2317 111.355 84.1446 110.409 81.4559 108.616C79.5638 107.371 77.4228 106.774 75.2319 106.774V101.794C78.3688 101.794 81.4559 102.691 84.1944 104.483C87.9288 106.923 92.659 106.923 96.3934 104.483C101.771 100.898 108.858 100.898 114.235 104.483C114.883 104.882 115.53 105.23 116.177 105.529C117.472 106.027 118.069 107.471 117.522 108.765Z" fill="#BFE1FF"/>
<path d="M117.522 98.8072C117.024 100.052 115.53 100.699 114.285 100.152C113.339 99.7532 112.393 99.2554 111.497 98.6579C107.762 96.2178 102.866 96.2178 99.1319 98.6579C96.4433 100.45 93.3562 101.347 90.2692 101.347C87.2317 101.347 84.1446 100.45 81.4559 98.6579C79.5638 97.4132 77.4228 96.8153 75.2319 96.8153V91.8362C78.3688 91.8362 81.4559 92.7328 84.1944 94.5251C87.9288 96.9649 92.659 96.9649 96.3934 94.5251C101.771 90.9399 108.858 90.9399 114.235 94.5251C114.883 94.9236 115.53 95.2718 116.177 95.5705C117.472 96.0686 118.069 97.5126 117.522 98.8072Z" fill="#BFE1FF"/>
<path d="M54.2505 44.2686C54.2505 42.6117 55.5936 41.2686 57.2505 41.2686H77.9843V48.9958H57.2505C55.5936 48.9958 54.2505 47.6527 54.2505 45.9958V44.2686Z" fill="#E6F1FF"/>
<path d="M75.2246 41.2686H93.1986C94.8555 41.2686 96.1986 42.6117 96.1986 44.2686V45.9958C96.1986 47.6527 94.8555 48.9958 93.1986 48.9958H75.2246V41.2686Z" fill="#BFE1FF"/>
</g>
<path d="M66.3936 40.405C66.3936 38.7482 67.7367 37.405 69.3936 37.405H77.9845V41.2687H66.3936V40.405Z" fill="#E6F1FF"/>
<path d="M75.2246 37.405H81.6077C83.2646 37.405 84.6077 38.7482 84.6077 40.405V41.2687H75.2246V37.405Z" fill="#BFE1FF"/>
<defs>
<clipPath id="clip0">
<rect x="32.7246" y="26.366" width="85" height="85" rx="3" fill="white"/>
</clipPath>
</defs>
</svg>
