<svg width="151" height="151" viewBox="0 0 151 151" fill="none" xmlns="http://www.w3.org/2000/svg">
<circle cx="75.1211" cy="75.2891" r="75" fill="white"/>
<path d="M75.3865 114.289H48.4738C46.5261 114.289 44.9326 112.715 44.9326 110.791V39.7868C44.9326 37.8631 46.5261 36.2891 48.4738 36.2891H75.3865V114.289Z" fill="#E6F1FF"/>
<path d="M102.299 114.289H75.3867V36.2891H86.3643L105.841 55.5267V110.791C105.841 112.715 104.247 114.289 102.299 114.289Z" fill="#BFE1FF"/>
<path d="M105.841 55.5267H89.9054C87.9578 55.5267 86.3643 53.9527 86.3643 52.029V36.2891L105.841 55.5267Z" fill="#8BC8E8"/>
<path d="M75.3867 101.697H43.1622C41.2146 101.697 39.6211 100.123 39.6211 98.1994V68.4685C39.6211 66.5447 41.2146 64.9707 43.1622 64.9707H75.3867V101.697Z" fill="#FF2B16"/>
<path d="M107.08 101.697H75.3867V64.9707H107.08C109.028 64.9707 110.621 66.5447 110.621 68.4685V98.1994C110.621 100.123 109.028 101.697 107.08 101.697Z" fill="#EB230F"/>
<path d="M55.9307 76.6854H59.9087C60.872 76.6854 61.7843 76.7931 62.6457 77.0084C63.5183 77.2237 64.2777 77.5751 64.9237 78.0624C65.5697 78.5384 66.0797 79.1617 66.4537 79.9324C66.839 80.7031 67.0317 81.6381 67.0317 82.7374C67.0317 83.7121 66.8447 84.5734 66.4707 85.3214C66.108 86.0581 65.615 86.6814 64.9917 87.1914C64.3683 87.6901 63.6487 88.0697 62.8327 88.3304C62.0167 88.5911 61.161 88.7214 60.2657 88.7214H55.9307V76.6854ZM58.5827 86.2734H59.9597C60.5717 86.2734 61.1383 86.2111 61.6597 86.0864C62.1923 85.9617 62.6513 85.7577 63.0367 85.4744C63.422 85.1797 63.7223 84.8001 63.9377 84.3354C64.1643 83.8594 64.2777 83.2814 64.2777 82.6014C64.2777 82.0121 64.1643 81.5021 63.9377 81.0714C63.7223 80.6294 63.4277 80.2667 63.0537 79.9834C62.6797 79.7001 62.2377 79.4904 61.7277 79.3544C61.229 79.2071 60.702 79.1334 60.1467 79.1334H58.5827V86.2734Z" fill="white"/>
<path d="M68.1841 82.7034C68.1841 81.7401 68.3427 80.8674 68.6601 80.0854C68.9887 79.3034 69.4421 78.6404 70.0201 78.0964C70.5981 77.5411 71.2837 77.1161 72.0771 76.8214C72.8704 76.5267 73.7374 76.3794 74.6781 76.3794C75.6187 76.3794 76.4857 76.5267 77.2791 76.8214C78.0724 77.1161 78.7581 77.5411 79.3361 78.0964C79.9141 78.6404 80.3617 79.3034 80.6791 80.0854C81.0077 80.8674 81.1721 81.7401 81.1721 82.7034C81.1721 83.6667 81.0077 84.5394 80.6791 85.3214C80.3617 86.1034 79.9141 86.7721 79.3361 87.3274C78.7581 87.8714 78.0724 88.2907 77.2791 88.5854C76.4857 88.8801 75.6187 89.0274 74.6781 89.0274C73.7374 89.0274 72.8704 88.8801 72.0771 88.5854C71.2837 88.2907 70.5981 87.8714 70.0201 87.3274C69.4421 86.7721 68.9887 86.1034 68.6601 85.3214C68.3427 84.5394 68.1841 83.6667 68.1841 82.7034ZM70.9381 82.7034C70.9381 83.2701 71.0231 83.7914 71.1931 84.2674C71.3744 84.7321 71.6294 85.1401 71.9581 85.4914C72.2867 85.8314 72.6777 86.0977 73.1311 86.2904C73.5957 86.4831 74.1114 86.5794 74.6781 86.5794C75.2447 86.5794 75.7547 86.4831 76.2081 86.2904C76.6727 86.0977 77.0694 85.8314 77.3981 85.4914C77.7267 85.1401 77.9761 84.7321 78.1461 84.2674C78.3274 83.7914 78.4181 83.2701 78.4181 82.7034C78.4181 82.1481 78.3274 81.6324 78.1461 81.1564C77.9761 80.6804 77.7267 80.2724 77.3981 79.9324C77.0694 79.5811 76.6727 79.3091 76.2081 79.1164C75.7547 78.9237 75.2447 78.8274 74.6781 78.8274C74.1114 78.8274 73.5957 78.9237 73.1311 79.1164C72.6777 79.3091 72.2867 79.5811 71.9581 79.9324C71.6294 80.2724 71.3744 80.6804 71.1931 81.1564C71.0231 81.6324 70.9381 82.1481 70.9381 82.7034Z" fill="white"/>
<path d="M90.8456 79.8134C90.5849 79.4961 90.2619 79.2524 89.8766 79.0824C89.5026 78.9124 89.0663 78.8274 88.5676 78.8274C88.0689 78.8274 87.6043 78.9237 87.1736 79.1164C86.7543 79.3091 86.3859 79.5811 86.0686 79.9324C85.7626 80.2724 85.5189 80.6804 85.3376 81.1564C85.1676 81.6324 85.0826 82.1481 85.0826 82.7034C85.0826 83.2701 85.1676 83.7914 85.3376 84.2674C85.5189 84.7321 85.7626 85.1401 86.0686 85.4914C86.3746 85.8314 86.7316 86.0977 87.1396 86.2904C87.5589 86.4831 88.0066 86.5794 88.4826 86.5794C89.0266 86.5794 89.5083 86.4661 89.9276 86.2394C90.3469 86.0127 90.6926 85.6954 90.9646 85.2874L93.1746 86.9364C92.6646 87.6504 92.0186 88.1774 91.2366 88.5174C90.4546 88.8574 89.6499 89.0274 88.8226 89.0274C87.8819 89.0274 87.0149 88.8801 86.2216 88.5854C85.4283 88.2907 84.7426 87.8714 84.1646 87.3274C83.5866 86.7721 83.1333 86.1034 82.8046 85.3214C82.4873 84.5394 82.3286 83.6667 82.3286 82.7034C82.3286 81.7401 82.4873 80.8674 82.8046 80.0854C83.1333 79.3034 83.5866 78.6404 84.1646 78.0964C84.7426 77.5411 85.4283 77.1161 86.2216 76.8214C87.0149 76.5267 87.8819 76.3794 88.8226 76.3794C89.1626 76.3794 89.5139 76.4134 89.8766 76.4814C90.2506 76.5381 90.6133 76.6344 90.9646 76.7704C91.3273 76.9064 91.6729 77.0877 92.0016 77.3144C92.3303 77.5411 92.6249 77.8187 92.8856 78.1474L90.8456 79.8134Z" fill="white"/>
</svg>
