<svg width="151" height="151" viewBox="0 0 151 151" fill="none" xmlns="http://www.w3.org/2000/svg">
<circle cx="75.9463" cy="75.2891" r="75" fill="white"/>
<path d="M64.1671 100.317H55.251C54.0211 100.317 53.0244 99.3206 53.0244 98.0908C53.0244 96.861 54.0211 95.8643 55.251 95.8643H64.1671C65.3969 95.8643 66.3936 96.861 66.3936 98.0908C66.3936 99.3206 65.3969 100.317 64.1671 100.317Z" fill="#28415E"/>
<path d="M55.2509 107.628H40.1729C38.943 107.628 37.9463 106.631 37.9463 105.401C37.9463 104.172 38.943 103.175 40.1729 103.175H53.0243V59.6172C53.0243 58.3874 54.021 57.3906 55.2509 57.3906C56.4801 57.3906 57.4774 58.3874 57.4774 59.6172V105.401C57.4774 106.631 56.4801 107.628 55.2509 107.628Z" fill="#416191"/>
<path d="M74.1313 90.1172C73.7544 90.1172 73.3729 90.0215 73.0227 89.8203C71.957 89.2068 71.5899 87.846 72.2034 86.7796L86.4348 62.0486C87.0477 60.9828 88.4092 60.6158 89.4749 61.2293C90.5406 61.8427 90.9077 63.2042 90.2942 64.2699L76.0628 89.001C75.6511 89.7165 74.9019 90.1172 74.1313 90.1172V90.1172Z" fill="#7E9BCC"/>
<path d="M89.4753 61.2292C88.5702 60.7079 87.4535 60.8964 86.7617 61.6171V70.4097L90.2946 64.2699C90.9081 63.2036 90.5411 61.8427 89.4753 61.2292V61.2292Z" fill="#5877A6"/>
<path d="M92.2951 67.4978C91.9165 67.4978 91.5326 67.401 91.1813 67.1975L83.4596 62.7246C82.395 62.1083 82.0326 60.7457 82.649 59.6817C83.2654 58.6177 84.6274 58.2547 85.6914 58.8711L93.413 63.3439C94.4776 63.9603 94.84 65.3229 94.2237 66.3869C93.8108 67.0995 93.0634 67.4978 92.2951 67.4978V67.4978Z" fill="#2D5078"/>
<path d="M93.4132 63.3438L86.7607 59.4902V64.6368L91.1814 67.1968C91.5328 67.4003 91.9166 67.4972 92.2953 67.4972C93.0635 67.4972 93.8109 67.0988 94.2238 66.3862C94.8401 65.3222 94.4778 63.9602 93.4132 63.3438V63.3438Z" fill="#28415E"/>
<path d="M111.641 71.3477H100.494C99.2643 71.3477 98.2676 72.345 98.2676 73.5742V81.442H111.641V71.3477Z" fill="#28415E"/>
<path d="M113.869 80.8682V52.9341C113.869 44.3074 106.87 37.2891 98.2682 37.2891H78.0969C76.972 37.2891 76.0234 38.1281 75.8866 39.2443L70.0587 86.7379L62.8345 92.1327C62.2721 92.553 61.9404 93.2141 61.9404 93.9162V104.353C61.9404 105.583 62.9372 106.58 64.167 106.58H111.72C112.95 106.58 113.946 105.583 113.946 104.353V81.4417C113.946 81.2428 113.918 81.0515 113.869 80.8682ZM86.7411 81.4417V85.7261H74.6695L80.0666 41.7422H98.2682C104.415 41.7422 109.416 46.763 109.416 52.9341V79.2151H88.9677C87.7378 79.2151 86.7411 80.2119 86.7411 81.4417Z" fill="#33A0FF"/>
<path d="M113.869 80.8682V52.9341C113.869 44.3074 106.87 37.2891 98.2681 37.2891H86.7607V41.7422H98.2681C104.415 41.7422 109.416 46.763 109.416 52.9341V79.2151H88.9676C87.834 79.2151 86.8999 80.0634 86.7613 81.1593V106.58H111.72C112.95 106.58 113.946 105.583 113.946 104.353V81.4417C113.946 81.2428 113.918 81.0515 113.869 80.8682V80.8682Z" fill="#0088FF"/>
<path d="M111.641 104.353C111.641 100.648 108.648 97.644 104.955 97.644C101.261 97.644 98.2676 100.648 98.2676 104.353C98.2676 108.059 101.261 111.063 104.955 111.063C108.648 111.063 111.641 108.059 111.641 104.353V104.353Z" fill="#7E9BCC"/>
<path d="M104.955 113.289C100.04 113.289 96.041 109.281 96.041 104.353C96.041 99.4259 100.04 95.4175 104.955 95.4175C109.869 95.4175 113.869 99.4259 113.869 104.353C113.868 109.281 109.869 113.289 104.955 113.289V113.289ZM104.955 99.8706C102.495 99.8706 100.494 101.881 100.494 104.353C100.494 106.825 102.495 108.836 104.955 108.836C107.414 108.836 109.415 106.825 109.415 104.353C109.415 101.881 107.414 99.8706 104.955 99.8706V99.8706Z" fill="#2D5078"/>
<path d="M77.5409 104.353C77.5409 100.648 74.5472 97.644 70.8542 97.644C67.1607 97.644 64.167 100.648 64.167 104.353C64.167 108.059 67.1607 111.063 70.8542 111.063C74.5472 111.063 77.5409 108.059 77.5409 104.353V104.353Z" fill="#AECEF2"/>
<path d="M70.8542 113.289C65.939 113.289 61.9404 109.281 61.9404 104.353C61.9404 99.4259 65.939 95.4175 70.8542 95.4175C75.7689 95.4175 79.7674 99.4259 79.7674 104.353C79.7674 109.281 75.7689 113.289 70.8542 113.289ZM70.8542 99.8706C68.3946 99.8706 66.3936 101.881 66.3936 104.353C66.3936 106.825 68.3946 108.836 70.8542 108.836C73.3133 108.836 75.3143 106.825 75.3143 104.353C75.3143 101.881 73.3139 99.8706 70.8542 99.8706V99.8706Z" fill="#5877A6"/>
</svg>
